<svg xmlns="http://www.w3.org/2000/svg" width="1000" height="1000">
<line x1="380.006" y1="-35.0559" x2="377.388" y2="-29.4835" stroke="rgb(120,120,120)" />
<circle cx="380.006" cy="-35.0559" r="2" fill="rgb(100, 100, 100)" />
<line x1="377.388" y1="-29.4835" x2="382.535" y2="-22.9724" stroke="rgb(120,120,120)" />
<circle cx="377.388" cy="-29.4835" r="2" fill="rgb(100, 100, 100)" />
<line x1="382.535" y1="-22.9724" x2="389.305" y2="-18.1815" stroke="rgb(120,120,120)" />
<circle cx="382.535" cy="-22.9724" r="2" fill="rgb(100, 100, 100)" />
<line x1="389.305" y1="-18.1815" x2="397.271" y2="-12.5083" stroke="rgb(120,120,120)" />
<circle cx="389.305" cy="-18.1815" r="2" fill="rgb(100, 100, 100)" />
<line x1="397.271" y1="-12.5083" x2="405.312" y2="-5.55879" stroke="rgb(120,120,120)" />
<circle cx="397.271" cy="-12.5083" r="2" fill="rgb(100, 100, 100)" />
<line x1="405.312" y1="-5.55879" x2="413.253" y2="-0.048157" stroke="rgb(120,120,120)" />
<circle cx="405.312" cy="-5.55879" r="2" fill="rgb(100, 100, 100)" />
<line x1="413.253" y1="-0.048157" x2="420.159" y2="5.40856" stroke="rgb(120,120,120)" />
<circle cx="413.253" cy="-0.048157" r="2" fill="rgb(100, 100, 100)" />
<line x1="420.159" y1="5.40856" x2="427.357" y2="13.0574" stroke="rgb(120,120,120)" />
<circle cx="420.159" cy="5.40856" r="2" fill="rgb(100, 100, 100)" />
<line x1="427.357" y1="13.0574" x2="434.117" y2="20.6878" stroke="rgb(120,120,120)" />
<circle cx="427.357" cy="13.0574" r="2" fill="rgb(100, 100, 100)" />
<line x1="434.117" y1="20.6878" x2="439.753" y2="27.8993" stroke="rgb(120,120,120)" />
<circle cx="434.117" cy="20.6878" r="2" fill="rgb(100, 100, 100)" />
<line x1="439.753" y1="27.8993" x2="444.821" y2="36.0164" stroke="rgb(120,120,120)" />
<circle cx="439.753" cy="27.8993" r="2" fill="rgb(100, 100, 100)" />
<line x1="444.821" y1="36.0164" x2="449.513" y2="43.0302" stroke="rgb(120,120,120)" />
<circle cx="444.821" cy="36.0164" r="2" fill="rgb(100, 100, 100)" />
<line x1="449.513" y1="43.0302" x2="453.449" y2="50.8917" stroke="rgb(120,120,120)" />
<circle cx="449.513" cy="43.0302" r="2" fill="rgb(100, 100, 100)" />
<line x1="453.449" y1="50.8917" x2="457.136" y2="59.0971" stroke="rgb(120,120,120)" />
<circle cx="453.449" cy="50.8917" r="2" fill="rgb(100, 100, 100)" />
<line x1="457.136" y1="59.0971" x2="467.177" y2="52.1758" stroke="rgb(120,120,120)" />
<circle cx="457.136" cy="59.0971" r="2" fill="rgb(100, 100, 100)" />
<line x1="467.177" y1="52.1758" x2="478.633" y2="47.5341" stroke="rgb(120,120,120)" />
<circle cx="467.177" cy="52.1758" r="2" fill="rgb(100, 100, 100)" />
<line x1="478.633" y1="47.5341" x2="489.298" y2="48.4135" stroke="rgb(120,120,120)" />
<circle cx="478.633" cy="47.5341" r="2" fill="rgb(100, 100, 100)" />
<line x1="489.298" y1="48.4135" x2="498.636" y2="52.8382" stroke="rgb(120,120,120)" />
<circle cx="489.298" cy="48.4135" r="2" fill="rgb(100, 100, 100)" />
<line x1="498.636" y1="52.8382" x2="505.177" y2="58.1492" stroke="rgb(120,120,120)" />
<circle cx="498.636" cy="52.8382" r="2" fill="rgb(100, 100, 100)" />
<line x1="505.177" y1="58.1492" x2="509.352" y2="65.1186" stroke="rgb(120,120,120)" />
<circle cx="505.177" cy="58.1492" r="2" fill="rgb(100, 100, 100)" />
<line x1="509.352" y1="65.1186" x2="513.058" y2="73.9404" stroke="rgb(120,120,120)" />
<circle cx="509.352" cy="65.1186" r="2" fill="rgb(100, 100, 100)" />
<line x1="513.058" y1="73.9404" x2="516.075" y2="82.9941" stroke="rgb(120,120,120)" />
<circle cx="513.058" cy="73.9404" r="2" fill="rgb(100, 100, 100)" />
<line x1="516.075" y1="82.9941" x2="517.594" y2="89.7275" stroke="rgb(120,120,120)" />
<circle cx="516.075" cy="82.9941" r="2" fill="rgb(100, 100, 100)" />
<line x1="517.594" y1="89.7275" x2="521.868" y2="97.9391" stroke="rgb(120,120,120)" />
<circle cx="517.594" cy="89.7275" r="2" fill="rgb(100, 100, 100)" />
<line x1="521.868" y1="97.9391" x2="524.766" y2="105.211" stroke="rgb(120,120,120)" />
<circle cx="521.868" cy="97.9391" r="2" fill="rgb(100, 100, 100)" />
<line x1="524.766" y1="105.211" x2="520.538" y2="110.542" stroke="rgb(120,120,120)" />
<circle cx="524.766" cy="105.211" r="2" fill="rgb(100, 100, 100)" />
<line x1="520.538" y1="110.542" x2="530.971" y2="101.083" stroke="rgb(120,120,120)" />
<circle cx="520.538" cy="110.542" r="2" fill="rgb(100, 100, 100)" />
<line x1="530.971" y1="101.083" x2="534" y2="91.9987" stroke="rgb(120,120,120)" />
<circle cx="530.971" cy="101.083" r="2" fill="rgb(100, 100, 100)" />
<line x1="534" y1="91.9987" x2="536.493" y2="82.8172" stroke="rgb(120,120,120)" />
<circle cx="534" cy="91.9987" r="2" fill="rgb(100, 100, 100)" />
<line x1="536.493" y1="82.8172" x2="537.047" y2="72.7612" stroke="rgb(120,120,120)" />
<circle cx="536.493" cy="82.8172" r="2" fill="rgb(100, 100, 100)" />
<line x1="537.047" y1="72.7612" x2="537.956" y2="62.0719" stroke="rgb(120,120,120)" />
<circle cx="537.047" cy="72.7612" r="2" fill="rgb(100, 100, 100)" />
<line x1="537.956" y1="62.0719" x2="538.975" y2="51.4965" stroke="rgb(120,120,120)" />
<circle cx="537.956" cy="62.0719" r="2" fill="rgb(100, 100, 100)" />
<line x1="538.975" y1="51.4965" x2="540.546" y2="40.5711" stroke="rgb(120,120,120)" />
<circle cx="538.975" cy="51.4965" r="2" fill="rgb(100, 100, 100)" />
<line x1="540.546" y1="40.5711" x2="543.532" y2="29.7027" stroke="rgb(120,120,120)" />
<circle cx="540.546" cy="40.5711" r="2" fill="rgb(100, 100, 100)" />
<line x1="543.532" y1="29.7027" x2="547.488" y2="19.2726" stroke="rgb(120,120,120)" />
<circle cx="543.532" cy="29.7027" r="2" fill="rgb(100, 100, 100)" />
<line x1="547.488" y1="19.2726" x2="552.614" y2="9.53835" stroke="rgb(120,120,120)" />
<circle cx="547.488" cy="19.2726" r="2" fill="rgb(100, 100, 100)" />
<line x1="552.614" y1="9.53835" x2="559.744" y2="0.350901" stroke="rgb(120,120,120)" />
<circle cx="552.614" cy="9.53835" r="2" fill="rgb(100, 100, 100)" />
<line x1="559.744" y1="0.350901" x2="568.599" y2="-7.57363" stroke="rgb(120,120,120)" />
<circle cx="559.744" cy="0.350901" r="2" fill="rgb(100, 100, 100)" />
<line x1="568.599" y1="-7.57363" x2="581.472" y2="-6.19565" stroke="rgb(120,120,120)" />
<circle cx="568.599" cy="-7.57363" r="2" fill="rgb(100, 100, 100)" />
<line x1="581.472" y1="-6.19565" x2="593.028" y2="-1.00988" stroke="rgb(120,120,120)" />
<circle cx="581.472" cy="-6.19565" r="2" fill="rgb(100, 100, 100)" />
<line x1="593.028" y1="-1.00988" x2="604.398" y2="4.97703" stroke="rgb(120,120,120)" />
<circle cx="593.028" cy="-1.00988" r="2" fill="rgb(100, 100, 100)" />
<line x1="604.398" y1="4.97703" x2="616.09" y2="10.4316" stroke="rgb(120,120,120)" />
<circle cx="604.398" cy="4.97703" r="2" fill="rgb(100, 100, 100)" />
<line x1="616.09" y1="10.4316" x2="625.571" y2="19.5294" stroke="rgb(120,120,120)" />
<circle cx="616.09" cy="10.4316" r="2" fill="rgb(100, 100, 100)" />
<line x1="625.571" y1="19.5294" x2="632.786" y2="8.28703" stroke="rgb(120,120,120)" />
<circle cx="625.571" cy="19.5294" r="2" fill="rgb(100, 100, 100)" />
<line x1="632.786" y1="8.28703" x2="640" y2="-4.3613" stroke="rgb(120,120,120)" />
<circle cx="632.786" cy="8.28703" r="2" fill="rgb(100, 100, 100)" />
<line x1="640" y1="-4.3613" x2="650.462" y2="-16.2278" stroke="rgb(120,120,120)" />
<circle cx="640" cy="-4.3613" r="2" fill="rgb(100, 100, 100)" />
<line x1="650.462" y1="-16.2278" x2="666.135" y2="-29.9905" stroke="rgb(120,120,120)" />
<circle cx="650.462" cy="-16.2278" r="2" fill="rgb(100, 100, 100)" />
<line x1="666.135" y1="-29.9905" x2="653.923" y2="-41.3035" stroke="rgb(120,120,120)" />
<circle cx="666.135" cy="-29.9905" r="2" fill="rgb(100, 100, 100)" />
<line x1="653.923" y1="-41.3035" x2="648.552" y2="-56.068" stroke="rgb(120,120,120)" />
<circle cx="653.923" cy="-41.3035" r="2" fill="rgb(100, 100, 100)" />
<line x1="648.552" y1="-56.068" x2="646.514" y2="-72.8133" stroke="rgb(120,120,120)" />
<circle cx="648.552" cy="-56.068" r="2" fill="rgb(100, 100, 100)" />
<line x1="646.514" y1="-72.8133" x2="645.67" y2="-89.1967" stroke="rgb(120,120,120)" />
<circle cx="646.514" cy="-72.8133" r="2" fill="rgb(100, 100, 100)" />
<line x1="645.67" y1="-89.1967" x2="641.032" y2="-103.115" stroke="rgb(120,120,120)" />
<circle cx="645.67" cy="-89.1967" r="2" fill="rgb(100, 100, 100)" />
<line x1="641.032" y1="-103.115" x2="635.769" y2="-93.3091" stroke="rgb(120,120,120)" />
<circle cx="641.032" cy="-103.115" r="2" fill="rgb(100, 100, 100)" />
<line x1="635.769" y1="-93.3091" x2="631.012" y2="-81.7934" stroke="rgb(120,120,120)" />
<circle cx="635.769" cy="-93.3091" r="2" fill="rgb(100, 100, 100)" />
<line x1="631.012" y1="-81.7934" x2="625.904" y2="-68.757" stroke="rgb(120,120,120)" />
<circle cx="631.012" cy="-81.7934" r="2" fill="rgb(100, 100, 100)" />
<line x1="625.904" y1="-68.757" x2="618.773" y2="-59.6941" stroke="rgb(120,120,120)" />
<circle cx="625.904" cy="-68.757" r="2" fill="rgb(100, 100, 100)" />
<line x1="618.773" y1="-59.6941" x2="610.352" y2="-52.4158" stroke="rgb(120,120,120)" />
<circle cx="618.773" cy="-59.6941" r="2" fill="rgb(100, 100, 100)" />
<line x1="610.352" y1="-52.4158" x2="600.436" y2="-47.7523" stroke="rgb(120,120,120)" />
<circle cx="610.352" cy="-52.4158" r="2" fill="rgb(100, 100, 100)" />
<line x1="600.436" y1="-47.7523" x2="590.916" y2="-41.9898" stroke="rgb(120,120,120)" />
<circle cx="600.436" cy="-47.7523" r="2" fill="rgb(100, 100, 100)" />
<line x1="590.916" y1="-41.9898" x2="580.359" y2="-38.7879" stroke="rgb(120,120,120)" />
<circle cx="590.916" cy="-41.9898" r="2" fill="rgb(100, 100, 100)" />
<line x1="580.359" y1="-38.7879" x2="571.494" y2="-46.9806" stroke="rgb(120,120,120)" />
<circle cx="580.359" cy="-38.7879" r="2" fill="rgb(100, 100, 100)" />
<line x1="571.494" y1="-46.9806" x2="563.965" y2="-56.7844" stroke="rgb(120,120,120)" />
<circle cx="571.494" cy="-46.9806" r="2" fill="rgb(100, 100, 100)" />
<line x1="563.965" y1="-56.7844" x2="557.811" y2="-67.178" stroke="rgb(120,120,120)" />
<circle cx="563.965" cy="-56.7844" r="2" fill="rgb(100, 100, 100)" />
<line x1="557.811" y1="-67.178" x2="552.972" y2="-77.5109" stroke="rgb(120,120,120)" />
<circle cx="557.811" cy="-67.178" r="2" fill="rgb(100, 100, 100)" />
<line x1="552.972" y1="-77.5109" x2="548.371" y2="-88.6998" stroke="rgb(120,120,120)" />
<circle cx="552.972" cy="-77.5109" r="2" fill="rgb(100, 100, 100)" />
<line x1="548.371" y1="-88.6998" x2="544.085" y2="-98.8779" stroke="rgb(120,120,120)" />
<circle cx="548.371" cy="-88.6998" r="2" fill="rgb(100, 100, 100)" />
<line x1="544.085" y1="-98.8779" x2="540.954" y2="-109.256" stroke="rgb(120,120,120)" />
<circle cx="544.085" cy="-98.8779" r="2" fill="rgb(100, 100, 100)" />
<line x1="540.954" y1="-109.256" x2="538.887" y2="-120.172" stroke="rgb(120,120,120)" />
<circle cx="540.954" cy="-109.256" r="2" fill="rgb(100, 100, 100)" />
<line x1="538.887" y1="-120.172" x2="537.753" y2="-131.452" stroke="rgb(120,120,120)" />
<circle cx="538.887" cy="-120.172" r="2" fill="rgb(100, 100, 100)" />
<line x1="537.753" y1="-131.452" x2="535.899" y2="-141.371" stroke="rgb(120,120,120)" />
<circle cx="537.753" cy="-131.452" r="2" fill="rgb(100, 100, 100)" />
<line x1="535.899" y1="-141.371" x2="535.833" y2="-152.338" stroke="rgb(120,120,120)" />
<circle cx="535.899" cy="-141.371" r="2" fill="rgb(100, 100, 100)" />
<line x1="535.833" y1="-152.338" x2="534.75" y2="-160.326" stroke="rgb(120,120,120)" />
<circle cx="535.833" cy="-152.338" r="2" fill="rgb(100, 100, 100)" />
<line x1="534.75" y1="-160.326" x2="532.544" y2="-167.436" stroke="rgb(120,120,120)" />
<circle cx="534.75" cy="-160.326" r="2" fill="rgb(100, 100, 100)" />
<line x1="532.544" y1="-167.436" x2="525.603" y2="-175.588" stroke="rgb(120,120,120)" />
<circle cx="532.544" cy="-167.436" r="2" fill="rgb(100, 100, 100)" />
<line x1="525.603" y1="-175.588" x2="523.416" y2="-172.768" stroke="rgb(120,120,120)" />
<circle cx="525.603" cy="-175.588" r="2" fill="rgb(100, 100, 100)" />
<line x1="523.416" y1="-172.768" x2="518.687" y2="-170.323" stroke="rgb(120,120,120)" />
<circle cx="523.416" cy="-172.768" r="2" fill="rgb(100, 100, 100)" />
<line x1="518.687" y1="-170.323" x2="512.926" y2="-168.559" stroke="rgb(120,120,120)" />
<circle cx="518.687" cy="-170.323" r="2" fill="rgb(100, 100, 100)" />
<line x1="512.926" y1="-168.559" x2="506.544" y2="-169.762" stroke="rgb(120,120,120)" />
<circle cx="512.926" cy="-168.559" r="2" fill="rgb(100, 100, 100)" />
<line x1="506.544" y1="-169.762" x2="499.152" y2="-169.908" stroke="rgb(120,120,120)" />
<circle cx="506.544" cy="-169.762" r="2" fill="rgb(100, 100, 100)" />
<line x1="499.152" y1="-169.908" x2="491.474" y2="-167.874" stroke="rgb(120,120,120)" />
<circle cx="499.152" cy="-169.908" r="2" fill="rgb(100, 100, 100)" />
<line x1="491.474" y1="-167.874" x2="484.632" y2="-164.168" stroke="rgb(120,120,120)" />
<circle cx="491.474" cy="-167.874" r="2" fill="rgb(100, 100, 100)" />
<line x1="484.632" y1="-164.168" x2="478.555" y2="-159.726" stroke="rgb(120,120,120)" />
<circle cx="484.632" cy="-164.168" r="2" fill="rgb(100, 100, 100)" />
<line x1="478.555" y1="-159.726" x2="472.692" y2="-154.544" stroke="rgb(120,120,120)" />
<circle cx="478.555" cy="-159.726" r="2" fill="rgb(100, 100, 100)" />
<line x1="472.692" y1="-154.544" x2="466.303" y2="-147.459" stroke="rgb(120,120,120)" />
<circle cx="472.692" cy="-154.544" r="2" fill="rgb(100, 100, 100)" />
<line x1="466.303" y1="-147.459" x2="461.885" y2="-140.784" stroke="rgb(120,120,120)" />
<circle cx="466.303" cy="-147.459" r="2" fill="rgb(100, 100, 100)" />
<line x1="461.885" y1="-140.784" x2="457.234" y2="-133.589" stroke="rgb(120,120,120)" />
<circle cx="461.885" cy="-140.784" r="2" fill="rgb(100, 100, 100)" />
<line x1="457.234" y1="-133.589" x2="452.101" y2="-125.28" stroke="rgb(120,120,120)" />
<circle cx="457.234" cy="-133.589" r="2" fill="rgb(100, 100, 100)" />
<line x1="452.101" y1="-125.28" x2="445.488" y2="-119.521" stroke="rgb(120,120,120)" />
<circle cx="452.101" cy="-125.28" r="2" fill="rgb(100, 100, 100)" />
<line x1="445.488" y1="-119.521" x2="436.271" y2="-115.397" stroke="rgb(120,120,120)" />
<circle cx="445.488" cy="-119.521" r="2" fill="rgb(100, 100, 100)" />
<line x1="436.271" y1="-115.397" x2="427.723" y2="-110.686" stroke="rgb(120,120,120)" />
<circle cx="436.271" cy="-115.397" r="2" fill="rgb(100, 100, 100)" />
<line x1="427.723" y1="-110.686" x2="419.249" y2="-104.262" stroke="rgb(120,120,120)" />
<circle cx="427.723" cy="-110.686" r="2" fill="rgb(100, 100, 100)" />
<line x1="419.249" y1="-104.262" x2="412.288" y2="-97.3611" stroke="rgb(120,120,120)" />
<circle cx="419.249" cy="-104.262" r="2" fill="rgb(100, 100, 100)" />
<line x1="412.288" y1="-97.3611" x2="407.082" y2="-89.403" stroke="rgb(120,120,120)" />
<circle cx="412.288" cy="-97.3611" r="2" fill="rgb(100, 100, 100)" />
<line x1="407.082" y1="-89.403" x2="402.67" y2="-79.6339" stroke="rgb(120,120,120)" />
<circle cx="407.082" cy="-89.403" r="2" fill="rgb(100, 100, 100)" />
<line x1="402.67" y1="-79.6339" x2="400.114" y2="-69.4994" stroke="rgb(120,120,120)" />
<circle cx="402.67" cy="-79.6339" r="2" fill="rgb(100, 100, 100)" />
<line x1="400.114" y1="-69.4994" x2="395.365" y2="-61.1672" stroke="rgb(120,120,120)" />
<circle cx="400.114" cy="-69.4994" r="2" fill="rgb(100, 100, 100)" />
<line x1="395.365" y1="-61.1672" x2="388.737" y2="-54.6258" stroke="rgb(120,120,120)" />
<circle cx="395.365" cy="-61.1672" r="2" fill="rgb(100, 100, 100)" />
<line x1="388.737" y1="-54.6258" x2="380.593" y2="-50.7388" stroke="rgb(120,120,120)" />
<circle cx="388.737" cy="-54.6258" r="2" fill="rgb(100, 100, 100)" />
<line x1="380.593" y1="-50.7388" x2="375.473" y2="-43.4216" stroke="rgb(120,120,120)" />
<circle cx="380.593" cy="-50.7388" r="2" fill="rgb(100, 100, 100)" />
<line x1="375.473" y1="-43.4216" x2="380.006" y2="-35.0559" stroke="rgb(120,120,120)" />
<circle cx="375.473" cy="-43.4216" r="2" fill="rgb(100, 100, 100)" />
<line x1="400.114" y1="-69.4994" x2="396.893" y2="-60.2061" stroke="rgb(149, 202, 135)" />
<line x1="396.893" y1="-60.2061" x2="392.141" y2="-52.7183" stroke="rgb(149, 202, 135)" />
<circle cx="396.893" cy="-60.2061" r="2" fill="rgb(250, 65, 65)" />
<line x1="392.141" y1="-52.7183" x2="387.314" y2="-48.9445" stroke="rgb(149, 202, 135)" />
<circle cx="392.141" cy="-52.7183" r="2" fill="rgb(250, 65, 65)" />
<line x1="387.314" y1="-48.9445" x2="384.782" y2="-43.2853" stroke="rgb(149, 202, 135)" />
<circle cx="387.314" cy="-48.9445" r="2" fill="rgb(250, 65, 65)" />
<line x1="384.782" y1="-43.2853" x2="380.006" y2="-35.0559" stroke="rgb(149, 202, 135)" />
<circle cx="384.782" cy="-43.2853" r="2" fill="rgb(250, 65, 65)" />
<line x1="380.006" y1="-35.0559" x2="383.397" y2="-29.9169" stroke="rgb(149, 202, 135)" />
<circle cx="380.006" cy="-35.0559" r="2" fill="rgb(250, 65, 65)" />
<line x1="383.397" y1="-29.9169" x2="387.509" y2="-25.2525" stroke="rgb(149, 202, 135)" />
<circle cx="383.397" cy="-29.9169" r="2" fill="rgb(250, 65, 65)" />
<line x1="387.509" y1="-25.2525" x2="392.211" y2="-20.1473" stroke="rgb(149, 202, 135)" />
<circle cx="387.509" cy="-25.2525" r="2" fill="rgb(250, 65, 65)" />
<line x1="392.211" y1="-20.1473" x2="398.583" y2="-13.5766" stroke="rgb(149, 202, 135)" />
<circle cx="392.211" cy="-20.1473" r="2" fill="rgb(250, 65, 65)" />
<line x1="398.583" y1="-13.5766" x2="405.312" y2="-5.55879" stroke="rgb(149, 202, 135)" />
<circle cx="398.583" cy="-13.5766" r="2" fill="rgb(250, 65, 65)" />
<line x1="513.058" y1="73.9404" x2="516.218" y2="82.9713" stroke="rgb(149, 202, 135)" />
<line x1="516.218" y1="82.9713" x2="517.925" y2="89.6833" stroke="rgb(149, 202, 135)" />
<circle cx="516.218" cy="82.9713" r="2" fill="rgb(250, 65, 65)" />
<line x1="517.925" y1="89.6833" x2="521.612" y2="97.9147" stroke="rgb(149, 202, 135)" />
<circle cx="517.925" cy="89.6833" r="2" fill="rgb(250, 65, 65)" />
<line x1="521.612" y1="97.9147" x2="523.609" y2="104.471" stroke="rgb(149, 202, 135)" />
<circle cx="521.612" cy="97.9147" r="2" fill="rgb(250, 65, 65)" />
<line x1="523.609" y1="104.471" x2="520.538" y2="110.542" stroke="rgb(149, 202, 135)" />
<circle cx="523.609" cy="104.471" r="2" fill="rgb(250, 65, 65)" />
<line x1="520.538" y1="110.542" x2="532.658" y2="103.37" stroke="rgb(149, 202, 135)" />
<circle cx="520.538" cy="110.542" r="2" fill="rgb(250, 65, 65)" />
<line x1="532.658" y1="103.37" x2="534.373" y2="92.2754" stroke="rgb(149, 202, 135)" />
<circle cx="532.658" cy="103.37" r="2" fill="rgb(250, 65, 65)" />
<line x1="534.373" y1="92.2754" x2="536.05" y2="82.5669" stroke="rgb(149, 202, 135)" />
<circle cx="534.373" cy="92.2754" r="2" fill="rgb(250, 65, 65)" />
<line x1="536.05" y1="82.5669" x2="536.851" y2="72.6761" stroke="rgb(149, 202, 135)" />
<circle cx="536.05" cy="82.5669" r="2" fill="rgb(250, 65, 65)" />
<line x1="536.851" y1="72.6761" x2="537.956" y2="62.0719" stroke="rgb(149, 202, 135)" />
<circle cx="536.851" cy="72.6761" r="2" fill="rgb(250, 65, 65)" />
<line x1="616.09" y1="10.4316" x2="628.006" y2="21.4275" stroke="rgb(149, 202, 135)" />
<line x1="628.006" y1="21.4275" x2="636.595" y2="11.2977" stroke="rgb(149, 202, 135)" />
<circle cx="628.006" cy="21.4275" r="2" fill="rgb(250, 65, 65)" />
<line x1="636.595" y1="11.2977" x2="644.53" y2="-0.442177" stroke="rgb(149, 202, 135)" />
<circle cx="636.595" cy="11.2977" r="2" fill="rgb(250, 65, 65)" />
<line x1="644.53" y1="-0.442177" x2="654.93" y2="-12.398" stroke="rgb(149, 202, 135)" />
<circle cx="644.53" cy="-0.442177" r="2" fill="rgb(250, 65, 65)" />
<line x1="654.93" y1="-12.398" x2="666.135" y2="-29.9905" stroke="rgb(149, 202, 135)" />
<circle cx="654.93" cy="-12.398" r="2" fill="rgb(250, 65, 65)" />
<line x1="666.135" y1="-29.9905" x2="657.569" y2="-44.2641" stroke="rgb(149, 202, 135)" />
<circle cx="666.135" cy="-29.9905" r="2" fill="rgb(250, 65, 65)" />
<line x1="657.569" y1="-44.2641" x2="653.04" y2="-58.5864" stroke="rgb(149, 202, 135)" />
<circle cx="657.569" cy="-44.2641" r="2" fill="rgb(250, 65, 65)" />
<line x1="653.04" y1="-58.5864" x2="650.694" y2="-74.4918" stroke="rgb(149, 202, 135)" />
<circle cx="653.04" cy="-58.5864" r="2" fill="rgb(250, 65, 65)" />
<line x1="650.694" y1="-74.4918" x2="648.548" y2="-90.1145" stroke="rgb(149, 202, 135)" />
<circle cx="650.694" cy="-74.4918" r="2" fill="rgb(250, 65, 65)" />
<line x1="648.548" y1="-90.1145" x2="641.032" y2="-103.115" stroke="rgb(149, 202, 135)" />
<circle cx="648.548" cy="-90.1145" r="2" fill="rgb(250, 65, 65)" />
<line x1="537.753" y1="-131.452" x2="533.758" y2="-140.799" stroke="rgb(149, 202, 135)" />
<line x1="533.758" y1="-140.799" x2="532.771" y2="-151.219" stroke="rgb(149, 202, 135)" />
<circle cx="533.758" cy="-140.799" r="2" fill="rgb(250, 65, 65)" />
<line x1="532.771" y1="-151.219" x2="531.626" y2="-158.845" stroke="rgb(149, 202, 135)" />
<circle cx="532.771" cy="-151.219" r="2" fill="rgb(250, 65, 65)" />
<line x1="531.626" y1="-158.845" x2="530.347" y2="-165.99" stroke="rgb(149, 202, 135)" />
<circle cx="531.626" cy="-158.845" r="2" fill="rgb(250, 65, 65)" />
<line x1="530.347" y1="-165.99" x2="525.603" y2="-175.588" stroke="rgb(149, 202, 135)" />
<circle cx="530.347" cy="-165.99" r="2" fill="rgb(250, 65, 65)" />
<line x1="525.603" y1="-175.588" x2="524.169" y2="-172.32" stroke="rgb(149, 202, 135)" />
<circle cx="525.603" cy="-175.588" r="2" fill="rgb(250, 65, 65)" />
<line x1="524.169" y1="-172.32" x2="519.836" y2="-169.085" stroke="rgb(149, 202, 135)" />
<circle cx="524.169" cy="-172.32" r="2" fill="rgb(250, 65, 65)" />
<line x1="519.836" y1="-169.085" x2="513.931" y2="-166.993" stroke="rgb(149, 202, 135)" />
<circle cx="519.836" cy="-169.085" r="2" fill="rgb(250, 65, 65)" />
<line x1="513.931" y1="-166.993" x2="506.942" y2="-168.592" stroke="rgb(149, 202, 135)" />
<circle cx="513.931" cy="-166.993" r="2" fill="rgb(250, 65, 65)" />
<line x1="506.942" y1="-168.592" x2="499.152" y2="-169.908" stroke="rgb(149, 202, 135)" />
<circle cx="506.942" cy="-168.592" r="2" fill="rgb(250, 65, 65)" />
</svg>