<svg xmlns="http://www.w3.org/2000/svg" width="1000" height="1000">
<line x1="350.936" y1="-17.5684" x2="368.606" y2="-19.6213" stroke="rgb(120,120,120)" />
<circle cx="350.936" cy="-17.5684" r="2" fill="rgb(100, 100, 100)" />
<line x1="368.606" y1="-19.6213" x2="379.776" y2="-23.3733" stroke="rgb(120,120,120)" />
<circle cx="368.606" cy="-19.6213" r="2" fill="rgb(100, 100, 100)" />
<line x1="379.776" y1="-23.3733" x2="391.077" y2="-20.9011" stroke="rgb(120,120,120)" />
<circle cx="379.776" cy="-23.3733" r="2" fill="rgb(100, 100, 100)" />
<line x1="391.077" y1="-20.9011" x2="402.03" y2="-20.7863" stroke="rgb(120,120,120)" />
<circle cx="391.077" cy="-20.9011" r="2" fill="rgb(100, 100, 100)" />
<line x1="402.03" y1="-20.7863" x2="412.119" y2="-18.0052" stroke="rgb(120,120,120)" />
<circle cx="402.03" cy="-20.7863" r="2" fill="rgb(100, 100, 100)" />
<line x1="412.119" y1="-18.0052" x2="423.509" y2="-15.1402" stroke="rgb(120,120,120)" />
<circle cx="412.119" cy="-18.0052" r="2" fill="rgb(100, 100, 100)" />
<line x1="423.509" y1="-15.1402" x2="433.038" y2="-11.8265" stroke="rgb(120,120,120)" />
<circle cx="423.509" cy="-15.1402" r="2" fill="rgb(100, 100, 100)" />
<line x1="433.038" y1="-11.8265" x2="439.208" y2="-4.98131" stroke="rgb(120,120,120)" />
<circle cx="433.038" cy="-11.8265" r="2" fill="rgb(100, 100, 100)" />
<line x1="439.208" y1="-4.98131" x2="447.67" y2="-1.13593" stroke="rgb(120,120,120)" />
<circle cx="439.208" cy="-4.98131" r="2" fill="rgb(100, 100, 100)" />
<line x1="447.67" y1="-1.13593" x2="453.125" y2="5.03606" stroke="rgb(120,120,120)" />
<circle cx="447.67" cy="-1.13593" r="2" fill="rgb(100, 100, 100)" />
<line x1="453.125" y1="5.03606" x2="457.503" y2="13.1627" stroke="rgb(120,120,120)" />
<circle cx="453.125" cy="5.03606" r="2" fill="rgb(100, 100, 100)" />
<line x1="457.503" y1="13.1627" x2="462.641" y2="21.6029" stroke="rgb(120,120,120)" />
<circle cx="457.503" cy="13.1627" r="2" fill="rgb(100, 100, 100)" />
<line x1="462.641" y1="21.6029" x2="468.921" y2="29.18" stroke="rgb(120,120,120)" />
<circle cx="462.641" cy="21.6029" r="2" fill="rgb(100, 100, 100)" />
<line x1="468.921" y1="29.18" x2="475.44" y2="36.7001" stroke="rgb(120,120,120)" />
<circle cx="468.921" cy="29.18" r="2" fill="rgb(100, 100, 100)" />
<line x1="475.44" y1="36.7001" x2="478.77" y2="50.8819" stroke="rgb(120,120,120)" />
<circle cx="475.44" cy="36.7001" r="2" fill="rgb(100, 100, 100)" />
<line x1="478.77" y1="50.8819" x2="483.742" y2="64.7451" stroke="rgb(120,120,120)" />
<circle cx="478.77" cy="50.8819" r="2" fill="rgb(100, 100, 100)" />
<line x1="483.742" y1="64.7451" x2="488.65" y2="78.4918" stroke="rgb(120,120,120)" />
<circle cx="483.742" cy="64.7451" r="2" fill="rgb(100, 100, 100)" />
<line x1="488.65" y1="78.4918" x2="495.036" y2="91.6643" stroke="rgb(120,120,120)" />
<circle cx="488.65" cy="78.4918" r="2" fill="rgb(100, 100, 100)" />
<line x1="495.036" y1="91.6643" x2="501.066" y2="104.844" stroke="rgb(120,120,120)" />
<circle cx="495.036" cy="91.6643" r="2" fill="rgb(100, 100, 100)" />
<line x1="501.066" y1="104.844" x2="506.423" y2="118.571" stroke="rgb(120,120,120)" />
<circle cx="501.066" cy="104.844" r="2" fill="rgb(100, 100, 100)" />
<line x1="506.423" y1="118.571" x2="507.188" y2="131.523" stroke="rgb(120,120,120)" />
<circle cx="506.423" cy="118.571" r="2" fill="rgb(100, 100, 100)" />
<line x1="507.188" y1="131.523" x2="509.321" y2="142.201" stroke="rgb(120,120,120)" />
<circle cx="507.188" cy="131.523" r="2" fill="rgb(100, 100, 100)" />
<line x1="509.321" y1="142.201" x2="500.11" y2="149.908" stroke="rgb(120,120,120)" />
<circle cx="509.321" cy="142.201" r="2" fill="rgb(100, 100, 100)" />
<line x1="500.11" y1="149.908" x2="490.2" y2="155.988" stroke="rgb(120,120,120)" />
<circle cx="500.11" cy="149.908" r="2" fill="rgb(100, 100, 100)" />
<line x1="490.2" y1="155.988" x2="480.763" y2="162.406" stroke="rgb(120,120,120)" />
<circle cx="490.2" cy="155.988" r="2" fill="rgb(100, 100, 100)" />
<line x1="480.763" y1="162.406" x2="471.524" y2="170.405" stroke="rgb(120,120,120)" />
<circle cx="480.763" cy="162.406" r="2" fill="rgb(100, 100, 100)" />
<line x1="471.524" y1="170.405" x2="479.934" y2="176.985" stroke="rgb(120,120,120)" />
<circle cx="471.524" cy="170.405" r="2" fill="rgb(100, 100, 100)" />
<line x1="479.934" y1="176.985" x2="489.555" y2="181.09" stroke="rgb(120,120,120)" />
<circle cx="479.934" cy="176.985" r="2" fill="rgb(100, 100, 100)" />
<line x1="489.555" y1="181.09" x2="499.184" y2="185.854" stroke="rgb(120,120,120)" />
<circle cx="489.555" cy="181.09" r="2" fill="rgb(100, 100, 100)" />
<line x1="499.184" y1="185.854" x2="509.418" y2="192.707" stroke="rgb(120,120,120)" />
<circle cx="499.184" cy="185.854" r="2" fill="rgb(100, 100, 100)" />
<line x1="509.418" y1="192.707" x2="519.862" y2="196.666" stroke="rgb(120,120,120)" />
<circle cx="509.418" cy="192.707" r="2" fill="rgb(100, 100, 100)" />
<line x1="519.862" y1="196.666" x2="521.384" y2="192.365" stroke="rgb(120,120,120)" />
<circle cx="519.862" cy="196.666" r="2" fill="rgb(100, 100, 100)" />
<line x1="521.384" y1="192.365" x2="527.208" y2="189.53" stroke="rgb(120,120,120)" />
<circle cx="521.384" cy="192.365" r="2" fill="rgb(100, 100, 100)" />
<line x1="527.208" y1="189.53" x2="536.519" y2="190.637" stroke="rgb(120,120,120)" />
<circle cx="527.208" cy="189.53" r="2" fill="rgb(100, 100, 100)" />
<line x1="536.519" y1="190.637" x2="542.589" y2="180.29" stroke="rgb(120,120,120)" />
<circle cx="536.519" cy="190.637" r="2" fill="rgb(100, 100, 100)" />
<line x1="542.589" y1="180.29" x2="548.43" y2="171.53" stroke="rgb(120,120,120)" />
<circle cx="542.589" cy="180.29" r="2" fill="rgb(100, 100, 100)" />
<line x1="548.43" y1="171.53" x2="558.429" y2="166.903" stroke="rgb(120,120,120)" />
<circle cx="548.43" cy="171.53" r="2" fill="rgb(100, 100, 100)" />
<line x1="558.429" y1="166.903" x2="566.332" y2="175.117" stroke="rgb(120,120,120)" />
<circle cx="558.429" cy="166.903" r="2" fill="rgb(100, 100, 100)" />
<line x1="566.332" y1="175.117" x2="575.837" y2="180.84" stroke="rgb(120,120,120)" />
<circle cx="566.332" cy="175.117" r="2" fill="rgb(100, 100, 100)" />
<line x1="575.837" y1="180.84" x2="586.031" y2="185.701" stroke="rgb(120,120,120)" />
<circle cx="575.837" cy="180.84" r="2" fill="rgb(100, 100, 100)" />
<line x1="586.031" y1="185.701" x2="595.55" y2="190.765" stroke="rgb(120,120,120)" />
<circle cx="586.031" cy="185.701" r="2" fill="rgb(100, 100, 100)" />
<line x1="595.55" y1="190.765" x2="603.957" y2="197.984" stroke="rgb(120,120,120)" />
<circle cx="595.55" cy="190.765" r="2" fill="rgb(100, 100, 100)" />
<line x1="603.957" y1="197.984" x2="612.558" y2="205.208" stroke="rgb(120,120,120)" />
<circle cx="603.957" cy="197.984" r="2" fill="rgb(100, 100, 100)" />
<line x1="612.558" y1="205.208" x2="621.374" y2="212.526" stroke="rgb(120,120,120)" />
<circle cx="612.558" cy="205.208" r="2" fill="rgb(100, 100, 100)" />
<line x1="621.374" y1="212.526" x2="629.101" y2="224.598" stroke="rgb(120,120,120)" />
<circle cx="621.374" cy="212.526" r="2" fill="rgb(100, 100, 100)" />
<line x1="629.101" y1="224.598" x2="635.581" y2="237.526" stroke="rgb(120,120,120)" />
<circle cx="629.101" cy="224.598" r="2" fill="rgb(100, 100, 100)" />
<line x1="635.581" y1="237.526" x2="643.284" y2="249.788" stroke="rgb(120,120,120)" />
<circle cx="635.581" cy="237.526" r="2" fill="rgb(100, 100, 100)" />
<line x1="643.284" y1="249.788" x2="652.862" y2="260.512" stroke="rgb(120,120,120)" />
<circle cx="643.284" cy="249.788" r="2" fill="rgb(100, 100, 100)" />
<line x1="652.862" y1="260.512" x2="662.088" y2="254.778" stroke="rgb(120,120,120)" />
<circle cx="652.862" cy="260.512" r="2" fill="rgb(100, 100, 100)" />
<line x1="662.088" y1="254.778" x2="666.418" y2="243.42" stroke="rgb(120,120,120)" />
<circle cx="662.088" cy="254.778" r="2" fill="rgb(100, 100, 100)" />
<line x1="666.418" y1="243.42" x2="667.871" y2="230.985" stroke="rgb(120,120,120)" />
<circle cx="666.418" cy="243.42" r="2" fill="rgb(100, 100, 100)" />
<line x1="667.871" y1="230.985" x2="667.665" y2="218.703" stroke="rgb(120,120,120)" />
<circle cx="667.871" cy="230.985" r="2" fill="rgb(100, 100, 100)" />
<line x1="667.665" y1="218.703" x2="667.78" y2="205.982" stroke="rgb(120,120,120)" />
<circle cx="667.665" cy="218.703" r="2" fill="rgb(100, 100, 100)" />
<line x1="667.78" y1="205.982" x2="666.202" y2="193.803" stroke="rgb(120,120,120)" />
<circle cx="667.78" cy="205.982" r="2" fill="rgb(100, 100, 100)" />
<line x1="666.202" y1="193.803" x2="662.994" y2="182.007" stroke="rgb(120,120,120)" />
<circle cx="666.202" cy="193.803" r="2" fill="rgb(100, 100, 100)" />
<line x1="662.994" y1="182.007" x2="659.023" y2="170.475" stroke="rgb(120,120,120)" />
<circle cx="662.994" cy="182.007" r="2" fill="rgb(100, 100, 100)" />
<line x1="659.023" y1="170.475" x2="654.249" y2="159.477" stroke="rgb(120,120,120)" />
<circle cx="659.023" cy="170.475" r="2" fill="rgb(100, 100, 100)" />
<line x1="654.249" y1="159.477" x2="653.067" y2="149.347" stroke="rgb(120,120,120)" />
<circle cx="654.249" cy="159.477" r="2" fill="rgb(100, 100, 100)" />
<line x1="653.067" y1="149.347" x2="659.069" y2="138.966" stroke="rgb(120,120,120)" />
<circle cx="653.067" cy="149.347" r="2" fill="rgb(100, 100, 100)" />
<line x1="659.069" y1="138.966" x2="665.301" y2="132.937" stroke="rgb(120,120,120)" />
<circle cx="659.069" cy="138.966" r="2" fill="rgb(100, 100, 100)" />
<line x1="665.301" y1="132.937" x2="673.054" y2="126.808" stroke="rgb(120,120,120)" />
<circle cx="665.301" cy="132.937" r="2" fill="rgb(100, 100, 100)" />
<line x1="673.054" y1="126.808" x2="677.419" y2="124.382" stroke="rgb(120,120,120)" />
<circle cx="673.054" cy="126.808" r="2" fill="rgb(100, 100, 100)" />
<line x1="677.419" y1="124.382" x2="669.517" y2="113.026" stroke="rgb(120,120,120)" />
<circle cx="677.419" cy="124.382" r="2" fill="rgb(100, 100, 100)" />
<line x1="669.517" y1="113.026" x2="656.929" y2="104.672" stroke="rgb(120,120,120)" />
<circle cx="669.517" cy="113.026" r="2" fill="rgb(100, 100, 100)" />
<line x1="656.929" y1="104.672" x2="648.638" y2="103.56" stroke="rgb(120,120,120)" />
<circle cx="656.929" cy="104.672" r="2" fill="rgb(100, 100, 100)" />
<line x1="648.638" y1="103.56" x2="639.667" y2="104.603" stroke="rgb(120,120,120)" />
<circle cx="648.638" cy="103.56" r="2" fill="rgb(100, 100, 100)" />
<line x1="639.667" y1="104.603" x2="631.732" y2="106.176" stroke="rgb(120,120,120)" />
<circle cx="639.667" cy="104.603" r="2" fill="rgb(100, 100, 100)" />
<line x1="631.732" y1="106.176" x2="623.167" y2="104.383" stroke="rgb(120,120,120)" />
<circle cx="631.732" cy="106.176" r="2" fill="rgb(100, 100, 100)" />
<line x1="623.167" y1="104.383" x2="613.578" y2="102.603" stroke="rgb(120,120,120)" />
<circle cx="623.167" cy="104.383" r="2" fill="rgb(100, 100, 100)" />
<line x1="613.578" y1="102.603" x2="603.409" y2="100.618" stroke="rgb(120,120,120)" />
<circle cx="613.578" cy="102.603" r="2" fill="rgb(100, 100, 100)" />
<line x1="603.409" y1="100.618" x2="596.926" y2="90.268" stroke="rgb(120,120,120)" />
<circle cx="603.409" cy="100.618" r="2" fill="rgb(100, 100, 100)" />
<line x1="596.926" y1="90.268" x2="593.591" y2="79.2694" stroke="rgb(120,120,120)" />
<circle cx="596.926" cy="90.268" r="2" fill="rgb(100, 100, 100)" />
<line x1="593.591" y1="79.2694" x2="592.342" y2="68.9239" stroke="rgb(120,120,120)" />
<circle cx="593.591" cy="79.2694" r="2" fill="rgb(100, 100, 100)" />
<line x1="592.342" y1="68.9239" x2="592.795" y2="60.45" stroke="rgb(120,120,120)" />
<circle cx="592.342" cy="68.9239" r="2" fill="rgb(100, 100, 100)" />
<line x1="592.795" y1="60.45" x2="590.092" y2="49.7381" stroke="rgb(120,120,120)" />
<circle cx="592.795" cy="60.45" r="2" fill="rgb(100, 100, 100)" />
<line x1="590.092" y1="49.7381" x2="585.393" y2="40.152" stroke="rgb(120,120,120)" />
<circle cx="590.092" cy="49.7381" r="2" fill="rgb(100, 100, 100)" />
<line x1="585.393" y1="40.152" x2="581.092" y2="30.3803" stroke="rgb(120,120,120)" />
<circle cx="585.393" cy="40.152" r="2" fill="rgb(100, 100, 100)" />
<line x1="581.092" y1="30.3803" x2="575.874" y2="20.3348" stroke="rgb(120,120,120)" />
<circle cx="581.092" cy="30.3803" r="2" fill="rgb(100, 100, 100)" />
<line x1="575.874" y1="20.3348" x2="570.204" y2="10.3152" stroke="rgb(120,120,120)" />
<circle cx="575.874" cy="20.3348" r="2" fill="rgb(100, 100, 100)" />
<line x1="570.204" y1="10.3152" x2="564.119" y2="0.103128" stroke="rgb(120,120,120)" />
<circle cx="570.204" cy="10.3152" r="2" fill="rgb(100, 100, 100)" />
<line x1="564.119" y1="0.103128" x2="557.301" y2="-10.2599" stroke="rgb(120,120,120)" />
<circle cx="564.119" cy="0.103128" r="2" fill="rgb(100, 100, 100)" />
<line x1="557.301" y1="-10.2599" x2="550.204" y2="-20.3444" stroke="rgb(120,120,120)" />
<circle cx="557.301" cy="-10.2599" r="2" fill="rgb(100, 100, 100)" />
<line x1="550.204" y1="-20.3444" x2="543.53" y2="-30.7665" stroke="rgb(120,120,120)" />
<circle cx="550.204" cy="-20.3444" r="2" fill="rgb(100, 100, 100)" />
<line x1="543.53" y1="-30.7665" x2="536.667" y2="-41.148" stroke="rgb(120,120,120)" />
<circle cx="543.53" cy="-30.7665" r="2" fill="rgb(100, 100, 100)" />
<line x1="536.667" y1="-41.148" x2="529.217" y2="-50.8041" stroke="rgb(120,120,120)" />
<circle cx="536.667" cy="-41.148" r="2" fill="rgb(100, 100, 100)" />
<line x1="529.217" y1="-50.8041" x2="521.641" y2="-60.5294" stroke="rgb(120,120,120)" />
<circle cx="529.217" cy="-50.8041" r="2" fill="rgb(100, 100, 100)" />
<line x1="521.641" y1="-60.5294" x2="515.318" y2="-70.5506" stroke="rgb(120,120,120)" />
<circle cx="521.641" cy="-60.5294" r="2" fill="rgb(100, 100, 100)" />
<line x1="515.318" y1="-70.5506" x2="509.397" y2="-79.4596" stroke="rgb(120,120,120)" />
<circle cx="515.318" cy="-70.5506" r="2" fill="rgb(100, 100, 100)" />
<line x1="509.397" y1="-79.4596" x2="508.493" y2="-89.8524" stroke="rgb(120,120,120)" />
<circle cx="509.397" cy="-79.4596" r="2" fill="rgb(100, 100, 100)" />
<line x1="508.493" y1="-89.8524" x2="481.891" y2="-88.582" stroke="rgb(120,120,120)" />
<circle cx="508.493" cy="-89.8524" r="2" fill="rgb(100, 100, 100)" />
<line x1="481.891" y1="-88.582" x2="462.151" y2="-89.267" stroke="rgb(120,120,120)" />
<circle cx="481.891" cy="-88.582" r="2" fill="rgb(100, 100, 100)" />
<line x1="462.151" y1="-89.267" x2="443.377" y2="-88.5285" stroke="rgb(120,120,120)" />
<circle cx="462.151" cy="-89.267" r="2" fill="rgb(100, 100, 100)" />
<line x1="443.377" y1="-88.5285" x2="424.331" y2="-85.7456" stroke="rgb(120,120,120)" />
<circle cx="443.377" cy="-88.5285" r="2" fill="rgb(100, 100, 100)" />
<line x1="424.331" y1="-85.7456" x2="406.047" y2="-81.806" stroke="rgb(120,120,120)" />
<circle cx="424.331" cy="-85.7456" r="2" fill="rgb(100, 100, 100)" />
<line x1="406.047" y1="-81.806" x2="389.602" y2="-77.8067" stroke="rgb(120,120,120)" />
<circle cx="406.047" cy="-81.806" r="2" fill="rgb(100, 100, 100)" />
<line x1="389.602" y1="-77.8067" x2="375.266" y2="-70.2183" stroke="rgb(120,120,120)" />
<circle cx="389.602" cy="-77.8067" r="2" fill="rgb(100, 100, 100)" />
<line x1="375.266" y1="-70.2183" x2="370.791" y2="-59.4852" stroke="rgb(120,120,120)" />
<circle cx="375.266" cy="-70.2183" r="2" fill="rgb(100, 100, 100)" />
<line x1="370.791" y1="-59.4852" x2="362.825" y2="-46.4993" stroke="rgb(120,120,120)" />
<circle cx="370.791" cy="-59.4852" r="2" fill="rgb(100, 100, 100)" />
<line x1="362.825" y1="-46.4993" x2="358.284" y2="-32.7023" stroke="rgb(120,120,120)" />
<circle cx="362.825" cy="-46.4993" r="2" fill="rgb(100, 100, 100)" />
<line x1="358.284" y1="-32.7023" x2="350.936" y2="-17.5684" stroke="rgb(120,120,120)" />
<circle cx="358.284" cy="-32.7023" r="2" fill="rgb(100, 100, 100)" />
<line x1="389.602" y1="-77.8067" x2="372.095" y2="-71.5709" stroke="rgb(149, 202, 135)" />
<line x1="372.095" y1="-71.5709" x2="364.561" y2="-61.9036" stroke="rgb(149, 202, 135)" />
<circle cx="372.095" cy="-71.5709" r="2" fill="rgb(250, 65, 65)" />
<line x1="364.561" y1="-61.9036" x2="355.681" y2="-48.485" stroke="rgb(149, 202, 135)" />
<circle cx="364.561" cy="-61.9036" r="2" fill="rgb(250, 65, 65)" />
<line x1="355.681" y1="-48.485" x2="352.18" y2="-34.3458" stroke="rgb(149, 202, 135)" />
<circle cx="355.681" cy="-48.485" r="2" fill="rgb(250, 65, 65)" />
<line x1="352.18" y1="-34.3458" x2="350.936" y2="-17.5684" stroke="rgb(149, 202, 135)" />
<circle cx="352.18" cy="-34.3458" r="2" fill="rgb(250, 65, 65)" />
<line x1="350.936" y1="-17.5684" x2="368.116" y2="-12.955" stroke="rgb(149, 202, 135)" />
<circle cx="350.936" cy="-17.5684" r="2" fill="rgb(250, 65, 65)" />
<line x1="368.116" y1="-12.955" x2="380.332" y2="-16.4212" stroke="rgb(149, 202, 135)" />
<circle cx="368.116" cy="-12.955" r="2" fill="rgb(250, 65, 65)" />
<line x1="380.332" y1="-16.4212" x2="391.139" y2="-15.0974" stroke="rgb(149, 202, 135)" />
<circle cx="380.332" cy="-16.4212" r="2" fill="rgb(250, 65, 65)" />
<line x1="391.139" y1="-15.0974" x2="402.131" y2="-17.7448" stroke="rgb(149, 202, 135)" />
<circle cx="391.139" cy="-15.0974" r="2" fill="rgb(250, 65, 65)" />
<line x1="402.131" y1="-17.7448" x2="412.119" y2="-18.0052" stroke="rgb(149, 202, 135)" />
<circle cx="402.131" cy="-17.7448" r="2" fill="rgb(250, 65, 65)" />
<line x1="471.524" y1="170.405" x2="480.186" y2="176.483" stroke="rgb(149, 202, 135)" />
<line x1="480.186" y1="176.483" x2="490.629" y2="179.158" stroke="rgb(149, 202, 135)" />
<circle cx="480.186" cy="176.483" r="2" fill="rgb(250, 65, 65)" />
<line x1="490.629" y1="179.158" x2="499.986" y2="184.441" stroke="rgb(149, 202, 135)" />
<circle cx="490.629" cy="179.158" r="2" fill="rgb(250, 65, 65)" />
<line x1="499.986" y1="184.441" x2="509.619" y2="192.212" stroke="rgb(149, 202, 135)" />
<circle cx="499.986" cy="184.441" r="2" fill="rgb(250, 65, 65)" />
<line x1="509.619" y1="192.212" x2="519.862" y2="196.666" stroke="rgb(149, 202, 135)" />
<circle cx="509.619" cy="192.212" r="2" fill="rgb(250, 65, 65)" />
<line x1="519.862" y1="196.666" x2="521.176" y2="192.297" stroke="rgb(149, 202, 135)" />
<circle cx="519.862" cy="196.666" r="2" fill="rgb(250, 65, 65)" />
<line x1="521.176" y1="192.297" x2="526.694" y2="189.036" stroke="rgb(149, 202, 135)" />
<circle cx="521.176" cy="192.297" r="2" fill="rgb(250, 65, 65)" />
<line x1="526.694" y1="189.036" x2="536.093" y2="189.57" stroke="rgb(149, 202, 135)" />
<circle cx="526.694" cy="189.036" r="2" fill="rgb(250, 65, 65)" />
<line x1="536.093" y1="189.57" x2="542.38" y2="180.004" stroke="rgb(149, 202, 135)" />
<circle cx="536.093" cy="189.57" r="2" fill="rgb(250, 65, 65)" />
<line x1="542.38" y1="180.004" x2="548.43" y2="171.53" stroke="rgb(149, 202, 135)" />
<circle cx="542.38" cy="180.004" r="2" fill="rgb(250, 65, 65)" />
<line x1="654.249" y1="159.477" x2="652.195" y2="148.466" stroke="rgb(149, 202, 135)" />
<line x1="652.195" y1="148.466" x2="658.038" y2="137.564" stroke="rgb(149, 202, 135)" />
<circle cx="652.195" cy="148.466" r="2" fill="rgb(250, 65, 65)" />
<line x1="658.038" y1="137.564" x2="664.402" y2="131.494" stroke="rgb(149, 202, 135)" />
<circle cx="658.038" cy="137.564" r="2" fill="rgb(250, 65, 65)" />
<line x1="664.402" y1="131.494" x2="672.679" y2="125.953" stroke="rgb(149, 202, 135)" />
<circle cx="664.402" cy="131.494" r="2" fill="rgb(250, 65, 65)" />
<line x1="672.679" y1="125.953" x2="677.419" y2="124.382" stroke="rgb(149, 202, 135)" />
<circle cx="672.679" cy="125.953" r="2" fill="rgb(250, 65, 65)" />
<line x1="677.419" y1="124.382" x2="667.541" y2="114.695" stroke="rgb(149, 202, 135)" />
<circle cx="677.419" cy="124.382" r="2" fill="rgb(250, 65, 65)" />
<line x1="667.541" y1="114.695" x2="654.808" y2="107.146" stroke="rgb(149, 202, 135)" />
<circle cx="667.541" cy="114.695" r="2" fill="rgb(250, 65, 65)" />
<line x1="654.808" y1="107.146" x2="647.172" y2="105.753" stroke="rgb(149, 202, 135)" />
<circle cx="654.808" cy="107.146" r="2" fill="rgb(250, 65, 65)" />
<line x1="647.172" y1="105.753" x2="638.988" y2="105.957" stroke="rgb(149, 202, 135)" />
<circle cx="647.172" cy="105.753" r="2" fill="rgb(250, 65, 65)" />
<line x1="638.988" y1="105.957" x2="631.732" y2="106.176" stroke="rgb(149, 202, 135)" />
<circle cx="638.988" cy="105.957" r="2" fill="rgb(250, 65, 65)" />
<line x1="536.667" y1="-41.148" x2="531.106" y2="-51.8669" stroke="rgb(149, 202, 135)" />
<line x1="531.106" y1="-51.8669" x2="524.926" y2="-62.2358" stroke="rgb(149, 202, 135)" />
<circle cx="531.106" cy="-51.8669" r="2" fill="rgb(250, 65, 65)" />
<line x1="524.926" y1="-62.2358" x2="519.097" y2="-72.3396" stroke="rgb(149, 202, 135)" />
<circle cx="524.926" cy="-62.2358" r="2" fill="rgb(250, 65, 65)" />
<line x1="519.097" y1="-72.3396" x2="513.2" y2="-80.5426" stroke="rgb(149, 202, 135)" />
<circle cx="519.097" cy="-72.3396" r="2" fill="rgb(250, 65, 65)" />
<line x1="513.2" y1="-80.5426" x2="508.493" y2="-89.8524" stroke="rgb(149, 202, 135)" />
<circle cx="513.2" cy="-80.5426" r="2" fill="rgb(250, 65, 65)" />
<line x1="508.493" y1="-89.8524" x2="483.329" y2="-98.5739" stroke="rgb(149, 202, 135)" />
<circle cx="508.493" cy="-89.8524" r="2" fill="rgb(250, 65, 65)" />
<line x1="483.329" y1="-98.5739" x2="462.998" y2="-98.6937" stroke="rgb(149, 202, 135)" />
<circle cx="483.329" cy="-98.5739" r="2" fill="rgb(250, 65, 65)" />
<line x1="462.998" y1="-98.6937" x2="443.657" y2="-96.025" stroke="rgb(149, 202, 135)" />
<circle cx="462.998" cy="-98.6937" r="2" fill="rgb(250, 65, 65)" />
<line x1="443.657" y1="-96.025" x2="424.231" y2="-89.8762" stroke="rgb(149, 202, 135)" />
<circle cx="443.657" cy="-96.025" r="2" fill="rgb(250, 65, 65)" />
<line x1="424.231" y1="-89.8762" x2="406.047" y2="-81.806" stroke="rgb(149, 202, 135)" />
<circle cx="424.231" cy="-89.8762" r="2" fill="rgb(250, 65, 65)" />
</svg>