<svg xmlns="http://www.w3.org/2000/svg" width="1000" height="1000">
<line x1="414.953" y1="-37.0264" x2="415.721" y2="-31.0949" stroke="rgb(120,120,120)" />
<circle cx="414.953" cy="-37.0264" r="2" fill="rgb(100, 100, 100)" />
<line x1="415.721" y1="-31.0949" x2="422.11" y2="-24.3025" stroke="rgb(120,120,120)" />
<circle cx="415.721" cy="-31.0949" r="2" fill="rgb(100, 100, 100)" />
<line x1="422.11" y1="-24.3025" x2="429.616" y2="-19.4824" stroke="rgb(120,120,120)" />
<circle cx="422.11" cy="-24.3025" r="2" fill="rgb(100, 100, 100)" />
<line x1="429.616" y1="-19.4824" x2="437.765" y2="-13.5801" stroke="rgb(120,120,120)" />
<circle cx="429.616" cy="-19.4824" r="2" fill="rgb(100, 100, 100)" />
<line x1="437.765" y1="-13.5801" x2="445.714" y2="-6.33153" stroke="rgb(120,120,120)" />
<circle cx="437.765" cy="-13.5801" r="2" fill="rgb(100, 100, 100)" />
<line x1="445.714" y1="-6.33153" x2="453.721" y2="-0.40431" stroke="rgb(120,120,120)" />
<circle cx="445.714" cy="-6.33153" r="2" fill="rgb(100, 100, 100)" />
<line x1="453.721" y1="-0.40431" x2="460.742" y2="5.54012" stroke="rgb(120,120,120)" />
<circle cx="453.721" cy="-0.40431" r="2" fill="rgb(100, 100, 100)" />
<line x1="460.742" y1="5.54012" x2="467.733" y2="13.5658" stroke="rgb(120,120,120)" />
<circle cx="460.742" cy="5.54012" r="2" fill="rgb(100, 100, 100)" />
<line x1="467.733" y1="13.5658" x2="474.243" y2="21.6898" stroke="rgb(120,120,120)" />
<circle cx="467.733" cy="13.5658" r="2" fill="rgb(100, 100, 100)" />
<line x1="474.243" y1="21.6898" x2="479.684" y2="29.5689" stroke="rgb(120,120,120)" />
<circle cx="474.243" cy="21.6898" r="2" fill="rgb(100, 100, 100)" />
<line x1="479.684" y1="29.5689" x2="484.487" y2="38.2035" stroke="rgb(120,120,120)" />
<circle cx="479.684" cy="29.5689" r="2" fill="rgb(100, 100, 100)" />
<line x1="484.487" y1="38.2035" x2="489.011" y2="45.9822" stroke="rgb(120,120,120)" />
<circle cx="484.487" cy="38.2035" r="2" fill="rgb(100, 100, 100)" />
<line x1="489.011" y1="45.9822" x2="492.645" y2="54.5934" stroke="rgb(120,120,120)" />
<circle cx="489.011" cy="45.9822" r="2" fill="rgb(100, 100, 100)" />
<line x1="492.645" y1="54.5934" x2="496.08" y2="63.3833" stroke="rgb(120,120,120)" />
<circle cx="492.645" cy="54.5934" r="2" fill="rgb(100, 100, 100)" />
<line x1="496.08" y1="63.3833" x2="506.434" y2="56.3393" stroke="rgb(120,120,120)" />
<circle cx="496.08" cy="63.3833" r="2" fill="rgb(100, 100, 100)" />
<line x1="506.434" y1="56.3393" x2="518.118" y2="51.3668" stroke="rgb(120,120,120)" />
<circle cx="506.434" cy="56.3393" r="2" fill="rgb(100, 100, 100)" />
<line x1="518.118" y1="51.3668" x2="528.888" y2="52.4708" stroke="rgb(120,120,120)" />
<circle cx="518.118" cy="51.3668" r="2" fill="rgb(100, 100, 100)" />
<line x1="528.888" y1="52.4708" x2="538.323" y2="57.0326" stroke="rgb(120,120,120)" />
<circle cx="528.888" cy="52.4708" r="2" fill="rgb(100, 100, 100)" />
<line x1="538.323" y1="57.0326" x2="544.9" y2="63.1422" stroke="rgb(120,120,120)" />
<circle cx="538.323" cy="57.0326" r="2" fill="rgb(100, 100, 100)" />
<line x1="544.9" y1="63.1422" x2="549.231" y2="70.7814" stroke="rgb(120,120,120)" />
<circle cx="544.9" cy="63.1422" r="2" fill="rgb(100, 100, 100)" />
<line x1="549.231" y1="70.7814" x2="552.997" y2="80.2101" stroke="rgb(120,120,120)" />
<circle cx="549.231" cy="70.7814" r="2" fill="rgb(100, 100, 100)" />
<line x1="552.997" y1="80.2101" x2="556.029" y2="90.0745" stroke="rgb(120,120,120)" />
<circle cx="552.997" cy="80.2101" r="2" fill="rgb(100, 100, 100)" />
<line x1="556.029" y1="90.0745" x2="558.279" y2="97.6709" stroke="rgb(120,120,120)" />
<circle cx="556.029" cy="90.0745" r="2" fill="rgb(100, 100, 100)" />
<line x1="558.279" y1="97.6709" x2="563.069" y2="106.339" stroke="rgb(120,120,120)" />
<circle cx="558.279" cy="97.6709" r="2" fill="rgb(100, 100, 100)" />
<line x1="563.069" y1="106.339" x2="566.755" y2="114.58" stroke="rgb(120,120,120)" />
<circle cx="563.069" cy="106.339" r="2" fill="rgb(100, 100, 100)" />
<line x1="566.755" y1="114.58" x2="563.602" y2="123.513" stroke="rgb(120,120,120)" />
<circle cx="566.755" cy="114.58" r="2" fill="rgb(100, 100, 100)" />
<line x1="563.602" y1="123.513" x2="573.21" y2="110.47" stroke="rgb(120,120,120)" />
<circle cx="563.602" cy="123.513" r="2" fill="rgb(100, 100, 100)" />
<line x1="573.21" y1="110.47" x2="575.451" y2="99.7121" stroke="rgb(120,120,120)" />
<circle cx="573.21" cy="110.47" r="2" fill="rgb(100, 100, 100)" />
<line x1="575.451" y1="99.7121" x2="577.21" y2="89.4559" stroke="rgb(120,120,120)" />
<circle cx="575.451" cy="99.7121" r="2" fill="rgb(100, 100, 100)" />
<line x1="577.21" y1="89.4559" x2="577.331" y2="78.7584" stroke="rgb(120,120,120)" />
<circle cx="577.21" cy="89.4559" r="2" fill="rgb(100, 100, 100)" />
<line x1="577.331" y1="78.7584" x2="578.099" y2="67.4774" stroke="rgb(120,120,120)" />
<circle cx="577.331" cy="78.7584" r="2" fill="rgb(100, 100, 100)" />
<line x1="578.099" y1="67.4774" x2="579.209" y2="55.9939" stroke="rgb(120,120,120)" />
<circle cx="578.099" cy="67.4774" r="2" fill="rgb(100, 100, 100)" />
<line x1="579.209" y1="55.9939" x2="580.957" y2="44.2062" stroke="rgb(120,120,120)" />
<circle cx="579.209" cy="55.9939" r="2" fill="rgb(100, 100, 100)" />
<line x1="580.957" y1="44.2062" x2="583.974" y2="32.8836" stroke="rgb(120,120,120)" />
<circle cx="580.957" cy="44.2062" r="2" fill="rgb(100, 100, 100)" />
<line x1="583.974" y1="32.8836" x2="588.087" y2="21.6403" stroke="rgb(120,120,120)" />
<circle cx="583.974" cy="32.8836" r="2" fill="rgb(100, 100, 100)" />
<line x1="588.087" y1="21.6403" x2="593.447" y2="10.8063" stroke="rgb(120,120,120)" />
<circle cx="588.087" cy="21.6403" r="2" fill="rgb(100, 100, 100)" />
<line x1="593.447" y1="10.8063" x2="600.646" y2="1.14619" stroke="rgb(120,120,120)" />
<circle cx="593.447" cy="10.8063" r="2" fill="rgb(100, 100, 100)" />
<line x1="600.646" y1="1.14619" x2="609.557" y2="-7.24879" stroke="rgb(120,120,120)" />
<circle cx="600.646" cy="1.14619" r="2" fill="rgb(100, 100, 100)" />
<line x1="609.557" y1="-7.24879" x2="622.606" y2="-6.14004" stroke="rgb(120,120,120)" />
<circle cx="609.557" cy="-7.24879" r="2" fill="rgb(100, 100, 100)" />
<line x1="622.606" y1="-6.14004" x2="634.265" y2="-0.806236" stroke="rgb(120,120,120)" />
<circle cx="622.606" cy="-6.14004" r="2" fill="rgb(100, 100, 100)" />
<line x1="634.265" y1="-0.806236" x2="645.716" y2="5.45342" stroke="rgb(120,120,120)" />
<circle cx="634.265" cy="-0.806236" r="2" fill="rgb(100, 100, 100)" />
<line x1="645.716" y1="5.45342" x2="657.933" y2="10.7368" stroke="rgb(120,120,120)" />
<circle cx="645.716" cy="5.45342" r="2" fill="rgb(100, 100, 100)" />
<line x1="657.933" y1="10.7368" x2="667.66" y2="20.1878" stroke="rgb(120,120,120)" />
<circle cx="657.933" cy="10.7368" r="2" fill="rgb(100, 100, 100)" />
<line x1="667.66" y1="20.1878" x2="675.061" y2="8.33281" stroke="rgb(120,120,120)" />
<circle cx="667.66" cy="20.1878" r="2" fill="rgb(100, 100, 100)" />
<line x1="675.061" y1="8.33281" x2="682.44" y2="-5.0216" stroke="rgb(120,120,120)" />
<circle cx="675.061" cy="8.33281" r="2" fill="rgb(100, 100, 100)" />
<line x1="682.44" y1="-5.0216" x2="694.335" y2="-17.3881" stroke="rgb(120,120,120)" />
<circle cx="682.44" cy="-5.0216" r="2" fill="rgb(100, 100, 100)" />
<line x1="694.335" y1="-17.3881" x2="713.464" y2="-31.7417" stroke="rgb(120,120,120)" />
<circle cx="694.335" cy="-17.3881" r="2" fill="rgb(100, 100, 100)" />
<line x1="713.464" y1="-31.7417" x2="698.042" y2="-43.067" stroke="rgb(120,120,120)" />
<circle cx="713.464" cy="-31.7417" r="2" fill="rgb(100, 100, 100)" />
<line x1="698.042" y1="-43.067" x2="691.595" y2="-58.2084" stroke="rgb(120,120,120)" />
<circle cx="698.042" cy="-43.067" r="2" fill="rgb(100, 100, 100)" />
<line x1="691.595" y1="-58.2084" x2="688.963" y2="-75.5129" stroke="rgb(120,120,120)" />
<circle cx="691.595" cy="-58.2084" r="2" fill="rgb(100, 100, 100)" />
<line x1="688.963" y1="-75.5129" x2="687.56" y2="-92.3579" stroke="rgb(120,120,120)" />
<circle cx="688.963" cy="-75.5129" r="2" fill="rgb(100, 100, 100)" />
<line x1="687.56" y1="-92.3579" x2="682.747" y2="-106.677" stroke="rgb(120,120,120)" />
<circle cx="687.56" cy="-92.3579" r="2" fill="rgb(100, 100, 100)" />
<line x1="682.747" y1="-106.677" x2="677.328" y2="-96.8626" stroke="rgb(120,120,120)" />
<circle cx="682.747" cy="-106.677" r="2" fill="rgb(100, 100, 100)" />
<line x1="677.328" y1="-96.8626" x2="672.723" y2="-85.0346" stroke="rgb(120,120,120)" />
<circle cx="677.328" cy="-96.8626" r="2" fill="rgb(100, 100, 100)" />
<line x1="672.723" y1="-85.0346" x2="668.096" y2="-71.3398" stroke="rgb(120,120,120)" />
<circle cx="672.723" cy="-85.0346" r="2" fill="rgb(100, 100, 100)" />
<line x1="668.096" y1="-71.3398" x2="660.688" y2="-62.0561" stroke="rgb(120,120,120)" />
<circle cx="668.096" cy="-71.3398" r="2" fill="rgb(100, 100, 100)" />
<line x1="660.688" y1="-62.0561" x2="651.991" y2="-54.4516" stroke="rgb(120,120,120)" />
<circle cx="660.688" cy="-62.0561" r="2" fill="rgb(100, 100, 100)" />
<line x1="651.991" y1="-54.4516" x2="641.649" y2="-49.9141" stroke="rgb(120,120,120)" />
<circle cx="651.991" cy="-54.4516" r="2" fill="rgb(100, 100, 100)" />
<line x1="641.649" y1="-49.9141" x2="631.934" y2="-43.7541" stroke="rgb(120,120,120)" />
<circle cx="641.649" cy="-49.9141" r="2" fill="rgb(100, 100, 100)" />
<line x1="631.934" y1="-43.7541" x2="621.24" y2="-39.6044" stroke="rgb(120,120,120)" />
<circle cx="631.934" cy="-43.7541" r="2" fill="rgb(100, 100, 100)" />
<line x1="621.24" y1="-39.6044" x2="612.33" y2="-48.8948" stroke="rgb(120,120,120)" />
<circle cx="621.24" cy="-39.6044" r="2" fill="rgb(100, 100, 100)" />
<line x1="612.33" y1="-48.8948" x2="604.682" y2="-59.1059" stroke="rgb(120,120,120)" />
<circle cx="612.33" cy="-48.8948" r="2" fill="rgb(100, 100, 100)" />
<line x1="604.682" y1="-59.1059" x2="598.393" y2="-69.9334" stroke="rgb(120,120,120)" />
<circle cx="604.682" cy="-59.1059" r="2" fill="rgb(100, 100, 100)" />
<line x1="598.393" y1="-69.9334" x2="593.362" y2="-81.2847" stroke="rgb(120,120,120)" />
<circle cx="598.393" cy="-69.9334" r="2" fill="rgb(100, 100, 100)" />
<line x1="593.362" y1="-81.2847" x2="588.498" y2="-93.2948" stroke="rgb(120,120,120)" />
<circle cx="593.362" cy="-81.2847" r="2" fill="rgb(100, 100, 100)" />
<line x1="588.498" y1="-93.2948" x2="583.984" y2="-104.293" stroke="rgb(120,120,120)" />
<circle cx="588.498" cy="-93.2948" r="2" fill="rgb(100, 100, 100)" />
<line x1="583.984" y1="-104.293" x2="580.506" y2="-115.722" stroke="rgb(120,120,120)" />
<circle cx="583.984" cy="-104.293" r="2" fill="rgb(100, 100, 100)" />
<line x1="580.506" y1="-115.722" x2="578.044" y2="-127.657" stroke="rgb(120,120,120)" />
<circle cx="580.506" cy="-115.722" r="2" fill="rgb(100, 100, 100)" />
<line x1="578.044" y1="-127.657" x2="576.519" y2="-139.774" stroke="rgb(120,120,120)" />
<circle cx="578.044" cy="-127.657" r="2" fill="rgb(100, 100, 100)" />
<line x1="576.519" y1="-139.774" x2="574.382" y2="-150.692" stroke="rgb(120,120,120)" />
<circle cx="576.519" cy="-139.774" r="2" fill="rgb(100, 100, 100)" />
<line x1="574.382" y1="-150.692" x2="573.744" y2="-162.9" stroke="rgb(120,120,120)" />
<circle cx="574.382" cy="-150.692" r="2" fill="rgb(100, 100, 100)" />
<line x1="573.744" y1="-162.9" x2="572.949" y2="-171.882" stroke="rgb(120,120,120)" />
<circle cx="573.744" cy="-162.9" r="2" fill="rgb(100, 100, 100)" />
<line x1="572.949" y1="-171.882" x2="571.482" y2="-180.105" stroke="rgb(120,120,120)" />
<circle cx="572.949" cy="-171.882" r="2" fill="rgb(100, 100, 100)" />
<line x1="571.482" y1="-180.105" x2="564.815" y2="-192.281" stroke="rgb(120,120,120)" />
<circle cx="571.482" cy="-180.105" r="2" fill="rgb(100, 100, 100)" />
<line x1="564.815" y1="-192.281" x2="562.13" y2="-186.898" stroke="rgb(120,120,120)" />
<circle cx="564.815" cy="-192.281" r="2" fill="rgb(100, 100, 100)" />
<line x1="562.13" y1="-186.898" x2="556.766" y2="-183.076" stroke="rgb(120,120,120)" />
<circle cx="562.13" cy="-186.898" r="2" fill="rgb(100, 100, 100)" />
<line x1="556.766" y1="-183.076" x2="550.531" y2="-180.07" stroke="rgb(120,120,120)" />
<circle cx="556.766" cy="-183.076" r="2" fill="rgb(100, 100, 100)" />
<line x1="550.531" y1="-180.07" x2="543.467" y2="-180.266" stroke="rgb(120,120,120)" />
<circle cx="550.531" cy="-180.07" r="2" fill="rgb(100, 100, 100)" />
<line x1="543.467" y1="-180.266" x2="535.616" y2="-179.357" stroke="rgb(120,120,120)" />
<circle cx="543.467" cy="-180.266" r="2" fill="rgb(100, 100, 100)" />
<line x1="535.616" y1="-179.357" x2="527.792" y2="-176.621" stroke="rgb(120,120,120)" />
<circle cx="535.616" cy="-179.357" r="2" fill="rgb(100, 100, 100)" />
<line x1="527.792" y1="-176.621" x2="520.961" y2="-171.8" stroke="rgb(120,120,120)" />
<circle cx="527.792" cy="-176.621" r="2" fill="rgb(100, 100, 100)" />
<line x1="520.961" y1="-171.8" x2="515.069" y2="-166.39" stroke="rgb(120,120,120)" />
<circle cx="520.961" cy="-171.8" r="2" fill="rgb(100, 100, 100)" />
<line x1="515.069" y1="-166.39" x2="509.501" y2="-160.285" stroke="rgb(120,120,120)" />
<circle cx="515.069" cy="-166.39" r="2" fill="rgb(100, 100, 100)" />
<line x1="509.501" y1="-160.285" x2="503.661" y2="-152.473" stroke="rgb(120,120,120)" />
<circle cx="509.501" cy="-160.285" r="2" fill="rgb(100, 100, 100)" />
<line x1="503.661" y1="-152.473" x2="499.576" y2="-145.254" stroke="rgb(120,120,120)" />
<circle cx="503.661" cy="-152.473" r="2" fill="rgb(100, 100, 100)" />
<line x1="499.576" y1="-145.254" x2="495.272" y2="-137.353" stroke="rgb(120,120,120)" />
<circle cx="499.576" cy="-145.254" r="2" fill="rgb(100, 100, 100)" />
<line x1="495.272" y1="-137.353" x2="490.667" y2="-128.526" stroke="rgb(120,120,120)" />
<circle cx="495.272" cy="-137.353" r="2" fill="rgb(100, 100, 100)" />
<line x1="490.667" y1="-128.526" x2="484.315" y2="-122.088" stroke="rgb(120,120,120)" />
<circle cx="490.667" cy="-128.526" r="2" fill="rgb(100, 100, 100)" />
<line x1="484.315" y1="-122.088" x2="475.197" y2="-117.455" stroke="rgb(120,120,120)" />
<circle cx="484.315" cy="-122.088" r="2" fill="rgb(100, 100, 100)" />
<line x1="475.197" y1="-117.455" x2="466.761" y2="-112.196" stroke="rgb(120,120,120)" />
<circle cx="475.197" cy="-117.455" r="2" fill="rgb(100, 100, 100)" />
<line x1="466.761" y1="-112.196" x2="458.552" y2="-105.338" stroke="rgb(120,120,120)" />
<circle cx="466.761" cy="-112.196" r="2" fill="rgb(100, 100, 100)" />
<line x1="458.552" y1="-105.338" x2="451.745" y2="-98.1718" stroke="rgb(120,120,120)" />
<circle cx="458.552" cy="-105.338" r="2" fill="rgb(100, 100, 100)" />
<line x1="451.745" y1="-98.1718" x2="446.668" y2="-90.0837" stroke="rgb(120,120,120)" />
<circle cx="451.745" cy="-98.1718" r="2" fill="rgb(100, 100, 100)" />
<line x1="446.668" y1="-90.0837" x2="442.51" y2="-80.2206" stroke="rgb(120,120,120)" />
<circle cx="446.668" cy="-90.0837" r="2" fill="rgb(100, 100, 100)" />
<line x1="442.51" y1="-80.2206" x2="440.047" y2="-70.1567" stroke="rgb(120,120,120)" />
<circle cx="442.51" cy="-80.2206" r="2" fill="rgb(100, 100, 100)" />
<line x1="440.047" y1="-70.1567" x2="435.41" y2="-61.9066" stroke="rgb(120,120,120)" />
<circle cx="440.047" cy="-70.1567" r="2" fill="rgb(100, 100, 100)" />
<line x1="435.41" y1="-61.9066" x2="428.591" y2="-55.5172" stroke="rgb(120,120,120)" />
<circle cx="435.41" cy="-61.9066" r="2" fill="rgb(100, 100, 100)" />
<line x1="428.591" y1="-55.5172" x2="419.78" y2="-51.7714" stroke="rgb(120,120,120)" />
<circle cx="428.591" cy="-55.5172" r="2" fill="rgb(100, 100, 100)" />
<line x1="419.78" y1="-51.7714" x2="413.54" y2="-44.5556" stroke="rgb(120,120,120)" />
<circle cx="419.78" cy="-51.7714" r="2" fill="rgb(100, 100, 100)" />
<line x1="413.54" y1="-44.5556" x2="414.953" y2="-37.0264" stroke="rgb(120,120,120)" />
<circle cx="413.54" cy="-44.5556" r="2" fill="rgb(100, 100, 100)" />
<line x1="440.047" y1="-70.1567" x2="436.199" y2="-61.2366" stroke="rgb(149, 202, 135)" />
<line x1="436.199" y1="-61.2366" x2="430.38" y2="-54.0532" stroke="rgb(149, 202, 135)" />
<circle cx="436.199" cy="-61.2366" r="2" fill="rgb(250, 65, 65)" />
<line x1="430.38" y1="-54.0532" x2="423.557" y2="-49.9372" stroke="rgb(149, 202, 135)" />
<circle cx="430.38" cy="-54.0532" r="2" fill="rgb(250, 65, 65)" />
<line x1="423.557" y1="-49.9372" x2="418.526" y2="-43.8025" stroke="rgb(149, 202, 135)" />
<circle cx="423.557" cy="-49.9372" r="2" fill="rgb(250, 65, 65)" />
<line x1="418.526" y1="-43.8025" x2="414.953" y2="-37.0264" stroke="rgb(149, 202, 135)" />
<circle cx="418.526" cy="-43.8025" r="2" fill="rgb(250, 65, 65)" />
<line x1="414.953" y1="-37.0264" x2="419.242" y2="-32.8576" stroke="rgb(149, 202, 135)" />
<circle cx="414.953" cy="-37.0264" r="2" fill="rgb(250, 65, 65)" />
<line x1="419.242" y1="-32.8576" x2="425.26" y2="-26.6874" stroke="rgb(149, 202, 135)" />
<circle cx="419.242" cy="-32.8576" r="2" fill="rgb(250, 65, 65)" />
<line x1="425.26" y1="-26.6874" x2="431.305" y2="-21.0446" stroke="rgb(149, 202, 135)" />
<circle cx="425.26" cy="-26.6874" r="2" fill="rgb(250, 65, 65)" />
<line x1="431.305" y1="-21.0446" x2="438.506" y2="-14.325" stroke="rgb(149, 202, 135)" />
<circle cx="431.305" cy="-21.0446" r="2" fill="rgb(250, 65, 65)" />
<line x1="438.506" y1="-14.325" x2="445.714" y2="-6.33153" stroke="rgb(149, 202, 135)" />
<circle cx="438.506" cy="-14.325" r="2" fill="rgb(250, 65, 65)" />
<line x1="552.997" y1="80.2101" x2="556.028" y2="90.0748" stroke="rgb(149, 202, 135)" />
<line x1="556.028" y1="90.0748" x2="558.28" y2="97.6708" stroke="rgb(149, 202, 135)" />
<circle cx="556.028" cy="90.0748" r="2" fill="rgb(250, 65, 65)" />
<line x1="558.28" y1="97.6708" x2="562.567" y2="106.362" stroke="rgb(149, 202, 135)" />
<circle cx="558.28" cy="97.6708" r="2" fill="rgb(250, 65, 65)" />
<line x1="562.567" y1="106.362" x2="565.39" y2="114.21" stroke="rgb(149, 202, 135)" />
<circle cx="562.567" cy="106.362" r="2" fill="rgb(250, 65, 65)" />
<line x1="565.39" y1="114.21" x2="563.602" y2="123.513" stroke="rgb(149, 202, 135)" />
<circle cx="565.39" cy="114.21" r="2" fill="rgb(250, 65, 65)" />
<line x1="563.602" y1="123.513" x2="575.045" y2="112.046" stroke="rgb(149, 202, 135)" />
<circle cx="563.602" cy="123.513" r="2" fill="rgb(250, 65, 65)" />
<line x1="575.045" y1="112.046" x2="576.142" y2="100.069" stroke="rgb(149, 202, 135)" />
<circle cx="575.045" cy="112.046" r="2" fill="rgb(250, 65, 65)" />
<line x1="576.142" y1="100.069" x2="577.209" y2="89.4556" stroke="rgb(149, 202, 135)" />
<circle cx="576.142" cy="100.069" r="2" fill="rgb(250, 65, 65)" />
<line x1="577.209" y1="89.4556" x2="577.333" y2="78.7589" stroke="rgb(149, 202, 135)" />
<circle cx="577.209" cy="89.4556" r="2" fill="rgb(250, 65, 65)" />
<line x1="577.333" y1="78.7589" x2="578.099" y2="67.4774" stroke="rgb(149, 202, 135)" />
<circle cx="577.333" cy="78.7589" r="2" fill="rgb(250, 65, 65)" />
<line x1="657.933" y1="10.7368" x2="670.801" y2="22.7977" stroke="rgb(149, 202, 135)" />
<line x1="670.801" y1="22.7977" x2="680.192" y2="12.6847" stroke="rgb(149, 202, 135)" />
<circle cx="670.801" cy="22.7977" r="2" fill="rgb(250, 65, 65)" />
<line x1="680.192" y1="12.6847" x2="688.77" y2="0.918045" stroke="rgb(149, 202, 135)" />
<circle cx="680.192" cy="12.6847" r="2" fill="rgb(250, 65, 65)" />
<line x1="688.77" y1="0.918045" x2="700.604" y2="-11.5782" stroke="rgb(149, 202, 135)" />
<circle cx="688.77" cy="0.918045" r="2" fill="rgb(250, 65, 65)" />
<line x1="700.604" y1="-11.5782" x2="713.464" y2="-31.7417" stroke="rgb(149, 202, 135)" />
<circle cx="700.604" cy="-11.5782" r="2" fill="rgb(250, 65, 65)" />
<line x1="713.464" y1="-31.7417" x2="703.009" y2="-47.7667" stroke="rgb(149, 202, 135)" />
<circle cx="713.464" cy="-31.7417" r="2" fill="rgb(250, 65, 65)" />
<line x1="703.009" y1="-47.7667" x2="697.666" y2="-62.2238" stroke="rgb(149, 202, 135)" />
<circle cx="703.009" cy="-47.7667" r="2" fill="rgb(250, 65, 65)" />
<line x1="697.666" y1="-62.2238" x2="694.439" y2="-78.1556" stroke="rgb(149, 202, 135)" />
<circle cx="697.666" cy="-62.2238" r="2" fill="rgb(250, 65, 65)" />
<line x1="694.439" y1="-78.1556" x2="691.179" y2="-93.7796" stroke="rgb(149, 202, 135)" />
<circle cx="694.439" cy="-78.1556" r="2" fill="rgb(250, 65, 65)" />
<line x1="691.179" y1="-93.7796" x2="682.747" y2="-106.677" stroke="rgb(149, 202, 135)" />
<circle cx="691.179" cy="-93.7796" r="2" fill="rgb(250, 65, 65)" />
<line x1="576.519" y1="-139.774" x2="572.971" y2="-150.392" stroke="rgb(149, 202, 135)" />
<line x1="572.971" y1="-150.392" x2="571.837" y2="-162.387" stroke="rgb(149, 202, 135)" />
<circle cx="572.971" cy="-150.392" r="2" fill="rgb(250, 65, 65)" />
<line x1="571.837" y1="-162.387" x2="571.167" y2="-171.259" stroke="rgb(149, 202, 135)" />
<circle cx="571.837" cy="-162.387" r="2" fill="rgb(250, 65, 65)" />
<line x1="571.167" y1="-171.259" x2="570.415" y2="-179.579" stroke="rgb(149, 202, 135)" />
<circle cx="571.167" cy="-171.259" r="2" fill="rgb(250, 65, 65)" />
<line x1="570.415" y1="-179.579" x2="564.815" y2="-192.281" stroke="rgb(149, 202, 135)" />
<circle cx="570.415" cy="-179.579" r="2" fill="rgb(250, 65, 65)" />
<line x1="564.815" y1="-192.281" x2="562.601" y2="-186.688" stroke="rgb(149, 202, 135)" />
<circle cx="564.815" cy="-192.281" r="2" fill="rgb(250, 65, 65)" />
<line x1="562.601" y1="-186.688" x2="557.586" y2="-182.419" stroke="rgb(149, 202, 135)" />
<circle cx="562.601" cy="-186.688" r="2" fill="rgb(250, 65, 65)" />
<line x1="557.586" y1="-182.419" x2="551.345" y2="-179.177" stroke="rgb(149, 202, 135)" />
<circle cx="557.586" cy="-182.419" r="2" fill="rgb(250, 65, 65)" />
<line x1="551.345" y1="-179.177" x2="543.885" y2="-179.551" stroke="rgb(149, 202, 135)" />
<circle cx="551.345" cy="-179.177" r="2" fill="rgb(250, 65, 65)" />
<line x1="543.885" y1="-179.551" x2="535.616" y2="-179.357" stroke="rgb(149, 202, 135)" />
<circle cx="543.885" cy="-179.551" r="2" fill="rgb(250, 65, 65)" />
</svg>