<svg xmlns="http://www.w3.org/2000/svg" width="1000" height="1000">
<line x1="318.636" y1="110.038" x2="317.794" y2="118.022" stroke="rgb(120,120,120)" />
<circle cx="318.636" cy="110.038" r="2" fill="rgb(100, 100, 100)" />
<line x1="317.794" y1="118.022" x2="312.779" y2="128.339" stroke="rgb(120,120,120)" />
<circle cx="317.794" cy="118.022" r="2" fill="rgb(100, 100, 100)" />
<line x1="312.779" y1="128.339" x2="307.732" y2="140.723" stroke="rgb(120,120,120)" />
<circle cx="312.779" cy="128.339" r="2" fill="rgb(100, 100, 100)" />
<line x1="307.732" y1="140.723" x2="305.641" y2="157.654" stroke="rgb(120,120,120)" />
<circle cx="307.732" cy="140.723" r="2" fill="rgb(100, 100, 100)" />
<line x1="305.641" y1="157.654" x2="306.473" y2="174.341" stroke="rgb(120,120,120)" />
<circle cx="305.641" cy="157.654" r="2" fill="rgb(100, 100, 100)" />
<line x1="306.473" y1="174.341" x2="308.903" y2="191.284" stroke="rgb(120,120,120)" />
<circle cx="306.473" cy="174.341" r="2" fill="rgb(100, 100, 100)" />
<line x1="308.903" y1="191.284" x2="313.485" y2="208.662" stroke="rgb(120,120,120)" />
<circle cx="308.903" cy="191.284" r="2" fill="rgb(100, 100, 100)" />
<line x1="313.485" y1="208.662" x2="320.431" y2="225.484" stroke="rgb(120,120,120)" />
<circle cx="313.485" cy="208.662" r="2" fill="rgb(100, 100, 100)" />
<line x1="320.431" y1="225.484" x2="329.424" y2="240.691" stroke="rgb(120,120,120)" />
<circle cx="320.431" cy="225.484" r="2" fill="rgb(100, 100, 100)" />
<line x1="329.424" y1="240.691" x2="339.386" y2="254.17" stroke="rgb(120,120,120)" />
<circle cx="329.424" cy="240.691" r="2" fill="rgb(100, 100, 100)" />
<line x1="339.386" y1="254.17" x2="349.557" y2="264.76" stroke="rgb(120,120,120)" />
<circle cx="339.386" cy="254.17" r="2" fill="rgb(100, 100, 100)" />
<line x1="349.557" y1="264.76" x2="360.805" y2="273.139" stroke="rgb(120,120,120)" />
<circle cx="349.557" cy="264.76" r="2" fill="rgb(100, 100, 100)" />
<line x1="360.805" y1="273.139" x2="373.257" y2="279.165" stroke="rgb(120,120,120)" />
<circle cx="360.805" cy="273.139" r="2" fill="rgb(100, 100, 100)" />
<line x1="373.257" y1="279.165" x2="386.249" y2="282.479" stroke="rgb(120,120,120)" />
<circle cx="373.257" cy="279.165" r="2" fill="rgb(100, 100, 100)" />
<line x1="386.249" y1="282.479" x2="391.977" y2="273.895" stroke="rgb(120,120,120)" />
<circle cx="386.249" cy="282.479" r="2" fill="rgb(100, 100, 100)" />
<line x1="391.977" y1="273.895" x2="396.722" y2="266.12" stroke="rgb(120,120,120)" />
<circle cx="391.977" cy="273.895" r="2" fill="rgb(100, 100, 100)" />
<line x1="396.722" y1="266.12" x2="401.225" y2="257.572" stroke="rgb(120,120,120)" />
<circle cx="396.722" cy="266.12" r="2" fill="rgb(100, 100, 100)" />
<line x1="401.225" y1="257.572" x2="404.868" y2="249.596" stroke="rgb(120,120,120)" />
<circle cx="401.225" cy="257.572" r="2" fill="rgb(100, 100, 100)" />
<line x1="404.868" y1="249.596" x2="405.582" y2="239.18" stroke="rgb(120,120,120)" />
<circle cx="404.868" cy="249.596" r="2" fill="rgb(100, 100, 100)" />
<line x1="405.582" y1="239.18" x2="406.785" y2="229.736" stroke="rgb(120,120,120)" />
<circle cx="405.582" cy="239.18" r="2" fill="rgb(100, 100, 100)" />
<line x1="406.785" y1="229.736" x2="409" y2="219.77" stroke="rgb(120,120,120)" />
<circle cx="406.785" cy="229.736" r="2" fill="rgb(100, 100, 100)" />
<line x1="409" y1="219.77" x2="412.354" y2="211.352" stroke="rgb(120,120,120)" />
<circle cx="409" cy="219.77" r="2" fill="rgb(100, 100, 100)" />
<line x1="412.354" y1="211.352" x2="418.222" y2="222.062" stroke="rgb(120,120,120)" />
<circle cx="412.354" cy="211.352" r="2" fill="rgb(100, 100, 100)" />
<line x1="418.222" y1="222.062" x2="422.383" y2="232.489" stroke="rgb(120,120,120)" />
<circle cx="418.222" cy="222.062" r="2" fill="rgb(100, 100, 100)" />
<line x1="422.383" y1="232.489" x2="429.948" y2="241.647" stroke="rgb(120,120,120)" />
<circle cx="422.383" cy="232.489" r="2" fill="rgb(100, 100, 100)" />
<line x1="429.948" y1="241.647" x2="441.197" y2="248.848" stroke="rgb(120,120,120)" />
<circle cx="429.948" cy="241.647" r="2" fill="rgb(100, 100, 100)" />
<line x1="441.197" y1="248.848" x2="459.168" y2="255.635" stroke="rgb(120,120,120)" />
<circle cx="441.197" cy="248.848" r="2" fill="rgb(100, 100, 100)" />
<line x1="459.168" y1="255.635" x2="449.85" y2="247.475" stroke="rgb(120,120,120)" />
<circle cx="459.168" cy="255.635" r="2" fill="rgb(100, 100, 100)" />
<line x1="449.85" y1="247.475" x2="449.826" y2="238.885" stroke="rgb(120,120,120)" />
<circle cx="449.85" cy="247.475" r="2" fill="rgb(100, 100, 100)" />
<line x1="449.826" y1="238.885" x2="453.8" y2="233.149" stroke="rgb(120,120,120)" />
<circle cx="449.826" cy="238.885" r="2" fill="rgb(100, 100, 100)" />
<line x1="453.8" y1="233.149" x2="455.227" y2="225.06" stroke="rgb(120,120,120)" />
<circle cx="453.8" cy="233.149" r="2" fill="rgb(100, 100, 100)" />
<line x1="455.227" y1="225.06" x2="455.408" y2="214.94" stroke="rgb(120,120,120)" />
<circle cx="455.227" cy="225.06" r="2" fill="rgb(100, 100, 100)" />
<line x1="455.408" y1="214.94" x2="454.078" y2="205.24" stroke="rgb(120,120,120)" />
<circle cx="455.408" cy="214.94" r="2" fill="rgb(100, 100, 100)" />
<line x1="454.078" y1="205.24" x2="455.589" y2="195.437" stroke="rgb(120,120,120)" />
<circle cx="454.078" cy="205.24" r="2" fill="rgb(100, 100, 100)" />
<line x1="455.589" y1="195.437" x2="458.857" y2="186.271" stroke="rgb(120,120,120)" />
<circle cx="455.589" cy="195.437" r="2" fill="rgb(100, 100, 100)" />
<line x1="458.857" y1="186.271" x2="464.549" y2="178.454" stroke="rgb(120,120,120)" />
<circle cx="458.857" cy="186.271" r="2" fill="rgb(100, 100, 100)" />
<line x1="464.549" y1="178.454" x2="471.865" y2="171.743" stroke="rgb(120,120,120)" />
<circle cx="464.549" cy="178.454" r="2" fill="rgb(100, 100, 100)" />
<line x1="471.865" y1="171.743" x2="480.32" y2="165.766" stroke="rgb(120,120,120)" />
<circle cx="471.865" cy="171.743" r="2" fill="rgb(100, 100, 100)" />
<line x1="480.32" y1="165.766" x2="489.893" y2="159.723" stroke="rgb(120,120,120)" />
<circle cx="480.32" cy="165.766" r="2" fill="rgb(100, 100, 100)" />
<line x1="489.893" y1="159.723" x2="496.887" y2="152.875" stroke="rgb(120,120,120)" />
<circle cx="489.893" cy="159.723" r="2" fill="rgb(100, 100, 100)" />
<line x1="496.887" y1="152.875" x2="502.358" y2="144.762" stroke="rgb(120,120,120)" />
<circle cx="496.887" cy="152.875" r="2" fill="rgb(100, 100, 100)" />
<line x1="502.358" y1="144.762" x2="508.633" y2="136.139" stroke="rgb(120,120,120)" />
<circle cx="502.358" cy="144.762" r="2" fill="rgb(100, 100, 100)" />
<line x1="508.633" y1="136.139" x2="515.591" y2="128.973" stroke="rgb(120,120,120)" />
<circle cx="508.633" cy="136.139" r="2" fill="rgb(100, 100, 100)" />
<line x1="515.591" y1="128.973" x2="523.683" y2="123.83" stroke="rgb(120,120,120)" />
<circle cx="515.591" cy="128.973" r="2" fill="rgb(100, 100, 100)" />
<line x1="523.683" y1="123.83" x2="532.767" y2="118.052" stroke="rgb(120,120,120)" />
<circle cx="523.683" cy="123.83" r="2" fill="rgb(100, 100, 100)" />
<line x1="532.767" y1="118.052" x2="542.578" y2="114.116" stroke="rgb(120,120,120)" />
<circle cx="532.767" cy="118.052" r="2" fill="rgb(100, 100, 100)" />
<line x1="542.578" y1="114.116" x2="552.95" y2="111.302" stroke="rgb(120,120,120)" />
<circle cx="542.578" cy="114.116" r="2" fill="rgb(100, 100, 100)" />
<line x1="552.95" y1="111.302" x2="563.592" y2="110.342" stroke="rgb(120,120,120)" />
<circle cx="552.95" cy="111.302" r="2" fill="rgb(100, 100, 100)" />
<line x1="563.592" y1="110.342" x2="574.522" y2="110.487" stroke="rgb(120,120,120)" />
<circle cx="563.592" cy="110.342" r="2" fill="rgb(100, 100, 100)" />
<line x1="574.522" y1="110.487" x2="585.47" y2="111.319" stroke="rgb(120,120,120)" />
<circle cx="574.522" cy="110.487" r="2" fill="rgb(100, 100, 100)" />
<line x1="585.47" y1="111.319" x2="595.712" y2="111.968" stroke="rgb(120,120,120)" />
<circle cx="585.47" cy="111.319" r="2" fill="rgb(100, 100, 100)" />
<line x1="595.712" y1="111.968" x2="604.304" y2="112.961" stroke="rgb(120,120,120)" />
<circle cx="595.712" cy="111.968" r="2" fill="rgb(100, 100, 100)" />
<line x1="604.304" y1="112.961" x2="604.766" y2="115.103" stroke="rgb(120,120,120)" />
<circle cx="604.304" cy="112.961" r="2" fill="rgb(100, 100, 100)" />
<line x1="604.766" y1="115.103" x2="604.692" y2="110.854" stroke="rgb(120,120,120)" />
<circle cx="604.766" cy="115.103" r="2" fill="rgb(100, 100, 100)" />
<line x1="604.692" y1="110.854" x2="596.688" y2="106.417" stroke="rgb(120,120,120)" />
<circle cx="604.692" cy="110.854" r="2" fill="rgb(100, 100, 100)" />
<line x1="596.688" y1="106.417" x2="587.99" y2="101.69" stroke="rgb(120,120,120)" />
<circle cx="596.688" cy="106.417" r="2" fill="rgb(100, 100, 100)" />
<line x1="587.99" y1="101.69" x2="579.842" y2="95.4708" stroke="rgb(120,120,120)" />
<circle cx="587.99" cy="101.69" r="2" fill="rgb(100, 100, 100)" />
<line x1="579.842" y1="95.4708" x2="572.621" y2="88.9472" stroke="rgb(120,120,120)" />
<circle cx="579.842" cy="95.4708" r="2" fill="rgb(100, 100, 100)" />
<line x1="572.621" y1="88.9472" x2="565.249" y2="82.3265" stroke="rgb(120,120,120)" />
<circle cx="572.621" cy="88.9472" r="2" fill="rgb(100, 100, 100)" />
<line x1="565.249" y1="82.3265" x2="557.203" y2="76.1674" stroke="rgb(120,120,120)" />
<circle cx="565.249" cy="82.3265" r="2" fill="rgb(100, 100, 100)" />
<line x1="557.203" y1="76.1674" x2="548.144" y2="71.4613" stroke="rgb(120,120,120)" />
<circle cx="557.203" cy="76.1674" r="2" fill="rgb(100, 100, 100)" />
<line x1="548.144" y1="71.4613" x2="537.374" y2="68.9536" stroke="rgb(120,120,120)" />
<circle cx="548.144" cy="71.4613" r="2" fill="rgb(100, 100, 100)" />
<line x1="537.374" y1="68.9536" x2="525.954" y2="69.7163" stroke="rgb(120,120,120)" />
<circle cx="537.374" cy="68.9536" r="2" fill="rgb(100, 100, 100)" />
<line x1="525.954" y1="69.7163" x2="515.501" y2="77.1597" stroke="rgb(120,120,120)" />
<circle cx="525.954" cy="69.7163" r="2" fill="rgb(100, 100, 100)" />
<line x1="515.501" y1="77.1597" x2="506.806" y2="84.8943" stroke="rgb(120,120,120)" />
<circle cx="515.501" cy="77.1597" r="2" fill="rgb(100, 100, 100)" />
<line x1="506.806" y1="84.8943" x2="501.059" y2="77.865" stroke="rgb(120,120,120)" />
<circle cx="506.806" cy="84.8943" r="2" fill="rgb(100, 100, 100)" />
<line x1="501.059" y1="77.865" x2="496.086" y2="69.1902" stroke="rgb(120,120,120)" />
<circle cx="501.059" cy="77.865" r="2" fill="rgb(100, 100, 100)" />
<line x1="496.086" y1="69.1902" x2="490.54" y2="61.6764" stroke="rgb(120,120,120)" />
<circle cx="496.086" cy="69.1902" r="2" fill="rgb(100, 100, 100)" />
<line x1="490.54" y1="61.6764" x2="485.527" y2="54.2163" stroke="rgb(120,120,120)" />
<circle cx="490.54" cy="61.6764" r="2" fill="rgb(100, 100, 100)" />
<line x1="485.527" y1="54.2163" x2="480.718" y2="46.3484" stroke="rgb(120,120,120)" />
<circle cx="485.527" cy="54.2163" r="2" fill="rgb(100, 100, 100)" />
<line x1="480.718" y1="46.3484" x2="475.805" y2="38.1378" stroke="rgb(120,120,120)" />
<circle cx="480.718" cy="46.3484" r="2" fill="rgb(100, 100, 100)" />
<line x1="475.805" y1="38.1378" x2="471.072" y2="29.8834" stroke="rgb(120,120,120)" />
<circle cx="475.805" cy="38.1378" r="2" fill="rgb(100, 100, 100)" />
<line x1="471.072" y1="29.8834" x2="466.378" y2="22.6755" stroke="rgb(120,120,120)" />
<circle cx="471.072" cy="29.8834" r="2" fill="rgb(100, 100, 100)" />
<line x1="466.378" y1="22.6755" x2="462.215" y2="15.005" stroke="rgb(120,120,120)" />
<circle cx="466.378" cy="22.6755" r="2" fill="rgb(100, 100, 100)" />
<line x1="462.215" y1="15.005" x2="459.526" y2="5.99609" stroke="rgb(120,120,120)" />
<circle cx="462.215" cy="15.005" r="2" fill="rgb(100, 100, 100)" />
<line x1="459.526" y1="5.99609" x2="456.492" y2="-4.04108" stroke="rgb(120,120,120)" />
<circle cx="459.526" cy="5.99609" r="2" fill="rgb(100, 100, 100)" />
<line x1="456.492" y1="-4.04108" x2="455.205" y2="-13.886" stroke="rgb(120,120,120)" />
<circle cx="456.492" cy="-4.04108" r="2" fill="rgb(100, 100, 100)" />
<line x1="455.205" y1="-13.886" x2="456.146" y2="-20.8305" stroke="rgb(120,120,120)" />
<circle cx="455.205" cy="-13.886" r="2" fill="rgb(100, 100, 100)" />
<line x1="456.146" y1="-20.8305" x2="464.234" y2="-30.4944" stroke="rgb(120,120,120)" />
<circle cx="456.146" cy="-20.8305" r="2" fill="rgb(100, 100, 100)" />
<line x1="464.234" y1="-30.4944" x2="442.075" y2="-23.9186" stroke="rgb(120,120,120)" />
<circle cx="464.234" cy="-30.4944" r="2" fill="rgb(100, 100, 100)" />
<line x1="442.075" y1="-23.9186" x2="428.779" y2="-18.8713" stroke="rgb(120,120,120)" />
<circle cx="442.075" cy="-23.9186" r="2" fill="rgb(100, 100, 100)" />
<line x1="428.779" y1="-18.8713" x2="418.089" y2="-11.991" stroke="rgb(120,120,120)" />
<circle cx="428.779" cy="-18.8713" r="2" fill="rgb(100, 100, 100)" />
<line x1="418.089" y1="-11.991" x2="407.791" y2="-4.94442" stroke="rgb(120,120,120)" />
<circle cx="418.089" cy="-11.991" r="2" fill="rgb(100, 100, 100)" />
<line x1="407.791" y1="-4.94442" x2="401.605" y2="-13.6356" stroke="rgb(120,120,120)" />
<circle cx="407.791" cy="-4.94442" r="2" fill="rgb(100, 100, 100)" />
<line x1="401.605" y1="-13.6356" x2="393.467" y2="-20.2422" stroke="rgb(120,120,120)" />
<circle cx="401.605" cy="-13.6356" r="2" fill="rgb(100, 100, 100)" />
<line x1="393.467" y1="-20.2422" x2="384.93" y2="-27.3157" stroke="rgb(120,120,120)" />
<circle cx="393.467" cy="-20.2422" r="2" fill="rgb(100, 100, 100)" />
<line x1="384.93" y1="-27.3157" x2="376.456" y2="-35.7751" stroke="rgb(120,120,120)" />
<circle cx="384.93" cy="-27.3157" r="2" fill="rgb(100, 100, 100)" />
<line x1="376.456" y1="-35.7751" x2="367.137" y2="-43.4256" stroke="rgb(120,120,120)" />
<circle cx="376.456" cy="-35.7751" r="2" fill="rgb(100, 100, 100)" />
<line x1="367.137" y1="-43.4256" x2="354.068" y2="-36.6916" stroke="rgb(120,120,120)" />
<circle cx="367.137" cy="-43.4256" r="2" fill="rgb(100, 100, 100)" />
<line x1="354.068" y1="-36.6916" x2="342.021" y2="-27.3125" stroke="rgb(120,120,120)" />
<circle cx="354.068" cy="-36.6916" r="2" fill="rgb(100, 100, 100)" />
<line x1="342.021" y1="-27.3125" x2="332.806" y2="-16.55" stroke="rgb(120,120,120)" />
<circle cx="342.021" cy="-27.3125" r="2" fill="rgb(100, 100, 100)" />
<line x1="332.806" y1="-16.55" x2="325.57" y2="-4.60266" stroke="rgb(120,120,120)" />
<circle cx="332.806" cy="-16.55" r="2" fill="rgb(100, 100, 100)" />
<line x1="325.57" y1="-4.60266" x2="319.775" y2="9.1379" stroke="rgb(120,120,120)" />
<circle cx="325.57" cy="-4.60266" r="2" fill="rgb(100, 100, 100)" />
<line x1="319.775" y1="9.1379" x2="316.01" y2="24.1854" stroke="rgb(120,120,120)" />
<circle cx="319.775" cy="9.1379" r="2" fill="rgb(100, 100, 100)" />
<line x1="316.01" y1="24.1854" x2="313.719" y2="41.4898" stroke="rgb(120,120,120)" />
<circle cx="316.01" cy="24.1854" r="2" fill="rgb(100, 100, 100)" />
<line x1="313.719" y1="41.4898" x2="313.858" y2="56.5462" stroke="rgb(120,120,120)" />
<circle cx="313.719" cy="41.4898" r="2" fill="rgb(100, 100, 100)" />
<line x1="313.858" y1="56.5462" x2="315.902" y2="71.3225" stroke="rgb(120,120,120)" />
<circle cx="313.858" cy="56.5462" r="2" fill="rgb(100, 100, 100)" />
<line x1="315.902" y1="71.3225" x2="318.353" y2="85.5182" stroke="rgb(120,120,120)" />
<circle cx="315.902" cy="71.3225" r="2" fill="rgb(100, 100, 100)" />
<line x1="318.353" y1="85.5182" x2="322.031" y2="97.1171" stroke="rgb(120,120,120)" />
<circle cx="318.353" cy="85.5182" r="2" fill="rgb(100, 100, 100)" />
<line x1="322.031" y1="97.1171" x2="318.636" y2="110.038" stroke="rgb(120,120,120)" />
<circle cx="322.031" cy="97.1171" r="2" fill="rgb(100, 100, 100)" />
<line x1="313.719" y1="41.4898" x2="308.9" y2="57.2231" stroke="rgb(149, 202, 135)" />
<line x1="308.9" y1="57.2231" x2="308.533" y2="72.5639" stroke="rgb(149, 202, 135)" />
<circle cx="308.9" cy="57.2231" r="2" fill="rgb(250, 65, 65)" />
<line x1="308.533" y1="72.5639" x2="310.435" y2="86.9286" stroke="rgb(149, 202, 135)" />
<circle cx="308.533" cy="72.5639" r="2" fill="rgb(250, 65, 65)" />
<line x1="310.435" y1="86.9286" x2="314.08" y2="97.4795" stroke="rgb(149, 202, 135)" />
<circle cx="310.435" cy="86.9286" r="2" fill="rgb(250, 65, 65)" />
<line x1="314.08" y1="97.4795" x2="318.636" y2="110.038" stroke="rgb(149, 202, 135)" />
<circle cx="314.08" cy="97.4795" r="2" fill="rgb(250, 65, 65)" />
<line x1="318.636" y1="110.038" x2="313.403" y2="116.126" stroke="rgb(149, 202, 135)" />
<circle cx="318.636" cy="110.038" r="2" fill="rgb(250, 65, 65)" />
<line x1="313.403" y1="116.126" x2="307.173" y2="125.46" stroke="rgb(149, 202, 135)" />
<circle cx="313.403" cy="116.126" r="2" fill="rgb(250, 65, 65)" />
<line x1="307.173" y1="125.46" x2="302.054" y2="138.065" stroke="rgb(149, 202, 135)" />
<circle cx="307.173" cy="125.46" r="2" fill="rgb(250, 65, 65)" />
<line x1="302.054" y1="138.065" x2="301.266" y2="156.238" stroke="rgb(149, 202, 135)" />
<circle cx="302.054" cy="138.065" r="2" fill="rgb(250, 65, 65)" />
<line x1="301.266" y1="156.238" x2="306.473" y2="174.341" stroke="rgb(149, 202, 135)" />
<circle cx="301.266" cy="156.238" r="2" fill="rgb(250, 65, 65)" />
<line x1="412.354" y1="211.352" x2="417.766" y2="222.626" stroke="rgb(149, 202, 135)" />
<line x1="417.766" y1="222.626" x2="421.257" y2="234.384" stroke="rgb(149, 202, 135)" />
<circle cx="417.766" cy="222.626" r="2" fill="rgb(250, 65, 65)" />
<line x1="421.257" y1="234.384" x2="428.488" y2="245.232" stroke="rgb(149, 202, 135)" />
<circle cx="421.257" cy="234.384" r="2" fill="rgb(250, 65, 65)" />
<line x1="428.488" y1="245.232" x2="440.07" y2="253.562" stroke="rgb(149, 202, 135)" />
<circle cx="428.488" cy="245.232" r="2" fill="rgb(250, 65, 65)" />
<line x1="440.07" y1="253.562" x2="459.168" y2="255.635" stroke="rgb(149, 202, 135)" />
<circle cx="440.07" cy="253.562" r="2" fill="rgb(250, 65, 65)" />
<line x1="459.168" y1="255.635" x2="452.189" y2="245.402" stroke="rgb(149, 202, 135)" />
<circle cx="459.168" cy="255.635" r="2" fill="rgb(250, 65, 65)" />
<line x1="452.189" y1="245.402" x2="451.89" y2="237.89" stroke="rgb(149, 202, 135)" />
<circle cx="452.189" cy="245.402" r="2" fill="rgb(250, 65, 65)" />
<line x1="451.89" y1="237.89" x2="454.947" y2="232.906" stroke="rgb(149, 202, 135)" />
<circle cx="451.89" cy="237.89" r="2" fill="rgb(250, 65, 65)" />
<line x1="454.947" y1="232.906" x2="455.646" y2="225.009" stroke="rgb(149, 202, 135)" />
<circle cx="454.947" cy="232.906" r="2" fill="rgb(250, 65, 65)" />
<line x1="455.646" y1="225.009" x2="455.408" y2="214.94" stroke="rgb(149, 202, 135)" />
<circle cx="455.646" cy="225.009" r="2" fill="rgb(250, 65, 65)" />
<line x1="563.592" y1="110.342" x2="574.584" y2="110.098" stroke="rgb(149, 202, 135)" />
<line x1="574.584" y1="110.098" x2="585.579" y2="110.798" stroke="rgb(149, 202, 135)" />
<circle cx="574.584" cy="110.098" r="2" fill="rgb(250, 65, 65)" />
<line x1="585.579" y1="110.798" x2="595.881" y2="111.516" stroke="rgb(149, 202, 135)" />
<circle cx="585.579" cy="110.798" r="2" fill="rgb(250, 65, 65)" />
<line x1="595.881" y1="111.516" x2="604.162" y2="112.997" stroke="rgb(149, 202, 135)" />
<circle cx="595.881" cy="111.516" r="2" fill="rgb(250, 65, 65)" />
<line x1="604.162" y1="112.997" x2="604.766" y2="115.103" stroke="rgb(149, 202, 135)" />
<circle cx="604.162" cy="112.997" r="2" fill="rgb(250, 65, 65)" />
<line x1="604.766" y1="115.103" x2="604.977" y2="110.859" stroke="rgb(149, 202, 135)" />
<circle cx="604.766" cy="115.103" r="2" fill="rgb(250, 65, 65)" />
<line x1="604.977" y1="110.859" x2="596.261" y2="106.835" stroke="rgb(149, 202, 135)" />
<circle cx="604.977" cy="110.859" r="2" fill="rgb(250, 65, 65)" />
<line x1="596.261" y1="106.835" x2="587.633" y2="102.149" stroke="rgb(149, 202, 135)" />
<circle cx="596.261" cy="106.835" r="2" fill="rgb(250, 65, 65)" />
<line x1="587.633" y1="102.149" x2="579.592" y2="95.793" stroke="rgb(149, 202, 135)" />
<circle cx="587.633" cy="102.149" r="2" fill="rgb(250, 65, 65)" />
<line x1="579.592" y1="95.793" x2="572.621" y2="88.9472" stroke="rgb(149, 202, 135)" />
<circle cx="579.592" cy="95.793" r="2" fill="rgb(250, 65, 65)" />
<line x1="462.215" y1="15.005" x2="461.017" y2="6.15763" stroke="rgb(149, 202, 135)" />
<line x1="461.017" y1="6.15763" x2="459.55" y2="-3.33231" stroke="rgb(149, 202, 135)" />
<circle cx="461.017" cy="6.15763" r="2" fill="rgb(250, 65, 65)" />
<line x1="459.55" y1="-3.33231" x2="459.444" y2="-12.2074" stroke="rgb(149, 202, 135)" />
<circle cx="459.55" cy="-3.33231" r="2" fill="rgb(250, 65, 65)" />
<line x1="459.444" y1="-12.2074" x2="460.598" y2="-18.4286" stroke="rgb(149, 202, 135)" />
<circle cx="459.444" cy="-12.2074" r="2" fill="rgb(250, 65, 65)" />
<line x1="460.598" y1="-18.4286" x2="464.234" y2="-30.4944" stroke="rgb(149, 202, 135)" />
<circle cx="460.598" cy="-18.4286" r="2" fill="rgb(250, 65, 65)" />
<line x1="464.234" y1="-30.4944" x2="441.274" y2="-33.1618" stroke="rgb(149, 202, 135)" />
<circle cx="464.234" cy="-30.4944" r="2" fill="rgb(250, 65, 65)" />
<line x1="441.274" y1="-33.1618" x2="427.027" y2="-27.6972" stroke="rgb(149, 202, 135)" />
<circle cx="441.274" cy="-33.1618" r="2" fill="rgb(250, 65, 65)" />
<line x1="427.027" y1="-27.6972" x2="416.284" y2="-17.3582" stroke="rgb(149, 202, 135)" />
<circle cx="427.027" cy="-27.6972" r="2" fill="rgb(250, 65, 65)" />
<line x1="416.284" y1="-17.3582" x2="406.797" y2="-7.26575" stroke="rgb(149, 202, 135)" />
<circle cx="416.284" cy="-17.3582" r="2" fill="rgb(250, 65, 65)" />
<line x1="406.797" y1="-7.26575" x2="401.605" y2="-13.6356" stroke="rgb(149, 202, 135)" />
<circle cx="406.797" cy="-7.26575" r="2" fill="rgb(250, 65, 65)" />
</svg>