<svg xmlns="http://www.w3.org/2000/svg" width="1000" height="1000">
<line x1="195.909" y1="53.555" x2="196.56" y2="63.6781" stroke="rgb(120,120,120)" />
<circle cx="195.909" cy="53.555" r="2" fill="rgb(100, 100, 100)" />
<line x1="196.56" y1="63.6781" x2="199.747" y2="74.136" stroke="rgb(120,120,120)" />
<circle cx="196.56" cy="63.6781" r="2" fill="rgb(100, 100, 100)" />
<line x1="199.747" y1="74.136" x2="206.319" y2="83.4841" stroke="rgb(120,120,120)" />
<circle cx="199.747" cy="74.136" r="2" fill="rgb(100, 100, 100)" />
<line x1="206.319" y1="83.4841" x2="213.06" y2="93.1803" stroke="rgb(120,120,120)" />
<circle cx="206.319" cy="83.4841" r="2" fill="rgb(100, 100, 100)" />
<line x1="213.06" y1="93.1803" x2="219.793" y2="102.928" stroke="rgb(120,120,120)" />
<circle cx="213.06" cy="93.1803" r="2" fill="rgb(100, 100, 100)" />
<line x1="219.793" y1="102.928" x2="226.611" y2="112.938" stroke="rgb(120,120,120)" />
<circle cx="219.793" cy="102.928" r="2" fill="rgb(100, 100, 100)" />
<line x1="226.611" y1="112.938" x2="232.225" y2="123.484" stroke="rgb(120,120,120)" />
<circle cx="226.611" cy="112.938" r="2" fill="rgb(100, 100, 100)" />
<line x1="232.225" y1="123.484" x2="238.554" y2="133.761" stroke="rgb(120,120,120)" />
<circle cx="232.225" cy="123.484" r="2" fill="rgb(100, 100, 100)" />
<line x1="238.554" y1="133.761" x2="245.194" y2="143.917" stroke="rgb(120,120,120)" />
<circle cx="238.554" cy="133.761" r="2" fill="rgb(100, 100, 100)" />
<line x1="245.194" y1="143.917" x2="250.837" y2="154.037" stroke="rgb(120,120,120)" />
<circle cx="245.194" cy="143.917" r="2" fill="rgb(100, 100, 100)" />
<line x1="250.837" y1="154.037" x2="255.566" y2="164.332" stroke="rgb(120,120,120)" />
<circle cx="250.837" cy="154.037" r="2" fill="rgb(100, 100, 100)" />
<line x1="255.566" y1="164.332" x2="260.478" y2="174.18" stroke="rgb(120,120,120)" />
<circle cx="255.566" cy="164.332" r="2" fill="rgb(100, 100, 100)" />
<line x1="260.478" y1="174.18" x2="264.619" y2="183.536" stroke="rgb(120,120,120)" />
<circle cx="260.478" cy="174.18" r="2" fill="rgb(100, 100, 100)" />
<line x1="264.619" y1="183.536" x2="268.714" y2="193.187" stroke="rgb(120,120,120)" />
<circle cx="264.619" cy="183.536" r="2" fill="rgb(100, 100, 100)" />
<line x1="268.714" y1="193.187" x2="269.326" y2="204.024" stroke="rgb(120,120,120)" />
<circle cx="268.714" cy="193.187" r="2" fill="rgb(100, 100, 100)" />
<line x1="269.326" y1="204.024" x2="266.91" y2="211.905" stroke="rgb(120,120,120)" />
<circle cx="269.326" cy="204.024" r="2" fill="rgb(100, 100, 100)" />
<line x1="266.91" y1="211.905" x2="266.1" y2="221.742" stroke="rgb(120,120,120)" />
<circle cx="266.91" cy="211.905" r="2" fill="rgb(100, 100, 100)" />
<line x1="266.1" y1="221.742" x2="266.291" y2="233.035" stroke="rgb(120,120,120)" />
<circle cx="266.1" cy="221.742" r="2" fill="rgb(100, 100, 100)" />
<line x1="266.291" y1="233.035" x2="271.182" y2="243.734" stroke="rgb(120,120,120)" />
<circle cx="266.291" cy="233.035" r="2" fill="rgb(100, 100, 100)" />
<line x1="271.182" y1="243.734" x2="281.853" y2="247.249" stroke="rgb(120,120,120)" />
<circle cx="271.182" cy="243.734" r="2" fill="rgb(100, 100, 100)" />
<line x1="281.853" y1="247.249" x2="294.328" y2="249.297" stroke="rgb(120,120,120)" />
<circle cx="281.853" cy="247.249" r="2" fill="rgb(100, 100, 100)" />
<line x1="294.328" y1="249.297" x2="307.292" y2="250.154" stroke="rgb(120,120,120)" />
<circle cx="294.328" cy="249.297" r="2" fill="rgb(100, 100, 100)" />
<line x1="307.292" y1="250.154" x2="319.039" y2="248.729" stroke="rgb(120,120,120)" />
<circle cx="307.292" cy="250.154" r="2" fill="rgb(100, 100, 100)" />
<line x1="319.039" y1="248.729" x2="330.735" y2="247.827" stroke="rgb(120,120,120)" />
<circle cx="319.039" cy="248.729" r="2" fill="rgb(100, 100, 100)" />
<line x1="330.735" y1="247.827" x2="341.983" y2="248.029" stroke="rgb(120,120,120)" />
<circle cx="330.735" cy="247.827" r="2" fill="rgb(100, 100, 100)" />
<line x1="341.983" y1="248.029" x2="358.282" y2="255.148" stroke="rgb(120,120,120)" />
<circle cx="341.983" cy="248.029" r="2" fill="rgb(100, 100, 100)" />
<line x1="358.282" y1="255.148" x2="364.835" y2="267.789" stroke="rgb(120,120,120)" />
<circle cx="358.282" cy="255.148" r="2" fill="rgb(100, 100, 100)" />
<line x1="364.835" y1="267.789" x2="379.294" y2="252.129" stroke="rgb(120,120,120)" />
<circle cx="364.835" cy="267.789" r="2" fill="rgb(100, 100, 100)" />
<line x1="379.294" y1="252.129" x2="383.19" y2="240.878" stroke="rgb(120,120,120)" />
<circle cx="379.294" cy="252.129" r="2" fill="rgb(100, 100, 100)" />
<line x1="383.19" y1="240.878" x2="391.825" y2="230.158" stroke="rgb(120,120,120)" />
<circle cx="383.19" cy="240.878" r="2" fill="rgb(100, 100, 100)" />
<line x1="391.825" y1="230.158" x2="398.578" y2="219.959" stroke="rgb(120,120,120)" />
<circle cx="391.825" cy="230.158" r="2" fill="rgb(100, 100, 100)" />
<line x1="398.578" y1="219.959" x2="413.35" y2="214.533" stroke="rgb(120,120,120)" />
<circle cx="398.578" cy="219.959" r="2" fill="rgb(100, 100, 100)" />
<line x1="413.35" y1="214.533" x2="429.254" y2="211.81" stroke="rgb(120,120,120)" />
<circle cx="413.35" cy="214.533" r="2" fill="rgb(100, 100, 100)" />
<line x1="429.254" y1="211.81" x2="446.155" y2="208.238" stroke="rgb(120,120,120)" />
<circle cx="429.254" cy="211.81" r="2" fill="rgb(100, 100, 100)" />
<line x1="446.155" y1="208.238" x2="462.315" y2="205.289" stroke="rgb(120,120,120)" />
<circle cx="446.155" cy="208.238" r="2" fill="rgb(100, 100, 100)" />
<line x1="462.315" y1="205.289" x2="479.971" y2="202.395" stroke="rgb(120,120,120)" />
<circle cx="462.315" cy="205.289" r="2" fill="rgb(100, 100, 100)" />
<line x1="479.971" y1="202.395" x2="499.551" y2="199.62" stroke="rgb(120,120,120)" />
<circle cx="479.971" cy="202.395" r="2" fill="rgb(100, 100, 100)" />
<line x1="499.551" y1="199.62" x2="522.392" y2="195.505" stroke="rgb(120,120,120)" />
<circle cx="499.551" cy="199.62" r="2" fill="rgb(100, 100, 100)" />
<line x1="522.392" y1="195.505" x2="510.306" y2="192.029" stroke="rgb(120,120,120)" />
<circle cx="522.392" cy="195.505" r="2" fill="rgb(100, 100, 100)" />
<line x1="510.306" y1="192.029" x2="498.008" y2="186.758" stroke="rgb(120,120,120)" />
<circle cx="510.306" cy="192.029" r="2" fill="rgb(100, 100, 100)" />
<line x1="498.008" y1="186.758" x2="484.557" y2="184.694" stroke="rgb(120,120,120)" />
<circle cx="498.008" cy="186.758" r="2" fill="rgb(100, 100, 100)" />
<line x1="484.557" y1="184.694" x2="471.407" y2="182.872" stroke="rgb(120,120,120)" />
<circle cx="484.557" cy="184.694" r="2" fill="rgb(100, 100, 100)" />
<line x1="471.407" y1="182.872" x2="460.106" y2="177.945" stroke="rgb(120,120,120)" />
<circle cx="471.407" cy="182.872" r="2" fill="rgb(100, 100, 100)" />
<line x1="460.106" y1="177.945" x2="472.618" y2="167.692" stroke="rgb(120,120,120)" />
<circle cx="460.106" cy="177.945" r="2" fill="rgb(100, 100, 100)" />
<line x1="472.618" y1="167.692" x2="485.349" y2="157.864" stroke="rgb(120,120,120)" />
<circle cx="472.618" cy="167.692" r="2" fill="rgb(100, 100, 100)" />
<line x1="485.349" y1="157.864" x2="497.938" y2="147.914" stroke="rgb(120,120,120)" />
<circle cx="485.349" cy="157.864" r="2" fill="rgb(100, 100, 100)" />
<line x1="497.938" y1="147.914" x2="506.069" y2="137.361" stroke="rgb(120,120,120)" />
<circle cx="497.938" cy="147.914" r="2" fill="rgb(100, 100, 100)" />
<line x1="506.069" y1="137.361" x2="503.107" y2="126.824" stroke="rgb(120,120,120)" />
<circle cx="506.069" cy="137.361" r="2" fill="rgb(100, 100, 100)" />
<line x1="503.107" y1="126.824" x2="501.611" y2="113.176" stroke="rgb(120,120,120)" />
<circle cx="503.107" cy="126.824" r="2" fill="rgb(100, 100, 100)" />
<line x1="501.611" y1="113.176" x2="493.353" y2="101.619" stroke="rgb(120,120,120)" />
<circle cx="501.611" cy="113.176" r="2" fill="rgb(100, 100, 100)" />
<line x1="493.353" y1="101.619" x2="484.518" y2="90.6693" stroke="rgb(120,120,120)" />
<circle cx="493.353" cy="101.619" r="2" fill="rgb(100, 100, 100)" />
<line x1="484.518" y1="90.6693" x2="477.53" y2="78.5817" stroke="rgb(120,120,120)" />
<circle cx="484.518" cy="90.6693" r="2" fill="rgb(100, 100, 100)" />
<line x1="477.53" y1="78.5817" x2="472.157" y2="65.2731" stroke="rgb(120,120,120)" />
<circle cx="477.53" cy="78.5817" r="2" fill="rgb(100, 100, 100)" />
<line x1="472.157" y1="65.2731" x2="465.428" y2="52.7409" stroke="rgb(120,120,120)" />
<circle cx="472.157" cy="65.2731" r="2" fill="rgb(100, 100, 100)" />
<line x1="465.428" y1="52.7409" x2="459.689" y2="39.6991" stroke="rgb(120,120,120)" />
<circle cx="465.428" cy="52.7409" r="2" fill="rgb(100, 100, 100)" />
<line x1="459.689" y1="39.6991" x2="452.659" y2="33.4287" stroke="rgb(120,120,120)" />
<circle cx="459.689" cy="39.6991" r="2" fill="rgb(100, 100, 100)" />
<line x1="452.659" y1="33.4287" x2="445.489" y2="27.136" stroke="rgb(120,120,120)" />
<circle cx="452.659" cy="33.4287" r="2" fill="rgb(100, 100, 100)" />
<line x1="445.489" y1="27.136" x2="440.261" y2="19.3377" stroke="rgb(120,120,120)" />
<circle cx="445.489" cy="27.136" r="2" fill="rgb(100, 100, 100)" />
<line x1="440.261" y1="19.3377" x2="434.768" y2="12.1491" stroke="rgb(120,120,120)" />
<circle cx="440.261" cy="19.3377" r="2" fill="rgb(100, 100, 100)" />
<line x1="434.768" y1="12.1491" x2="428.916" y2="6.8248" stroke="rgb(120,120,120)" />
<circle cx="434.768" cy="12.1491" r="2" fill="rgb(100, 100, 100)" />
<line x1="428.916" y1="6.8248" x2="420.503" y2="4.15633" stroke="rgb(120,120,120)" />
<circle cx="428.916" cy="6.8248" r="2" fill="rgb(100, 100, 100)" />
<line x1="420.503" y1="4.15633" x2="413.441" y2="-1.51969" stroke="rgb(120,120,120)" />
<circle cx="420.503" cy="4.15633" r="2" fill="rgb(100, 100, 100)" />
<line x1="413.441" y1="-1.51969" x2="405.334" y2="-4.72392" stroke="rgb(120,120,120)" />
<circle cx="413.441" cy="-1.51969" r="2" fill="rgb(100, 100, 100)" />
<line x1="405.334" y1="-4.72392" x2="397.606" y2="-8.81273" stroke="rgb(120,120,120)" />
<circle cx="405.334" cy="-4.72392" r="2" fill="rgb(100, 100, 100)" />
<line x1="397.606" y1="-8.81273" x2="390.495" y2="-12.8148" stroke="rgb(120,120,120)" />
<circle cx="397.606" cy="-8.81273" r="2" fill="rgb(100, 100, 100)" />
<line x1="390.495" y1="-12.8148" x2="381.759" y2="-13.9442" stroke="rgb(120,120,120)" />
<circle cx="390.495" cy="-12.8148" r="2" fill="rgb(100, 100, 100)" />
<line x1="381.759" y1="-13.9442" x2="373.217" y2="-17.995" stroke="rgb(120,120,120)" />
<circle cx="381.759" cy="-13.9442" r="2" fill="rgb(100, 100, 100)" />
<line x1="373.217" y1="-17.995" x2="366.922" y2="-17.2977" stroke="rgb(120,120,120)" />
<circle cx="373.217" cy="-17.995" r="2" fill="rgb(100, 100, 100)" />
<line x1="366.922" y1="-17.2977" x2="353.466" y2="-18.729" stroke="rgb(120,120,120)" />
<circle cx="366.922" cy="-17.2977" r="2" fill="rgb(100, 100, 100)" />
<line x1="353.466" y1="-18.729" x2="349.881" y2="-13.1151" stroke="rgb(120,120,120)" />
<circle cx="353.466" cy="-18.729" r="2" fill="rgb(100, 100, 100)" />
<line x1="349.881" y1="-13.1151" x2="345.359" y2="-5.56202" stroke="rgb(120,120,120)" />
<circle cx="349.881" cy="-13.1151" r="2" fill="rgb(100, 100, 100)" />
<line x1="345.359" y1="-5.56202" x2="340.009" y2="2.93343" stroke="rgb(120,120,120)" />
<circle cx="345.359" cy="-5.56202" r="2" fill="rgb(100, 100, 100)" />
<line x1="340.009" y1="2.93343" x2="336.073" y2="14.5027" stroke="rgb(120,120,120)" />
<circle cx="340.009" cy="2.93343" r="2" fill="rgb(100, 100, 100)" />
<line x1="336.073" y1="14.5027" x2="336.702" y2="25.9391" stroke="rgb(120,120,120)" />
<circle cx="336.073" cy="14.5027" r="2" fill="rgb(100, 100, 100)" />
<line x1="336.702" y1="25.9391" x2="341.697" y2="37.3237" stroke="rgb(120,120,120)" />
<circle cx="336.702" cy="25.9391" r="2" fill="rgb(100, 100, 100)" />
<line x1="341.697" y1="37.3237" x2="346.547" y2="49.4186" stroke="rgb(120,120,120)" />
<circle cx="341.697" cy="37.3237" r="2" fill="rgb(100, 100, 100)" />
<line x1="346.547" y1="49.4186" x2="349.699" y2="62.1554" stroke="rgb(120,120,120)" />
<circle cx="346.547" cy="49.4186" r="2" fill="rgb(100, 100, 100)" />
<line x1="349.699" y1="62.1554" x2="351.112" y2="75.4663" stroke="rgb(120,120,120)" />
<circle cx="349.699" cy="62.1554" r="2" fill="rgb(100, 100, 100)" />
<line x1="351.112" y1="75.4663" x2="351.374" y2="88.7873" stroke="rgb(120,120,120)" />
<circle cx="351.112" cy="75.4663" r="2" fill="rgb(100, 100, 100)" />
<line x1="351.374" y1="88.7873" x2="351.094" y2="102.191" stroke="rgb(120,120,120)" />
<circle cx="351.374" cy="88.7873" r="2" fill="rgb(100, 100, 100)" />
<line x1="351.094" y1="102.191" x2="349.458" y2="115.167" stroke="rgb(120,120,120)" />
<circle cx="351.094" cy="102.191" r="2" fill="rgb(100, 100, 100)" />
<line x1="349.458" y1="115.167" x2="344.669" y2="126.859" stroke="rgb(120,120,120)" />
<circle cx="349.458" cy="115.167" r="2" fill="rgb(100, 100, 100)" />
<line x1="344.669" y1="126.859" x2="334.709" y2="132.725" stroke="rgb(120,120,120)" />
<circle cx="344.669" cy="126.859" r="2" fill="rgb(100, 100, 100)" />
<line x1="334.709" y1="132.725" x2="325.435" y2="121.517" stroke="rgb(120,120,120)" />
<circle cx="334.709" cy="132.725" r="2" fill="rgb(100, 100, 100)" />
<line x1="325.435" y1="121.517" x2="317.833" y2="109.247" stroke="rgb(120,120,120)" />
<circle cx="325.435" cy="121.517" r="2" fill="rgb(100, 100, 100)" />
<line x1="317.833" y1="109.247" x2="311.915" y2="95.9575" stroke="rgb(120,120,120)" />
<circle cx="317.833" cy="109.247" r="2" fill="rgb(100, 100, 100)" />
<line x1="311.915" y1="95.9575" x2="303.969" y2="83.8014" stroke="rgb(120,120,120)" />
<circle cx="311.915" cy="95.9575" r="2" fill="rgb(100, 100, 100)" />
<line x1="303.969" y1="83.8014" x2="296.093" y2="75.7603" stroke="rgb(120,120,120)" />
<circle cx="303.969" cy="83.8014" r="2" fill="rgb(100, 100, 100)" />
<line x1="296.093" y1="75.7603" x2="286.487" y2="68.6799" stroke="rgb(120,120,120)" />
<circle cx="296.093" cy="75.7603" r="2" fill="rgb(100, 100, 100)" />
<line x1="286.487" y1="68.6799" x2="276.953" y2="61.706" stroke="rgb(120,120,120)" />
<circle cx="286.487" cy="68.6799" r="2" fill="rgb(100, 100, 100)" />
<line x1="276.953" y1="61.706" x2="267.977" y2="55.7773" stroke="rgb(120,120,120)" />
<circle cx="276.953" cy="61.706" r="2" fill="rgb(100, 100, 100)" />
<line x1="267.977" y1="55.7773" x2="258.164" y2="49.8195" stroke="rgb(120,120,120)" />
<circle cx="267.977" cy="55.7773" r="2" fill="rgb(100, 100, 100)" />
<line x1="258.164" y1="49.8195" x2="250.476" y2="42.6283" stroke="rgb(120,120,120)" />
<circle cx="258.164" cy="49.8195" r="2" fill="rgb(100, 100, 100)" />
<line x1="250.476" y1="42.6283" x2="241.756" y2="34.3884" stroke="rgb(120,120,120)" />
<circle cx="250.476" cy="42.6283" r="2" fill="rgb(100, 100, 100)" />
<line x1="241.756" y1="34.3884" x2="230.514" y2="37.576" stroke="rgb(120,120,120)" />
<circle cx="241.756" cy="34.3884" r="2" fill="rgb(100, 100, 100)" />
<line x1="230.514" y1="37.576" x2="223.856" y2="44.3461" stroke="rgb(120,120,120)" />
<circle cx="230.514" cy="37.576" r="2" fill="rgb(100, 100, 100)" />
<line x1="223.856" y1="44.3461" x2="218.354" y2="52.065" stroke="rgb(120,120,120)" />
<circle cx="223.856" cy="44.3461" r="2" fill="rgb(100, 100, 100)" />
<line x1="218.354" y1="52.065" x2="207.294" y2="49.7569" stroke="rgb(120,120,120)" />
<circle cx="218.354" cy="52.065" r="2" fill="rgb(100, 100, 100)" />
<line x1="207.294" y1="49.7569" x2="199.697" y2="50.9891" stroke="rgb(120,120,120)" />
<circle cx="207.294" cy="49.7569" r="2" fill="rgb(100, 100, 100)" />
<line x1="199.697" y1="50.9891" x2="195.909" y2="53.555" stroke="rgb(120,120,120)" />
<circle cx="199.697" cy="50.9891" r="2" fill="rgb(100, 100, 100)" />
<line x1="230.514" y1="37.576" x2="224.063" y2="45.0011" stroke="rgb(149, 202, 135)" />
<line x1="224.063" y1="45.0011" x2="218.397" y2="53.0257" stroke="rgb(149, 202, 135)" />
<circle cx="224.063" cy="45.0011" r="2" fill="rgb(250, 65, 65)" />
<line x1="218.397" y1="53.0257" x2="207.697" y2="51.2977" stroke="rgb(149, 202, 135)" />
<circle cx="218.397" cy="53.0257" r="2" fill="rgb(250, 65, 65)" />
<line x1="207.697" y1="51.2977" x2="200.258" y2="52.1336" stroke="rgb(149, 202, 135)" />
<circle cx="207.697" cy="51.2977" r="2" fill="rgb(250, 65, 65)" />
<line x1="200.258" y1="52.1336" x2="195.909" y2="53.555" stroke="rgb(149, 202, 135)" />
<circle cx="200.258" cy="52.1336" r="2" fill="rgb(250, 65, 65)" />
<line x1="195.909" y1="53.555" x2="199.327" y2="63.1057" stroke="rgb(149, 202, 135)" />
<circle cx="195.909" cy="53.555" r="2" fill="rgb(250, 65, 65)" />
<line x1="199.327" y1="63.1057" x2="202.438" y2="73.4467" stroke="rgb(149, 202, 135)" />
<circle cx="199.327" cy="63.1057" r="2" fill="rgb(250, 65, 65)" />
<line x1="202.438" y1="73.4467" x2="207.589" y2="83.0118" stroke="rgb(149, 202, 135)" />
<circle cx="202.438" cy="73.4467" r="2" fill="rgb(250, 65, 65)" />
<line x1="207.589" y1="83.0118" x2="213.98" y2="92.7691" stroke="rgb(149, 202, 135)" />
<circle cx="207.589" cy="83.0118" r="2" fill="rgb(250, 65, 65)" />
<line x1="213.98" y1="92.7691" x2="219.793" y2="102.928" stroke="rgb(149, 202, 135)" />
<circle cx="213.98" cy="92.7691" r="2" fill="rgb(250, 65, 65)" />
<line x1="307.292" y1="250.154" x2="319.177" y2="248.401" stroke="rgb(149, 202, 135)" />
<line x1="319.177" y1="248.401" x2="331.17" y2="247.102" stroke="rgb(149, 202, 135)" />
<circle cx="319.177" cy="248.401" r="2" fill="rgb(250, 65, 65)" />
<line x1="331.17" y1="247.102" x2="342.858" y2="247.06" stroke="rgb(149, 202, 135)" />
<circle cx="331.17" cy="247.102" r="2" fill="rgb(250, 65, 65)" />
<line x1="342.858" y1="247.06" x2="358.225" y2="255.178" stroke="rgb(149, 202, 135)" />
<circle cx="342.858" cy="247.06" r="2" fill="rgb(250, 65, 65)" />
<line x1="358.225" y1="255.178" x2="364.835" y2="267.789" stroke="rgb(149, 202, 135)" />
<circle cx="358.225" cy="255.178" r="2" fill="rgb(250, 65, 65)" />
<line x1="364.835" y1="267.789" x2="379.364" y2="252.194" stroke="rgb(149, 202, 135)" />
<circle cx="364.835" cy="267.789" r="2" fill="rgb(250, 65, 65)" />
<line x1="379.364" y1="252.194" x2="382.01" y2="240.11" stroke="rgb(149, 202, 135)" />
<circle cx="379.364" cy="252.194" r="2" fill="rgb(250, 65, 65)" />
<line x1="382.01" y1="240.11" x2="391.014" y2="229.589" stroke="rgb(149, 202, 135)" />
<circle cx="382.01" cy="240.11" r="2" fill="rgb(250, 65, 65)" />
<line x1="391.014" y1="229.589" x2="398.234" y2="219.718" stroke="rgb(149, 202, 135)" />
<circle cx="391.014" cy="229.589" r="2" fill="rgb(250, 65, 65)" />
<line x1="398.234" y1="219.718" x2="413.35" y2="214.533" stroke="rgb(149, 202, 135)" />
<circle cx="398.234" cy="219.718" r="2" fill="rgb(250, 65, 65)" />
<line x1="429.254" y1="211.81" x2="446.417" y2="209.717" stroke="rgb(149, 202, 135)" />
<line x1="446.417" y1="209.717" x2="462.782" y2="207.82" stroke="rgb(149, 202, 135)" />
<circle cx="446.417" cy="209.717" r="2" fill="rgb(250, 65, 65)" />
<line x1="462.782" y1="207.82" x2="480.684" y2="205.87" stroke="rgb(149, 202, 135)" />
<circle cx="462.782" cy="207.82" r="2" fill="rgb(250, 65, 65)" />
<line x1="480.684" y1="205.87" x2="500.591" y2="203.464" stroke="rgb(149, 202, 135)" />
<circle cx="480.684" cy="205.87" r="2" fill="rgb(250, 65, 65)" />
<line x1="500.591" y1="203.464" x2="522.392" y2="195.505" stroke="rgb(149, 202, 135)" />
<circle cx="500.591" cy="203.464" r="2" fill="rgb(250, 65, 65)" />
<line x1="522.392" y1="195.505" x2="511.078" y2="190.014" stroke="rgb(149, 202, 135)" />
<circle cx="522.392" cy="195.505" r="2" fill="rgb(250, 65, 65)" />
<line x1="511.078" y1="190.014" x2="498.812" y2="184.777" stroke="rgb(149, 202, 135)" />
<circle cx="511.078" cy="190.014" r="2" fill="rgb(250, 65, 65)" />
<line x1="498.812" y1="184.777" x2="485.048" y2="183.104" stroke="rgb(149, 202, 135)" />
<circle cx="498.812" cy="184.777" r="2" fill="rgb(250, 65, 65)" />
<line x1="485.048" y1="183.104" x2="471.662" y2="181.884" stroke="rgb(149, 202, 135)" />
<circle cx="485.048" cy="183.104" r="2" fill="rgb(250, 65, 65)" />
<line x1="471.662" y1="181.884" x2="460.106" y2="177.945" stroke="rgb(149, 202, 135)" />
<circle cx="471.662" cy="181.884" r="2" fill="rgb(250, 65, 65)" />
<line x1="397.606" y1="-8.81273" x2="390.538" y2="-13.0926" stroke="rgb(149, 202, 135)" />
<line x1="390.538" y1="-13.0926" x2="381.827" y2="-14.3656" stroke="rgb(149, 202, 135)" />
<circle cx="390.538" cy="-13.0926" r="2" fill="rgb(250, 65, 65)" />
<line x1="381.827" y1="-14.3656" x2="373.231" y2="-18.6615" stroke="rgb(149, 202, 135)" />
<circle cx="381.827" cy="-14.3656" r="2" fill="rgb(250, 65, 65)" />
<line x1="373.231" y1="-18.6615" x2="366.955" y2="-17.6469" stroke="rgb(149, 202, 135)" />
<circle cx="373.231" cy="-18.6615" r="2" fill="rgb(250, 65, 65)" />
<line x1="366.955" y1="-17.6469" x2="353.466" y2="-18.729" stroke="rgb(149, 202, 135)" />
<circle cx="366.955" cy="-17.6469" r="2" fill="rgb(250, 65, 65)" />
<line x1="353.466" y1="-18.729" x2="349.737" y2="-13.2099" stroke="rgb(149, 202, 135)" />
<circle cx="353.466" cy="-18.729" r="2" fill="rgb(250, 65, 65)" />
<line x1="349.737" y1="-13.2099" x2="344.92" y2="-5.84293" stroke="rgb(149, 202, 135)" />
<circle cx="349.737" cy="-13.2099" r="2" fill="rgb(250, 65, 65)" />
<line x1="344.92" y1="-5.84293" x2="339.688" y2="2.73086" stroke="rgb(149, 202, 135)" />
<circle cx="344.92" cy="-5.84293" r="2" fill="rgb(250, 65, 65)" />
<line x1="339.688" y1="2.73086" x2="335.824" y2="14.3713" stroke="rgb(149, 202, 135)" />
<circle cx="339.688" cy="2.73086" r="2" fill="rgb(250, 65, 65)" />
<line x1="335.824" y1="14.3713" x2="336.702" y2="25.9391" stroke="rgb(149, 202, 135)" />
<circle cx="335.824" cy="14.3713" r="2" fill="rgb(250, 65, 65)" />
</svg>