<svg xmlns="http://www.w3.org/2000/svg" width="1000" height="1000">
<line x1="271.307" y1="111.789" x2="273.072" y2="119.721" stroke="rgb(120,120,120)" />
<circle cx="271.307" cy="111.789" r="2" fill="rgb(100, 100, 100)" />
<line x1="273.072" y1="119.721" x2="268.753" y2="130.181" stroke="rgb(120,120,120)" />
<circle cx="273.072" cy="119.721" r="2" fill="rgb(100, 100, 100)" />
<line x1="268.753" y1="130.181" x2="264.048" y2="142.743" stroke="rgb(120,120,120)" />
<circle cx="268.753" cy="130.181" r="2" fill="rgb(100, 100, 100)" />
<line x1="264.048" y1="142.743" x2="262.413" y2="160.114" stroke="rgb(120,120,120)" />
<circle cx="264.048" cy="142.743" r="2" fill="rgb(100, 100, 100)" />
<line x1="262.413" y1="160.114" x2="263.638" y2="177.221" stroke="rgb(120,120,120)" />
<circle cx="262.413" cy="160.114" r="2" fill="rgb(100, 100, 100)" />
<line x1="263.638" y1="177.221" x2="266.286" y2="194.56" stroke="rgb(120,120,120)" />
<circle cx="263.638" cy="177.221" r="2" fill="rgb(100, 100, 100)" />
<line x1="266.286" y1="194.56" x2="271.144" y2="212.544" stroke="rgb(120,120,120)" />
<circle cx="266.286" cy="194.56" r="2" fill="rgb(100, 100, 100)" />
<line x1="271.144" y1="212.544" x2="278.336" y2="230.096" stroke="rgb(120,120,120)" />
<circle cx="271.144" cy="212.544" r="2" fill="rgb(100, 100, 100)" />
<line x1="278.336" y1="230.096" x2="287.502" y2="246.133" stroke="rgb(120,120,120)" />
<circle cx="278.336" cy="230.096" r="2" fill="rgb(100, 100, 100)" />
<line x1="287.502" y1="246.133" x2="297.516" y2="260.418" stroke="rgb(120,120,120)" />
<circle cx="287.502" cy="246.133" r="2" fill="rgb(100, 100, 100)" />
<line x1="297.516" y1="260.418" x2="307.516" y2="271.583" stroke="rgb(120,120,120)" />
<circle cx="297.516" cy="260.418" r="2" fill="rgb(100, 100, 100)" />
<line x1="307.516" y1="271.583" x2="318.625" y2="280.577" stroke="rgb(120,120,120)" />
<circle cx="307.516" cy="271.583" r="2" fill="rgb(100, 100, 100)" />
<line x1="318.625" y1="280.577" x2="330.987" y2="287.315" stroke="rgb(120,120,120)" />
<circle cx="318.625" cy="280.577" r="2" fill="rgb(100, 100, 100)" />
<line x1="330.987" y1="287.315" x2="344" y2="291.41" stroke="rgb(120,120,120)" />
<circle cx="330.987" cy="287.315" r="2" fill="rgb(100, 100, 100)" />
<line x1="344" y1="291.41" x2="350.105" y2="283.026" stroke="rgb(120,120,120)" />
<circle cx="344" cy="291.41" r="2" fill="rgb(100, 100, 100)" />
<line x1="350.105" y1="283.026" x2="355.453" y2="275.703" stroke="rgb(120,120,120)" />
<circle cx="350.105" cy="283.026" r="2" fill="rgb(100, 100, 100)" />
<line x1="355.453" y1="275.703" x2="360.449" y2="267.418" stroke="rgb(120,120,120)" />
<circle cx="355.453" cy="275.703" r="2" fill="rgb(100, 100, 100)" />
<line x1="360.449" y1="267.418" x2="364.672" y2="259.749" stroke="rgb(120,120,120)" />
<circle cx="360.449" cy="267.418" r="2" fill="rgb(100, 100, 100)" />
<line x1="364.672" y1="259.749" x2="365.462" y2="248.423" stroke="rgb(120,120,120)" />
<circle cx="364.672" cy="259.749" r="2" fill="rgb(100, 100, 100)" />
<line x1="365.462" y1="248.423" x2="366.916" y2="238.496" stroke="rgb(120,120,120)" />
<circle cx="365.462" cy="248.423" r="2" fill="rgb(100, 100, 100)" />
<line x1="366.916" y1="238.496" x2="369.198" y2="228.105" stroke="rgb(120,120,120)" />
<circle cx="366.916" cy="238.496" r="2" fill="rgb(100, 100, 100)" />
<line x1="369.198" y1="228.105" x2="372.718" y2="219.392" stroke="rgb(120,120,120)" />
<circle cx="369.198" cy="228.105" r="2" fill="rgb(100, 100, 100)" />
<line x1="372.718" y1="219.392" x2="378.896" y2="231.197" stroke="rgb(120,120,120)" />
<circle cx="372.718" cy="219.392" r="2" fill="rgb(100, 100, 100)" />
<line x1="378.896" y1="231.197" x2="383.08" y2="242.597" stroke="rgb(120,120,120)" />
<circle cx="378.896" cy="231.197" r="2" fill="rgb(100, 100, 100)" />
<line x1="383.08" y1="242.597" x2="390.54" y2="252.963" stroke="rgb(120,120,120)" />
<circle cx="383.08" cy="242.597" r="2" fill="rgb(100, 100, 100)" />
<line x1="390.54" y1="252.963" x2="401.686" y2="261.787" stroke="rgb(120,120,120)" />
<circle cx="390.54" cy="252.963" r="2" fill="rgb(100, 100, 100)" />
<line x1="401.686" y1="261.787" x2="419.957" y2="272.328" stroke="rgb(120,120,120)" />
<circle cx="401.686" cy="261.787" r="2" fill="rgb(100, 100, 100)" />
<line x1="419.957" y1="272.328" x2="410.925" y2="260.629" stroke="rgb(120,120,120)" />
<circle cx="419.957" cy="272.328" r="2" fill="rgb(100, 100, 100)" />
<line x1="410.925" y1="260.629" x2="411.031" y2="250.591" stroke="rgb(120,120,120)" />
<circle cx="410.925" cy="260.629" r="2" fill="rgb(100, 100, 100)" />
<line x1="411.031" y1="250.591" x2="415.122" y2="243.747" stroke="rgb(120,120,120)" />
<circle cx="411.031" cy="250.591" r="2" fill="rgb(100, 100, 100)" />
<line x1="415.122" y1="243.747" x2="416.658" y2="235.026" stroke="rgb(120,120,120)" />
<circle cx="415.122" cy="243.747" r="2" fill="rgb(100, 100, 100)" />
<line x1="416.658" y1="235.026" x2="416.771" y2="224.598" stroke="rgb(120,120,120)" />
<circle cx="416.658" cy="235.026" r="2" fill="rgb(100, 100, 100)" />
<line x1="416.771" y1="224.598" x2="415.26" y2="214.448" stroke="rgb(120,120,120)" />
<circle cx="416.771" cy="224.598" r="2" fill="rgb(100, 100, 100)" />
<line x1="415.26" y1="214.448" x2="416.363" y2="203.685" stroke="rgb(120,120,120)" />
<circle cx="415.26" cy="214.448" r="2" fill="rgb(100, 100, 100)" />
<line x1="416.363" y1="203.685" x2="419.354" y2="193.828" stroke="rgb(120,120,120)" />
<circle cx="416.363" cy="203.685" r="2" fill="rgb(100, 100, 100)" />
<line x1="419.354" y1="193.828" x2="424.766" y2="185.103" stroke="rgb(120,120,120)" />
<circle cx="419.354" cy="193.828" r="2" fill="rgb(100, 100, 100)" />
<line x1="424.766" y1="185.103" x2="431.868" y2="177.489" stroke="rgb(120,120,120)" />
<circle cx="424.766" cy="185.103" r="2" fill="rgb(100, 100, 100)" />
<line x1="431.868" y1="177.489" x2="440.163" y2="170.855" stroke="rgb(120,120,120)" />
<circle cx="431.868" cy="177.489" r="2" fill="rgb(100, 100, 100)" />
<line x1="440.163" y1="170.855" x2="449.549" y2="164.628" stroke="rgb(120,120,120)" />
<circle cx="440.163" cy="170.855" r="2" fill="rgb(100, 100, 100)" />
<line x1="449.549" y1="164.628" x2="456.394" y2="157.318" stroke="rgb(120,120,120)" />
<circle cx="449.549" cy="164.628" r="2" fill="rgb(100, 100, 100)" />
<line x1="456.394" y1="157.318" x2="461.743" y2="148.738" stroke="rgb(120,120,120)" />
<circle cx="456.394" cy="157.318" r="2" fill="rgb(100, 100, 100)" />
<line x1="461.743" y1="148.738" x2="467.899" y2="139.826" stroke="rgb(120,120,120)" />
<circle cx="461.743" cy="148.738" r="2" fill="rgb(100, 100, 100)" />
<line x1="467.899" y1="139.826" x2="474.803" y2="132.157" stroke="rgb(120,120,120)" />
<circle cx="467.899" cy="139.826" r="2" fill="rgb(100, 100, 100)" />
<line x1="474.803" y1="132.157" x2="482.937" y2="126.403" stroke="rgb(120,120,120)" />
<circle cx="474.803" cy="132.157" r="2" fill="rgb(100, 100, 100)" />
<line x1="482.937" y1="126.403" x2="492.022" y2="120.388" stroke="rgb(120,120,120)" />
<circle cx="482.937" cy="126.403" r="2" fill="rgb(100, 100, 100)" />
<line x1="492.022" y1="120.388" x2="501.863" y2="116.152" stroke="rgb(120,120,120)" />
<circle cx="492.022" cy="120.388" r="2" fill="rgb(100, 100, 100)" />
<line x1="501.863" y1="116.152" x2="512.498" y2="113.122" stroke="rgb(120,120,120)" />
<circle cx="501.863" cy="116.152" r="2" fill="rgb(100, 100, 100)" />
<line x1="512.498" y1="113.122" x2="523.563" y2="112.155" stroke="rgb(120,120,120)" />
<circle cx="512.498" cy="113.122" r="2" fill="rgb(100, 100, 100)" />
<line x1="523.563" y1="112.155" x2="534.757" y2="112.327" stroke="rgb(120,120,120)" />
<circle cx="523.563" cy="112.155" r="2" fill="rgb(100, 100, 100)" />
<line x1="534.757" y1="112.327" x2="545.904" y2="113.129" stroke="rgb(120,120,120)" />
<circle cx="534.757" cy="112.327" r="2" fill="rgb(100, 100, 100)" />
<line x1="545.904" y1="113.129" x2="556.602" y2="113.839" stroke="rgb(120,120,120)" />
<circle cx="545.904" cy="113.129" r="2" fill="rgb(100, 100, 100)" />
<line x1="556.602" y1="113.839" x2="566.134" y2="114.796" stroke="rgb(120,120,120)" />
<circle cx="556.602" cy="113.839" r="2" fill="rgb(100, 100, 100)" />
<line x1="566.134" y1="114.796" x2="569.818" y2="117.074" stroke="rgb(120,120,120)" />
<circle cx="566.134" cy="114.796" r="2" fill="rgb(100, 100, 100)" />
<line x1="569.818" y1="117.074" x2="566.693" y2="113.112" stroke="rgb(120,120,120)" />
<circle cx="569.818" cy="117.074" r="2" fill="rgb(100, 100, 100)" />
<line x1="566.693" y1="113.112" x2="557.902" y2="108.464" stroke="rgb(120,120,120)" />
<circle cx="566.693" cy="113.112" r="2" fill="rgb(100, 100, 100)" />
<line x1="557.902" y1="108.464" x2="548.684" y2="103.636" stroke="rgb(120,120,120)" />
<circle cx="557.902" cy="108.464" r="2" fill="rgb(100, 100, 100)" />
<line x1="548.684" y1="103.636" x2="540.273" y2="97.3948" stroke="rgb(120,120,120)" />
<circle cx="548.684" cy="103.636" r="2" fill="rgb(100, 100, 100)" />
<line x1="540.273" y1="97.3948" x2="532.765" y2="90.7826" stroke="rgb(120,120,120)" />
<circle cx="540.273" cy="97.3948" r="2" fill="rgb(100, 100, 100)" />
<line x1="532.765" y1="90.7826" x2="525.144" y2="84.0301" stroke="rgb(120,120,120)" />
<circle cx="532.765" cy="90.7826" r="2" fill="rgb(100, 100, 100)" />
<line x1="525.144" y1="84.0301" x2="517.145" y2="77.5402" stroke="rgb(120,120,120)" />
<circle cx="525.144" cy="84.0301" r="2" fill="rgb(100, 100, 100)" />
<line x1="517.145" y1="77.5402" x2="508.07" y2="72.3907" stroke="rgb(120,120,120)" />
<circle cx="517.145" cy="77.5402" r="2" fill="rgb(100, 100, 100)" />
<line x1="508.07" y1="72.3907" x2="497.266" y2="69.5325" stroke="rgb(120,120,120)" />
<circle cx="508.07" cy="72.3907" r="2" fill="rgb(100, 100, 100)" />
<line x1="497.266" y1="69.5325" x2="485.724" y2="69.9419" stroke="rgb(120,120,120)" />
<circle cx="497.266" cy="69.5325" r="2" fill="rgb(100, 100, 100)" />
<line x1="485.724" y1="69.9419" x2="475.011" y2="77.4762" stroke="rgb(120,120,120)" />
<circle cx="485.724" cy="69.9419" r="2" fill="rgb(100, 100, 100)" />
<line x1="475.011" y1="77.4762" x2="466.12" y2="85.8112" stroke="rgb(120,120,120)" />
<circle cx="475.011" cy="77.4762" r="2" fill="rgb(100, 100, 100)" />
<line x1="466.12" y1="85.8112" x2="460.452" y2="77.8771" stroke="rgb(120,120,120)" />
<circle cx="466.12" cy="85.8112" r="2" fill="rgb(100, 100, 100)" />
<line x1="460.452" y1="77.8771" x2="455.55" y2="68.7226" stroke="rgb(120,120,120)" />
<circle cx="460.452" cy="77.8771" r="2" fill="rgb(100, 100, 100)" />
<line x1="455.55" y1="68.7226" x2="450.073" y2="60.3777" stroke="rgb(120,120,120)" />
<circle cx="455.55" cy="68.7226" r="2" fill="rgb(100, 100, 100)" />
<line x1="450.073" y1="60.3777" x2="445.163" y2="52.0118" stroke="rgb(120,120,120)" />
<circle cx="450.073" cy="60.3777" r="2" fill="rgb(100, 100, 100)" />
<line x1="445.163" y1="52.0118" x2="440.454" y2="43.317" stroke="rgb(120,120,120)" />
<circle cx="445.163" cy="52.0118" r="2" fill="rgb(100, 100, 100)" />
<line x1="440.454" y1="43.317" x2="435.501" y2="34.7181" stroke="rgb(120,120,120)" />
<circle cx="440.454" cy="43.317" r="2" fill="rgb(100, 100, 100)" />
<line x1="435.501" y1="34.7181" x2="430.696" y2="25.9794" stroke="rgb(120,120,120)" />
<circle cx="435.501" cy="34.7181" r="2" fill="rgb(100, 100, 100)" />
<line x1="430.696" y1="25.9794" x2="426.177" y2="17.5599" stroke="rgb(120,120,120)" />
<circle cx="430.696" cy="25.9794" r="2" fill="rgb(100, 100, 100)" />
<line x1="426.177" y1="17.5599" x2="421.758" y2="9.41575" stroke="rgb(120,120,120)" />
<circle cx="426.177" cy="17.5599" r="2" fill="rgb(100, 100, 100)" />
<line x1="421.758" y1="9.41575" x2="418.687" y2="-0.0152" stroke="rgb(120,120,120)" />
<circle cx="421.758" cy="9.41575" r="2" fill="rgb(100, 100, 100)" />
<line x1="418.687" y1="-0.0152" x2="415.511" y2="-10.6508" stroke="rgb(120,120,120)" />
<circle cx="418.687" cy="-0.0152" r="2" fill="rgb(100, 100, 100)" />
<line x1="415.511" y1="-10.6508" x2="413.797" y2="-21.2998" stroke="rgb(120,120,120)" />
<circle cx="415.511" cy="-10.6508" r="2" fill="rgb(100, 100, 100)" />
<line x1="413.797" y1="-21.2998" x2="413.805" y2="-29.8031" stroke="rgb(120,120,120)" />
<circle cx="413.797" cy="-21.2998" r="2" fill="rgb(100, 100, 100)" />
<line x1="413.805" y1="-29.8031" x2="421.169" y2="-43.466" stroke="rgb(120,120,120)" />
<circle cx="413.805" cy="-29.8031" r="2" fill="rgb(100, 100, 100)" />
<line x1="421.169" y1="-43.466" x2="398.852" y2="-32.1454" stroke="rgb(120,120,120)" />
<circle cx="421.169" cy="-43.466" r="2" fill="rgb(100, 100, 100)" />
<line x1="398.852" y1="-32.1454" x2="385.559" y2="-25.2687" stroke="rgb(120,120,120)" />
<circle cx="398.852" cy="-32.1454" r="2" fill="rgb(100, 100, 100)" />
<line x1="385.559" y1="-25.2687" x2="374.985" y2="-17.3413" stroke="rgb(120,120,120)" />
<circle cx="385.559" cy="-25.2687" r="2" fill="rgb(100, 100, 100)" />
<line x1="374.985" y1="-17.3413" x2="364.71" y2="-9.18844" stroke="rgb(120,120,120)" />
<circle cx="374.985" cy="-17.3413" r="2" fill="rgb(100, 100, 100)" />
<line x1="364.71" y1="-9.18844" x2="357.877" y2="-17.8882" stroke="rgb(120,120,120)" />
<circle cx="364.71" cy="-9.18844" r="2" fill="rgb(100, 100, 100)" />
<line x1="357.877" y1="-17.8882" x2="349.027" y2="-24.1506" stroke="rgb(120,120,120)" />
<circle cx="357.877" cy="-17.8882" r="2" fill="rgb(100, 100, 100)" />
<line x1="349.027" y1="-24.1506" x2="339.942" y2="-30.8812" stroke="rgb(120,120,120)" />
<circle cx="349.027" cy="-24.1506" r="2" fill="rgb(100, 100, 100)" />
<line x1="339.942" y1="-30.8812" x2="331.027" y2="-38.9841" stroke="rgb(120,120,120)" />
<circle cx="339.942" cy="-30.8812" r="2" fill="rgb(100, 100, 100)" />
<line x1="331.027" y1="-38.9841" x2="321.426" y2="-46.3488" stroke="rgb(120,120,120)" />
<circle cx="331.027" cy="-38.9841" r="2" fill="rgb(100, 100, 100)" />
<line x1="321.426" y1="-46.3488" x2="308.548" y2="-38.8964" stroke="rgb(120,120,120)" />
<circle cx="321.426" cy="-46.3488" r="2" fill="rgb(100, 100, 100)" />
<line x1="308.548" y1="-38.8964" x2="296.812" y2="-28.8852" stroke="rgb(120,120,120)" />
<circle cx="308.548" cy="-38.8964" r="2" fill="rgb(100, 100, 100)" />
<line x1="296.812" y1="-28.8852" x2="287.963" y2="-17.725" stroke="rgb(120,120,120)" />
<circle cx="296.812" cy="-28.8852" r="2" fill="rgb(100, 100, 100)" />
<line x1="287.963" y1="-17.725" x2="281.101" y2="-5.4806" stroke="rgb(120,120,120)" />
<circle cx="287.963" cy="-17.725" r="2" fill="rgb(100, 100, 100)" />
<line x1="281.101" y1="-5.4806" x2="275.614" y2="8.54663" stroke="rgb(120,120,120)" />
<circle cx="281.101" cy="-5.4806" r="2" fill="rgb(100, 100, 100)" />
<line x1="275.614" y1="8.54663" x2="272.1" y2="23.8918" stroke="rgb(120,120,120)" />
<circle cx="275.614" cy="8.54663" r="2" fill="rgb(100, 100, 100)" />
<line x1="272.1" y1="23.8918" x2="269.899" y2="41.5808" stroke="rgb(120,120,120)" />
<circle cx="272.1" cy="23.8918" r="2" fill="rgb(100, 100, 100)" />
<line x1="269.899" y1="41.5808" x2="270.121" y2="56.8644" stroke="rgb(120,120,120)" />
<circle cx="269.899" cy="41.5808" r="2" fill="rgb(100, 100, 100)" />
<line x1="270.121" y1="56.8644" x2="272.04" y2="71.9898" stroke="rgb(120,120,120)" />
<circle cx="270.121" cy="56.8644" r="2" fill="rgb(100, 100, 100)" />
<line x1="272.04" y1="71.9898" x2="274.171" y2="86.5546" stroke="rgb(120,120,120)" />
<circle cx="272.04" cy="71.9898" r="2" fill="rgb(100, 100, 100)" />
<line x1="274.171" y1="86.5546" x2="277.208" y2="98.4282" stroke="rgb(120,120,120)" />
<circle cx="274.171" cy="86.5546" r="2" fill="rgb(100, 100, 100)" />
<line x1="277.208" y1="98.4282" x2="271.307" y2="111.789" stroke="rgb(120,120,120)" />
<circle cx="277.208" cy="98.4282" r="2" fill="rgb(100, 100, 100)" />
<line x1="269.899" y1="41.5808" x2="264.186" y2="57.3151" stroke="rgb(149, 202, 135)" />
<line x1="264.186" y1="57.3151" x2="262.837" y2="72.8945" stroke="rgb(149, 202, 135)" />
<circle cx="264.186" cy="57.3151" r="2" fill="rgb(250, 65, 65)" />
<line x1="262.837" y1="72.8945" x2="263.672" y2="87.5674" stroke="rgb(149, 202, 135)" />
<circle cx="262.837" cy="72.8945" r="2" fill="rgb(250, 65, 65)" />
<line x1="263.672" y1="87.5674" x2="265.859" y2="98.2373" stroke="rgb(149, 202, 135)" />
<circle cx="263.672" cy="87.5674" r="2" fill="rgb(250, 65, 65)" />
<line x1="265.859" y1="98.2373" x2="271.307" y2="111.789" stroke="rgb(149, 202, 135)" />
<circle cx="265.859" cy="98.2373" r="2" fill="rgb(250, 65, 65)" />
<line x1="271.307" y1="111.789" x2="266.859" y2="118.59" stroke="rgb(149, 202, 135)" />
<circle cx="271.307" cy="111.789" r="2" fill="rgb(250, 65, 65)" />
<line x1="266.859" y1="118.59" x2="261.501" y2="127.557" stroke="rgb(149, 202, 135)" />
<circle cx="266.859" cy="118.59" r="2" fill="rgb(250, 65, 65)" />
<line x1="261.501" y1="127.557" x2="257.102" y2="140.233" stroke="rgb(149, 202, 135)" />
<circle cx="261.501" cy="127.557" r="2" fill="rgb(250, 65, 65)" />
<line x1="257.102" y1="140.233" x2="257.237" y2="158.868" stroke="rgb(149, 202, 135)" />
<circle cx="257.102" cy="140.233" r="2" fill="rgb(250, 65, 65)" />
<line x1="257.237" y1="158.868" x2="263.638" y2="177.221" stroke="rgb(149, 202, 135)" />
<circle cx="257.237" cy="158.868" r="2" fill="rgb(250, 65, 65)" />
<line x1="372.718" y1="219.392" x2="378.095" y2="232.012" stroke="rgb(149, 202, 135)" />
<line x1="378.095" y1="232.012" x2="381.343" y2="244.891" stroke="rgb(149, 202, 135)" />
<circle cx="378.095" cy="232.012" r="2" fill="rgb(250, 65, 65)" />
<line x1="381.343" y1="244.891" x2="388.363" y2="256.767" stroke="rgb(149, 202, 135)" />
<circle cx="381.343" cy="244.891" r="2" fill="rgb(250, 65, 65)" />
<line x1="388.363" y1="256.767" x2="399.703" y2="266.437" stroke="rgb(149, 202, 135)" />
<circle cx="388.363" cy="256.767" r="2" fill="rgb(250, 65, 65)" />
<line x1="399.703" y1="266.437" x2="419.957" y2="272.328" stroke="rgb(149, 202, 135)" />
<circle cx="399.703" cy="266.437" r="2" fill="rgb(250, 65, 65)" />
<line x1="419.957" y1="272.328" x2="413.968" y2="258.816" stroke="rgb(149, 202, 135)" />
<circle cx="419.957" cy="272.328" r="2" fill="rgb(250, 65, 65)" />
<line x1="413.968" y1="258.816" x2="413.8" y2="249.651" stroke="rgb(149, 202, 135)" />
<circle cx="413.968" cy="258.816" r="2" fill="rgb(250, 65, 65)" />
<line x1="413.8" y1="249.651" x2="416.866" y2="243.506" stroke="rgb(149, 202, 135)" />
<circle cx="413.8" cy="249.651" r="2" fill="rgb(250, 65, 65)" />
<line x1="416.866" y1="243.506" x2="417.392" y2="234.968" stroke="rgb(149, 202, 135)" />
<circle cx="416.866" cy="243.506" r="2" fill="rgb(250, 65, 65)" />
<line x1="417.392" y1="234.968" x2="416.771" y2="224.598" stroke="rgb(149, 202, 135)" />
<circle cx="417.392" cy="234.968" r="2" fill="rgb(250, 65, 65)" />
<line x1="523.563" y1="112.155" x2="534.789" y2="112.096" stroke="rgb(149, 202, 135)" />
<line x1="534.789" y1="112.096" x2="545.951" y2="112.855" stroke="rgb(149, 202, 135)" />
<circle cx="534.789" cy="112.096" r="2" fill="rgb(250, 65, 65)" />
<line x1="545.951" y1="112.855" x2="556.668" y2="113.581" stroke="rgb(149, 202, 135)" />
<circle cx="545.951" cy="112.855" r="2" fill="rgb(250, 65, 65)" />
<line x1="556.668" y1="113.581" x2="566.122" y2="114.816" stroke="rgb(149, 202, 135)" />
<circle cx="556.668" cy="113.581" r="2" fill="rgb(250, 65, 65)" />
<line x1="566.122" y1="114.816" x2="569.818" y2="117.074" stroke="rgb(149, 202, 135)" />
<circle cx="566.122" cy="114.816" r="2" fill="rgb(250, 65, 65)" />
<line x1="569.818" y1="117.074" x2="566.714" y2="113.095" stroke="rgb(149, 202, 135)" />
<circle cx="569.818" cy="117.074" r="2" fill="rgb(250, 65, 65)" />
<line x1="566.714" y1="113.095" x2="557.735" y2="108.699" stroke="rgb(149, 202, 135)" />
<circle cx="566.714" cy="113.095" r="2" fill="rgb(250, 65, 65)" />
<line x1="557.735" y1="108.699" x2="548.531" y2="103.879" stroke="rgb(149, 202, 135)" />
<circle cx="557.735" cy="108.699" r="2" fill="rgb(250, 65, 65)" />
<line x1="548.531" y1="103.879" x2="540.144" y2="97.5899" stroke="rgb(149, 202, 135)" />
<circle cx="548.531" cy="103.879" r="2" fill="rgb(250, 65, 65)" />
<line x1="540.144" y1="97.5899" x2="532.765" y2="90.7826" stroke="rgb(149, 202, 135)" />
<circle cx="540.144" cy="97.5899" r="2" fill="rgb(250, 65, 65)" />
<line x1="421.758" y1="9.41575" x2="420.674" y2="0.0528183" stroke="rgb(149, 202, 135)" />
<line x1="420.674" y1="0.0528183" x2="419.409" y2="-10.2132" stroke="rgb(149, 202, 135)" />
<circle cx="420.674" cy="0.0528183" r="2" fill="rgb(250, 65, 65)" />
<line x1="419.409" y1="-10.2132" x2="419.17" y2="-20.1918" stroke="rgb(149, 202, 135)" />
<circle cx="419.409" cy="-10.2132" r="2" fill="rgb(250, 65, 65)" />
<line x1="419.17" y1="-20.1918" x2="419.638" y2="-28.0207" stroke="rgb(149, 202, 135)" />
<circle cx="419.17" cy="-20.1918" r="2" fill="rgb(250, 65, 65)" />
<line x1="419.638" y1="-28.0207" x2="421.169" y2="-43.466" stroke="rgb(149, 202, 135)" />
<circle cx="419.638" cy="-28.0207" r="2" fill="rgb(250, 65, 65)" />
<line x1="421.169" y1="-43.466" x2="396.213" y2="-41.6177" stroke="rgb(149, 202, 135)" />
<circle cx="421.169" cy="-43.466" r="2" fill="rgb(250, 65, 65)" />
<line x1="396.213" y1="-41.6177" x2="382.297" y2="-34.075" stroke="rgb(149, 202, 135)" />
<circle cx="396.213" cy="-41.6177" r="2" fill="rgb(250, 65, 65)" />
<line x1="382.297" y1="-34.075" x2="372.234" y2="-22.9527" stroke="rgb(149, 202, 135)" />
<circle cx="382.297" cy="-34.075" r="2" fill="rgb(250, 65, 65)" />
<line x1="372.234" y1="-22.9527" x2="363.203" y2="-11.8032" stroke="rgb(149, 202, 135)" />
<circle cx="372.234" cy="-22.9527" r="2" fill="rgb(250, 65, 65)" />
<line x1="363.203" y1="-11.8032" x2="357.877" y2="-17.8882" stroke="rgb(149, 202, 135)" />
<circle cx="363.203" cy="-11.8032" r="2" fill="rgb(250, 65, 65)" />
</svg>