<svg xmlns="http://www.w3.org/2000/svg" width="1000" height="1000">
<line x1="421.169" y1="-43.466" x2="425.075" y2="-33.6362" stroke="rgb(120,120,120)" />
<circle cx="421.169" cy="-43.466" r="2" fill="rgb(240, 176, 30)" />
<line x1="425.075" y1="-33.6362" x2="429.314" y2="-23.8642" stroke="rgb(120,120,120)" />
<line x1="429.314" y1="-23.8642" x2="434.113" y2="-14.1168" stroke="rgb(120,120,120)" />
<line x1="434.113" y1="-14.1168" x2="439.024" y2="-4.21716" stroke="rgb(120,120,120)" />
<line x1="439.024" y1="-4.21716" x2="445.774" y2="4.66991" stroke="rgb(120,120,120)" />
<line x1="445.774" y1="4.66991" x2="452.843" y2="13.8215" stroke="rgb(120,120,120)" />
<line x1="452.843" y1="13.8215" x2="459.47" y2="23.4079" stroke="rgb(120,120,120)" />
<line x1="459.47" y1="23.4079" x2="465.794" y2="33.1964" stroke="rgb(120,120,120)" />
<line x1="465.794" y1="33.1964" x2="471.756" y2="43.2357" stroke="rgb(120,120,120)" />
<line x1="471.756" y1="43.2357" x2="477.447" y2="53.4334" stroke="rgb(120,120,120)" />
<line x1="477.447" y1="53.4334" x2="482.738" y2="63.8348" stroke="rgb(120,120,120)" />
<line x1="482.738" y1="63.8348" x2="489.83" y2="67.0034" stroke="rgb(120,120,120)" />
<line x1="489.83" y1="67.0034" x2="499.413" y2="60.4526" stroke="rgb(120,120,120)" />
<line x1="499.413" y1="60.4526" x2="510.012" y2="56.6303" stroke="rgb(120,120,120)" />
<line x1="510.012" y1="56.6303" x2="521.412" y2="58.0693" stroke="rgb(120,120,120)" />
<line x1="521.412" y1="58.0693" x2="531.584" y2="63.379" stroke="rgb(120,120,120)" />
<line x1="531.584" y1="63.379" x2="539.697" y2="71.4099" stroke="rgb(120,120,120)" />
<line x1="539.697" y1="71.4099" x2="546.292" y2="80.6555" stroke="rgb(120,120,120)" />
<line x1="546.292" y1="80.6555" x2="552.26" y2="90.2535" stroke="rgb(120,120,120)" />
<line x1="552.26" y1="90.2535" x2="558.868" y2="99.3491" stroke="rgb(120,120,120)" />
<line x1="558.868" y1="99.3491" x2="566.034" y2="107.662" stroke="rgb(120,120,120)" />
<line x1="566.034" y1="107.662" x2="569.818" y2="117.073" stroke="rgb(120,120,120)" />
<line x1="569.818" y1="117.073" x2="572.191" y2="107.559" stroke="rgb(120,120,120)" />
<circle cx="569.818" cy="117.073" r="2" fill="rgb(240, 176, 30)" />
<line x1="572.191" y1="107.559" x2="573.231" y2="96.4926" stroke="rgb(120,120,120)" />
<line x1="573.231" y1="96.4926" x2="573.395" y2="84.8526" stroke="rgb(120,120,120)" />
<line x1="573.395" y1="84.8526" x2="573.889" y2="73.1826" stroke="rgb(120,120,120)" />
<line x1="573.889" y1="73.1826" x2="575.229" y2="61.6511" stroke="rgb(120,120,120)" />
<line x1="575.229" y1="61.6511" x2="577.348" y2="50.2341" stroke="rgb(120,120,120)" />
<line x1="577.348" y1="50.2341" x2="579.162" y2="38.6977" stroke="rgb(120,120,120)" />
<line x1="579.162" y1="38.6977" x2="581.422" y2="27.2437" stroke="rgb(120,120,120)" />
<line x1="581.422" y1="27.2437" x2="584.792" y2="16.0735" stroke="rgb(120,120,120)" />
<line x1="584.792" y1="16.0735" x2="589.373" y2="5.33856" stroke="rgb(120,120,120)" />
<line x1="589.373" y1="5.33856" x2="595.287" y2="-4.03048" stroke="rgb(120,120,120)" />
<line x1="595.287" y1="-4.03048" x2="602.399" y2="-12.5191" stroke="rgb(120,120,120)" />
<line x1="602.399" y1="-12.5191" x2="610.979" y2="-18.8958" stroke="rgb(120,120,120)" />
<line x1="610.979" y1="-18.8958" x2="621.226" y2="-21.2097" stroke="rgb(120,120,120)" />
<line x1="621.226" y1="-21.2097" x2="631.602" y2="-20.5625" stroke="rgb(120,120,120)" />
<line x1="631.602" y1="-20.5625" x2="642.063" y2="-15.3866" stroke="rgb(120,120,120)" />
<line x1="642.063" y1="-15.3866" x2="652.025" y2="-9.56182" stroke="rgb(120,120,120)" />
<line x1="652.025" y1="-9.56182" x2="661.796" y2="-3.36869" stroke="rgb(120,120,120)" />
<line x1="661.796" y1="-3.36869" x2="670.454" y2="2.97591" stroke="rgb(120,120,120)" />
<line x1="670.454" y1="2.97591" x2="677.79" y2="-3.77901" stroke="rgb(120,120,120)" />
<line x1="677.79" y1="-3.77901" x2="684.9" y2="-12.3717" stroke="rgb(120,120,120)" />
<line x1="684.9" y1="-12.3717" x2="693.033" y2="-20.1183" stroke="rgb(120,120,120)" />
<line x1="693.033" y1="-20.1183" x2="702.101" y2="-26.8625" stroke="rgb(120,120,120)" />
<line x1="702.101" y1="-26.8625" x2="710.885" y2="-32.5331" stroke="rgb(120,120,120)" />
<line x1="710.885" y1="-32.5331" x2="719.68" y2="-38.1813" stroke="rgb(120,120,120)" />
<line x1="719.68" y1="-38.1813" x2="711.244" y2="-44.7743" stroke="rgb(120,120,120)" />
<circle cx="719.68" cy="-38.1813" r="2" fill="rgb(240, 176, 30)" />
<line x1="711.244" y1="-44.7743" x2="703.486" y2="-51.3009" stroke="rgb(120,120,120)" />
<line x1="703.486" y1="-51.3009" x2="697.98" y2="-58.3563" stroke="rgb(120,120,120)" />
<line x1="697.98" y1="-58.3563" x2="695.784" y2="-65.6372" stroke="rgb(120,120,120)" />
<line x1="695.784" y1="-65.6372" x2="695.619" y2="-74.6072" stroke="rgb(120,120,120)" />
<line x1="695.619" y1="-74.6072" x2="694.984" y2="-84.6543" stroke="rgb(120,120,120)" />
<line x1="694.984" y1="-84.6543" x2="688.377" y2="-89.5755" stroke="rgb(120,120,120)" />
<line x1="688.377" y1="-89.5755" x2="679.562" y2="-87.1724" stroke="rgb(120,120,120)" />
<line x1="679.562" y1="-87.1724" x2="671.921" y2="-79.5346" stroke="rgb(120,120,120)" />
<line x1="671.921" y1="-79.5346" x2="664.602" y2="-72.1321" stroke="rgb(120,120,120)" />
<line x1="664.602" y1="-72.1321" x2="657.598" y2="-64.7537" stroke="rgb(120,120,120)" />
<line x1="657.598" y1="-64.7537" x2="651.034" y2="-56.6577" stroke="rgb(120,120,120)" />
<line x1="651.034" y1="-56.6577" x2="645.008" y2="-49.4689" stroke="rgb(120,120,120)" />
<line x1="645.008" y1="-49.4689" x2="637.032" y2="-46.0252" stroke="rgb(120,120,120)" />
<line x1="637.032" y1="-46.0252" x2="628.521" y2="-43.2387" stroke="rgb(120,120,120)" />
<line x1="628.521" y1="-43.2387" x2="619.132" y2="-43.1267" stroke="rgb(120,120,120)" />
<line x1="619.132" y1="-43.1267" x2="611.264" y2="-50.6128" stroke="rgb(120,120,120)" />
<line x1="611.264" y1="-50.6128" x2="604.207" y2="-59.5776" stroke="rgb(120,120,120)" />
<line x1="604.207" y1="-59.5776" x2="597.911" y2="-69.089" stroke="rgb(120,120,120)" />
<line x1="597.911" y1="-69.089" x2="592.526" y2="-79.1416" stroke="rgb(120,120,120)" />
<line x1="592.526" y1="-79.1416" x2="587.826" y2="-89.5392" stroke="rgb(120,120,120)" />
<line x1="587.826" y1="-89.5392" x2="583.501" y2="-100.103" stroke="rgb(120,120,120)" />
<line x1="583.501" y1="-100.103" x2="579.905" y2="-110.92" stroke="rgb(120,120,120)" />
<line x1="579.905" y1="-110.92" x2="577.014" y2="-121.95" stroke="rgb(120,120,120)" />
<line x1="577.014" y1="-121.95" x2="574.944" y2="-133.173" stroke="rgb(120,120,120)" />
<line x1="574.944" y1="-133.173" x2="572.329" y2="-144.238" stroke="rgb(120,120,120)" />
<line x1="572.329" y1="-144.238" x2="569.842" y2="-155.365" stroke="rgb(120,120,120)" />
<line x1="569.842" y1="-155.365" x2="568.64" y2="-166.671" stroke="rgb(120,120,120)" />
<line x1="568.64" y1="-166.671" x2="569.347" y2="-177.857" stroke="rgb(120,120,120)" />
<line x1="569.347" y1="-177.857" x2="570.533" y2="-188.598" stroke="rgb(120,120,120)" />
<line x1="570.533" y1="-188.598" x2="571.031" y2="-198.721" stroke="rgb(120,120,120)" />
<line x1="571.031" y1="-198.721" x2="562.552" y2="-195.561" stroke="rgb(120,120,120)" />
<circle cx="571.031" cy="-198.721" r="2" fill="rgb(240, 176, 30)" />
<line x1="562.552" y1="-195.561" x2="552.007" y2="-193.892" stroke="rgb(120,120,120)" />
<line x1="552.007" y1="-193.892" x2="541" y2="-193.838" stroke="rgb(120,120,120)" />
<line x1="541" y1="-193.838" x2="530.225" y2="-192.316" stroke="rgb(120,120,120)" />
<line x1="530.225" y1="-192.316" x2="520.112" y2="-188.663" stroke="rgb(120,120,120)" />
<line x1="520.112" y1="-188.663" x2="510.829" y2="-183.142" stroke="rgb(120,120,120)" />
<line x1="510.829" y1="-183.142" x2="502.375" y2="-176.364" stroke="rgb(120,120,120)" />
<line x1="502.375" y1="-176.364" x2="494.844" y2="-168.513" stroke="rgb(120,120,120)" />
<line x1="494.844" y1="-168.513" x2="488.189" y2="-159.847" stroke="rgb(120,120,120)" />
<line x1="488.189" y1="-159.847" x2="482.212" y2="-150.566" stroke="rgb(120,120,120)" />
<line x1="482.212" y1="-150.566" x2="475.364" y2="-141.891" stroke="rgb(120,120,120)" />
<line x1="475.364" y1="-141.891" x2="466.522" y2="-135.5" stroke="rgb(120,120,120)" />
<line x1="466.522" y1="-135.5" x2="457.392" y2="-129.24" stroke="rgb(120,120,120)" />
<line x1="457.392" y1="-129.24" x2="449.078" y2="-121.957" stroke="rgb(120,120,120)" />
<line x1="449.078" y1="-121.957" x2="442.14" y2="-113.396" stroke="rgb(120,120,120)" />
<line x1="442.14" y1="-113.396" x2="437.271" y2="-103.566" stroke="rgb(120,120,120)" />
<line x1="437.271" y1="-103.566" x2="434.577" y2="-92.9757" stroke="rgb(120,120,120)" />
<line x1="434.577" y1="-92.9757" x2="433.074" y2="-82.2016" stroke="rgb(120,120,120)" />
<line x1="433.074" y1="-82.2016" x2="430.718" y2="-71.7787" stroke="rgb(120,120,120)" />
<line x1="430.718" y1="-71.7787" x2="425.915" y2="-62.4968" stroke="rgb(120,120,120)" />
<line x1="425.915" y1="-62.4968" x2="422.289" y2="-53.1831" stroke="rgb(120,120,120)" />
<line x1="422.289" y1="-53.1831" x2="421.169" y2="-43.466" stroke="rgb(120,120,120)" />
<line x1="571.307" y1="111.789" x2="570.81" y2="121.911" stroke="rgb(120,120,120)" />
<circle cx="571.307" cy="111.789" r="2" fill="rgb(240, 176, 30)" />
<line x1="570.81" y1="121.911" x2="569.624" y2="132.652" stroke="rgb(120,120,120)" />
<line x1="569.624" y1="132.652" x2="568.917" y2="143.838" stroke="rgb(120,120,120)" />
<line x1="568.917" y1="143.838" x2="570.119" y2="155.145" stroke="rgb(120,120,120)" />
<line x1="570.119" y1="155.145" x2="572.606" y2="166.272" stroke="rgb(120,120,120)" />
<line x1="572.606" y1="166.272" x2="575.221" y2="177.337" stroke="rgb(120,120,120)" />
<line x1="575.221" y1="177.337" x2="577.291" y2="188.559" stroke="rgb(120,120,120)" />
<line x1="577.291" y1="188.559" x2="580.182" y2="199.589" stroke="rgb(120,120,120)" />
<line x1="580.182" y1="199.589" x2="583.778" y2="210.406" stroke="rgb(120,120,120)" />
<line x1="583.778" y1="210.406" x2="588.103" y2="220.97" stroke="rgb(120,120,120)" />
<line x1="588.103" y1="220.97" x2="592.803" y2="231.368" stroke="rgb(120,120,120)" />
<line x1="592.803" y1="231.368" x2="598.188" y2="241.42" stroke="rgb(120,120,120)" />
<line x1="598.188" y1="241.42" x2="604.484" y2="250.932" stroke="rgb(120,120,120)" />
<line x1="604.484" y1="250.932" x2="611.541" y2="259.896" stroke="rgb(120,120,120)" />
<line x1="611.541" y1="259.896" x2="619.409" y2="267.383" stroke="rgb(120,120,120)" />
<line x1="619.409" y1="267.383" x2="628.798" y2="267.271" stroke="rgb(120,120,120)" />
<line x1="628.798" y1="267.271" x2="637.309" y2="264.484" stroke="rgb(120,120,120)" />
<line x1="637.309" y1="264.484" x2="645.285" y2="261.04" stroke="rgb(120,120,120)" />
<line x1="645.285" y1="261.04" x2="651.311" y2="253.852" stroke="rgb(120,120,120)" />
<line x1="651.311" y1="253.852" x2="657.875" y2="245.756" stroke="rgb(120,120,120)" />
<line x1="657.875" y1="245.756" x2="664.879" y2="238.377" stroke="rgb(120,120,120)" />
<line x1="664.879" y1="238.377" x2="672.198" y2="230.975" stroke="rgb(120,120,120)" />
<line x1="672.198" y1="230.975" x2="679.839" y2="223.337" stroke="rgb(120,120,120)" />
<line x1="679.839" y1="223.337" x2="688.654" y2="220.934" stroke="rgb(120,120,120)" />
<line x1="688.654" y1="220.934" x2="695.261" y2="225.855" stroke="rgb(120,120,120)" />
<line x1="695.261" y1="225.855" x2="695.896" y2="235.902" stroke="rgb(120,120,120)" />
<line x1="695.896" y1="235.902" x2="696.061" y2="244.872" stroke="rgb(120,120,120)" />
<line x1="696.061" y1="244.872" x2="698.257" y2="252.153" stroke="rgb(120,120,120)" />
<line x1="698.257" y1="252.153" x2="703.763" y2="259.208" stroke="rgb(120,120,120)" />
<line x1="703.763" y1="259.208" x2="711.521" y2="265.735" stroke="rgb(120,120,120)" />
<line x1="711.521" y1="265.735" x2="719.956" y2="272.328" stroke="rgb(120,120,120)" />
<line x1="719.956" y1="272.328" x2="721.076" y2="262.612" stroke="rgb(120,120,120)" />
<circle cx="719.956" cy="272.328" r="2" fill="rgb(240, 176, 30)" />
<line x1="721.076" y1="262.612" x2="724.702" y2="253.298" stroke="rgb(120,120,120)" />
<line x1="724.702" y1="253.298" x2="729.505" y2="244.016" stroke="rgb(120,120,120)" />
<line x1="729.505" y1="244.016" x2="731.861" y2="233.593" stroke="rgb(120,120,120)" />
<line x1="731.861" y1="233.593" x2="733.364" y2="222.819" stroke="rgb(120,120,120)" />
<line x1="733.364" y1="222.819" x2="736.058" y2="212.228" stroke="rgb(120,120,120)" />
<line x1="736.058" y1="212.228" x2="740.927" y2="202.398" stroke="rgb(120,120,120)" />
<line x1="740.927" y1="202.398" x2="747.865" y2="193.838" stroke="rgb(120,120,120)" />
<line x1="747.865" y1="193.838" x2="756.179" y2="186.554" stroke="rgb(120,120,120)" />
<line x1="756.179" y1="186.554" x2="765.309" y2="180.294" stroke="rgb(120,120,120)" />
<line x1="765.309" y1="180.294" x2="774.151" y2="173.904" stroke="rgb(120,120,120)" />
<line x1="774.151" y1="173.904" x2="780.999" y2="165.228" stroke="rgb(120,120,120)" />
<line x1="780.999" y1="165.228" x2="786.976" y2="155.948" stroke="rgb(120,120,120)" />
<line x1="786.976" y1="155.948" x2="793.631" y2="147.282" stroke="rgb(120,120,120)" />
<line x1="793.631" y1="147.282" x2="801.162" y2="139.431" stroke="rgb(120,120,120)" />
<line x1="801.162" y1="139.431" x2="809.616" y2="132.653" stroke="rgb(120,120,120)" />
<line x1="809.616" y1="132.653" x2="818.899" y2="127.132" stroke="rgb(120,120,120)" />
<line x1="818.899" y1="127.132" x2="829.012" y2="123.479" stroke="rgb(120,120,120)" />
<line x1="829.012" y1="123.479" x2="839.787" y2="121.957" stroke="rgb(120,120,120)" />
<line x1="839.787" y1="121.957" x2="850.794" y2="121.903" stroke="rgb(120,120,120)" />
<line x1="850.794" y1="121.903" x2="861.339" y2="120.233" stroke="rgb(120,120,120)" />
<line x1="861.339" y1="120.233" x2="869.818" y2="117.074" stroke="rgb(120,120,120)" />
<line x1="869.818" y1="117.074" x2="866.034" y2="107.662" stroke="rgb(120,120,120)" />
<circle cx="869.818" cy="117.074" r="2" fill="rgb(240, 176, 30)" />
<line x1="866.034" y1="107.662" x2="858.868" y2="99.3491" stroke="rgb(120,120,120)" />
<line x1="858.868" y1="99.3491" x2="852.26" y2="90.2535" stroke="rgb(120,120,120)" />
<line x1="852.26" y1="90.2535" x2="846.292" y2="80.6555" stroke="rgb(120,120,120)" />
<line x1="846.292" y1="80.6555" x2="839.697" y2="71.4099" stroke="rgb(120,120,120)" />
<line x1="839.697" y1="71.4099" x2="831.584" y2="63.379" stroke="rgb(120,120,120)" />
<line x1="831.584" y1="63.379" x2="821.412" y2="58.0693" stroke="rgb(120,120,120)" />
<line x1="821.412" y1="58.0693" x2="810.012" y2="56.6303" stroke="rgb(120,120,120)" />
<line x1="810.012" y1="56.6303" x2="799.413" y2="60.4526" stroke="rgb(120,120,120)" />
<line x1="799.413" y1="60.4526" x2="789.83" y2="67.0034" stroke="rgb(120,120,120)" />
<line x1="789.83" y1="67.0034" x2="782.738" y2="63.8348" stroke="rgb(120,120,120)" />
<line x1="782.738" y1="63.8348" x2="777.447" y2="53.4334" stroke="rgb(120,120,120)" />
<line x1="777.447" y1="53.4334" x2="771.756" y2="43.2357" stroke="rgb(120,120,120)" />
<line x1="771.756" y1="43.2357" x2="765.794" y2="33.1964" stroke="rgb(120,120,120)" />
<line x1="765.794" y1="33.1964" x2="759.47" y2="23.4079" stroke="rgb(120,120,120)" />
<line x1="759.47" y1="23.4079" x2="752.843" y2="13.8215" stroke="rgb(120,120,120)" />
<line x1="752.843" y1="13.8215" x2="745.774" y2="4.66991" stroke="rgb(120,120,120)" />
<line x1="745.774" y1="4.66991" x2="739.024" y2="-4.21716" stroke="rgb(120,120,120)" />
<line x1="739.024" y1="-4.21716" x2="734.113" y2="-14.1168" stroke="rgb(120,120,120)" />
<line x1="734.113" y1="-14.1168" x2="729.314" y2="-23.8642" stroke="rgb(120,120,120)" />
<line x1="729.314" y1="-23.8642" x2="725.075" y2="-33.6362" stroke="rgb(120,120,120)" />
<line x1="725.075" y1="-33.6362" x2="721.169" y2="-43.4658" stroke="rgb(120,120,120)" />
<line x1="721.169" y1="-43.4658" x2="712.374" y2="-37.8175" stroke="rgb(120,120,120)" />
<circle cx="721.169" cy="-43.4658" r="2" fill="rgb(240, 176, 30)" />
<line x1="712.374" y1="-37.8175" x2="703.59" y2="-32.1469" stroke="rgb(120,120,120)" />
<line x1="703.59" y1="-32.1469" x2="694.522" y2="-25.4027" stroke="rgb(120,120,120)" />
<line x1="694.522" y1="-25.4027" x2="686.389" y2="-17.6561" stroke="rgb(120,120,120)" />
<line x1="686.389" y1="-17.6561" x2="679.279" y2="-9.06341" stroke="rgb(120,120,120)" />
<line x1="679.279" y1="-9.06341" x2="671.943" y2="-2.30849" stroke="rgb(120,120,120)" />
<line x1="671.943" y1="-2.30849" x2="663.285" y2="-8.6531" stroke="rgb(120,120,120)" />
<line x1="663.285" y1="-8.6531" x2="653.514" y2="-14.8462" stroke="rgb(120,120,120)" />
<line x1="653.514" y1="-14.8462" x2="643.552" y2="-20.671" stroke="rgb(120,120,120)" />
<line x1="643.552" y1="-20.671" x2="633.091" y2="-25.8469" stroke="rgb(120,120,120)" />
<line x1="633.091" y1="-25.8469" x2="622.715" y2="-26.4941" stroke="rgb(120,120,120)" />
<line x1="622.715" y1="-26.4941" x2="612.468" y2="-24.1802" stroke="rgb(120,120,120)" />
<line x1="612.468" y1="-24.1802" x2="603.888" y2="-17.8036" stroke="rgb(120,120,120)" />
<line x1="603.888" y1="-17.8036" x2="596.776" y2="-9.31488" stroke="rgb(120,120,120)" />
<line x1="596.776" y1="-9.31488" x2="590.862" y2="0.0541606" stroke="rgb(120,120,120)" />
<line x1="590.862" y1="0.0541606" x2="586.281" y2="10.7891" stroke="rgb(120,120,120)" />
<line x1="586.281" y1="10.7891" x2="582.911" y2="21.9593" stroke="rgb(120,120,120)" />
<line x1="582.911" y1="21.9593" x2="580.651" y2="33.4133" stroke="rgb(120,120,120)" />
<line x1="580.651" y1="33.4133" x2="578.837" y2="44.9497" stroke="rgb(120,120,120)" />
<line x1="578.837" y1="44.9497" x2="576.718" y2="56.3667" stroke="rgb(120,120,120)" />
<line x1="576.718" y1="56.3667" x2="575.378" y2="67.8982" stroke="rgb(120,120,120)" />
<line x1="575.378" y1="67.8982" x2="574.884" y2="79.5682" stroke="rgb(120,120,120)" />
<line x1="574.884" y1="79.5682" x2="574.72" y2="91.2082" stroke="rgb(120,120,120)" />
<line x1="574.72" y1="91.2082" x2="573.68" y2="102.274" stroke="rgb(120,120,120)" />
<line x1="573.68" y1="102.274" x2="571.307" y2="111.789" stroke="rgb(120,120,120)" />
</svg>