<svg xmlns="http://www.w3.org/2000/svg" width="1000" height="1000">
<line x1="421.169" y1="-43.466" x2="423.502" y2="-33.6161" stroke="rgb(120,120,120)" />
<line x1="423.502" y1="-33.6161" x2="425.526" y2="-23.4227" stroke="rgb(120,120,120)" />
<line x1="425.526" y1="-23.4227" x2="428.155" y2="-13.4121" stroke="rgb(120,120,120)" />
<line x1="428.155" y1="-13.4121" x2="431.246" y2="-3.46123" stroke="rgb(120,120,120)" />
<line x1="431.246" y1="-3.46123" x2="434.596" y2="6.44535" stroke="rgb(120,120,120)" />
<line x1="434.596" y1="6.44535" x2="440.552" y2="15.3818" stroke="rgb(120,120,120)" />
<line x1="440.552" y1="15.3818" x2="446.508" y2="24.7145" stroke="rgb(120,120,120)" />
<line x1="446.508" y1="24.7145" x2="452.363" y2="34.1131" stroke="rgb(120,120,120)" />
<line x1="452.363" y1="34.1131" x2="458.099" y2="43.6879" stroke="rgb(120,120,120)" />
<line x1="458.099" y1="43.6879" x2="463.881" y2="53.2845" stroke="rgb(120,120,120)" />
<line x1="463.881" y1="53.2845" x2="469.335" y2="63.0669" stroke="rgb(120,120,120)" />
<line x1="469.335" y1="63.0669" x2="475.153" y2="72.5188" stroke="rgb(120,120,120)" />
<line x1="475.153" y1="72.5188" x2="481.069" y2="74.3061" stroke="rgb(120,120,120)" />
<line x1="481.069" y1="74.3061" x2="488.14" y2="71.4249" stroke="rgb(120,120,120)" />
<line x1="488.14" y1="71.4249" x2="497.618" y2="66.6575" stroke="rgb(120,120,120)" />
<line x1="497.618" y1="66.6575" x2="507.844" y2="65.0983" stroke="rgb(120,120,120)" />
<line x1="507.844" y1="65.0983" x2="518.104" y2="67.2239" stroke="rgb(120,120,120)" />
<line x1="518.104" y1="67.2239" x2="527.452" y2="72.9019" stroke="rgb(120,120,120)" />
<line x1="527.452" y1="72.9019" x2="535.024" y2="81.1505" stroke="rgb(120,120,120)" />
<line x1="535.024" y1="81.1505" x2="541.313" y2="90.1981" stroke="rgb(120,120,120)" />
<line x1="541.313" y1="90.1981" x2="547.362" y2="98.914" stroke="rgb(120,120,120)" />
<line x1="547.362" y1="98.914" x2="554.75" y2="105.835" stroke="rgb(120,120,120)" />
<line x1="554.75" y1="105.835" x2="563.251" y2="111.236" stroke="rgb(120,120,120)" />
<line x1="563.251" y1="111.236" x2="569.818" y2="117.074" stroke="rgb(120,120,120)" />
<circle cx="421.169" cy="-43.466" r="2" fill="rgb(100,100,100)" />
<circle cx="423.502" cy="-33.6161" r="2" fill="rgb(100,100,100)" />
<circle cx="425.526" cy="-23.4227" r="2" fill="rgb(100,100,100)" />
<circle cx="428.155" cy="-13.4121" r="2" fill="rgb(100,100,100)" />
<circle cx="431.246" cy="-3.46123" r="2" fill="rgb(100,100,100)" />
<circle cx="434.596" cy="6.44535" r="2" fill="rgb(100,100,100)" />
<circle cx="440.552" cy="15.3818" r="2" fill="rgb(100,100,100)" />
<circle cx="446.508" cy="24.7145" r="2" fill="rgb(100,100,100)" />
<circle cx="452.363" cy="34.1131" r="2" fill="rgb(100,100,100)" />
<circle cx="458.099" cy="43.6879" r="2" fill="rgb(100,100,100)" />
<circle cx="463.881" cy="53.2845" r="2" fill="rgb(100,100,100)" />
<circle cx="469.335" cy="63.0669" r="2" fill="rgb(100,100,100)" />
<circle cx="475.153" cy="72.5188" r="2" fill="rgb(100,100,100)" />
<circle cx="481.069" cy="74.3061" r="2" fill="rgb(100,100,100)" />
<circle cx="488.14" cy="71.4249" r="2" fill="rgb(100,100,100)" />
<circle cx="497.618" cy="66.6575" r="2" fill="rgb(100,100,100)" />
<circle cx="507.844" cy="65.0983" r="2" fill="rgb(100,100,100)" />
<circle cx="518.104" cy="67.2239" r="2" fill="rgb(100,100,100)" />
<circle cx="527.452" cy="72.9019" r="2" fill="rgb(100,100,100)" />
<circle cx="535.024" cy="81.1505" r="2" fill="rgb(100,100,100)" />
<circle cx="541.313" cy="90.1981" r="2" fill="rgb(100,100,100)" />
<circle cx="547.362" cy="98.914" r="2" fill="rgb(100,100,100)" />
<circle cx="554.75" cy="105.835" r="2" fill="rgb(100,100,100)" />
<circle cx="563.251" cy="111.236" r="2" fill="rgb(100,100,100)" />
<circle cx="569.818" cy="117.074" r="2" fill="rgb(100,100,100)" />
<line x1="921.169" y1="-43.466" x2="923.502" y2="-33.6161" stroke="rgb(149, 202, 135)" />
<line x1="923.502" y1="-33.6161" x2="925.526" y2="-23.4227" stroke="rgb(149, 202, 135)" />
<line x1="925.526" y1="-23.4227" x2="928.155" y2="-13.4121" stroke="rgb(149, 202, 135)" />
<line x1="928.155" y1="-13.4121" x2="931.246" y2="-3.46123" stroke="rgb(149, 202, 135)" />
<line x1="931.246" y1="-3.46123" x2="934.596" y2="6.44535" stroke="rgb(149, 202, 135)" />
<line x1="934.596" y1="6.44535" x2="940.552" y2="15.3818" stroke="rgb(149, 202, 135)" />
<line x1="940.552" y1="15.3818" x2="946.508" y2="24.7145" stroke="rgb(149, 202, 135)" />
<line x1="946.508" y1="24.7145" x2="952.363" y2="34.1131" stroke="rgb(149, 202, 135)" />
<line x1="952.363" y1="34.1131" x2="958.099" y2="43.6879" stroke="rgb(149, 202, 135)" />
<line x1="958.099" y1="43.6879" x2="963.881" y2="53.2845" stroke="rgb(149, 202, 135)" />
<line x1="963.881" y1="53.2845" x2="969.335" y2="63.0669" stroke="rgb(149, 202, 135)" />
<line x1="969.335" y1="63.0669" x2="975.153" y2="72.5188" stroke="rgb(149, 202, 135)" />
<line x1="975.153" y1="72.5188" x2="981.069" y2="74.3061" stroke="rgb(149, 202, 135)" />
<line x1="981.069" y1="74.3061" x2="988.14" y2="71.4249" stroke="rgb(149, 202, 135)" />
<line x1="988.14" y1="71.4249" x2="997.618" y2="66.6575" stroke="rgb(149, 202, 135)" />
<line x1="997.618" y1="66.6575" x2="1007.84" y2="65.0983" stroke="rgb(149, 202, 135)" />
<line x1="1007.84" y1="65.0983" x2="1018.1" y2="67.2239" stroke="rgb(149, 202, 135)" />
<line x1="1018.1" y1="67.2239" x2="1027.45" y2="72.9019" stroke="rgb(149, 202, 135)" />
<line x1="1027.45" y1="72.9019" x2="1035.02" y2="81.1505" stroke="rgb(149, 202, 135)" />
<line x1="1035.02" y1="81.1505" x2="1041.31" y2="90.1981" stroke="rgb(149, 202, 135)" />
<line x1="1041.31" y1="90.1981" x2="1047.36" y2="98.914" stroke="rgb(149, 202, 135)" />
<line x1="1047.36" y1="98.914" x2="1054.75" y2="105.835" stroke="rgb(149, 202, 135)" />
<line x1="1054.75" y1="105.835" x2="1063.25" y2="111.236" stroke="rgb(149, 202, 135)" />
<line x1="1063.25" y1="111.236" x2="1069.82" y2="117.074" stroke="rgb(149, 202, 135)" />
<circle cx="921.169" cy="-43.466" r="2" fill="rgb(250, 65, 65)" />
<circle cx="923.502" cy="-33.6161" r="2" fill="rgb(250, 65, 65)" />
<circle cx="925.526" cy="-23.4227" r="2" fill="rgb(250, 65, 65)" />
<circle cx="928.155" cy="-13.4121" r="2" fill="rgb(250, 65, 65)" />
<circle cx="931.246" cy="-3.46123" r="2" fill="rgb(250, 65, 65)" />
<circle cx="934.596" cy="6.44535" r="2" fill="rgb(250, 65, 65)" />
<circle cx="940.552" cy="15.3818" r="2" fill="rgb(250, 65, 65)" />
<circle cx="946.508" cy="24.7145" r="2" fill="rgb(250, 65, 65)" />
<circle cx="952.363" cy="34.1131" r="2" fill="rgb(250, 65, 65)" />
<circle cx="958.099" cy="43.6879" r="2" fill="rgb(250, 65, 65)" />
<circle cx="963.881" cy="53.2845" r="2" fill="rgb(250, 65, 65)" />
<circle cx="969.335" cy="63.0669" r="2" fill="rgb(250, 65, 65)" />
<circle cx="975.153" cy="72.5188" r="2" fill="rgb(250, 65, 65)" />
<circle cx="981.069" cy="74.3061" r="2" fill="rgb(250, 65, 65)" />
<circle cx="988.14" cy="71.4249" r="2" fill="rgb(250, 65, 65)" />
<circle cx="997.618" cy="66.6575" r="2" fill="rgb(250, 65, 65)" />
<circle cx="1007.84" cy="65.0983" r="2" fill="rgb(250, 65, 65)" />
<circle cx="1018.1" cy="67.2239" r="2" fill="rgb(250, 65, 65)" />
<circle cx="1027.45" cy="72.9019" r="2" fill="rgb(250, 65, 65)" />
<circle cx="1035.02" cy="81.1505" r="2" fill="rgb(250, 65, 65)" />
<circle cx="1041.31" cy="90.1981" r="2" fill="rgb(250, 65, 65)" />
<circle cx="1047.36" cy="98.914" r="2" fill="rgb(250, 65, 65)" />
<circle cx="1054.75" cy="105.835" r="2" fill="rgb(250, 65, 65)" />
<circle cx="1063.25" cy="111.236" r="2" fill="rgb(250, 65, 65)" />
<circle cx="1069.82" cy="117.074" r="2" fill="rgb(250, 65, 65)" />
<line x1="569.818" y1="117.073" x2="571.264" y2="107.423" stroke="rgb(120,120,120)" />
<line x1="571.264" y1="107.423" x2="570.077" y2="96.3798" stroke="rgb(120,120,120)" />
<line x1="570.077" y1="96.3798" x2="569.17" y2="85.2309" stroke="rgb(120,120,120)" />
<line x1="569.17" y1="85.2309" x2="569.421" y2="73.8857" stroke="rgb(120,120,120)" />
<line x1="569.421" y1="73.8857" x2="570.786" y2="62.5626" stroke="rgb(120,120,120)" />
<line x1="570.786" y1="62.5626" x2="573.295" y2="51.3999" stroke="rgb(120,120,120)" />
<line x1="573.295" y1="51.3999" x2="574.805" y2="40.0816" stroke="rgb(120,120,120)" />
<line x1="574.805" y1="40.0816" x2="576.561" y2="28.77" stroke="rgb(120,120,120)" />
<line x1="576.561" y1="28.77" x2="579.557" y2="17.715" stroke="rgb(120,120,120)" />
<line x1="579.557" y1="17.715" x2="583.774" y2="7.06175" stroke="rgb(120,120,120)" />
<line x1="583.774" y1="7.06175" x2="589.281" y2="-2.96844" stroke="rgb(120,120,120)" />
<line x1="589.281" y1="-2.96844" x2="596.354" y2="-11.8988" stroke="rgb(120,120,120)" />
<line x1="596.354" y1="-11.8988" x2="604.942" y2="-19.3073" stroke="rgb(120,120,120)" />
<line x1="604.942" y1="-19.3073" x2="614.955" y2="-21.3318" stroke="rgb(120,120,120)" />
<line x1="614.955" y1="-21.3318" x2="625.612" y2="-18.2128" stroke="rgb(120,120,120)" />
<line x1="625.612" y1="-18.2128" x2="635.995" y2="-13.8973" stroke="rgb(120,120,120)" />
<line x1="635.995" y1="-13.8973" x2="646.215" y2="-9.04124" stroke="rgb(120,120,120)" />
<line x1="646.215" y1="-9.04124" x2="656.886" y2="-5.03051" stroke="rgb(120,120,120)" />
<line x1="656.886" y1="-5.03051" x2="666.152" y2="-6.6562" stroke="rgb(120,120,120)" />
<line x1="666.152" y1="-6.6562" x2="674.828" y2="-9.69777" stroke="rgb(120,120,120)" />
<line x1="674.828" y1="-9.69777" x2="682.859" y2="-16.6604" stroke="rgb(120,120,120)" />
<line x1="682.859" y1="-16.6604" x2="691.335" y2="-24.0721" stroke="rgb(120,120,120)" />
<line x1="691.335" y1="-24.0721" x2="700.679" y2="-30.1057" stroke="rgb(120,120,120)" />
<line x1="700.679" y1="-30.1057" x2="710.233" y2="-34.1668" stroke="rgb(120,120,120)" />
<line x1="710.233" y1="-34.1668" x2="719.68" y2="-38.1815" stroke="rgb(120,120,120)" />
<circle cx="569.818" cy="117.073" r="2" fill="rgb(100,100,100)" />
<circle cx="571.264" cy="107.423" r="2" fill="rgb(100,100,100)" />
<circle cx="570.077" cy="96.3798" r="2" fill="rgb(100,100,100)" />
<circle cx="569.17" cy="85.2309" r="2" fill="rgb(100,100,100)" />
<circle cx="569.421" cy="73.8857" r="2" fill="rgb(100,100,100)" />
<circle cx="570.786" cy="62.5626" r="2" fill="rgb(100,100,100)" />
<circle cx="573.295" cy="51.3999" r="2" fill="rgb(100,100,100)" />
<circle cx="574.805" cy="40.0816" r="2" fill="rgb(100,100,100)" />
<circle cx="576.561" cy="28.77" r="2" fill="rgb(100,100,100)" />
<circle cx="579.557" cy="17.715" r="2" fill="rgb(100,100,100)" />
<circle cx="583.774" cy="7.06175" r="2" fill="rgb(100,100,100)" />
<circle cx="589.281" cy="-2.96844" r="2" fill="rgb(100,100,100)" />
<circle cx="596.354" cy="-11.8988" r="2" fill="rgb(100,100,100)" />
<circle cx="604.942" cy="-19.3073" r="2" fill="rgb(100,100,100)" />
<circle cx="614.955" cy="-21.3318" r="2" fill="rgb(100,100,100)" />
<circle cx="625.612" cy="-18.2128" r="2" fill="rgb(100,100,100)" />
<circle cx="635.995" cy="-13.8973" r="2" fill="rgb(100,100,100)" />
<circle cx="646.215" cy="-9.04124" r="2" fill="rgb(100,100,100)" />
<circle cx="656.886" cy="-5.03051" r="2" fill="rgb(100,100,100)" />
<circle cx="666.152" cy="-6.6562" r="2" fill="rgb(100,100,100)" />
<circle cx="674.828" cy="-9.69777" r="2" fill="rgb(100,100,100)" />
<circle cx="682.859" cy="-16.6604" r="2" fill="rgb(100,100,100)" />
<circle cx="691.335" cy="-24.0721" r="2" fill="rgb(100,100,100)" />
<circle cx="700.679" cy="-30.1057" r="2" fill="rgb(100,100,100)" />
<circle cx="710.233" cy="-34.1668" r="2" fill="rgb(100,100,100)" />
<circle cx="719.68" cy="-38.1815" r="2" fill="rgb(100,100,100)" />
<line x1="1069.82" y1="117.073" x2="1071.26" y2="107.423" stroke="rgb(149, 202, 135)" />
<line x1="1071.26" y1="107.423" x2="1070.08" y2="96.3798" stroke="rgb(149, 202, 135)" />
<line x1="1070.08" y1="96.3798" x2="1069.17" y2="85.2309" stroke="rgb(149, 202, 135)" />
<line x1="1069.17" y1="85.2309" x2="1069.42" y2="73.8857" stroke="rgb(149, 202, 135)" />
<line x1="1069.42" y1="73.8857" x2="1070.79" y2="62.5626" stroke="rgb(149, 202, 135)" />
<line x1="1070.79" y1="62.5626" x2="1073.3" y2="51.3999" stroke="rgb(149, 202, 135)" />
<line x1="1073.3" y1="51.3999" x2="1074.8" y2="40.0816" stroke="rgb(149, 202, 135)" />
<line x1="1074.8" y1="40.0816" x2="1076.56" y2="28.77" stroke="rgb(149, 202, 135)" />
<line x1="1076.56" y1="28.77" x2="1079.56" y2="17.715" stroke="rgb(149, 202, 135)" />
<line x1="1079.56" y1="17.715" x2="1083.77" y2="7.06175" stroke="rgb(149, 202, 135)" />
<line x1="1083.77" y1="7.06175" x2="1089.28" y2="-2.96844" stroke="rgb(149, 202, 135)" />
<line x1="1089.28" y1="-2.96844" x2="1096.35" y2="-11.8988" stroke="rgb(149, 202, 135)" />
<line x1="1096.35" y1="-11.8988" x2="1104.94" y2="-19.3073" stroke="rgb(149, 202, 135)" />
<line x1="1104.94" y1="-19.3073" x2="1114.95" y2="-21.3318" stroke="rgb(149, 202, 135)" />
<line x1="1114.95" y1="-21.3318" x2="1125.61" y2="-18.2128" stroke="rgb(149, 202, 135)" />
<line x1="1125.61" y1="-18.2128" x2="1136" y2="-13.8973" stroke="rgb(149, 202, 135)" />
<line x1="1136" y1="-13.8973" x2="1146.21" y2="-9.04124" stroke="rgb(149, 202, 135)" />
<line x1="1146.21" y1="-9.04124" x2="1156.89" y2="-5.03051" stroke="rgb(149, 202, 135)" />
<line x1="1156.89" y1="-5.03051" x2="1166.15" y2="-6.6562" stroke="rgb(149, 202, 135)" />
<line x1="1166.15" y1="-6.6562" x2="1174.83" y2="-9.69777" stroke="rgb(149, 202, 135)" />
<line x1="1174.83" y1="-9.69777" x2="1182.86" y2="-16.6604" stroke="rgb(149, 202, 135)" />
<line x1="1182.86" y1="-16.6604" x2="1191.33" y2="-24.0721" stroke="rgb(149, 202, 135)" />
<line x1="1191.33" y1="-24.0721" x2="1200.68" y2="-30.1057" stroke="rgb(149, 202, 135)" />
<line x1="1200.68" y1="-30.1057" x2="1210.23" y2="-34.1668" stroke="rgb(149, 202, 135)" />
<line x1="1210.23" y1="-34.1668" x2="1219.68" y2="-38.1815" stroke="rgb(149, 202, 135)" />
<circle cx="1069.82" cy="117.073" r="2" fill="rgb(250, 65, 65)" />
<circle cx="1071.26" cy="107.423" r="2" fill="rgb(250, 65, 65)" />
<circle cx="1070.08" cy="96.3798" r="2" fill="rgb(250, 65, 65)" />
<circle cx="1069.17" cy="85.2309" r="2" fill="rgb(250, 65, 65)" />
<circle cx="1069.42" cy="73.8857" r="2" fill="rgb(250, 65, 65)" />
<circle cx="1070.79" cy="62.5626" r="2" fill="rgb(250, 65, 65)" />
<circle cx="1073.3" cy="51.3999" r="2" fill="rgb(250, 65, 65)" />
<circle cx="1074.8" cy="40.0816" r="2" fill="rgb(250, 65, 65)" />
<circle cx="1076.56" cy="28.77" r="2" fill="rgb(250, 65, 65)" />
<circle cx="1079.56" cy="17.715" r="2" fill="rgb(250, 65, 65)" />
<circle cx="1083.77" cy="7.06175" r="2" fill="rgb(250, 65, 65)" />
<circle cx="1089.28" cy="-2.96844" r="2" fill="rgb(250, 65, 65)" />
<circle cx="1096.35" cy="-11.8988" r="2" fill="rgb(250, 65, 65)" />
<circle cx="1104.94" cy="-19.3073" r="2" fill="rgb(250, 65, 65)" />
<circle cx="1114.95" cy="-21.3318" r="2" fill="rgb(250, 65, 65)" />
<circle cx="1125.61" cy="-18.2128" r="2" fill="rgb(250, 65, 65)" />
<circle cx="1136" cy="-13.8973" r="2" fill="rgb(250, 65, 65)" />
<circle cx="1146.21" cy="-9.04124" r="2" fill="rgb(250, 65, 65)" />
<circle cx="1156.89" cy="-5.03051" r="2" fill="rgb(250, 65, 65)" />
<circle cx="1166.15" cy="-6.6562" r="2" fill="rgb(250, 65, 65)" />
<circle cx="1174.83" cy="-9.69777" r="2" fill="rgb(250, 65, 65)" />
<circle cx="1182.86" cy="-16.6604" r="2" fill="rgb(250, 65, 65)" />
<circle cx="1191.33" cy="-24.0721" r="2" fill="rgb(250, 65, 65)" />
<circle cx="1200.68" cy="-30.1057" r="2" fill="rgb(250, 65, 65)" />
<circle cx="1210.23" cy="-34.1668" r="2" fill="rgb(250, 65, 65)" />
<circle cx="1219.68" cy="-38.1815" r="2" fill="rgb(250, 65, 65)" />
<line x1="719.68" y1="-38.1813" x2="710.487" y2="-43.2612" stroke="rgb(120,120,120)" />
<line x1="710.487" y1="-43.2612" x2="702.36" y2="-50.2624" stroke="rgb(120,120,120)" />
<line x1="702.36" y1="-50.2624" x2="696.372" y2="-59.0977" stroke="rgb(120,120,120)" />
<line x1="696.372" y1="-59.0977" x2="692.394" y2="-69.0742" stroke="rgb(120,120,120)" />
<line x1="692.394" y1="-69.0742" x2="688.701" y2="-79.8196" stroke="rgb(120,120,120)" />
<line x1="688.701" y1="-79.8196" x2="682.941" y2="-85.7311" stroke="rgb(120,120,120)" />
<line x1="682.941" y1="-85.7311" x2="676.123" y2="-88.2774" stroke="rgb(120,120,120)" />
<line x1="676.123" y1="-88.2774" x2="668.395" y2="-83.8591" stroke="rgb(120,120,120)" />
<line x1="668.395" y1="-83.8591" x2="660.575" y2="-75.2873" stroke="rgb(120,120,120)" />
<line x1="660.575" y1="-75.2873" x2="652.432" y2="-67.1274" stroke="rgb(120,120,120)" />
<line x1="652.432" y1="-67.1274" x2="643.739" y2="-59.6317" stroke="rgb(120,120,120)" />
<line x1="643.739" y1="-59.6317" x2="634.372" y2="-52.9205" stroke="rgb(120,120,120)" />
<line x1="634.372" y1="-52.9205" x2="624.737" y2="-46.7457" stroke="rgb(120,120,120)" />
<line x1="624.737" y1="-46.7457" x2="614.518" y2="-43.6904" stroke="rgb(120,120,120)" />
<line x1="614.518" y1="-43.6904" x2="604.958" y2="-50.3138" stroke="rgb(120,120,120)" />
<line x1="604.958" y1="-50.3138" x2="596.78" y2="-58.6077" stroke="rgb(120,120,120)" />
<line x1="596.78" y1="-58.6077" x2="589.921" y2="-68.0469" stroke="rgb(120,120,120)" />
<line x1="589.921" y1="-68.0469" x2="584.058" y2="-78.1542" stroke="rgb(120,120,120)" />
<line x1="584.058" y1="-78.1542" x2="578.877" y2="-88.6357" stroke="rgb(120,120,120)" />
<line x1="578.877" y1="-88.6357" x2="574.463" y2="-99.4592" stroke="rgb(120,120,120)" />
<line x1="574.463" y1="-99.4592" x2="570.974" y2="-110.603" stroke="rgb(120,120,120)" />
<line x1="570.974" y1="-110.603" x2="568.389" y2="-121.971" stroke="rgb(120,120,120)" />
<line x1="568.389" y1="-121.971" x2="566.56" y2="-133.481" stroke="rgb(120,120,120)" />
<line x1="566.56" y1="-133.481" x2="564.825" y2="-145.026" stroke="rgb(120,120,120)" />
<line x1="564.825" y1="-145.026" x2="562.987" y2="-156.509" stroke="rgb(120,120,120)" />
<line x1="562.987" y1="-156.509" x2="562.437" y2="-167.84" stroke="rgb(120,120,120)" />
<line x1="562.437" y1="-167.84" x2="564.16" y2="-178.803" stroke="rgb(120,120,120)" />
<line x1="564.16" y1="-178.803" x2="567.186" y2="-189.193" stroke="rgb(120,120,120)" />
<line x1="567.186" y1="-189.193" x2="571.031" y2="-198.72" stroke="rgb(120,120,120)" />
<circle cx="719.68" cy="-38.1813" r="2" fill="rgb(100,100,100)" />
<circle cx="710.487" cy="-43.2612" r="2" fill="rgb(100,100,100)" />
<circle cx="702.36" cy="-50.2624" r="2" fill="rgb(100,100,100)" />
<circle cx="696.372" cy="-59.0977" r="2" fill="rgb(100,100,100)" />
<circle cx="692.394" cy="-69.0742" r="2" fill="rgb(100,100,100)" />
<circle cx="688.701" cy="-79.8196" r="2" fill="rgb(100,100,100)" />
<circle cx="682.941" cy="-85.7311" r="2" fill="rgb(100,100,100)" />
<circle cx="676.123" cy="-88.2774" r="2" fill="rgb(100,100,100)" />
<circle cx="668.395" cy="-83.8591" r="2" fill="rgb(100,100,100)" />
<circle cx="660.575" cy="-75.2873" r="2" fill="rgb(100,100,100)" />
<circle cx="652.432" cy="-67.1274" r="2" fill="rgb(100,100,100)" />
<circle cx="643.739" cy="-59.6317" r="2" fill="rgb(100,100,100)" />
<circle cx="634.372" cy="-52.9205" r="2" fill="rgb(100,100,100)" />
<circle cx="624.737" cy="-46.7457" r="2" fill="rgb(100,100,100)" />
<circle cx="614.518" cy="-43.6904" r="2" fill="rgb(100,100,100)" />
<circle cx="604.958" cy="-50.3138" r="2" fill="rgb(100,100,100)" />
<circle cx="596.78" cy="-58.6077" r="2" fill="rgb(100,100,100)" />
<circle cx="589.921" cy="-68.0469" r="2" fill="rgb(100,100,100)" />
<circle cx="584.058" cy="-78.1542" r="2" fill="rgb(100,100,100)" />
<circle cx="578.877" cy="-88.6357" r="2" fill="rgb(100,100,100)" />
<circle cx="574.463" cy="-99.4592" r="2" fill="rgb(100,100,100)" />
<circle cx="570.974" cy="-110.603" r="2" fill="rgb(100,100,100)" />
<circle cx="568.389" cy="-121.971" r="2" fill="rgb(100,100,100)" />
<circle cx="566.56" cy="-133.481" r="2" fill="rgb(100,100,100)" />
<circle cx="564.825" cy="-145.026" r="2" fill="rgb(100,100,100)" />
<circle cx="562.987" cy="-156.509" r="2" fill="rgb(100,100,100)" />
<circle cx="562.437" cy="-167.84" r="2" fill="rgb(100,100,100)" />
<circle cx="564.16" cy="-178.803" r="2" fill="rgb(100,100,100)" />
<circle cx="567.186" cy="-189.193" r="2" fill="rgb(100,100,100)" />
<circle cx="571.031" cy="-198.72" r="2" fill="rgb(100,100,100)" />
<line x1="1219.68" y1="-38.1813" x2="1210.49" y2="-43.2612" stroke="rgb(149, 202, 135)" />
<line x1="1210.49" y1="-43.2612" x2="1202.36" y2="-50.2624" stroke="rgb(149, 202, 135)" />
<line x1="1202.36" y1="-50.2624" x2="1196.37" y2="-59.0977" stroke="rgb(149, 202, 135)" />
<line x1="1196.37" y1="-59.0977" x2="1192.39" y2="-69.0742" stroke="rgb(149, 202, 135)" />
<line x1="1192.39" y1="-69.0742" x2="1188.7" y2="-79.8196" stroke="rgb(149, 202, 135)" />
<line x1="1188.7" y1="-79.8196" x2="1182.94" y2="-85.7311" stroke="rgb(149, 202, 135)" />
<line x1="1182.94" y1="-85.7311" x2="1176.12" y2="-88.2774" stroke="rgb(149, 202, 135)" />
<line x1="1176.12" y1="-88.2774" x2="1168.4" y2="-83.8591" stroke="rgb(149, 202, 135)" />
<line x1="1168.4" y1="-83.8591" x2="1160.58" y2="-75.2873" stroke="rgb(149, 202, 135)" />
<line x1="1160.58" y1="-75.2873" x2="1152.43" y2="-67.1274" stroke="rgb(149, 202, 135)" />
<line x1="1152.43" y1="-67.1274" x2="1143.74" y2="-59.6317" stroke="rgb(149, 202, 135)" />
<line x1="1143.74" y1="-59.6317" x2="1134.37" y2="-52.9205" stroke="rgb(149, 202, 135)" />
<line x1="1134.37" y1="-52.9205" x2="1124.74" y2="-46.7457" stroke="rgb(149, 202, 135)" />
<line x1="1124.74" y1="-46.7457" x2="1114.52" y2="-43.6904" stroke="rgb(149, 202, 135)" />
<line x1="1114.52" y1="-43.6904" x2="1104.96" y2="-50.3138" stroke="rgb(149, 202, 135)" />
<line x1="1104.96" y1="-50.3138" x2="1096.78" y2="-58.6077" stroke="rgb(149, 202, 135)" />
<line x1="1096.78" y1="-58.6077" x2="1089.92" y2="-68.0469" stroke="rgb(149, 202, 135)" />
<line x1="1089.92" y1="-68.0469" x2="1084.06" y2="-78.1542" stroke="rgb(149, 202, 135)" />
<line x1="1084.06" y1="-78.1542" x2="1078.88" y2="-88.6357" stroke="rgb(149, 202, 135)" />
<line x1="1078.88" y1="-88.6357" x2="1074.46" y2="-99.4592" stroke="rgb(149, 202, 135)" />
<line x1="1074.46" y1="-99.4592" x2="1070.97" y2="-110.603" stroke="rgb(149, 202, 135)" />
<line x1="1070.97" y1="-110.603" x2="1068.39" y2="-121.971" stroke="rgb(149, 202, 135)" />
<line x1="1068.39" y1="-121.971" x2="1066.56" y2="-133.481" stroke="rgb(149, 202, 135)" />
<line x1="1066.56" y1="-133.481" x2="1064.82" y2="-145.026" stroke="rgb(149, 202, 135)" />
<line x1="1064.82" y1="-145.026" x2="1062.99" y2="-156.509" stroke="rgb(149, 202, 135)" />
<line x1="1062.99" y1="-156.509" x2="1062.44" y2="-167.84" stroke="rgb(149, 202, 135)" />
<line x1="1062.44" y1="-167.84" x2="1064.16" y2="-178.803" stroke="rgb(149, 202, 135)" />
<line x1="1064.16" y1="-178.803" x2="1067.19" y2="-189.193" stroke="rgb(149, 202, 135)" />
<line x1="1067.19" y1="-189.193" x2="1071.03" y2="-198.72" stroke="rgb(149, 202, 135)" />
<circle cx="1219.68" cy="-38.1813" r="2" fill="rgb(250, 65, 65)" />
<circle cx="1210.49" cy="-43.2612" r="2" fill="rgb(250, 65, 65)" />
<circle cx="1202.36" cy="-50.2624" r="2" fill="rgb(250, 65, 65)" />
<circle cx="1196.37" cy="-59.0977" r="2" fill="rgb(250, 65, 65)" />
<circle cx="1192.39" cy="-69.0742" r="2" fill="rgb(250, 65, 65)" />
<circle cx="1188.7" cy="-79.8196" r="2" fill="rgb(250, 65, 65)" />
<circle cx="1182.94" cy="-85.7311" r="2" fill="rgb(250, 65, 65)" />
<circle cx="1176.12" cy="-88.2774" r="2" fill="rgb(250, 65, 65)" />
<circle cx="1168.4" cy="-83.8591" r="2" fill="rgb(250, 65, 65)" />
<circle cx="1160.58" cy="-75.2873" r="2" fill="rgb(250, 65, 65)" />
<circle cx="1152.43" cy="-67.1274" r="2" fill="rgb(250, 65, 65)" />
<circle cx="1143.74" cy="-59.6317" r="2" fill="rgb(250, 65, 65)" />
<circle cx="1134.37" cy="-52.9205" r="2" fill="rgb(250, 65, 65)" />
<circle cx="1124.74" cy="-46.7457" r="2" fill="rgb(250, 65, 65)" />
<circle cx="1114.52" cy="-43.6904" r="2" fill="rgb(250, 65, 65)" />
<circle cx="1104.96" cy="-50.3138" r="2" fill="rgb(250, 65, 65)" />
<circle cx="1096.78" cy="-58.6077" r="2" fill="rgb(250, 65, 65)" />
<circle cx="1089.92" cy="-68.0469" r="2" fill="rgb(250, 65, 65)" />
<circle cx="1084.06" cy="-78.1542" r="2" fill="rgb(250, 65, 65)" />
<circle cx="1078.88" cy="-88.6357" r="2" fill="rgb(250, 65, 65)" />
<circle cx="1074.46" cy="-99.4592" r="2" fill="rgb(250, 65, 65)" />
<circle cx="1070.97" cy="-110.603" r="2" fill="rgb(250, 65, 65)" />
<circle cx="1068.39" cy="-121.971" r="2" fill="rgb(250, 65, 65)" />
<circle cx="1066.56" cy="-133.481" r="2" fill="rgb(250, 65, 65)" />
<circle cx="1064.82" cy="-145.026" r="2" fill="rgb(250, 65, 65)" />
<circle cx="1062.99" cy="-156.509" r="2" fill="rgb(250, 65, 65)" />
<circle cx="1062.44" cy="-167.84" r="2" fill="rgb(250, 65, 65)" />
<circle cx="1064.16" cy="-178.803" r="2" fill="rgb(250, 65, 65)" />
<circle cx="1067.19" cy="-189.193" r="2" fill="rgb(250, 65, 65)" />
<circle cx="1071.03" cy="-198.72" r="2" fill="rgb(250, 65, 65)" />
<line x1="571.031" y1="-198.721" x2="559.688" y2="-196.244" stroke="rgb(120,120,120)" />
<line x1="559.688" y1="-196.244" x2="548.103" y2="-195.731" stroke="rgb(120,120,120)" />
<line x1="548.103" y1="-195.731" x2="536.55" y2="-195.398" stroke="rgb(120,120,120)" />
<line x1="536.55" y1="-195.398" x2="525.364" y2="-194.281" stroke="rgb(120,120,120)" />
<line x1="525.364" y1="-194.281" x2="514.894" y2="-191.505" stroke="rgb(120,120,120)" />
<line x1="514.894" y1="-191.505" x2="505.06" y2="-186.827" stroke="rgb(120,120,120)" />
<line x1="505.06" y1="-186.827" x2="495.936" y2="-180.323" stroke="rgb(120,120,120)" />
<line x1="495.936" y1="-180.323" x2="487.612" y2="-172.804" stroke="rgb(120,120,120)" />
<line x1="487.612" y1="-172.804" x2="480.077" y2="-164.535" stroke="rgb(120,120,120)" />
<line x1="480.077" y1="-164.535" x2="473.319" y2="-155.451" stroke="rgb(120,120,120)" />
<line x1="473.319" y1="-155.451" x2="466.418" y2="-146.15" stroke="rgb(120,120,120)" />
<line x1="466.418" y1="-146.15" x2="458.058" y2="-138.219" stroke="rgb(120,120,120)" />
<line x1="458.058" y1="-138.219" x2="448.453" y2="-131.807" stroke="rgb(120,120,120)" />
<line x1="448.453" y1="-131.807" x2="439.226" y2="-124.837" stroke="rgb(120,120,120)" />
<line x1="439.226" y1="-124.837" x2="431.065" y2="-116.651" stroke="rgb(120,120,120)" />
<line x1="431.065" y1="-116.651" x2="427.278" y2="-105.833" stroke="rgb(120,120,120)" />
<line x1="427.278" y1="-105.833" x2="426.995" y2="-94.6623" stroke="rgb(120,120,120)" />
<line x1="426.995" y1="-94.6623" x2="427.736" y2="-83.5016" stroke="rgb(120,120,120)" />
<line x1="427.736" y1="-83.5016" x2="426.931" y2="-72.3344" stroke="rgb(120,120,120)" />
<line x1="426.931" y1="-72.3344" x2="423.271" y2="-61.9121" stroke="rgb(120,120,120)" />
<line x1="423.271" y1="-61.9121" x2="420.931" y2="-52.7936" stroke="rgb(120,120,120)" />
<line x1="420.931" y1="-52.7936" x2="421.17" y2="-43.4663" stroke="rgb(120,120,120)" />
<circle cx="571.031" cy="-198.721" r="2" fill="rgb(100,100,100)" />
<circle cx="559.688" cy="-196.244" r="2" fill="rgb(100,100,100)" />
<circle cx="548.103" cy="-195.731" r="2" fill="rgb(100,100,100)" />
<circle cx="536.55" cy="-195.398" r="2" fill="rgb(100,100,100)" />
<circle cx="525.364" cy="-194.281" r="2" fill="rgb(100,100,100)" />
<circle cx="514.894" cy="-191.505" r="2" fill="rgb(100,100,100)" />
<circle cx="505.06" cy="-186.827" r="2" fill="rgb(100,100,100)" />
<circle cx="495.936" cy="-180.323" r="2" fill="rgb(100,100,100)" />
<circle cx="487.612" cy="-172.804" r="2" fill="rgb(100,100,100)" />
<circle cx="480.077" cy="-164.535" r="2" fill="rgb(100,100,100)" />
<circle cx="473.319" cy="-155.451" r="2" fill="rgb(100,100,100)" />
<circle cx="466.418" cy="-146.15" r="2" fill="rgb(100,100,100)" />
<circle cx="458.058" cy="-138.219" r="2" fill="rgb(100,100,100)" />
<circle cx="448.453" cy="-131.807" r="2" fill="rgb(100,100,100)" />
<circle cx="439.226" cy="-124.837" r="2" fill="rgb(100,100,100)" />
<circle cx="431.065" cy="-116.651" r="2" fill="rgb(100,100,100)" />
<circle cx="427.278" cy="-105.833" r="2" fill="rgb(100,100,100)" />
<circle cx="426.995" cy="-94.6623" r="2" fill="rgb(100,100,100)" />
<circle cx="427.736" cy="-83.5016" r="2" fill="rgb(100,100,100)" />
<circle cx="426.931" cy="-72.3344" r="2" fill="rgb(100,100,100)" />
<circle cx="423.271" cy="-61.9121" r="2" fill="rgb(100,100,100)" />
<circle cx="420.931" cy="-52.7936" r="2" fill="rgb(100,100,100)" />
<circle cx="421.17" cy="-43.4663" r="2" fill="rgb(100,100,100)" />
<line x1="1071.03" y1="-198.721" x2="1059.69" y2="-196.244" stroke="rgb(149, 202, 135)" />
<line x1="1059.69" y1="-196.244" x2="1048.1" y2="-195.731" stroke="rgb(149, 202, 135)" />
<line x1="1048.1" y1="-195.731" x2="1036.55" y2="-195.398" stroke="rgb(149, 202, 135)" />
<line x1="1036.55" y1="-195.398" x2="1025.36" y2="-194.281" stroke="rgb(149, 202, 135)" />
<line x1="1025.36" y1="-194.281" x2="1014.89" y2="-191.505" stroke="rgb(149, 202, 135)" />
<line x1="1014.89" y1="-191.505" x2="1005.06" y2="-186.827" stroke="rgb(149, 202, 135)" />
<line x1="1005.06" y1="-186.827" x2="995.936" y2="-180.323" stroke="rgb(149, 202, 135)" />
<line x1="995.936" y1="-180.323" x2="987.612" y2="-172.804" stroke="rgb(149, 202, 135)" />
<line x1="987.612" y1="-172.804" x2="980.077" y2="-164.535" stroke="rgb(149, 202, 135)" />
<line x1="980.077" y1="-164.535" x2="973.319" y2="-155.451" stroke="rgb(149, 202, 135)" />
<line x1="973.319" y1="-155.451" x2="966.418" y2="-146.15" stroke="rgb(149, 202, 135)" />
<line x1="966.418" y1="-146.15" x2="958.058" y2="-138.219" stroke="rgb(149, 202, 135)" />
<line x1="958.058" y1="-138.219" x2="948.453" y2="-131.807" stroke="rgb(149, 202, 135)" />
<line x1="948.453" y1="-131.807" x2="939.226" y2="-124.837" stroke="rgb(149, 202, 135)" />
<line x1="939.226" y1="-124.837" x2="931.065" y2="-116.651" stroke="rgb(149, 202, 135)" />
<line x1="931.065" y1="-116.651" x2="927.278" y2="-105.833" stroke="rgb(149, 202, 135)" />
<line x1="927.278" y1="-105.833" x2="926.995" y2="-94.6623" stroke="rgb(149, 202, 135)" />
<line x1="926.995" y1="-94.6623" x2="927.736" y2="-83.5016" stroke="rgb(149, 202, 135)" />
<line x1="927.736" y1="-83.5016" x2="926.931" y2="-72.3344" stroke="rgb(149, 202, 135)" />
<line x1="926.931" y1="-72.3344" x2="923.271" y2="-61.9121" stroke="rgb(149, 202, 135)" />
<line x1="923.271" y1="-61.9121" x2="920.931" y2="-52.7936" stroke="rgb(149, 202, 135)" />
<line x1="920.931" y1="-52.7936" x2="921.17" y2="-43.4663" stroke="rgb(149, 202, 135)" />
<circle cx="1071.03" cy="-198.721" r="2" fill="rgb(250, 65, 65)" />
<circle cx="1059.69" cy="-196.244" r="2" fill="rgb(250, 65, 65)" />
<circle cx="1048.1" cy="-195.731" r="2" fill="rgb(250, 65, 65)" />
<circle cx="1036.55" cy="-195.398" r="2" fill="rgb(250, 65, 65)" />
<circle cx="1025.36" cy="-194.281" r="2" fill="rgb(250, 65, 65)" />
<circle cx="1014.89" cy="-191.505" r="2" fill="rgb(250, 65, 65)" />
<circle cx="1005.06" cy="-186.827" r="2" fill="rgb(250, 65, 65)" />
<circle cx="995.936" cy="-180.323" r="2" fill="rgb(250, 65, 65)" />
<circle cx="987.612" cy="-172.804" r="2" fill="rgb(250, 65, 65)" />
<circle cx="980.077" cy="-164.535" r="2" fill="rgb(250, 65, 65)" />
<circle cx="973.319" cy="-155.451" r="2" fill="rgb(250, 65, 65)" />
<circle cx="966.418" cy="-146.15" r="2" fill="rgb(250, 65, 65)" />
<circle cx="958.058" cy="-138.219" r="2" fill="rgb(250, 65, 65)" />
<circle cx="948.453" cy="-131.807" r="2" fill="rgb(250, 65, 65)" />
<circle cx="939.226" cy="-124.837" r="2" fill="rgb(250, 65, 65)" />
<circle cx="931.065" cy="-116.651" r="2" fill="rgb(250, 65, 65)" />
<circle cx="927.278" cy="-105.833" r="2" fill="rgb(250, 65, 65)" />
<circle cx="926.995" cy="-94.6623" r="2" fill="rgb(250, 65, 65)" />
<circle cx="927.736" cy="-83.5016" r="2" fill="rgb(250, 65, 65)" />
<circle cx="926.931" cy="-72.3344" r="2" fill="rgb(250, 65, 65)" />
<circle cx="923.271" cy="-61.9121" r="2" fill="rgb(250, 65, 65)" />
<circle cx="920.931" cy="-52.7936" r="2" fill="rgb(250, 65, 65)" />
<circle cx="921.17" cy="-43.4663" r="2" fill="rgb(250, 65, 65)" />
</svg>