<svg xmlns="http://www.w3.org/2000/svg" width="1000" height="1000">
<line x1="464.234" y1="-30.4944" x2="466.394" y2="-20.5522" stroke="rgb(120,120,120)" />
<circle cx="464.234" cy="-30.4944" r="2" fill="rgb(240, 176, 30)" />
<line x1="466.394" y1="-20.5522" x2="469.93" y2="-10.8059" stroke="rgb(120,120,120)" />
<line x1="469.93" y1="-10.8059" x2="474.566" y2="-1.02918" stroke="rgb(120,120,120)" />
<line x1="474.566" y1="-1.02918" x2="479.891" y2="8.27162" stroke="rgb(120,120,120)" />
<line x1="479.891" y1="8.27162" x2="487.333" y2="16.6164" stroke="rgb(120,120,120)" />
<line x1="487.333" y1="16.6164" x2="494.433" y2="25.4096" stroke="rgb(120,120,120)" />
<line x1="494.433" y1="25.4096" x2="501.25" y2="34.3751" stroke="rgb(120,120,120)" />
<line x1="501.25" y1="34.3751" x2="507.737" y2="43.6381" stroke="rgb(120,120,120)" />
<line x1="507.737" y1="43.6381" x2="514.101" y2="53.0489" stroke="rgb(120,120,120)" />
<line x1="514.101" y1="53.0489" x2="519.867" y2="62.8981" stroke="rgb(120,120,120)" />
<line x1="519.867" y1="62.8981" x2="525.86" y2="72.2939" stroke="rgb(120,120,120)" />
<line x1="525.86" y1="72.2939" x2="534.788" y2="66.3835" stroke="rgb(120,120,120)" />
<line x1="534.788" y1="66.3835" x2="544.61" y2="60.9591" stroke="rgb(120,120,120)" />
<line x1="544.61" y1="60.9591" x2="555.833" y2="60.4504" stroke="rgb(120,120,120)" />
<line x1="555.833" y1="60.4504" x2="566.557" y2="63.8268" stroke="rgb(120,120,120)" />
<line x1="566.557" y1="63.8268" x2="575.788" y2="70.2522" stroke="rgb(120,120,120)" />
<line x1="575.788" y1="70.2522" x2="583.055" y2="78.6263" stroke="rgb(120,120,120)" />
<line x1="583.055" y1="78.6263" x2="589.166" y2="87.9214" stroke="rgb(120,120,120)" />
<line x1="589.166" y1="87.9214" x2="595.033" y2="97.1434" stroke="rgb(120,120,120)" />
<line x1="595.033" y1="97.1434" x2="601.877" y2="105.424" stroke="rgb(120,120,120)" />
<line x1="601.877" y1="105.424" x2="604.766" y2="115.104" stroke="rgb(120,120,120)" />
<line x1="604.766" y1="115.104" x2="607.682" y2="107.662" stroke="rgb(120,120,120)" />
<circle cx="604.766" cy="115.104" r="2" fill="rgb(240, 176, 30)" />
<line x1="607.682" y1="107.662" x2="608.674" y2="98.3189" stroke="rgb(120,120,120)" />
<line x1="608.674" y1="98.3189" x2="608.639" y2="88.1183" stroke="rgb(120,120,120)" />
<line x1="608.639" y1="88.1183" x2="609.035" y2="77.83" stroke="rgb(120,120,120)" />
<line x1="609.035" y1="77.83" x2="609.731" y2="67.5216" stroke="rgb(120,120,120)" />
<line x1="609.731" y1="67.5216" x2="611.707" y2="57.4141" stroke="rgb(120,120,120)" />
<line x1="611.707" y1="57.4141" x2="613.319" y2="47.2078" stroke="rgb(120,120,120)" />
<line x1="613.319" y1="47.2078" x2="614.921" y2="36.9962" stroke="rgb(120,120,120)" />
<line x1="614.921" y1="36.9962" x2="617.614" y2="27.0126" stroke="rgb(120,120,120)" />
<line x1="617.614" y1="27.0126" x2="621.179" y2="17.3077" stroke="rgb(120,120,120)" />
<line x1="621.179" y1="17.3077" x2="625.731" y2="8.0302" stroke="rgb(120,120,120)" />
<line x1="625.731" y1="8.0302" x2="631.399" y2="-0.0905069" stroke="rgb(120,120,120)" />
<line x1="631.399" y1="-0.0905069" x2="638.11" y2="-7.14875" stroke="rgb(120,120,120)" />
<line x1="638.11" y1="-7.14875" x2="646.07" y2="-12.0014" stroke="rgb(120,120,120)" />
<line x1="646.07" y1="-12.0014" x2="655.219" y2="-13.8946" stroke="rgb(120,120,120)" />
<line x1="655.219" y1="-13.8946" x2="664.604" y2="-14.5227" stroke="rgb(120,120,120)" />
<line x1="664.604" y1="-14.5227" x2="673.825" y2="-10.0822" stroke="rgb(120,120,120)" />
<line x1="673.825" y1="-10.0822" x2="682.573" y2="-4.85566" stroke="rgb(120,120,120)" />
<line x1="682.573" y1="-4.85566" x2="691.198" y2="0.636737" stroke="rgb(120,120,120)" />
<line x1="691.198" y1="0.636737" x2="699.363" y2="6.74747" stroke="rgb(120,120,120)" />
<line x1="699.363" y1="6.74747" x2="706.213" y2="9.4245" stroke="rgb(120,120,120)" />
<line x1="706.213" y1="9.4245" x2="712.573" y2="1.95711" stroke="rgb(120,120,120)" />
<line x1="712.573" y1="1.95711" x2="719.139" y2="-5.30588" stroke="rgb(120,120,120)" />
<line x1="719.139" y1="-5.30588" x2="726.568" y2="-11.9536" stroke="rgb(120,120,120)" />
<line x1="726.568" y1="-11.9536" x2="734.699" y2="-17.4916" stroke="rgb(120,120,120)" />
<line x1="734.699" y1="-17.4916" x2="742.546" y2="-21.4506" stroke="rgb(120,120,120)" />
<line x1="742.546" y1="-21.4506" x2="750.363" y2="-25.429" stroke="rgb(120,120,120)" />
<line x1="750.363" y1="-25.429" x2="742.329" y2="-30.9179" stroke="rgb(120,120,120)" />
<circle cx="750.363" cy="-25.429" r="2" fill="rgb(240, 176, 30)" />
<line x1="742.329" y1="-30.9179" x2="735.035" y2="-36.707" stroke="rgb(120,120,120)" />
<line x1="735.035" y1="-36.707" x2="730.064" y2="-43.5763" stroke="rgb(120,120,120)" />
<line x1="730.064" y1="-43.5763" x2="728.257" y2="-50.618" stroke="rgb(120,120,120)" />
<line x1="728.257" y1="-50.618" x2="728.242" y2="-59.2542" stroke="rgb(120,120,120)" />
<line x1="728.242" y1="-59.2542" x2="726.897" y2="-67.7068" stroke="rgb(120,120,120)" />
<line x1="726.897" y1="-67.7068" x2="721.393" y2="-70.9491" stroke="rgb(120,120,120)" />
<line x1="721.393" y1="-70.9491" x2="713.873" y2="-69.7413" stroke="rgb(120,120,120)" />
<line x1="713.873" y1="-69.7413" x2="706.707" y2="-62.3426" stroke="rgb(120,120,120)" />
<line x1="706.707" y1="-62.3426" x2="699.407" y2="-55.3099" stroke="rgb(120,120,120)" />
<line x1="699.407" y1="-55.3099" x2="692.87" y2="-47.8957" stroke="rgb(120,120,120)" />
<line x1="692.87" y1="-47.8957" x2="686.963" y2="-39.7351" stroke="rgb(120,120,120)" />
<line x1="686.963" y1="-39.7351" x2="681.15" y2="-33.7633" stroke="rgb(120,120,120)" />
<line x1="681.15" y1="-33.7633" x2="673.766" y2="-30.1284" stroke="rgb(120,120,120)" />
<line x1="673.766" y1="-30.1284" x2="665.459" y2="-27.9564" stroke="rgb(120,120,120)" />
<line x1="665.459" y1="-27.9564" x2="656.585" y2="-27.7273" stroke="rgb(120,120,120)" />
<line x1="656.585" y1="-27.7273" x2="648.143" y2="-31.9077" stroke="rgb(120,120,120)" />
<line x1="648.143" y1="-31.9077" x2="641.033" y2="-40.0761" stroke="rgb(120,120,120)" />
<line x1="641.033" y1="-40.0761" x2="634.783" y2="-48.9453" stroke="rgb(120,120,120)" />
<line x1="634.783" y1="-48.9453" x2="629.21" y2="-58.2599" stroke="rgb(120,120,120)" />
<line x1="629.21" y1="-58.2599" x2="624.573" y2="-68.0668" stroke="rgb(120,120,120)" />
<line x1="624.573" y1="-68.0668" x2="620.539" y2="-78.1455" stroke="rgb(120,120,120)" />
<line x1="620.539" y1="-78.1455" x2="616.986" y2="-88.3889" stroke="rgb(120,120,120)" />
<line x1="616.986" y1="-88.3889" x2="614.178" y2="-98.84" stroke="rgb(120,120,120)" />
<line x1="614.178" y1="-98.84" x2="611.951" y2="-109.46" stroke="rgb(120,120,120)" />
<line x1="611.951" y1="-109.46" x2="609.801" y2="-120.079" stroke="rgb(120,120,120)" />
<line x1="609.801" y1="-120.079" x2="607.976" y2="-130.706" stroke="rgb(120,120,120)" />
<line x1="607.976" y1="-130.706" x2="606.546" y2="-141.299" stroke="rgb(120,120,120)" />
<line x1="606.546" y1="-141.299" x2="607.575" y2="-151.79" stroke="rgb(120,120,120)" />
<line x1="607.575" y1="-151.79" x2="609.054" y2="-161.824" stroke="rgb(120,120,120)" />
<line x1="609.054" y1="-161.824" x2="609.831" y2="-171.026" stroke="rgb(120,120,120)" />
<line x1="609.831" y1="-171.026" x2="600.721" y2="-168.907" stroke="rgb(120,120,120)" />
<circle cx="609.831" cy="-171.026" r="2" fill="rgb(240, 176, 30)" />
<line x1="600.721" y1="-168.907" x2="589.784" y2="-169.068" stroke="rgb(120,120,120)" />
<line x1="589.784" y1="-169.068" x2="578.935" y2="-169.857" stroke="rgb(120,120,120)" />
<line x1="578.935" y1="-169.857" x2="568.308" y2="-167.681" stroke="rgb(120,120,120)" />
<line x1="568.308" y1="-167.681" x2="558.351" y2="-163.591" stroke="rgb(120,120,120)" />
<line x1="558.351" y1="-163.591" x2="549.153" y2="-158.037" stroke="rgb(120,120,120)" />
<line x1="549.153" y1="-158.037" x2="540.927" y2="-151.07" stroke="rgb(120,120,120)" />
<line x1="540.927" y1="-151.07" x2="533.391" y2="-143.36" stroke="rgb(120,120,120)" />
<line x1="533.391" y1="-143.36" x2="526.725" y2="-134.75" stroke="rgb(120,120,120)" />
<line x1="526.725" y1="-134.75" x2="519.657" y2="-126.506" stroke="rgb(120,120,120)" />
<line x1="519.657" y1="-126.506" x2="511.343" y2="-119.668" stroke="rgb(120,120,120)" />
<line x1="511.343" y1="-119.668" x2="502.21" y2="-113.73" stroke="rgb(120,120,120)" />
<line x1="502.21" y1="-113.73" x2="493.299" y2="-107.36" stroke="rgb(120,120,120)" />
<line x1="493.299" y1="-107.36" x2="485.394" y2="-99.8127" stroke="rgb(120,120,120)" />
<line x1="485.394" y1="-99.8127" x2="479.272" y2="-90.8147" stroke="rgb(120,120,120)" />
<line x1="479.272" y1="-90.8147" x2="475.288" y2="-80.6807" stroke="rgb(120,120,120)" />
<line x1="475.288" y1="-80.6807" x2="473.283" y2="-70.0552" stroke="rgb(120,120,120)" />
<line x1="473.283" y1="-70.0552" x2="471.595" y2="-59.4896" stroke="rgb(120,120,120)" />
<line x1="471.595" y1="-59.4896" x2="468.058" y2="-49.6234" stroke="rgb(120,120,120)" />
<line x1="468.058" y1="-49.6234" x2="464.075" y2="-39.8883" stroke="rgb(120,120,120)" />
<line x1="464.075" y1="-39.8883" x2="464.234" y2="-30.4944" stroke="rgb(120,120,120)" />
<line x1="18.636" y1="110.038" x2="17.8588" y2="119.24" stroke="rgb(120,120,120)" />
<circle cx="18.636" cy="110.038" r="2" fill="rgb(240, 176, 30)" />
<line x1="17.8588" y1="119.24" x2="16.3795" y2="129.274" stroke="rgb(120,120,120)" />
<line x1="16.3795" y1="129.274" x2="15.3507" y2="139.765" stroke="rgb(120,120,120)" />
<line x1="15.3507" y1="139.765" x2="16.7807" y2="150.358" stroke="rgb(120,120,120)" />
<line x1="16.7807" y1="150.358" x2="18.6064" y2="160.985" stroke="rgb(120,120,120)" />
<line x1="18.6064" y1="160.985" x2="20.7561" y2="171.604" stroke="rgb(120,120,120)" />
<line x1="20.7561" y1="171.604" x2="22.9827" y2="182.224" stroke="rgb(120,120,120)" />
<line x1="22.9827" y1="182.224" x2="25.7908" y2="192.675" stroke="rgb(120,120,120)" />
<line x1="25.7908" y1="192.675" x2="29.3442" y2="202.918" stroke="rgb(120,120,120)" />
<line x1="29.3442" y1="202.918" x2="33.3781" y2="212.997" stroke="rgb(120,120,120)" />
<line x1="33.3781" y1="212.997" x2="38.0145" y2="222.804" stroke="rgb(120,120,120)" />
<line x1="38.0145" y1="222.804" x2="43.5879" y2="232.119" stroke="rgb(120,120,120)" />
<line x1="43.5879" y1="232.119" x2="49.838" y2="240.988" stroke="rgb(120,120,120)" />
<line x1="49.838" y1="240.988" x2="56.9482" y2="249.156" stroke="rgb(120,120,120)" />
<line x1="56.9482" y1="249.156" x2="65.3902" y2="253.337" stroke="rgb(120,120,120)" />
<line x1="65.3902" y1="253.337" x2="74.2638" y2="253.108" stroke="rgb(120,120,120)" />
<line x1="74.2638" y1="253.108" x2="82.5714" y2="250.936" stroke="rgb(120,120,120)" />
<line x1="82.5714" y1="250.936" x2="89.955" y2="247.301" stroke="rgb(120,120,120)" />
<line x1="89.955" y1="247.301" x2="95.7683" y2="241.329" stroke="rgb(120,120,120)" />
<line x1="95.7683" y1="241.329" x2="101.675" y2="233.168" stroke="rgb(120,120,120)" />
<line x1="101.675" y1="233.168" x2="108.212" y2="225.754" stroke="rgb(120,120,120)" />
<line x1="108.212" y1="225.754" x2="115.512" y2="218.721" stroke="rgb(120,120,120)" />
<line x1="115.512" y1="218.721" x2="122.678" y2="211.323" stroke="rgb(120,120,120)" />
<line x1="122.678" y1="211.323" x2="130.198" y2="210.115" stroke="rgb(120,120,120)" />
<line x1="130.198" y1="210.115" x2="135.702" y2="213.357" stroke="rgb(120,120,120)" />
<line x1="135.702" y1="213.357" x2="137.047" y2="221.81" stroke="rgb(120,120,120)" />
<line x1="137.047" y1="221.81" x2="137.062" y2="230.446" stroke="rgb(120,120,120)" />
<line x1="137.062" y1="230.446" x2="138.869" y2="237.488" stroke="rgb(120,120,120)" />
<line x1="138.869" y1="237.488" x2="143.84" y2="244.357" stroke="rgb(120,120,120)" />
<line x1="143.84" y1="244.357" x2="151.134" y2="250.146" stroke="rgb(120,120,120)" />
<line x1="151.134" y1="250.146" x2="159.169" y2="255.635" stroke="rgb(120,120,120)" />
<line x1="159.169" y1="255.635" x2="159.01" y2="246.241" stroke="rgb(120,120,120)" />
<circle cx="159.169" cy="255.635" r="2" fill="rgb(240, 176, 30)" />
<line x1="159.01" y1="246.241" x2="162.993" y2="236.506" stroke="rgb(120,120,120)" />
<line x1="162.993" y1="236.506" x2="166.53" y2="226.64" stroke="rgb(120,120,120)" />
<line x1="166.53" y1="226.64" x2="168.218" y2="216.074" stroke="rgb(120,120,120)" />
<line x1="168.218" y1="216.074" x2="170.223" y2="205.449" stroke="rgb(120,120,120)" />
<line x1="170.223" y1="205.449" x2="174.207" y2="195.315" stroke="rgb(120,120,120)" />
<line x1="174.207" y1="195.315" x2="180.329" y2="186.317" stroke="rgb(120,120,120)" />
<line x1="180.329" y1="186.317" x2="188.234" y2="178.769" stroke="rgb(120,120,120)" />
<line x1="188.234" y1="178.769" x2="197.145" y2="172.399" stroke="rgb(120,120,120)" />
<line x1="197.145" y1="172.399" x2="206.278" y2="166.461" stroke="rgb(120,120,120)" />
<line x1="206.278" y1="166.461" x2="214.592" y2="159.624" stroke="rgb(120,120,120)" />
<line x1="214.592" y1="159.624" x2="221.66" y2="151.379" stroke="rgb(120,120,120)" />
<line x1="221.66" y1="151.379" x2="228.326" y2="142.769" stroke="rgb(120,120,120)" />
<line x1="228.326" y1="142.769" x2="235.862" y2="135.06" stroke="rgb(120,120,120)" />
<line x1="235.862" y1="135.06" x2="244.088" y2="128.092" stroke="rgb(120,120,120)" />
<line x1="244.088" y1="128.092" x2="253.286" y2="122.538" stroke="rgb(120,120,120)" />
<line x1="253.286" y1="122.538" x2="263.243" y2="118.448" stroke="rgb(120,120,120)" />
<line x1="263.243" y1="118.448" x2="273.87" y2="116.272" stroke="rgb(120,120,120)" />
<line x1="273.87" y1="116.272" x2="284.718" y2="117.062" stroke="rgb(120,120,120)" />
<line x1="284.718" y1="117.062" x2="295.656" y2="117.222" stroke="rgb(120,120,120)" />
<line x1="295.656" y1="117.222" x2="304.766" y2="115.103" stroke="rgb(120,120,120)" />
<line x1="304.766" y1="115.103" x2="301.877" y2="105.424" stroke="rgb(120,120,120)" />
<circle cx="304.766" cy="115.103" r="2" fill="rgb(240, 176, 30)" />
<line x1="301.877" y1="105.424" x2="295.033" y2="97.1434" stroke="rgb(120,120,120)" />
<line x1="295.033" y1="97.1434" x2="289.166" y2="87.9214" stroke="rgb(120,120,120)" />
<line x1="289.166" y1="87.9214" x2="283.055" y2="78.6263" stroke="rgb(120,120,120)" />
<line x1="283.055" y1="78.6263" x2="275.788" y2="70.2522" stroke="rgb(120,120,120)" />
<line x1="275.788" y1="70.2522" x2="266.557" y2="63.8268" stroke="rgb(120,120,120)" />
<line x1="266.557" y1="63.8268" x2="255.833" y2="60.4504" stroke="rgb(120,120,120)" />
<line x1="255.833" y1="60.4504" x2="244.61" y2="60.9591" stroke="rgb(120,120,120)" />
<line x1="244.61" y1="60.9591" x2="234.788" y2="66.3835" stroke="rgb(120,120,120)" />
<line x1="234.788" y1="66.3835" x2="225.86" y2="72.2939" stroke="rgb(120,120,120)" />
<line x1="225.86" y1="72.2939" x2="219.867" y2="62.8981" stroke="rgb(120,120,120)" />
<line x1="219.867" y1="62.8981" x2="214.101" y2="53.0489" stroke="rgb(120,120,120)" />
<line x1="214.101" y1="53.0489" x2="207.737" y2="43.6381" stroke="rgb(120,120,120)" />
<line x1="207.737" y1="43.6381" x2="201.25" y2="34.3751" stroke="rgb(120,120,120)" />
<line x1="201.25" y1="34.3751" x2="194.433" y2="25.4096" stroke="rgb(120,120,120)" />
<line x1="194.433" y1="25.4096" x2="187.333" y2="16.6164" stroke="rgb(120,120,120)" />
<line x1="187.333" y1="16.6164" x2="179.891" y2="8.27162" stroke="rgb(120,120,120)" />
<line x1="179.891" y1="8.27162" x2="174.566" y2="-1.02918" stroke="rgb(120,120,120)" />
<line x1="174.566" y1="-1.02918" x2="169.93" y2="-10.8059" stroke="rgb(120,120,120)" />
<line x1="169.93" y1="-10.8059" x2="166.394" y2="-20.5522" stroke="rgb(120,120,120)" />
<line x1="166.394" y1="-20.5522" x2="164.234" y2="-30.4945" stroke="rgb(120,120,120)" />
<line x1="164.234" y1="-30.4945" x2="156.416" y2="-26.5161" stroke="rgb(120,120,120)" />
<circle cx="164.234" cy="-30.4945" r="2" fill="rgb(240, 176, 30)" />
<line x1="156.416" y1="-26.5161" x2="148.569" y2="-22.5571" stroke="rgb(120,120,120)" />
<line x1="148.569" y1="-22.5571" x2="140.438" y2="-17.0191" stroke="rgb(120,120,120)" />
<line x1="140.438" y1="-17.0191" x2="133.009" y2="-10.3714" stroke="rgb(120,120,120)" />
<line x1="133.009" y1="-10.3714" x2="126.443" y2="-3.10839" stroke="rgb(120,120,120)" />
<line x1="126.443" y1="-3.10839" x2="120.083" y2="4.359" stroke="rgb(120,120,120)" />
<line x1="120.083" y1="4.359" x2="113.233" y2="1.68198" stroke="rgb(120,120,120)" />
<line x1="113.233" y1="1.68198" x2="105.068" y2="-4.42876" stroke="rgb(120,120,120)" />
<line x1="105.068" y1="-4.42876" x2="96.4431" y2="-9.92116" stroke="rgb(120,120,120)" />
<line x1="96.4431" y1="-9.92116" x2="87.6951" y2="-15.1477" stroke="rgb(120,120,120)" />
<line x1="87.6951" y1="-15.1477" x2="78.4737" y2="-19.5882" stroke="rgb(120,120,120)" />
<line x1="78.4737" y1="-19.5882" x2="69.0889" y2="-18.9601" stroke="rgb(120,120,120)" />
<line x1="69.0889" y1="-18.9601" x2="59.9396" y2="-17.0669" stroke="rgb(120,120,120)" />
<line x1="59.9396" y1="-17.0669" x2="51.9799" y2="-12.2142" stroke="rgb(120,120,120)" />
<line x1="51.9799" y1="-12.2142" x2="45.2686" y2="-5.15601" stroke="rgb(120,120,120)" />
<line x1="45.2686" y1="-5.15601" x2="39.6007" y2="2.9647" stroke="rgb(120,120,120)" />
<line x1="39.6007" y1="2.9647" x2="35.0494" y2="12.2422" stroke="rgb(120,120,120)" />
<line x1="35.0494" y1="12.2422" x2="31.4839" y2="21.9471" stroke="rgb(120,120,120)" />
<line x1="31.4839" y1="21.9471" x2="28.7913" y2="31.9307" stroke="rgb(120,120,120)" />
<line x1="28.7913" y1="31.9307" x2="27.1892" y2="42.1423" stroke="rgb(120,120,120)" />
<line x1="27.1892" y1="42.1423" x2="25.5767" y2="52.3486" stroke="rgb(120,120,120)" />
<line x1="25.5767" y1="52.3486" x2="23.6012" y2="62.4561" stroke="rgb(120,120,120)" />
<line x1="23.6012" y1="62.4561" x2="22.9045" y2="72.7645" stroke="rgb(120,120,120)" />
<line x1="22.9045" y1="72.7645" x2="22.5089" y2="83.0528" stroke="rgb(120,120,120)" />
<line x1="22.5089" y1="83.0528" x2="22.5445" y2="93.2534" stroke="rgb(120,120,120)" />
<line x1="22.5445" y1="93.2534" x2="21.5522" y2="102.596" stroke="rgb(120,120,120)" />
<line x1="21.5522" y1="102.596" x2="18.636" y2="110.038" stroke="rgb(120,120,120)" />
</svg>