<svg xmlns="http://www.w3.org/2000/svg" width="1000" height="1000">
<line x1="353.466" y1="-18.729" x2="365.301" y2="-16.4612" stroke="rgb(120,120,120)" />
<circle cx="353.466" cy="-18.729" r="2" fill="rgb(240, 176, 30)" />
<line x1="365.301" y1="-16.4612" x2="377.287" y2="-16.5446" stroke="rgb(120,120,120)" />
<line x1="377.287" y1="-16.5446" x2="389.105" y2="-14.9879" stroke="rgb(120,120,120)" />
<line x1="389.105" y1="-14.9879" x2="400.644" y2="-13.7736" stroke="rgb(120,120,120)" />
<line x1="400.644" y1="-13.7736" x2="412.126" y2="-11.9353" stroke="rgb(120,120,120)" />
<line x1="412.126" y1="-11.9353" x2="423.474" y2="-8.35022" stroke="rgb(120,120,120)" />
<line x1="423.474" y1="-8.35022" x2="434.018" y2="-2.89693" stroke="rgb(120,120,120)" />
<line x1="434.018" y1="-2.89693" x2="443.065" y2="4.95644" stroke="rgb(120,120,120)" />
<line x1="443.065" y1="4.95644" x2="451.572" y2="13.2103" stroke="rgb(120,120,120)" />
<line x1="451.572" y1="13.2103" x2="458.998" y2="22.6494" stroke="rgb(120,120,120)" />
<line x1="458.998" y1="22.6494" x2="465.754" y2="32.5373" stroke="rgb(120,120,120)" />
<line x1="465.754" y1="32.5373" x2="472.493" y2="42.4786" stroke="rgb(120,120,120)" />
<line x1="472.493" y1="42.4786" x2="477.143" y2="53.4494" stroke="rgb(120,120,120)" />
<line x1="477.143" y1="53.4494" x2="481.301" y2="64.7719" stroke="rgb(120,120,120)" />
<line x1="481.301" y1="64.7719" x2="486.1" y2="75.8148" stroke="rgb(120,120,120)" />
<line x1="486.1" y1="75.8148" x2="491.589" y2="86.487" stroke="rgb(120,120,120)" />
<line x1="491.589" y1="86.487" x2="497.455" y2="96.9891" stroke="rgb(120,120,120)" />
<line x1="497.455" y1="96.9891" x2="501.785" y2="107.957" stroke="rgb(120,120,120)" />
<line x1="501.785" y1="107.957" x2="505.266" y2="119.242" stroke="rgb(120,120,120)" />
<line x1="505.266" y1="119.242" x2="505.866" y2="130.305" stroke="rgb(120,120,120)" />
<line x1="505.866" y1="130.305" x2="503.602" y2="140.892" stroke="rgb(120,120,120)" />
<line x1="503.602" y1="140.892" x2="497.968" y2="150.015" stroke="rgb(120,120,120)" />
<line x1="497.968" y1="150.015" x2="488.589" y2="157.625" stroke="rgb(120,120,120)" />
<line x1="488.589" y1="157.625" x2="479.01" y2="164.917" stroke="rgb(120,120,120)" />
<line x1="479.01" y1="164.917" x2="473.141" y2="171.855" stroke="rgb(120,120,120)" />
<line x1="473.141" y1="171.855" x2="479.12" y2="177.156" stroke="rgb(120,120,120)" />
<line x1="479.12" y1="177.156" x2="490.461" y2="180.08" stroke="rgb(120,120,120)" />
<line x1="490.461" y1="180.08" x2="501.369" y2="184.065" stroke="rgb(120,120,120)" />
<line x1="501.369" y1="184.065" x2="511.458" y2="190.372" stroke="rgb(120,120,120)" />
<line x1="511.458" y1="190.372" x2="522.392" y2="195.505" stroke="rgb(120,120,120)" />
<line x1="522.392" y1="195.505" x2="532.319" y2="190.275" stroke="rgb(120,120,120)" />
<circle cx="522.392" cy="195.505" r="2" fill="rgb(240, 176, 30)" />
<line x1="532.319" y1="190.275" x2="543.197" y2="187.897" stroke="rgb(120,120,120)" />
<line x1="543.197" y1="187.897" x2="550.281" y2="178.219" stroke="rgb(120,120,120)" />
<line x1="550.281" y1="178.219" x2="559.953" y2="171.81" stroke="rgb(120,120,120)" />
<line x1="559.953" y1="171.81" x2="569.414" y2="175.499" stroke="rgb(120,120,120)" />
<line x1="569.414" y1="175.499" x2="578.766" y2="182.936" stroke="rgb(120,120,120)" />
<line x1="578.766" y1="182.936" x2="589.111" y2="188.963" stroke="rgb(120,120,120)" />
<line x1="589.111" y1="188.963" x2="599.492" y2="194.982" stroke="rgb(120,120,120)" />
<line x1="599.492" y1="194.982" x2="609.026" y2="202.253" stroke="rgb(120,120,120)" />
<line x1="609.026" y1="202.253" x2="618.259" y2="209.939" stroke="rgb(120,120,120)" />
<line x1="618.259" y1="209.939" x2="626.808" y2="218.022" stroke="rgb(120,120,120)" />
<line x1="626.808" y1="218.022" x2="631.854" y2="227.62" stroke="rgb(120,120,120)" />
<line x1="631.854" y1="227.62" x2="633.969" y2="237.172" stroke="rgb(120,120,120)" />
<line x1="633.969" y1="237.172" x2="634.881" y2="246.338" stroke="rgb(120,120,120)" />
<line x1="634.881" y1="246.338" x2="635.834" y2="254.906" stroke="rgb(120,120,120)" />
<line x1="635.834" y1="254.906" x2="641.469" y2="259.582" stroke="rgb(120,120,120)" />
<line x1="641.469" y1="259.582" x2="654.118" y2="253.635" stroke="rgb(120,120,120)" />
<line x1="654.118" y1="253.635" x2="664.208" y2="243.466" stroke="rgb(120,120,120)" />
<line x1="664.208" y1="243.466" x2="669.658" y2="231.981" stroke="rgb(120,120,120)" />
<line x1="669.658" y1="231.981" x2="672.55" y2="220.362" stroke="rgb(120,120,120)" />
<line x1="672.55" y1="220.362" x2="674.937" y2="208.862" stroke="rgb(120,120,120)" />
<line x1="674.937" y1="208.862" x2="675.815" y2="197.404" stroke="rgb(120,120,120)" />
<line x1="675.815" y1="197.404" x2="675.546" y2="186.047" stroke="rgb(120,120,120)" />
<line x1="675.546" y1="186.047" x2="675.276" y2="175.035" stroke="rgb(120,120,120)" />
<line x1="675.276" y1="175.035" x2="674.477" y2="164.081" stroke="rgb(120,120,120)" />
<line x1="674.477" y1="164.081" x2="675.005" y2="152.803" stroke="rgb(120,120,120)" />
<line x1="675.005" y1="152.803" x2="676.85" y2="142.428" stroke="rgb(120,120,120)" />
<line x1="676.85" y1="142.428" x2="679.688" y2="133.288" stroke="rgb(120,120,120)" />
<line x1="679.688" y1="133.288" x2="679.949" y2="123.221" stroke="rgb(120,120,120)" />
<line x1="679.949" y1="123.221" x2="672.399" y2="113.953" stroke="rgb(120,120,120)" />
<circle cx="679.949" cy="123.221" r="2" fill="rgb(240, 176, 30)" />
<line x1="672.399" y1="113.953" x2="662.241" y2="107.423" stroke="rgb(120,120,120)" />
<line x1="662.241" y1="107.423" x2="650.749" y2="103.99" stroke="rgb(120,120,120)" />
<line x1="650.749" y1="103.99" x2="638.655" y2="104.178" stroke="rgb(120,120,120)" />
<line x1="638.655" y1="104.178" x2="626.618" y2="104.001" stroke="rgb(120,120,120)" />
<line x1="626.618" y1="104.001" x2="614.655" y2="102.742" stroke="rgb(120,120,120)" />
<line x1="614.655" y1="102.742" x2="603.38" y2="99.798" stroke="rgb(120,120,120)" />
<line x1="603.38" y1="99.798" x2="595.227" y2="92.2719" stroke="rgb(120,120,120)" />
<line x1="595.227" y1="92.2719" x2="590.806" y2="81.5873" stroke="rgb(120,120,120)" />
<line x1="590.806" y1="81.5873" x2="589.742" y2="69.6383" stroke="rgb(120,120,120)" />
<line x1="589.742" y1="69.6383" x2="589.145" y2="57.779" stroke="rgb(120,120,120)" />
<line x1="589.145" y1="57.779" x2="587.1" y2="46.1817" stroke="rgb(120,120,120)" />
<line x1="587.1" y1="46.1817" x2="582.797" y2="34.9837" stroke="rgb(120,120,120)" />
<line x1="582.797" y1="34.9837" x2="577.589" y2="24.0523" stroke="rgb(120,120,120)" />
<line x1="577.589" y1="24.0523" x2="571.913" y2="13.3609" stroke="rgb(120,120,120)" />
<line x1="571.913" y1="13.3609" x2="566.069" y2="2.76892" stroke="rgb(120,120,120)" />
<line x1="566.069" y1="2.76892" x2="559.691" y2="-7.52039" stroke="rgb(120,120,120)" />
<line x1="559.691" y1="-7.52039" x2="553.01" y2="-17.6215" stroke="rgb(120,120,120)" />
<line x1="553.01" y1="-17.6215" x2="546.545" y2="-27.8561" stroke="rgb(120,120,120)" />
<line x1="546.545" y1="-27.8561" x2="540.118" y2="-38.1096" stroke="rgb(120,120,120)" />
<line x1="540.118" y1="-38.1096" x2="534.021" y2="-48.5626" stroke="rgb(120,120,120)" />
<line x1="534.021" y1="-48.5626" x2="527.862" y2="-58.9865" stroke="rgb(120,120,120)" />
<line x1="527.862" y1="-58.9865" x2="521.64" y2="-69.3736" stroke="rgb(120,120,120)" />
<line x1="521.64" y1="-69.3736" x2="516.151" y2="-80.0894" stroke="rgb(120,120,120)" />
<line x1="516.151" y1="-80.0894" x2="511.023" y2="-91.013" stroke="rgb(120,120,120)" />
<line x1="511.023" y1="-91.013" x2="499.504" y2="-91.8913" stroke="rgb(120,120,120)" />
<circle cx="511.023" cy="-91.013" r="2" fill="rgb(240, 176, 30)" />
<line x1="499.504" y1="-91.8913" x2="487.884" y2="-92.7137" stroke="rgb(120,120,120)" />
<line x1="487.884" y1="-92.7137" x2="475.756" y2="-92.5292" stroke="rgb(120,120,120)" />
<line x1="475.756" y1="-92.5292" x2="463.586" y2="-91.7418" stroke="rgb(120,120,120)" />
<line x1="463.586" y1="-91.7418" x2="451.494" y2="-90.0415" stroke="rgb(120,120,120)" />
<line x1="451.494" y1="-90.0415" x2="439.533" y2="-87.7125" stroke="rgb(120,120,120)" />
<line x1="439.533" y1="-87.7125" x2="427.781" y2="-84.6565" stroke="rgb(120,120,120)" />
<line x1="427.781" y1="-84.6565" x2="416.197" y2="-81.1152" stroke="rgb(120,120,120)" />
<line x1="416.197" y1="-81.1152" x2="404.456" y2="-77.9838" stroke="rgb(120,120,120)" />
<line x1="404.456" y1="-77.9838" x2="392.654" y2="-74.8636" stroke="rgb(120,120,120)" />
<line x1="392.654" y1="-74.8636" x2="381.237" y2="-70.7232" stroke="rgb(120,120,120)" />
<line x1="381.237" y1="-70.7232" x2="373.142" y2="-61.9572" stroke="rgb(120,120,120)" />
<line x1="373.142" y1="-61.9572" x2="365.89" y2="-52.1582" stroke="rgb(120,120,120)" />
<line x1="365.89" y1="-52.1582" x2="361.479" y2="-40.8121" stroke="rgb(120,120,120)" />
<line x1="361.479" y1="-40.8121" x2="357.239" y2="-29.6718" stroke="rgb(120,120,120)" />
<line x1="357.239" y1="-29.6718" x2="353.466" y2="-18.729" stroke="rgb(120,120,120)" />
<line x1="-104.091" y1="53.5548" x2="-98.9633" y2="64.4782" stroke="rgb(120,120,120)" />
<circle cx="-104.091" cy="53.5548" r="2" fill="rgb(240, 176, 30)" />
<line x1="-98.9633" y1="64.4782" x2="-93.4742" y2="75.194" stroke="rgb(120,120,120)" />
<line x1="-93.4742" y1="75.194" x2="-87.2518" y2="85.5811" stroke="rgb(120,120,120)" />
<line x1="-87.2518" y1="85.5811" x2="-81.0927" y2="96.005" stroke="rgb(120,120,120)" />
<line x1="-81.0927" y1="96.005" x2="-74.9963" y2="106.458" stroke="rgb(120,120,120)" />
<line x1="-74.9963" y1="106.458" x2="-68.5692" y2="116.712" stroke="rgb(120,120,120)" />
<line x1="-68.5692" y1="116.712" x2="-62.1036" y2="126.946" stroke="rgb(120,120,120)" />
<line x1="-62.1036" y1="126.946" x2="-55.4225" y2="137.047" stroke="rgb(120,120,120)" />
<line x1="-55.4225" y1="137.047" x2="-49.0453" y2="147.337" stroke="rgb(120,120,120)" />
<line x1="-49.0453" y1="147.337" x2="-43.2005" y2="157.928" stroke="rgb(120,120,120)" />
<line x1="-43.2005" y1="157.928" x2="-37.5249" y2="168.62" stroke="rgb(120,120,120)" />
<line x1="-37.5249" y1="168.62" x2="-32.317" y2="179.551" stroke="rgb(120,120,120)" />
<line x1="-32.317" y1="179.551" x2="-28.0143" y2="190.749" stroke="rgb(120,120,120)" />
<line x1="-28.0143" y1="190.749" x2="-25.9693" y2="202.347" stroke="rgb(120,120,120)" />
<line x1="-25.9693" y1="202.347" x2="-25.3717" y2="214.206" stroke="rgb(120,120,120)" />
<line x1="-25.3717" y1="214.206" x2="-24.3083" y2="226.155" stroke="rgb(120,120,120)" />
<line x1="-24.3083" y1="226.155" x2="-19.8868" y2="236.839" stroke="rgb(120,120,120)" />
<line x1="-19.8868" y1="236.839" x2="-11.7335" y2="244.366" stroke="rgb(120,120,120)" />
<line x1="-11.7335" y1="244.366" x2="-0.459076" y2="247.31" stroke="rgb(120,120,120)" />
<line x1="-0.459076" y1="247.31" x2="11.5043" y2="248.569" stroke="rgb(120,120,120)" />
<line x1="11.5043" y1="248.569" x2="23.5408" y2="248.746" stroke="rgb(120,120,120)" />
<line x1="23.5408" y1="248.746" x2="35.6354" y2="248.558" stroke="rgb(120,120,120)" />
<line x1="35.6354" y1="248.558" x2="47.127" y2="251.991" stroke="rgb(120,120,120)" />
<line x1="47.127" y1="251.991" x2="57.2851" y2="258.521" stroke="rgb(120,120,120)" />
<line x1="57.2851" y1="258.521" x2="64.835" y2="267.789" stroke="rgb(120,120,120)" />
<line x1="64.835" y1="267.789" x2="68.6081" y2="256.846" stroke="rgb(120,120,120)" />
<circle cx="64.835" cy="267.789" r="2" fill="rgb(240, 176, 30)" />
<line x1="68.6081" y1="256.846" x2="72.8485" y2="245.706" stroke="rgb(120,120,120)" />
<line x1="72.8485" y1="245.706" x2="77.2592" y2="234.36" stroke="rgb(120,120,120)" />
<line x1="77.2592" y1="234.36" x2="84.5107" y2="224.561" stroke="rgb(120,120,120)" />
<line x1="84.5107" y1="224.561" x2="92.6064" y2="215.795" stroke="rgb(120,120,120)" />
<line x1="92.6064" y1="215.795" x2="104.023" y2="211.654" stroke="rgb(120,120,120)" />
<line x1="104.023" y1="211.654" x2="115.825" y2="208.534" stroke="rgb(120,120,120)" />
<line x1="115.825" y1="208.534" x2="127.566" y2="205.403" stroke="rgb(120,120,120)" />
<line x1="127.566" y1="205.403" x2="139.15" y2="201.861" stroke="rgb(120,120,120)" />
<line x1="139.15" y1="201.861" x2="150.902" y2="198.806" stroke="rgb(120,120,120)" />
<line x1="150.902" y1="198.806" x2="162.863" y2="196.477" stroke="rgb(120,120,120)" />
<line x1="162.863" y1="196.477" x2="174.955" y2="194.776" stroke="rgb(120,120,120)" />
<line x1="174.955" y1="194.776" x2="187.125" y2="193.989" stroke="rgb(120,120,120)" />
<line x1="187.125" y1="193.989" x2="199.253" y2="193.804" stroke="rgb(120,120,120)" />
<line x1="199.253" y1="193.804" x2="210.873" y2="194.627" stroke="rgb(120,120,120)" />
<line x1="210.873" y1="194.627" x2="222.392" y2="195.505" stroke="rgb(120,120,120)" />
<line x1="222.392" y1="195.505" x2="211.458" y2="190.372" stroke="rgb(120,120,120)" />
<circle cx="222.392" cy="195.505" r="2" fill="rgb(240, 176, 30)" />
<line x1="211.458" y1="190.372" x2="201.369" y2="184.065" stroke="rgb(120,120,120)" />
<line x1="201.369" y1="184.065" x2="190.461" y2="180.08" stroke="rgb(120,120,120)" />
<line x1="190.461" y1="180.08" x2="179.12" y2="177.156" stroke="rgb(120,120,120)" />
<line x1="179.12" y1="177.156" x2="173.141" y2="171.855" stroke="rgb(120,120,120)" />
<line x1="173.141" y1="171.855" x2="179.01" y2="164.917" stroke="rgb(120,120,120)" />
<line x1="179.01" y1="164.917" x2="188.589" y2="157.625" stroke="rgb(120,120,120)" />
<line x1="188.589" y1="157.625" x2="197.968" y2="150.015" stroke="rgb(120,120,120)" />
<line x1="197.968" y1="150.015" x2="203.602" y2="140.892" stroke="rgb(120,120,120)" />
<line x1="203.602" y1="140.892" x2="205.866" y2="130.305" stroke="rgb(120,120,120)" />
<line x1="205.866" y1="130.305" x2="205.266" y2="119.242" stroke="rgb(120,120,120)" />
<line x1="205.266" y1="119.242" x2="201.785" y2="107.957" stroke="rgb(120,120,120)" />
<line x1="201.785" y1="107.957" x2="197.455" y2="96.9891" stroke="rgb(120,120,120)" />
<line x1="197.455" y1="96.9891" x2="191.589" y2="86.487" stroke="rgb(120,120,120)" />
<line x1="191.589" y1="86.487" x2="186.1" y2="75.8148" stroke="rgb(120,120,120)" />
<line x1="186.1" y1="75.8148" x2="181.301" y2="64.7719" stroke="rgb(120,120,120)" />
<line x1="181.301" y1="64.7719" x2="177.143" y2="53.4494" stroke="rgb(120,120,120)" />
<line x1="177.143" y1="53.4494" x2="172.493" y2="42.4786" stroke="rgb(120,120,120)" />
<line x1="172.493" y1="42.4786" x2="165.754" y2="32.5373" stroke="rgb(120,120,120)" />
<line x1="165.754" y1="32.5373" x2="158.998" y2="22.6494" stroke="rgb(120,120,120)" />
<line x1="158.998" y1="22.6494" x2="151.572" y2="13.2103" stroke="rgb(120,120,120)" />
<line x1="151.572" y1="13.2103" x2="143.065" y2="4.95644" stroke="rgb(120,120,120)" />
<line x1="143.065" y1="4.95644" x2="134.018" y2="-2.89693" stroke="rgb(120,120,120)" />
<line x1="134.018" y1="-2.89693" x2="123.474" y2="-8.35022" stroke="rgb(120,120,120)" />
<line x1="123.474" y1="-8.35022" x2="112.126" y2="-11.9353" stroke="rgb(120,120,120)" />
<line x1="112.126" y1="-11.9353" x2="100.644" y2="-13.7736" stroke="rgb(120,120,120)" />
<line x1="100.644" y1="-13.7736" x2="89.105" y2="-14.9879" stroke="rgb(120,120,120)" />
<line x1="89.105" y1="-14.9879" x2="77.287" y2="-16.5446" stroke="rgb(120,120,120)" />
<line x1="77.287" y1="-16.5446" x2="65.3011" y2="-16.4612" stroke="rgb(120,120,120)" />
<line x1="65.3011" y1="-16.4612" x2="53.466" y2="-18.729" stroke="rgb(120,120,120)" />
<line x1="53.466" y1="-18.729" x2="53.2053" y2="-8.6628" stroke="rgb(120,120,120)" />
<circle cx="53.466" cy="-18.729" r="2" fill="rgb(240, 176, 30)" />
<line x1="53.2053" y1="-8.6628" x2="50.3666" y2="0.478073" stroke="rgb(120,120,120)" />
<line x1="50.3666" y1="0.478073" x2="48.5225" y2="10.8531" stroke="rgb(120,120,120)" />
<line x1="48.5225" y1="10.8531" x2="47.9941" y2="22.1309" stroke="rgb(120,120,120)" />
<line x1="47.9941" y1="22.1309" x2="48.7934" y2="33.0846" stroke="rgb(120,120,120)" />
<line x1="48.7934" y1="33.0846" x2="49.0635" y2="44.0962" stroke="rgb(120,120,120)" />
<line x1="49.0635" y1="44.0962" x2="49.332" y2="55.4539" stroke="rgb(120,120,120)" />
<line x1="49.332" y1="55.4539" x2="48.4543" y2="66.9111" stroke="rgb(120,120,120)" />
<line x1="48.4543" y1="66.9111" x2="46.0667" y2="78.4114" stroke="rgb(120,120,120)" />
<line x1="46.0667" y1="78.4114" x2="43.1754" y2="90.0306" stroke="rgb(120,120,120)" />
<line x1="43.1754" y1="90.0306" x2="37.7245" y2="101.515" stroke="rgb(120,120,120)" />
<line x1="37.7245" y1="101.515" x2="27.6354" y2="111.684" stroke="rgb(120,120,120)" />
<line x1="27.6354" y1="111.684" x2="14.9855" y2="117.632" stroke="rgb(120,120,120)" />
<line x1="14.9855" y1="117.632" x2="9.35107" y2="112.956" stroke="rgb(120,120,120)" />
<line x1="9.35107" y1="112.956" x2="8.39795" y2="104.388" stroke="rgb(120,120,120)" />
<line x1="8.39795" y1="104.388" x2="7.48615" y2="95.2215" stroke="rgb(120,120,120)" />
<line x1="7.48615" y1="95.2215" x2="5.37061" y2="85.67" stroke="rgb(120,120,120)" />
<line x1="5.37061" y1="85.67" x2="0.325012" y2="76.0718" stroke="rgb(120,120,120)" />
<line x1="0.325012" y1="76.0718" x2="-8.22406" y2="67.9882" stroke="rgb(120,120,120)" />
<line x1="-8.22406" y1="67.9882" x2="-17.4567" y2="60.3021" stroke="rgb(120,120,120)" />
<line x1="-17.4567" y1="60.3021" x2="-26.9913" y2="53.032" stroke="rgb(120,120,120)" />
<line x1="-26.9913" y1="53.032" x2="-37.3715" y2="47.0128" stroke="rgb(120,120,120)" />
<line x1="-37.3715" y1="47.0128" x2="-47.7167" y2="40.9855" stroke="rgb(120,120,120)" />
<line x1="-47.7167" y1="40.9855" x2="-57.0689" y2="33.5485" stroke="rgb(120,120,120)" />
<line x1="-57.0689" y1="33.5485" x2="-66.5296" y2="29.86" stroke="rgb(120,120,120)" />
<line x1="-66.5296" y1="29.86" x2="-76.2018" y2="36.2686" stroke="rgb(120,120,120)" />
<line x1="-76.2018" y1="36.2686" x2="-83.2857" y2="45.9464" stroke="rgb(120,120,120)" />
<line x1="-83.2857" y1="45.9464" x2="-94.1635" y2="48.3244" stroke="rgb(120,120,120)" />
<line x1="-94.1635" y1="48.3244" x2="-104.091" y2="53.5548" stroke="rgb(120,120,120)" />
</svg>