<svg xmlns="http://www.w3.org/2000/svg" width="1000" height="1000">
<line x1="353.466" y1="-18.729" x2="365.301" y2="-16.4612" stroke="rgb(120,120,120)" />
<line x1="365.301" y1="-16.4612" x2="377.287" y2="-16.5446" stroke="rgb(120,120,120)" />
<line x1="377.287" y1="-16.5446" x2="389.105" y2="-14.9879" stroke="rgb(120,120,120)" />
<line x1="389.105" y1="-14.9879" x2="400.644" y2="-13.7736" stroke="rgb(120,120,120)" />
<line x1="400.644" y1="-13.7736" x2="412.126" y2="-11.9353" stroke="rgb(120,120,120)" />
<line x1="412.126" y1="-11.9353" x2="423.474" y2="-8.35022" stroke="rgb(120,120,120)" />
<line x1="423.474" y1="-8.35022" x2="434.018" y2="-2.89693" stroke="rgb(120,120,120)" />
<line x1="434.018" y1="-2.89693" x2="443.065" y2="4.95644" stroke="rgb(120,120,120)" />
<line x1="443.065" y1="4.95644" x2="451.572" y2="13.2103" stroke="rgb(120,120,120)" />
<line x1="451.572" y1="13.2103" x2="458.998" y2="22.6494" stroke="rgb(120,120,120)" />
<line x1="458.998" y1="22.6494" x2="465.754" y2="32.5373" stroke="rgb(120,120,120)" />
<line x1="465.754" y1="32.5373" x2="472.493" y2="42.4786" stroke="rgb(120,120,120)" />
<line x1="472.493" y1="42.4786" x2="477.143" y2="53.4494" stroke="rgb(120,120,120)" />
<line x1="477.143" y1="53.4494" x2="481.301" y2="64.7719" stroke="rgb(120,120,120)" />
<line x1="481.301" y1="64.7719" x2="486.1" y2="75.8148" stroke="rgb(120,120,120)" />
<line x1="486.1" y1="75.8148" x2="491.589" y2="86.487" stroke="rgb(120,120,120)" />
<line x1="491.589" y1="86.487" x2="497.455" y2="96.9891" stroke="rgb(120,120,120)" />
<line x1="497.455" y1="96.9891" x2="502.092" y2="107.991" stroke="rgb(120,120,120)" />
<line x1="502.092" y1="107.991" x2="505.769" y2="119.435" stroke="rgb(120,120,120)" />
<line x1="505.769" y1="119.435" x2="506.422" y2="130.704" stroke="rgb(120,120,120)" />
<line x1="506.422" y1="130.704" x2="504.054" y2="141.356" stroke="rgb(120,120,120)" />
<line x1="504.054" y1="141.356" x2="498.186" y2="150.299" stroke="rgb(120,120,120)" />
<line x1="498.186" y1="150.299" x2="488.491" y2="157.5" stroke="rgb(120,120,120)" />
<line x1="488.491" y1="157.5" x2="478.638" y2="164.495" stroke="rgb(120,120,120)" />
<line x1="478.638" y1="164.495" x2="472.611" y2="171.387" stroke="rgb(120,120,120)" />
<line x1="472.611" y1="171.387" x2="478.586" y2="176.88" stroke="rgb(120,120,120)" />
<line x1="478.586" y1="176.88" x2="490.075" y2="180" stroke="rgb(120,120,120)" />
<line x1="490.075" y1="180" x2="501.255" y2="184.063" stroke="rgb(120,120,120)" />
<line x1="501.255" y1="184.063" x2="511.458" y2="190.372" stroke="rgb(120,120,120)" />
<line x1="511.458" y1="190.372" x2="522.392" y2="195.505" stroke="rgb(120,120,120)" />
<circle cx="353.466" cy="-18.729" r="2" fill="rgb(100,100,100)" />
<circle cx="365.301" cy="-16.4612" r="2" fill="rgb(100,100,100)" />
<circle cx="377.287" cy="-16.5446" r="2" fill="rgb(100,100,100)" />
<circle cx="389.105" cy="-14.9879" r="2" fill="rgb(100,100,100)" />
<circle cx="400.644" cy="-13.7736" r="2" fill="rgb(100,100,100)" />
<circle cx="412.126" cy="-11.9353" r="2" fill="rgb(100,100,100)" />
<circle cx="423.474" cy="-8.35022" r="2" fill="rgb(100,100,100)" />
<circle cx="434.018" cy="-2.89693" r="2" fill="rgb(100,100,100)" />
<circle cx="443.065" cy="4.95644" r="2" fill="rgb(100,100,100)" />
<circle cx="451.572" cy="13.2103" r="2" fill="rgb(100,100,100)" />
<circle cx="458.998" cy="22.6494" r="2" fill="rgb(100,100,100)" />
<circle cx="465.754" cy="32.5373" r="2" fill="rgb(100,100,100)" />
<circle cx="472.493" cy="42.4786" r="2" fill="rgb(100,100,100)" />
<circle cx="477.143" cy="53.4494" r="2" fill="rgb(100,100,100)" />
<circle cx="481.301" cy="64.7719" r="2" fill="rgb(100,100,100)" />
<circle cx="486.1" cy="75.8148" r="2" fill="rgb(100,100,100)" />
<circle cx="491.589" cy="86.487" r="2" fill="rgb(100,100,100)" />
<circle cx="497.455" cy="96.9891" r="2" fill="rgb(100,100,100)" />
<circle cx="502.092" cy="107.991" r="2" fill="rgb(100,100,100)" />
<circle cx="505.769" cy="119.435" r="2" fill="rgb(100,100,100)" />
<circle cx="506.422" cy="130.704" r="2" fill="rgb(100,100,100)" />
<circle cx="504.054" cy="141.356" r="2" fill="rgb(100,100,100)" />
<circle cx="498.186" cy="150.299" r="2" fill="rgb(100,100,100)" />
<circle cx="488.491" cy="157.5" r="2" fill="rgb(100,100,100)" />
<circle cx="478.638" cy="164.495" r="2" fill="rgb(100,100,100)" />
<circle cx="472.611" cy="171.387" r="2" fill="rgb(100,100,100)" />
<circle cx="478.586" cy="176.88" r="2" fill="rgb(100,100,100)" />
<circle cx="490.075" cy="180" r="2" fill="rgb(100,100,100)" />
<circle cx="501.255" cy="184.063" r="2" fill="rgb(100,100,100)" />
<circle cx="511.458" cy="190.372" r="2" fill="rgb(100,100,100)" />
<circle cx="522.392" cy="195.505" r="2" fill="rgb(100,100,100)" />
<line x1="853.466" y1="-18.729" x2="865.301" y2="-16.4612" stroke="rgb(149, 202, 135)" />
<line x1="865.301" y1="-16.4612" x2="877.287" y2="-16.5446" stroke="rgb(149, 202, 135)" />
<line x1="877.287" y1="-16.5446" x2="889.105" y2="-14.9879" stroke="rgb(149, 202, 135)" />
<line x1="889.105" y1="-14.9879" x2="900.644" y2="-13.7736" stroke="rgb(149, 202, 135)" />
<line x1="900.644" y1="-13.7736" x2="912.126" y2="-11.9353" stroke="rgb(149, 202, 135)" />
<line x1="912.126" y1="-11.9353" x2="923.474" y2="-8.35022" stroke="rgb(149, 202, 135)" />
<line x1="923.474" y1="-8.35022" x2="934.018" y2="-2.89693" stroke="rgb(149, 202, 135)" />
<line x1="934.018" y1="-2.89693" x2="943.065" y2="4.95644" stroke="rgb(149, 202, 135)" />
<line x1="943.065" y1="4.95644" x2="951.572" y2="13.2103" stroke="rgb(149, 202, 135)" />
<line x1="951.572" y1="13.2103" x2="958.998" y2="22.6494" stroke="rgb(149, 202, 135)" />
<line x1="958.998" y1="22.6494" x2="965.754" y2="32.5373" stroke="rgb(149, 202, 135)" />
<line x1="965.754" y1="32.5373" x2="972.493" y2="42.4786" stroke="rgb(149, 202, 135)" />
<line x1="972.493" y1="42.4786" x2="977.143" y2="53.4494" stroke="rgb(149, 202, 135)" />
<line x1="977.143" y1="53.4494" x2="981.301" y2="64.7719" stroke="rgb(149, 202, 135)" />
<line x1="981.301" y1="64.7719" x2="986.1" y2="75.8148" stroke="rgb(149, 202, 135)" />
<line x1="986.1" y1="75.8148" x2="991.589" y2="86.487" stroke="rgb(149, 202, 135)" />
<line x1="991.589" y1="86.487" x2="997.455" y2="96.9891" stroke="rgb(149, 202, 135)" />
<line x1="997.455" y1="96.9891" x2="1001.79" y2="107.957" stroke="rgb(149, 202, 135)" />
<line x1="1001.79" y1="107.957" x2="1005.27" y2="119.242" stroke="rgb(149, 202, 135)" />
<line x1="1005.27" y1="119.242" x2="1005.87" y2="130.305" stroke="rgb(149, 202, 135)" />
<line x1="1005.87" y1="130.305" x2="1003.6" y2="140.892" stroke="rgb(149, 202, 135)" />
<line x1="1003.6" y1="140.892" x2="997.968" y2="150.015" stroke="rgb(149, 202, 135)" />
<line x1="997.968" y1="150.015" x2="988.589" y2="157.625" stroke="rgb(149, 202, 135)" />
<line x1="988.589" y1="157.625" x2="979.01" y2="164.917" stroke="rgb(149, 202, 135)" />
<line x1="979.01" y1="164.917" x2="973.141" y2="171.855" stroke="rgb(149, 202, 135)" />
<line x1="973.141" y1="171.855" x2="979.12" y2="177.156" stroke="rgb(149, 202, 135)" />
<line x1="979.12" y1="177.156" x2="990.461" y2="180.08" stroke="rgb(149, 202, 135)" />
<line x1="990.461" y1="180.08" x2="1001.37" y2="184.065" stroke="rgb(149, 202, 135)" />
<line x1="1001.37" y1="184.065" x2="1011.46" y2="190.372" stroke="rgb(149, 202, 135)" />
<line x1="1011.46" y1="190.372" x2="1022.39" y2="195.505" stroke="rgb(149, 202, 135)" />
<circle cx="853.466" cy="-18.729" r="2" fill="rgb(250, 65, 65)" />
<circle cx="865.301" cy="-16.4612" r="2" fill="rgb(250, 65, 65)" />
<circle cx="877.287" cy="-16.5446" r="2" fill="rgb(250, 65, 65)" />
<circle cx="889.105" cy="-14.9879" r="2" fill="rgb(250, 65, 65)" />
<circle cx="900.644" cy="-13.7736" r="2" fill="rgb(250, 65, 65)" />
<circle cx="912.126" cy="-11.9353" r="2" fill="rgb(250, 65, 65)" />
<circle cx="923.474" cy="-8.35022" r="2" fill="rgb(250, 65, 65)" />
<circle cx="934.018" cy="-2.89693" r="2" fill="rgb(250, 65, 65)" />
<circle cx="943.065" cy="4.95644" r="2" fill="rgb(250, 65, 65)" />
<circle cx="951.572" cy="13.2103" r="2" fill="rgb(250, 65, 65)" />
<circle cx="958.998" cy="22.6494" r="2" fill="rgb(250, 65, 65)" />
<circle cx="965.754" cy="32.5373" r="2" fill="rgb(250, 65, 65)" />
<circle cx="972.493" cy="42.4786" r="2" fill="rgb(250, 65, 65)" />
<circle cx="977.143" cy="53.4494" r="2" fill="rgb(250, 65, 65)" />
<circle cx="981.301" cy="64.7719" r="2" fill="rgb(250, 65, 65)" />
<circle cx="986.1" cy="75.8148" r="2" fill="rgb(250, 65, 65)" />
<circle cx="991.589" cy="86.487" r="2" fill="rgb(250, 65, 65)" />
<circle cx="997.455" cy="96.9891" r="2" fill="rgb(250, 65, 65)" />
<circle cx="1001.79" cy="107.957" r="2" fill="rgb(250, 65, 65)" />
<circle cx="1005.27" cy="119.242" r="2" fill="rgb(250, 65, 65)" />
<circle cx="1005.87" cy="130.305" r="2" fill="rgb(250, 65, 65)" />
<circle cx="1003.6" cy="140.892" r="2" fill="rgb(250, 65, 65)" />
<circle cx="997.968" cy="150.015" r="2" fill="rgb(250, 65, 65)" />
<circle cx="988.589" cy="157.625" r="2" fill="rgb(250, 65, 65)" />
<circle cx="979.01" cy="164.917" r="2" fill="rgb(250, 65, 65)" />
<circle cx="973.141" cy="171.855" r="2" fill="rgb(250, 65, 65)" />
<circle cx="979.12" cy="177.156" r="2" fill="rgb(250, 65, 65)" />
<circle cx="990.461" cy="180.08" r="2" fill="rgb(250, 65, 65)" />
<circle cx="1001.37" cy="184.065" r="2" fill="rgb(250, 65, 65)" />
<circle cx="1011.46" cy="190.372" r="2" fill="rgb(250, 65, 65)" />
<circle cx="1022.39" cy="195.505" r="2" fill="rgb(250, 65, 65)" />
<line x1="522.392" y1="195.505" x2="532.319" y2="190.275" stroke="rgb(120,120,120)" />
<line x1="532.319" y1="190.275" x2="543.197" y2="187.897" stroke="rgb(120,120,120)" />
<line x1="543.197" y1="187.897" x2="550.281" y2="178.219" stroke="rgb(120,120,120)" />
<line x1="550.281" y1="178.219" x2="559.953" y2="171.81" stroke="rgb(120,120,120)" />
<line x1="559.953" y1="171.81" x2="569.414" y2="175.499" stroke="rgb(120,120,120)" />
<line x1="569.414" y1="175.499" x2="578.766" y2="182.936" stroke="rgb(120,120,120)" />
<line x1="578.766" y1="182.936" x2="589.111" y2="188.963" stroke="rgb(120,120,120)" />
<line x1="589.111" y1="188.963" x2="599.492" y2="194.982" stroke="rgb(120,120,120)" />
<line x1="599.492" y1="194.982" x2="609.026" y2="202.253" stroke="rgb(120,120,120)" />
<line x1="609.026" y1="202.253" x2="618.259" y2="209.939" stroke="rgb(120,120,120)" />
<line x1="618.259" y1="209.939" x2="626.992" y2="218.115" stroke="rgb(120,120,120)" />
<line x1="626.992" y1="218.115" x2="633.438" y2="228.242" stroke="rgb(120,120,120)" />
<line x1="633.438" y1="228.242" x2="639.061" y2="238.862" stroke="rgb(120,120,120)" />
<line x1="639.061" y1="238.862" x2="645.043" y2="249.273" stroke="rgb(120,120,120)" />
<line x1="645.043" y1="249.273" x2="652.062" y2="259.01" stroke="rgb(120,120,120)" />
<line x1="652.062" y1="259.01" x2="660.543" y2="263.551" stroke="rgb(120,120,120)" />
<line x1="660.543" y1="263.551" x2="668.826" y2="255.461" stroke="rgb(120,120,120)" />
<line x1="668.826" y1="255.461" x2="672.236" y2="244.002" stroke="rgb(120,120,120)" />
<line x1="672.236" y1="244.002" x2="673.295" y2="232.043" stroke="rgb(120,120,120)" />
<line x1="673.295" y1="232.043" x2="673.234" y2="220.027" stroke="rgb(120,120,120)" />
<line x1="673.234" y1="220.027" x2="672.987" y2="208.023" stroke="rgb(120,120,120)" />
<line x1="672.987" y1="208.023" x2="671.354" y2="196.13" stroke="rgb(120,120,120)" />
<line x1="671.354" y1="196.13" x2="668.233" y2="184.533" stroke="rgb(120,120,120)" />
<line x1="668.233" y1="184.533" x2="664.119" y2="173.245" stroke="rgb(120,120,120)" />
<line x1="664.119" y1="173.245" x2="659.605" y2="162.141" stroke="rgb(120,120,120)" />
<line x1="659.605" y1="162.141" x2="657.99" y2="150.332" stroke="rgb(120,120,120)" />
<line x1="657.99" y1="150.332" x2="663.011" y2="139.468" stroke="rgb(120,120,120)" />
<line x1="663.011" y1="139.468" x2="670.913" y2="130.574" stroke="rgb(120,120,120)" />
<line x1="670.913" y1="130.574" x2="679.949" y2="123.221" stroke="rgb(120,120,120)" />
<circle cx="522.392" cy="195.505" r="2" fill="rgb(100,100,100)" />
<circle cx="532.319" cy="190.275" r="2" fill="rgb(100,100,100)" />
<circle cx="543.197" cy="187.897" r="2" fill="rgb(100,100,100)" />
<circle cx="550.281" cy="178.219" r="2" fill="rgb(100,100,100)" />
<circle cx="559.953" cy="171.81" r="2" fill="rgb(100,100,100)" />
<circle cx="569.414" cy="175.499" r="2" fill="rgb(100,100,100)" />
<circle cx="578.766" cy="182.936" r="2" fill="rgb(100,100,100)" />
<circle cx="589.111" cy="188.963" r="2" fill="rgb(100,100,100)" />
<circle cx="599.492" cy="194.982" r="2" fill="rgb(100,100,100)" />
<circle cx="609.026" cy="202.253" r="2" fill="rgb(100,100,100)" />
<circle cx="618.259" cy="209.939" r="2" fill="rgb(100,100,100)" />
<circle cx="626.992" cy="218.115" r="2" fill="rgb(100,100,100)" />
<circle cx="633.438" cy="228.242" r="2" fill="rgb(100,100,100)" />
<circle cx="639.061" cy="238.862" r="2" fill="rgb(100,100,100)" />
<circle cx="645.043" cy="249.273" r="2" fill="rgb(100,100,100)" />
<circle cx="652.062" cy="259.01" r="2" fill="rgb(100,100,100)" />
<circle cx="660.543" cy="263.551" r="2" fill="rgb(100,100,100)" />
<circle cx="668.826" cy="255.461" r="2" fill="rgb(100,100,100)" />
<circle cx="672.236" cy="244.002" r="2" fill="rgb(100,100,100)" />
<circle cx="673.295" cy="232.043" r="2" fill="rgb(100,100,100)" />
<circle cx="673.234" cy="220.027" r="2" fill="rgb(100,100,100)" />
<circle cx="672.987" cy="208.023" r="2" fill="rgb(100,100,100)" />
<circle cx="671.354" cy="196.13" r="2" fill="rgb(100,100,100)" />
<circle cx="668.233" cy="184.533" r="2" fill="rgb(100,100,100)" />
<circle cx="664.119" cy="173.245" r="2" fill="rgb(100,100,100)" />
<circle cx="659.605" cy="162.141" r="2" fill="rgb(100,100,100)" />
<circle cx="657.99" cy="150.332" r="2" fill="rgb(100,100,100)" />
<circle cx="663.011" cy="139.468" r="2" fill="rgb(100,100,100)" />
<circle cx="670.913" cy="130.574" r="2" fill="rgb(100,100,100)" />
<circle cx="679.949" cy="123.221" r="2" fill="rgb(100,100,100)" />
<line x1="1022.39" y1="195.505" x2="1032.32" y2="190.275" stroke="rgb(149, 202, 135)" />
<line x1="1032.32" y1="190.275" x2="1043.2" y2="187.897" stroke="rgb(149, 202, 135)" />
<line x1="1043.2" y1="187.897" x2="1050.28" y2="178.219" stroke="rgb(149, 202, 135)" />
<line x1="1050.28" y1="178.219" x2="1059.95" y2="171.81" stroke="rgb(149, 202, 135)" />
<line x1="1059.95" y1="171.81" x2="1069.41" y2="175.499" stroke="rgb(149, 202, 135)" />
<line x1="1069.41" y1="175.499" x2="1078.77" y2="182.936" stroke="rgb(149, 202, 135)" />
<line x1="1078.77" y1="182.936" x2="1089.11" y2="188.963" stroke="rgb(149, 202, 135)" />
<line x1="1089.11" y1="188.963" x2="1099.49" y2="194.982" stroke="rgb(149, 202, 135)" />
<line x1="1099.49" y1="194.982" x2="1109.03" y2="202.253" stroke="rgb(149, 202, 135)" />
<line x1="1109.03" y1="202.253" x2="1118.26" y2="209.939" stroke="rgb(149, 202, 135)" />
<line x1="1118.26" y1="209.939" x2="1126.81" y2="218.022" stroke="rgb(149, 202, 135)" />
<line x1="1126.81" y1="218.022" x2="1131.85" y2="227.62" stroke="rgb(149, 202, 135)" />
<line x1="1131.85" y1="227.62" x2="1133.97" y2="237.172" stroke="rgb(149, 202, 135)" />
<line x1="1133.97" y1="237.172" x2="1134.88" y2="246.338" stroke="rgb(149, 202, 135)" />
<line x1="1134.88" y1="246.338" x2="1135.83" y2="254.906" stroke="rgb(149, 202, 135)" />
<line x1="1135.83" y1="254.906" x2="1141.47" y2="259.582" stroke="rgb(149, 202, 135)" />
<line x1="1141.47" y1="259.582" x2="1154.12" y2="253.635" stroke="rgb(149, 202, 135)" />
<line x1="1154.12" y1="253.635" x2="1164.21" y2="243.466" stroke="rgb(149, 202, 135)" />
<line x1="1164.21" y1="243.466" x2="1169.66" y2="231.981" stroke="rgb(149, 202, 135)" />
<line x1="1169.66" y1="231.981" x2="1172.55" y2="220.362" stroke="rgb(149, 202, 135)" />
<line x1="1172.55" y1="220.362" x2="1174.94" y2="208.862" stroke="rgb(149, 202, 135)" />
<line x1="1174.94" y1="208.862" x2="1175.81" y2="197.404" stroke="rgb(149, 202, 135)" />
<line x1="1175.81" y1="197.404" x2="1175.55" y2="186.047" stroke="rgb(149, 202, 135)" />
<line x1="1175.55" y1="186.047" x2="1175.28" y2="175.035" stroke="rgb(149, 202, 135)" />
<line x1="1175.28" y1="175.035" x2="1174.48" y2="164.081" stroke="rgb(149, 202, 135)" />
<line x1="1174.48" y1="164.081" x2="1175.01" y2="152.803" stroke="rgb(149, 202, 135)" />
<line x1="1175.01" y1="152.803" x2="1176.85" y2="142.428" stroke="rgb(149, 202, 135)" />
<line x1="1176.85" y1="142.428" x2="1179.69" y2="133.288" stroke="rgb(149, 202, 135)" />
<line x1="1179.69" y1="133.288" x2="1179.95" y2="123.221" stroke="rgb(149, 202, 135)" />
<circle cx="1022.39" cy="195.505" r="2" fill="rgb(250, 65, 65)" />
<circle cx="1032.32" cy="190.275" r="2" fill="rgb(250, 65, 65)" />
<circle cx="1043.2" cy="187.897" r="2" fill="rgb(250, 65, 65)" />
<circle cx="1050.28" cy="178.219" r="2" fill="rgb(250, 65, 65)" />
<circle cx="1059.95" cy="171.81" r="2" fill="rgb(250, 65, 65)" />
<circle cx="1069.41" cy="175.499" r="2" fill="rgb(250, 65, 65)" />
<circle cx="1078.77" cy="182.936" r="2" fill="rgb(250, 65, 65)" />
<circle cx="1089.11" cy="188.963" r="2" fill="rgb(250, 65, 65)" />
<circle cx="1099.49" cy="194.982" r="2" fill="rgb(250, 65, 65)" />
<circle cx="1109.03" cy="202.253" r="2" fill="rgb(250, 65, 65)" />
<circle cx="1118.26" cy="209.939" r="2" fill="rgb(250, 65, 65)" />
<circle cx="1126.81" cy="218.022" r="2" fill="rgb(250, 65, 65)" />
<circle cx="1131.85" cy="227.62" r="2" fill="rgb(250, 65, 65)" />
<circle cx="1133.97" cy="237.172" r="2" fill="rgb(250, 65, 65)" />
<circle cx="1134.88" cy="246.338" r="2" fill="rgb(250, 65, 65)" />
<circle cx="1135.83" cy="254.906" r="2" fill="rgb(250, 65, 65)" />
<circle cx="1141.47" cy="259.582" r="2" fill="rgb(250, 65, 65)" />
<circle cx="1154.12" cy="253.635" r="2" fill="rgb(250, 65, 65)" />
<circle cx="1164.21" cy="243.466" r="2" fill="rgb(250, 65, 65)" />
<circle cx="1169.66" cy="231.981" r="2" fill="rgb(250, 65, 65)" />
<circle cx="1172.55" cy="220.362" r="2" fill="rgb(250, 65, 65)" />
<circle cx="1174.94" cy="208.862" r="2" fill="rgb(250, 65, 65)" />
<circle cx="1175.81" cy="197.404" r="2" fill="rgb(250, 65, 65)" />
<circle cx="1175.55" cy="186.047" r="2" fill="rgb(250, 65, 65)" />
<circle cx="1175.28" cy="175.035" r="2" fill="rgb(250, 65, 65)" />
<circle cx="1174.48" cy="164.081" r="2" fill="rgb(250, 65, 65)" />
<circle cx="1175.01" cy="152.803" r="2" fill="rgb(250, 65, 65)" />
<circle cx="1176.85" cy="142.428" r="2" fill="rgb(250, 65, 65)" />
<circle cx="1179.69" cy="133.288" r="2" fill="rgb(250, 65, 65)" />
<circle cx="1179.95" cy="123.221" r="2" fill="rgb(250, 65, 65)" />
<line x1="679.949" y1="123.221" x2="672.399" y2="113.953" stroke="rgb(120,120,120)" />
<line x1="672.399" y1="113.953" x2="662.241" y2="107.423" stroke="rgb(120,120,120)" />
<line x1="662.241" y1="107.423" x2="650.749" y2="103.99" stroke="rgb(120,120,120)" />
<line x1="650.749" y1="103.99" x2="638.655" y2="104.178" stroke="rgb(120,120,120)" />
<line x1="638.655" y1="104.178" x2="626.618" y2="104.001" stroke="rgb(120,120,120)" />
<line x1="626.618" y1="104.001" x2="614.655" y2="102.742" stroke="rgb(120,120,120)" />
<line x1="614.655" y1="102.742" x2="603.38" y2="99.798" stroke="rgb(120,120,120)" />
<line x1="603.38" y1="99.798" x2="595.227" y2="92.2719" stroke="rgb(120,120,120)" />
<line x1="595.227" y1="92.2719" x2="590.806" y2="81.5873" stroke="rgb(120,120,120)" />
<line x1="590.806" y1="81.5873" x2="589.742" y2="69.6383" stroke="rgb(120,120,120)" />
<line x1="589.742" y1="69.6383" x2="589.145" y2="57.779" stroke="rgb(120,120,120)" />
<line x1="589.145" y1="57.779" x2="587.1" y2="46.1817" stroke="rgb(120,120,120)" />
<line x1="587.1" y1="46.1817" x2="582.797" y2="34.9837" stroke="rgb(120,120,120)" />
<line x1="582.797" y1="34.9837" x2="577.589" y2="24.0523" stroke="rgb(120,120,120)" />
<line x1="577.589" y1="24.0523" x2="571.913" y2="13.3609" stroke="rgb(120,120,120)" />
<line x1="571.913" y1="13.3609" x2="566.069" y2="2.76892" stroke="rgb(120,120,120)" />
<line x1="566.069" y1="2.76892" x2="559.691" y2="-7.52039" stroke="rgb(120,120,120)" />
<line x1="559.691" y1="-7.52039" x2="553.01" y2="-17.6215" stroke="rgb(120,120,120)" />
<line x1="553.01" y1="-17.6215" x2="546.545" y2="-27.8561" stroke="rgb(120,120,120)" />
<line x1="546.545" y1="-27.8561" x2="540.118" y2="-38.1096" stroke="rgb(120,120,120)" />
<line x1="540.118" y1="-38.1096" x2="534.021" y2="-48.5626" stroke="rgb(120,120,120)" />
<line x1="534.021" y1="-48.5626" x2="527.862" y2="-58.9865" stroke="rgb(120,120,120)" />
<line x1="527.862" y1="-58.9865" x2="521.64" y2="-69.3736" stroke="rgb(120,120,120)" />
<line x1="521.64" y1="-69.3736" x2="516.151" y2="-80.0894" stroke="rgb(120,120,120)" />
<line x1="516.151" y1="-80.0894" x2="511.023" y2="-91.0128" stroke="rgb(120,120,120)" />
<circle cx="679.949" cy="123.221" r="2" fill="rgb(100,100,100)" />
<circle cx="672.399" cy="113.953" r="2" fill="rgb(100,100,100)" />
<circle cx="662.241" cy="107.423" r="2" fill="rgb(100,100,100)" />
<circle cx="650.749" cy="103.99" r="2" fill="rgb(100,100,100)" />
<circle cx="638.655" cy="104.178" r="2" fill="rgb(100,100,100)" />
<circle cx="626.618" cy="104.001" r="2" fill="rgb(100,100,100)" />
<circle cx="614.655" cy="102.742" r="2" fill="rgb(100,100,100)" />
<circle cx="603.38" cy="99.798" r="2" fill="rgb(100,100,100)" />
<circle cx="595.227" cy="92.2719" r="2" fill="rgb(100,100,100)" />
<circle cx="590.806" cy="81.5873" r="2" fill="rgb(100,100,100)" />
<circle cx="589.742" cy="69.6383" r="2" fill="rgb(100,100,100)" />
<circle cx="589.145" cy="57.779" r="2" fill="rgb(100,100,100)" />
<circle cx="587.1" cy="46.1817" r="2" fill="rgb(100,100,100)" />
<circle cx="582.797" cy="34.9837" r="2" fill="rgb(100,100,100)" />
<circle cx="577.589" cy="24.0523" r="2" fill="rgb(100,100,100)" />
<circle cx="571.913" cy="13.3609" r="2" fill="rgb(100,100,100)" />
<circle cx="566.069" cy="2.76892" r="2" fill="rgb(100,100,100)" />
<circle cx="559.691" cy="-7.52039" r="2" fill="rgb(100,100,100)" />
<circle cx="553.01" cy="-17.6215" r="2" fill="rgb(100,100,100)" />
<circle cx="546.545" cy="-27.8561" r="2" fill="rgb(100,100,100)" />
<circle cx="540.118" cy="-38.1096" r="2" fill="rgb(100,100,100)" />
<circle cx="534.021" cy="-48.5626" r="2" fill="rgb(100,100,100)" />
<circle cx="527.862" cy="-58.9865" r="2" fill="rgb(100,100,100)" />
<circle cx="521.64" cy="-69.3736" r="2" fill="rgb(100,100,100)" />
<circle cx="516.151" cy="-80.0894" r="2" fill="rgb(100,100,100)" />
<circle cx="511.023" cy="-91.0128" r="2" fill="rgb(100,100,100)" />
<line x1="1179.95" y1="123.221" x2="1172.4" y2="113.953" stroke="rgb(149, 202, 135)" />
<line x1="1172.4" y1="113.953" x2="1162.24" y2="107.423" stroke="rgb(149, 202, 135)" />
<line x1="1162.24" y1="107.423" x2="1150.75" y2="103.99" stroke="rgb(149, 202, 135)" />
<line x1="1150.75" y1="103.99" x2="1138.65" y2="104.178" stroke="rgb(149, 202, 135)" />
<line x1="1138.65" y1="104.178" x2="1126.62" y2="104.001" stroke="rgb(149, 202, 135)" />
<line x1="1126.62" y1="104.001" x2="1114.65" y2="102.742" stroke="rgb(149, 202, 135)" />
<line x1="1114.65" y1="102.742" x2="1103.38" y2="99.798" stroke="rgb(149, 202, 135)" />
<line x1="1103.38" y1="99.798" x2="1095.23" y2="92.2719" stroke="rgb(149, 202, 135)" />
<line x1="1095.23" y1="92.2719" x2="1090.81" y2="81.5873" stroke="rgb(149, 202, 135)" />
<line x1="1090.81" y1="81.5873" x2="1089.74" y2="69.6383" stroke="rgb(149, 202, 135)" />
<line x1="1089.74" y1="69.6383" x2="1089.14" y2="57.779" stroke="rgb(149, 202, 135)" />
<line x1="1089.14" y1="57.779" x2="1087.1" y2="46.1817" stroke="rgb(149, 202, 135)" />
<line x1="1087.1" y1="46.1817" x2="1082.8" y2="34.9837" stroke="rgb(149, 202, 135)" />
<line x1="1082.8" y1="34.9837" x2="1077.59" y2="24.0523" stroke="rgb(149, 202, 135)" />
<line x1="1077.59" y1="24.0523" x2="1071.91" y2="13.3609" stroke="rgb(149, 202, 135)" />
<line x1="1071.91" y1="13.3609" x2="1066.07" y2="2.76892" stroke="rgb(149, 202, 135)" />
<line x1="1066.07" y1="2.76892" x2="1059.69" y2="-7.52039" stroke="rgb(149, 202, 135)" />
<line x1="1059.69" y1="-7.52039" x2="1053.01" y2="-17.6215" stroke="rgb(149, 202, 135)" />
<line x1="1053.01" y1="-17.6215" x2="1046.54" y2="-27.8561" stroke="rgb(149, 202, 135)" />
<line x1="1046.54" y1="-27.8561" x2="1040.12" y2="-38.1096" stroke="rgb(149, 202, 135)" />
<line x1="1040.12" y1="-38.1096" x2="1034.02" y2="-48.5626" stroke="rgb(149, 202, 135)" />
<line x1="1034.02" y1="-48.5626" x2="1027.86" y2="-58.9865" stroke="rgb(149, 202, 135)" />
<line x1="1027.86" y1="-58.9865" x2="1021.64" y2="-69.3736" stroke="rgb(149, 202, 135)" />
<line x1="1021.64" y1="-69.3736" x2="1016.15" y2="-80.0894" stroke="rgb(149, 202, 135)" />
<line x1="1016.15" y1="-80.0894" x2="1011.02" y2="-91.0128" stroke="rgb(149, 202, 135)" />
<circle cx="1179.95" cy="123.221" r="2" fill="rgb(250, 65, 65)" />
<circle cx="1172.4" cy="113.953" r="2" fill="rgb(250, 65, 65)" />
<circle cx="1162.24" cy="107.423" r="2" fill="rgb(250, 65, 65)" />
<circle cx="1150.75" cy="103.99" r="2" fill="rgb(250, 65, 65)" />
<circle cx="1138.65" cy="104.178" r="2" fill="rgb(250, 65, 65)" />
<circle cx="1126.62" cy="104.001" r="2" fill="rgb(250, 65, 65)" />
<circle cx="1114.65" cy="102.742" r="2" fill="rgb(250, 65, 65)" />
<circle cx="1103.38" cy="99.798" r="2" fill="rgb(250, 65, 65)" />
<circle cx="1095.23" cy="92.2719" r="2" fill="rgb(250, 65, 65)" />
<circle cx="1090.81" cy="81.5873" r="2" fill="rgb(250, 65, 65)" />
<circle cx="1089.74" cy="69.6383" r="2" fill="rgb(250, 65, 65)" />
<circle cx="1089.14" cy="57.779" r="2" fill="rgb(250, 65, 65)" />
<circle cx="1087.1" cy="46.1817" r="2" fill="rgb(250, 65, 65)" />
<circle cx="1082.8" cy="34.9837" r="2" fill="rgb(250, 65, 65)" />
<circle cx="1077.59" cy="24.0523" r="2" fill="rgb(250, 65, 65)" />
<circle cx="1071.91" cy="13.3609" r="2" fill="rgb(250, 65, 65)" />
<circle cx="1066.07" cy="2.76892" r="2" fill="rgb(250, 65, 65)" />
<circle cx="1059.69" cy="-7.52039" r="2" fill="rgb(250, 65, 65)" />
<circle cx="1053.01" cy="-17.6215" r="2" fill="rgb(250, 65, 65)" />
<circle cx="1046.54" cy="-27.8561" r="2" fill="rgb(250, 65, 65)" />
<circle cx="1040.12" cy="-38.1096" r="2" fill="rgb(250, 65, 65)" />
<circle cx="1034.02" cy="-48.5626" r="2" fill="rgb(250, 65, 65)" />
<circle cx="1027.86" cy="-58.9865" r="2" fill="rgb(250, 65, 65)" />
<circle cx="1021.64" cy="-69.3736" r="2" fill="rgb(250, 65, 65)" />
<circle cx="1016.15" cy="-80.0894" r="2" fill="rgb(250, 65, 65)" />
<circle cx="1011.02" cy="-91.0128" r="2" fill="rgb(250, 65, 65)" />
<line x1="511.023" y1="-91.013" x2="499.504" y2="-91.8913" stroke="rgb(120,120,120)" />
<line x1="499.504" y1="-91.8913" x2="487.884" y2="-92.7137" stroke="rgb(120,120,120)" />
<line x1="487.884" y1="-92.7137" x2="475.756" y2="-92.5292" stroke="rgb(120,120,120)" />
<line x1="475.756" y1="-92.5292" x2="463.586" y2="-91.7418" stroke="rgb(120,120,120)" />
<line x1="463.586" y1="-91.7418" x2="451.494" y2="-90.0415" stroke="rgb(120,120,120)" />
<line x1="451.494" y1="-90.0415" x2="439.533" y2="-87.7125" stroke="rgb(120,120,120)" />
<line x1="439.533" y1="-87.7125" x2="427.781" y2="-84.6565" stroke="rgb(120,120,120)" />
<line x1="427.781" y1="-84.6565" x2="416.197" y2="-81.1152" stroke="rgb(120,120,120)" />
<line x1="416.197" y1="-81.1152" x2="404.456" y2="-77.9838" stroke="rgb(120,120,120)" />
<line x1="404.456" y1="-77.9838" x2="392.654" y2="-74.8636" stroke="rgb(120,120,120)" />
<line x1="392.654" y1="-74.8636" x2="381.237" y2="-70.7232" stroke="rgb(120,120,120)" />
<line x1="381.237" y1="-70.7232" x2="373.142" y2="-61.9572" stroke="rgb(120,120,120)" />
<line x1="373.142" y1="-61.9572" x2="365.89" y2="-52.1582" stroke="rgb(120,120,120)" />
<line x1="365.89" y1="-52.1582" x2="361.479" y2="-40.8121" stroke="rgb(120,120,120)" />
<line x1="361.479" y1="-40.8121" x2="357.239" y2="-29.6718" stroke="rgb(120,120,120)" />
<line x1="357.239" y1="-29.6718" x2="353.466" y2="-18.729" stroke="rgb(120,120,120)" />
<circle cx="511.023" cy="-91.013" r="2" fill="rgb(100,100,100)" />
<circle cx="499.504" cy="-91.8913" r="2" fill="rgb(100,100,100)" />
<circle cx="487.884" cy="-92.7137" r="2" fill="rgb(100,100,100)" />
<circle cx="475.756" cy="-92.5292" r="2" fill="rgb(100,100,100)" />
<circle cx="463.586" cy="-91.7418" r="2" fill="rgb(100,100,100)" />
<circle cx="451.494" cy="-90.0415" r="2" fill="rgb(100,100,100)" />
<circle cx="439.533" cy="-87.7125" r="2" fill="rgb(100,100,100)" />
<circle cx="427.781" cy="-84.6565" r="2" fill="rgb(100,100,100)" />
<circle cx="416.197" cy="-81.1152" r="2" fill="rgb(100,100,100)" />
<circle cx="404.456" cy="-77.9838" r="2" fill="rgb(100,100,100)" />
<circle cx="392.654" cy="-74.8636" r="2" fill="rgb(100,100,100)" />
<circle cx="381.237" cy="-70.7232" r="2" fill="rgb(100,100,100)" />
<circle cx="373.142" cy="-61.9572" r="2" fill="rgb(100,100,100)" />
<circle cx="365.89" cy="-52.1582" r="2" fill="rgb(100,100,100)" />
<circle cx="361.479" cy="-40.8121" r="2" fill="rgb(100,100,100)" />
<circle cx="357.239" cy="-29.6718" r="2" fill="rgb(100,100,100)" />
<circle cx="353.466" cy="-18.729" r="2" fill="rgb(100,100,100)" />
<line x1="1011.02" y1="-91.013" x2="999.504" y2="-91.8913" stroke="rgb(149, 202, 135)" />
<line x1="999.504" y1="-91.8913" x2="987.884" y2="-92.7137" stroke="rgb(149, 202, 135)" />
<line x1="987.884" y1="-92.7137" x2="975.756" y2="-92.5292" stroke="rgb(149, 202, 135)" />
<line x1="975.756" y1="-92.5292" x2="963.586" y2="-91.7418" stroke="rgb(149, 202, 135)" />
<line x1="963.586" y1="-91.7418" x2="951.494" y2="-90.0415" stroke="rgb(149, 202, 135)" />
<line x1="951.494" y1="-90.0415" x2="939.533" y2="-87.7125" stroke="rgb(149, 202, 135)" />
<line x1="939.533" y1="-87.7125" x2="927.781" y2="-84.6565" stroke="rgb(149, 202, 135)" />
<line x1="927.781" y1="-84.6565" x2="916.197" y2="-81.1152" stroke="rgb(149, 202, 135)" />
<line x1="916.197" y1="-81.1152" x2="904.456" y2="-77.9838" stroke="rgb(149, 202, 135)" />
<line x1="904.456" y1="-77.9838" x2="892.654" y2="-74.8636" stroke="rgb(149, 202, 135)" />
<line x1="892.654" y1="-74.8636" x2="881.237" y2="-70.7232" stroke="rgb(149, 202, 135)" />
<line x1="881.237" y1="-70.7232" x2="873.142" y2="-61.9572" stroke="rgb(149, 202, 135)" />
<line x1="873.142" y1="-61.9572" x2="865.89" y2="-52.1582" stroke="rgb(149, 202, 135)" />
<line x1="865.89" y1="-52.1582" x2="861.479" y2="-40.8121" stroke="rgb(149, 202, 135)" />
<line x1="861.479" y1="-40.8121" x2="857.239" y2="-29.6718" stroke="rgb(149, 202, 135)" />
<line x1="857.239" y1="-29.6718" x2="853.466" y2="-18.729" stroke="rgb(149, 202, 135)" />
<circle cx="1011.02" cy="-91.013" r="2" fill="rgb(250, 65, 65)" />
<circle cx="999.504" cy="-91.8913" r="2" fill="rgb(250, 65, 65)" />
<circle cx="987.884" cy="-92.7137" r="2" fill="rgb(250, 65, 65)" />
<circle cx="975.756" cy="-92.5292" r="2" fill="rgb(250, 65, 65)" />
<circle cx="963.586" cy="-91.7418" r="2" fill="rgb(250, 65, 65)" />
<circle cx="951.494" cy="-90.0415" r="2" fill="rgb(250, 65, 65)" />
<circle cx="939.533" cy="-87.7125" r="2" fill="rgb(250, 65, 65)" />
<circle cx="927.781" cy="-84.6565" r="2" fill="rgb(250, 65, 65)" />
<circle cx="916.197" cy="-81.1152" r="2" fill="rgb(250, 65, 65)" />
<circle cx="904.456" cy="-77.9838" r="2" fill="rgb(250, 65, 65)" />
<circle cx="892.654" cy="-74.8636" r="2" fill="rgb(250, 65, 65)" />
<circle cx="881.237" cy="-70.7232" r="2" fill="rgb(250, 65, 65)" />
<circle cx="873.142" cy="-61.9572" r="2" fill="rgb(250, 65, 65)" />
<circle cx="865.89" cy="-52.1582" r="2" fill="rgb(250, 65, 65)" />
<circle cx="861.479" cy="-40.8121" r="2" fill="rgb(250, 65, 65)" />
<circle cx="857.239" cy="-29.6718" r="2" fill="rgb(250, 65, 65)" />
<circle cx="853.466" cy="-18.729" r="2" fill="rgb(250, 65, 65)" />
</svg>