<svg xmlns="http://www.w3.org/2000/svg" width="1000" height="1000">
<line x1="421.169" y1="-43.466" x2="425.075" y2="-33.6362" stroke="rgb(120,120,120)" />
<line x1="425.075" y1="-33.6362" x2="429.314" y2="-23.8642" stroke="rgb(120,120,120)" />
<line x1="429.314" y1="-23.8642" x2="434.113" y2="-14.1168" stroke="rgb(120,120,120)" />
<line x1="434.113" y1="-14.1168" x2="439.024" y2="-4.21716" stroke="rgb(120,120,120)" />
<line x1="439.024" y1="-4.21716" x2="445.774" y2="4.66991" stroke="rgb(120,120,120)" />
<line x1="445.774" y1="4.66991" x2="452.843" y2="13.8215" stroke="rgb(120,120,120)" />
<line x1="452.843" y1="13.8215" x2="459.47" y2="23.4079" stroke="rgb(120,120,120)" />
<line x1="459.47" y1="23.4079" x2="465.77" y2="33.244" stroke="rgb(120,120,120)" />
<line x1="465.77" y1="33.244" x2="471.73" y2="43.3127" stroke="rgb(120,120,120)" />
<line x1="471.73" y1="43.3127" x2="477.438" y2="53.5183" stroke="rgb(120,120,120)" />
<line x1="477.438" y1="53.5183" x2="482.757" y2="63.905" stroke="rgb(120,120,120)" />
<line x1="482.757" y1="63.905" x2="489.851" y2="67.0342" stroke="rgb(120,120,120)" />
<line x1="489.851" y1="67.0342" x2="499.392" y2="60.4218" stroke="rgb(120,120,120)" />
<line x1="499.392" y1="60.4218" x2="509.993" y2="56.5601" stroke="rgb(120,120,120)" />
<line x1="509.993" y1="56.5601" x2="521.421" y2="57.9844" stroke="rgb(120,120,120)" />
<line x1="521.421" y1="57.9844" x2="531.609" y2="63.3019" stroke="rgb(120,120,120)" />
<line x1="531.609" y1="63.3019" x2="539.721" y2="71.3623" stroke="rgb(120,120,120)" />
<line x1="539.721" y1="71.3623" x2="546.292" y2="80.6555" stroke="rgb(120,120,120)" />
<line x1="546.292" y1="80.6555" x2="552.26" y2="90.2535" stroke="rgb(120,120,120)" />
<line x1="552.26" y1="90.2535" x2="558.868" y2="99.3491" stroke="rgb(120,120,120)" />
<line x1="558.868" y1="99.3491" x2="566.034" y2="107.662" stroke="rgb(120,120,120)" />
<line x1="566.034" y1="107.662" x2="569.818" y2="117.074" stroke="rgb(120,120,120)" />
<circle cx="421.169" cy="-43.466" r="2" fill="rgb(100,100,100)" />
<circle cx="425.075" cy="-33.6362" r="2" fill="rgb(100,100,100)" />
<circle cx="429.314" cy="-23.8642" r="2" fill="rgb(100,100,100)" />
<circle cx="434.113" cy="-14.1168" r="2" fill="rgb(100,100,100)" />
<circle cx="439.024" cy="-4.21716" r="2" fill="rgb(100,100,100)" />
<circle cx="445.774" cy="4.66991" r="2" fill="rgb(100,100,100)" />
<circle cx="452.843" cy="13.8215" r="2" fill="rgb(100,100,100)" />
<circle cx="459.47" cy="23.4079" r="2" fill="rgb(100,100,100)" />
<circle cx="465.77" cy="33.244" r="2" fill="rgb(100,100,100)" />
<circle cx="471.73" cy="43.3127" r="2" fill="rgb(100,100,100)" />
<circle cx="477.438" cy="53.5183" r="2" fill="rgb(100,100,100)" />
<circle cx="482.757" cy="63.905" r="2" fill="rgb(100,100,100)" />
<circle cx="489.851" cy="67.0342" r="2" fill="rgb(100,100,100)" />
<circle cx="499.392" cy="60.4218" r="2" fill="rgb(100,100,100)" />
<circle cx="509.993" cy="56.5601" r="2" fill="rgb(100,100,100)" />
<circle cx="521.421" cy="57.9844" r="2" fill="rgb(100,100,100)" />
<circle cx="531.609" cy="63.3019" r="2" fill="rgb(100,100,100)" />
<circle cx="539.721" cy="71.3623" r="2" fill="rgb(100,100,100)" />
<circle cx="546.292" cy="80.6555" r="2" fill="rgb(100,100,100)" />
<circle cx="552.26" cy="90.2535" r="2" fill="rgb(100,100,100)" />
<circle cx="558.868" cy="99.3491" r="2" fill="rgb(100,100,100)" />
<circle cx="566.034" cy="107.662" r="2" fill="rgb(100,100,100)" />
<circle cx="569.818" cy="117.074" r="2" fill="rgb(100,100,100)" />
<line x1="921.169" y1="-43.466" x2="925.075" y2="-33.6362" stroke="rgb(149, 202, 135)" />
<line x1="925.075" y1="-33.6362" x2="929.314" y2="-23.8642" stroke="rgb(149, 202, 135)" />
<line x1="929.314" y1="-23.8642" x2="934.113" y2="-14.1168" stroke="rgb(149, 202, 135)" />
<line x1="934.113" y1="-14.1168" x2="939.024" y2="-4.21716" stroke="rgb(149, 202, 135)" />
<line x1="939.024" y1="-4.21716" x2="945.774" y2="4.66991" stroke="rgb(149, 202, 135)" />
<line x1="945.774" y1="4.66991" x2="952.843" y2="13.8215" stroke="rgb(149, 202, 135)" />
<line x1="952.843" y1="13.8215" x2="959.47" y2="23.4079" stroke="rgb(149, 202, 135)" />
<line x1="959.47" y1="23.4079" x2="965.794" y2="33.1964" stroke="rgb(149, 202, 135)" />
<line x1="965.794" y1="33.1964" x2="971.756" y2="43.2357" stroke="rgb(149, 202, 135)" />
<line x1="971.756" y1="43.2357" x2="977.447" y2="53.4334" stroke="rgb(149, 202, 135)" />
<line x1="977.447" y1="53.4334" x2="982.738" y2="63.8348" stroke="rgb(149, 202, 135)" />
<line x1="982.738" y1="63.8348" x2="989.83" y2="67.0034" stroke="rgb(149, 202, 135)" />
<line x1="989.83" y1="67.0034" x2="999.413" y2="60.4526" stroke="rgb(149, 202, 135)" />
<line x1="999.413" y1="60.4526" x2="1010.01" y2="56.6303" stroke="rgb(149, 202, 135)" />
<line x1="1010.01" y1="56.6303" x2="1021.41" y2="58.0693" stroke="rgb(149, 202, 135)" />
<line x1="1021.41" y1="58.0693" x2="1031.58" y2="63.379" stroke="rgb(149, 202, 135)" />
<line x1="1031.58" y1="63.379" x2="1039.7" y2="71.4099" stroke="rgb(149, 202, 135)" />
<line x1="1039.7" y1="71.4099" x2="1046.29" y2="80.6555" stroke="rgb(149, 202, 135)" />
<line x1="1046.29" y1="80.6555" x2="1052.26" y2="90.2535" stroke="rgb(149, 202, 135)" />
<line x1="1052.26" y1="90.2535" x2="1058.87" y2="99.3491" stroke="rgb(149, 202, 135)" />
<line x1="1058.87" y1="99.3491" x2="1066.03" y2="107.662" stroke="rgb(149, 202, 135)" />
<line x1="1066.03" y1="107.662" x2="1069.82" y2="117.074" stroke="rgb(149, 202, 135)" />
<circle cx="921.169" cy="-43.466" r="2" fill="rgb(250, 65, 65)" />
<circle cx="925.075" cy="-33.6362" r="2" fill="rgb(250, 65, 65)" />
<circle cx="929.314" cy="-23.8642" r="2" fill="rgb(250, 65, 65)" />
<circle cx="934.113" cy="-14.1168" r="2" fill="rgb(250, 65, 65)" />
<circle cx="939.024" cy="-4.21716" r="2" fill="rgb(250, 65, 65)" />
<circle cx="945.774" cy="4.66991" r="2" fill="rgb(250, 65, 65)" />
<circle cx="952.843" cy="13.8215" r="2" fill="rgb(250, 65, 65)" />
<circle cx="959.47" cy="23.4079" r="2" fill="rgb(250, 65, 65)" />
<circle cx="965.794" cy="33.1964" r="2" fill="rgb(250, 65, 65)" />
<circle cx="971.756" cy="43.2357" r="2" fill="rgb(250, 65, 65)" />
<circle cx="977.447" cy="53.4334" r="2" fill="rgb(250, 65, 65)" />
<circle cx="982.738" cy="63.8348" r="2" fill="rgb(250, 65, 65)" />
<circle cx="989.83" cy="67.0034" r="2" fill="rgb(250, 65, 65)" />
<circle cx="999.413" cy="60.4526" r="2" fill="rgb(250, 65, 65)" />
<circle cx="1010.01" cy="56.6303" r="2" fill="rgb(250, 65, 65)" />
<circle cx="1021.41" cy="58.0693" r="2" fill="rgb(250, 65, 65)" />
<circle cx="1031.58" cy="63.379" r="2" fill="rgb(250, 65, 65)" />
<circle cx="1039.7" cy="71.4099" r="2" fill="rgb(250, 65, 65)" />
<circle cx="1046.29" cy="80.6555" r="2" fill="rgb(250, 65, 65)" />
<circle cx="1052.26" cy="90.2535" r="2" fill="rgb(250, 65, 65)" />
<circle cx="1058.87" cy="99.3491" r="2" fill="rgb(250, 65, 65)" />
<circle cx="1066.03" cy="107.662" r="2" fill="rgb(250, 65, 65)" />
<circle cx="1069.82" cy="117.074" r="2" fill="rgb(250, 65, 65)" />
<line x1="569.818" y1="117.073" x2="572.191" y2="107.559" stroke="rgb(120,120,120)" />
<line x1="572.191" y1="107.559" x2="573.231" y2="96.4926" stroke="rgb(120,120,120)" />
<line x1="573.231" y1="96.4926" x2="573.395" y2="84.8526" stroke="rgb(120,120,120)" />
<line x1="573.395" y1="84.8526" x2="573.889" y2="73.1826" stroke="rgb(120,120,120)" />
<line x1="573.889" y1="73.1826" x2="575.229" y2="61.6511" stroke="rgb(120,120,120)" />
<line x1="575.229" y1="61.6511" x2="577.348" y2="50.2341" stroke="rgb(120,120,120)" />
<line x1="577.348" y1="50.2341" x2="579.162" y2="38.6977" stroke="rgb(120,120,120)" />
<line x1="579.162" y1="38.6977" x2="581.422" y2="27.2437" stroke="rgb(120,120,120)" />
<line x1="581.422" y1="27.2437" x2="584.792" y2="16.0735" stroke="rgb(120,120,120)" />
<line x1="584.792" y1="16.0735" x2="589.373" y2="5.33856" stroke="rgb(120,120,120)" />
<line x1="589.373" y1="5.33856" x2="595.217" y2="-4.75009" stroke="rgb(120,120,120)" />
<line x1="595.217" y1="-4.75009" x2="602.514" y2="-13.836" stroke="rgb(120,120,120)" />
<line x1="602.514" y1="-13.836" x2="611.432" y2="-20.4948" stroke="rgb(120,120,120)" />
<line x1="611.432" y1="-20.4948" x2="621.906" y2="-22.7136" stroke="rgb(120,120,120)" />
<line x1="621.906" y1="-22.7136" x2="632.24" y2="-21.5996" stroke="rgb(120,120,120)" />
<line x1="632.24" y1="-21.5996" x2="642.058" y2="-15.3673" stroke="rgb(120,120,120)" />
<line x1="642.058" y1="-15.3673" x2="651.73" y2="-8.98825" stroke="rgb(120,120,120)" />
<line x1="651.73" y1="-8.98825" x2="661.221" y2="-2.19216" stroke="rgb(120,120,120)" />
<line x1="661.221" y1="-2.19216" x2="669.751" y2="4.5111" stroke="rgb(120,120,120)" />
<line x1="669.751" y1="4.5111" x2="677.502" y2="-2.38553" stroke="rgb(120,120,120)" />
<line x1="677.502" y1="-2.38553" x2="684.88" y2="-11.4392" stroke="rgb(120,120,120)" />
<line x1="684.88" y1="-11.4392" x2="693.079" y2="-19.6911" stroke="rgb(120,120,120)" />
<line x1="693.079" y1="-19.6911" x2="702.126" y2="-26.744" stroke="rgb(120,120,120)" />
<line x1="702.126" y1="-26.744" x2="710.885" y2="-32.5331" stroke="rgb(120,120,120)" />
<line x1="710.885" y1="-32.5331" x2="719.68" y2="-38.1814" stroke="rgb(120,120,120)" />
<circle cx="569.818" cy="117.073" r="2" fill="rgb(100,100,100)" />
<circle cx="572.191" cy="107.559" r="2" fill="rgb(100,100,100)" />
<circle cx="573.231" cy="96.4926" r="2" fill="rgb(100,100,100)" />
<circle cx="573.395" cy="84.8526" r="2" fill="rgb(100,100,100)" />
<circle cx="573.889" cy="73.1826" r="2" fill="rgb(100,100,100)" />
<circle cx="575.229" cy="61.6511" r="2" fill="rgb(100,100,100)" />
<circle cx="577.348" cy="50.2341" r="2" fill="rgb(100,100,100)" />
<circle cx="579.162" cy="38.6977" r="2" fill="rgb(100,100,100)" />
<circle cx="581.422" cy="27.2437" r="2" fill="rgb(100,100,100)" />
<circle cx="584.792" cy="16.0735" r="2" fill="rgb(100,100,100)" />
<circle cx="589.373" cy="5.33856" r="2" fill="rgb(100,100,100)" />
<circle cx="595.217" cy="-4.75009" r="2" fill="rgb(100,100,100)" />
<circle cx="602.514" cy="-13.836" r="2" fill="rgb(100,100,100)" />
<circle cx="611.432" cy="-20.4948" r="2" fill="rgb(100,100,100)" />
<circle cx="621.906" cy="-22.7136" r="2" fill="rgb(100,100,100)" />
<circle cx="632.24" cy="-21.5996" r="2" fill="rgb(100,100,100)" />
<circle cx="642.058" cy="-15.3673" r="2" fill="rgb(100,100,100)" />
<circle cx="651.73" cy="-8.98825" r="2" fill="rgb(100,100,100)" />
<circle cx="661.221" cy="-2.19216" r="2" fill="rgb(100,100,100)" />
<circle cx="669.751" cy="4.5111" r="2" fill="rgb(100,100,100)" />
<circle cx="677.502" cy="-2.38553" r="2" fill="rgb(100,100,100)" />
<circle cx="684.88" cy="-11.4392" r="2" fill="rgb(100,100,100)" />
<circle cx="693.079" cy="-19.6911" r="2" fill="rgb(100,100,100)" />
<circle cx="702.126" cy="-26.744" r="2" fill="rgb(100,100,100)" />
<circle cx="710.885" cy="-32.5331" r="2" fill="rgb(100,100,100)" />
<circle cx="719.68" cy="-38.1814" r="2" fill="rgb(100,100,100)" />
<line x1="1069.82" y1="117.073" x2="1072.19" y2="107.559" stroke="rgb(149, 202, 135)" />
<line x1="1072.19" y1="107.559" x2="1073.23" y2="96.4926" stroke="rgb(149, 202, 135)" />
<line x1="1073.23" y1="96.4926" x2="1073.39" y2="84.8526" stroke="rgb(149, 202, 135)" />
<line x1="1073.39" y1="84.8526" x2="1073.89" y2="73.1826" stroke="rgb(149, 202, 135)" />
<line x1="1073.89" y1="73.1826" x2="1075.23" y2="61.6511" stroke="rgb(149, 202, 135)" />
<line x1="1075.23" y1="61.6511" x2="1077.35" y2="50.2341" stroke="rgb(149, 202, 135)" />
<line x1="1077.35" y1="50.2341" x2="1079.16" y2="38.6977" stroke="rgb(149, 202, 135)" />
<line x1="1079.16" y1="38.6977" x2="1081.42" y2="27.2437" stroke="rgb(149, 202, 135)" />
<line x1="1081.42" y1="27.2437" x2="1084.79" y2="16.0735" stroke="rgb(149, 202, 135)" />
<line x1="1084.79" y1="16.0735" x2="1089.37" y2="5.33856" stroke="rgb(149, 202, 135)" />
<line x1="1089.37" y1="5.33856" x2="1095.29" y2="-4.03048" stroke="rgb(149, 202, 135)" />
<line x1="1095.29" y1="-4.03048" x2="1102.4" y2="-12.5191" stroke="rgb(149, 202, 135)" />
<line x1="1102.4" y1="-12.5191" x2="1110.98" y2="-18.8958" stroke="rgb(149, 202, 135)" />
<line x1="1110.98" y1="-18.8958" x2="1121.23" y2="-21.2097" stroke="rgb(149, 202, 135)" />
<line x1="1121.23" y1="-21.2097" x2="1131.6" y2="-20.5625" stroke="rgb(149, 202, 135)" />
<line x1="1131.6" y1="-20.5625" x2="1142.06" y2="-15.3866" stroke="rgb(149, 202, 135)" />
<line x1="1142.06" y1="-15.3866" x2="1152.02" y2="-9.56182" stroke="rgb(149, 202, 135)" />
<line x1="1152.02" y1="-9.56182" x2="1161.8" y2="-3.36869" stroke="rgb(149, 202, 135)" />
<line x1="1161.8" y1="-3.36869" x2="1170.45" y2="2.97591" stroke="rgb(149, 202, 135)" />
<line x1="1170.45" y1="2.97591" x2="1177.79" y2="-3.77901" stroke="rgb(149, 202, 135)" />
<line x1="1177.79" y1="-3.77901" x2="1184.9" y2="-12.3717" stroke="rgb(149, 202, 135)" />
<line x1="1184.9" y1="-12.3717" x2="1193.03" y2="-20.1183" stroke="rgb(149, 202, 135)" />
<line x1="1193.03" y1="-20.1183" x2="1202.1" y2="-26.8625" stroke="rgb(149, 202, 135)" />
<line x1="1202.1" y1="-26.8625" x2="1210.88" y2="-32.5331" stroke="rgb(149, 202, 135)" />
<line x1="1210.88" y1="-32.5331" x2="1219.68" y2="-38.1814" stroke="rgb(149, 202, 135)" />
<circle cx="1069.82" cy="117.073" r="2" fill="rgb(250, 65, 65)" />
<circle cx="1072.19" cy="107.559" r="2" fill="rgb(250, 65, 65)" />
<circle cx="1073.23" cy="96.4926" r="2" fill="rgb(250, 65, 65)" />
<circle cx="1073.39" cy="84.8526" r="2" fill="rgb(250, 65, 65)" />
<circle cx="1073.89" cy="73.1826" r="2" fill="rgb(250, 65, 65)" />
<circle cx="1075.23" cy="61.6511" r="2" fill="rgb(250, 65, 65)" />
<circle cx="1077.35" cy="50.2341" r="2" fill="rgb(250, 65, 65)" />
<circle cx="1079.16" cy="38.6977" r="2" fill="rgb(250, 65, 65)" />
<circle cx="1081.42" cy="27.2437" r="2" fill="rgb(250, 65, 65)" />
<circle cx="1084.79" cy="16.0735" r="2" fill="rgb(250, 65, 65)" />
<circle cx="1089.37" cy="5.33856" r="2" fill="rgb(250, 65, 65)" />
<circle cx="1095.29" cy="-4.03048" r="2" fill="rgb(250, 65, 65)" />
<circle cx="1102.4" cy="-12.5191" r="2" fill="rgb(250, 65, 65)" />
<circle cx="1110.98" cy="-18.8958" r="2" fill="rgb(250, 65, 65)" />
<circle cx="1121.23" cy="-21.2097" r="2" fill="rgb(250, 65, 65)" />
<circle cx="1131.6" cy="-20.5625" r="2" fill="rgb(250, 65, 65)" />
<circle cx="1142.06" cy="-15.3866" r="2" fill="rgb(250, 65, 65)" />
<circle cx="1152.02" cy="-9.56182" r="2" fill="rgb(250, 65, 65)" />
<circle cx="1161.8" cy="-3.36869" r="2" fill="rgb(250, 65, 65)" />
<circle cx="1170.45" cy="2.97591" r="2" fill="rgb(250, 65, 65)" />
<circle cx="1177.79" cy="-3.77901" r="2" fill="rgb(250, 65, 65)" />
<circle cx="1184.9" cy="-12.3717" r="2" fill="rgb(250, 65, 65)" />
<circle cx="1193.03" cy="-20.1183" r="2" fill="rgb(250, 65, 65)" />
<circle cx="1202.1" cy="-26.8625" r="2" fill="rgb(250, 65, 65)" />
<circle cx="1210.88" cy="-32.5331" r="2" fill="rgb(250, 65, 65)" />
<circle cx="1219.68" cy="-38.1814" r="2" fill="rgb(250, 65, 65)" />
<line x1="719.68" y1="-38.1813" x2="711.244" y2="-44.7743" stroke="rgb(120,120,120)" />
<line x1="711.244" y1="-44.7743" x2="703.382" y2="-52.0826" stroke="rgb(120,120,120)" />
<line x1="703.382" y1="-52.0826" x2="697.196" y2="-61.2431" stroke="rgb(120,120,120)" />
<line x1="697.196" y1="-61.2431" x2="693.086" y2="-71.7238" stroke="rgb(120,120,120)" />
<line x1="693.086" y1="-71.7238" x2="690.245" y2="-82.7625" stroke="rgb(120,120,120)" />
<line x1="690.245" y1="-82.7625" x2="686.613" y2="-93.4819" stroke="rgb(120,120,120)" />
<line x1="686.613" y1="-93.4819" x2="680.927" y2="-95.4824" stroke="rgb(120,120,120)" />
<line x1="680.927" y1="-95.4824" x2="676.843" y2="-88.9493" stroke="rgb(120,120,120)" />
<line x1="676.843" y1="-88.9493" x2="673.747" y2="-78.1372" stroke="rgb(120,120,120)" />
<line x1="673.747" y1="-78.1372" x2="669.824" y2="-67.5462" stroke="rgb(120,120,120)" />
<line x1="669.824" y1="-67.5462" x2="664.771" y2="-57.4192" stroke="rgb(120,120,120)" />
<line x1="664.771" y1="-57.4192" x2="657.835" y2="-48.3797" stroke="rgb(120,120,120)" />
<line x1="657.835" y1="-48.3797" x2="649.218" y2="-42.7172" stroke="rgb(120,120,120)" />
<line x1="649.218" y1="-42.7172" x2="638.735" y2="-42.1131" stroke="rgb(120,120,120)" />
<line x1="638.735" y1="-42.1131" x2="629.014" y2="-41.5461" stroke="rgb(120,120,120)" />
<line x1="629.014" y1="-41.5461" x2="619.203" y2="-42.6573" stroke="rgb(120,120,120)" />
<line x1="619.203" y1="-42.6573" x2="611.264" y2="-50.6128" stroke="rgb(120,120,120)" />
<line x1="611.264" y1="-50.6128" x2="604.207" y2="-59.5776" stroke="rgb(120,120,120)" />
<line x1="604.207" y1="-59.5776" x2="597.911" y2="-69.089" stroke="rgb(120,120,120)" />
<line x1="597.911" y1="-69.089" x2="592.526" y2="-79.1416" stroke="rgb(120,120,120)" />
<line x1="592.526" y1="-79.1416" x2="587.826" y2="-89.5392" stroke="rgb(120,120,120)" />
<line x1="587.826" y1="-89.5392" x2="583.501" y2="-100.103" stroke="rgb(120,120,120)" />
<line x1="583.501" y1="-100.103" x2="579.905" y2="-110.92" stroke="rgb(120,120,120)" />
<line x1="579.905" y1="-110.92" x2="577.014" y2="-121.95" stroke="rgb(120,120,120)" />
<line x1="577.014" y1="-121.95" x2="574.944" y2="-133.173" stroke="rgb(120,120,120)" />
<line x1="574.944" y1="-133.173" x2="572.329" y2="-144.238" stroke="rgb(120,120,120)" />
<line x1="572.329" y1="-144.238" x2="569.842" y2="-155.365" stroke="rgb(120,120,120)" />
<line x1="569.842" y1="-155.365" x2="568.64" y2="-166.671" stroke="rgb(120,120,120)" />
<line x1="568.64" y1="-166.671" x2="569.347" y2="-177.857" stroke="rgb(120,120,120)" />
<line x1="569.347" y1="-177.857" x2="570.533" y2="-188.598" stroke="rgb(120,120,120)" />
<line x1="570.533" y1="-188.598" x2="571.031" y2="-198.72" stroke="rgb(120,120,120)" />
<circle cx="719.68" cy="-38.1813" r="2" fill="rgb(100,100,100)" />
<circle cx="711.244" cy="-44.7743" r="2" fill="rgb(100,100,100)" />
<circle cx="703.382" cy="-52.0826" r="2" fill="rgb(100,100,100)" />
<circle cx="697.196" cy="-61.2431" r="2" fill="rgb(100,100,100)" />
<circle cx="693.086" cy="-71.7238" r="2" fill="rgb(100,100,100)" />
<circle cx="690.245" cy="-82.7625" r="2" fill="rgb(100,100,100)" />
<circle cx="686.613" cy="-93.4819" r="2" fill="rgb(100,100,100)" />
<circle cx="680.927" cy="-95.4824" r="2" fill="rgb(100,100,100)" />
<circle cx="676.843" cy="-88.9493" r="2" fill="rgb(100,100,100)" />
<circle cx="673.747" cy="-78.1372" r="2" fill="rgb(100,100,100)" />
<circle cx="669.824" cy="-67.5462" r="2" fill="rgb(100,100,100)" />
<circle cx="664.771" cy="-57.4192" r="2" fill="rgb(100,100,100)" />
<circle cx="657.835" cy="-48.3797" r="2" fill="rgb(100,100,100)" />
<circle cx="649.218" cy="-42.7172" r="2" fill="rgb(100,100,100)" />
<circle cx="638.735" cy="-42.1131" r="2" fill="rgb(100,100,100)" />
<circle cx="629.014" cy="-41.5461" r="2" fill="rgb(100,100,100)" />
<circle cx="619.203" cy="-42.6573" r="2" fill="rgb(100,100,100)" />
<circle cx="611.264" cy="-50.6128" r="2" fill="rgb(100,100,100)" />
<circle cx="604.207" cy="-59.5776" r="2" fill="rgb(100,100,100)" />
<circle cx="597.911" cy="-69.089" r="2" fill="rgb(100,100,100)" />
<circle cx="592.526" cy="-79.1416" r="2" fill="rgb(100,100,100)" />
<circle cx="587.826" cy="-89.5392" r="2" fill="rgb(100,100,100)" />
<circle cx="583.501" cy="-100.103" r="2" fill="rgb(100,100,100)" />
<circle cx="579.905" cy="-110.92" r="2" fill="rgb(100,100,100)" />
<circle cx="577.014" cy="-121.95" r="2" fill="rgb(100,100,100)" />
<circle cx="574.944" cy="-133.173" r="2" fill="rgb(100,100,100)" />
<circle cx="572.329" cy="-144.238" r="2" fill="rgb(100,100,100)" />
<circle cx="569.842" cy="-155.365" r="2" fill="rgb(100,100,100)" />
<circle cx="568.64" cy="-166.671" r="2" fill="rgb(100,100,100)" />
<circle cx="569.347" cy="-177.857" r="2" fill="rgb(100,100,100)" />
<circle cx="570.533" cy="-188.598" r="2" fill="rgb(100,100,100)" />
<circle cx="571.031" cy="-198.72" r="2" fill="rgb(100,100,100)" />
<line x1="1219.68" y1="-38.1813" x2="1211.24" y2="-44.7743" stroke="rgb(149, 202, 135)" />
<line x1="1211.24" y1="-44.7743" x2="1203.49" y2="-51.3009" stroke="rgb(149, 202, 135)" />
<line x1="1203.49" y1="-51.3009" x2="1197.98" y2="-58.3563" stroke="rgb(149, 202, 135)" />
<line x1="1197.98" y1="-58.3563" x2="1195.78" y2="-65.6372" stroke="rgb(149, 202, 135)" />
<line x1="1195.78" y1="-65.6372" x2="1195.62" y2="-74.6072" stroke="rgb(149, 202, 135)" />
<line x1="1195.62" y1="-74.6072" x2="1194.98" y2="-84.6543" stroke="rgb(149, 202, 135)" />
<line x1="1194.98" y1="-84.6543" x2="1188.38" y2="-89.5755" stroke="rgb(149, 202, 135)" />
<line x1="1188.38" y1="-89.5755" x2="1179.56" y2="-87.1724" stroke="rgb(149, 202, 135)" />
<line x1="1179.56" y1="-87.1724" x2="1171.92" y2="-79.5346" stroke="rgb(149, 202, 135)" />
<line x1="1171.92" y1="-79.5346" x2="1164.6" y2="-72.1321" stroke="rgb(149, 202, 135)" />
<line x1="1164.6" y1="-72.1321" x2="1157.6" y2="-64.7537" stroke="rgb(149, 202, 135)" />
<line x1="1157.6" y1="-64.7537" x2="1151.03" y2="-56.6577" stroke="rgb(149, 202, 135)" />
<line x1="1151.03" y1="-56.6577" x2="1145.01" y2="-49.4689" stroke="rgb(149, 202, 135)" />
<line x1="1145.01" y1="-49.4689" x2="1137.03" y2="-46.0252" stroke="rgb(149, 202, 135)" />
<line x1="1137.03" y1="-46.0252" x2="1128.52" y2="-43.2387" stroke="rgb(149, 202, 135)" />
<line x1="1128.52" y1="-43.2387" x2="1119.13" y2="-43.1267" stroke="rgb(149, 202, 135)" />
<line x1="1119.13" y1="-43.1267" x2="1111.26" y2="-50.6128" stroke="rgb(149, 202, 135)" />
<line x1="1111.26" y1="-50.6128" x2="1104.21" y2="-59.5776" stroke="rgb(149, 202, 135)" />
<line x1="1104.21" y1="-59.5776" x2="1097.91" y2="-69.089" stroke="rgb(149, 202, 135)" />
<line x1="1097.91" y1="-69.089" x2="1092.53" y2="-79.1416" stroke="rgb(149, 202, 135)" />
<line x1="1092.53" y1="-79.1416" x2="1087.83" y2="-89.5392" stroke="rgb(149, 202, 135)" />
<line x1="1087.83" y1="-89.5392" x2="1083.5" y2="-100.103" stroke="rgb(149, 202, 135)" />
<line x1="1083.5" y1="-100.103" x2="1079.91" y2="-110.92" stroke="rgb(149, 202, 135)" />
<line x1="1079.91" y1="-110.92" x2="1077.01" y2="-121.95" stroke="rgb(149, 202, 135)" />
<line x1="1077.01" y1="-121.95" x2="1074.94" y2="-133.173" stroke="rgb(149, 202, 135)" />
<line x1="1074.94" y1="-133.173" x2="1072.33" y2="-144.238" stroke="rgb(149, 202, 135)" />
<line x1="1072.33" y1="-144.238" x2="1069.84" y2="-155.365" stroke="rgb(149, 202, 135)" />
<line x1="1069.84" y1="-155.365" x2="1068.64" y2="-166.671" stroke="rgb(149, 202, 135)" />
<line x1="1068.64" y1="-166.671" x2="1069.35" y2="-177.857" stroke="rgb(149, 202, 135)" />
<line x1="1069.35" y1="-177.857" x2="1070.53" y2="-188.598" stroke="rgb(149, 202, 135)" />
<line x1="1070.53" y1="-188.598" x2="1071.03" y2="-198.72" stroke="rgb(149, 202, 135)" />
<circle cx="1219.68" cy="-38.1813" r="2" fill="rgb(250, 65, 65)" />
<circle cx="1211.24" cy="-44.7743" r="2" fill="rgb(250, 65, 65)" />
<circle cx="1203.49" cy="-51.3009" r="2" fill="rgb(250, 65, 65)" />
<circle cx="1197.98" cy="-58.3563" r="2" fill="rgb(250, 65, 65)" />
<circle cx="1195.78" cy="-65.6372" r="2" fill="rgb(250, 65, 65)" />
<circle cx="1195.62" cy="-74.6072" r="2" fill="rgb(250, 65, 65)" />
<circle cx="1194.98" cy="-84.6543" r="2" fill="rgb(250, 65, 65)" />
<circle cx="1188.38" cy="-89.5755" r="2" fill="rgb(250, 65, 65)" />
<circle cx="1179.56" cy="-87.1724" r="2" fill="rgb(250, 65, 65)" />
<circle cx="1171.92" cy="-79.5346" r="2" fill="rgb(250, 65, 65)" />
<circle cx="1164.6" cy="-72.1321" r="2" fill="rgb(250, 65, 65)" />
<circle cx="1157.6" cy="-64.7537" r="2" fill="rgb(250, 65, 65)" />
<circle cx="1151.03" cy="-56.6577" r="2" fill="rgb(250, 65, 65)" />
<circle cx="1145.01" cy="-49.4689" r="2" fill="rgb(250, 65, 65)" />
<circle cx="1137.03" cy="-46.0252" r="2" fill="rgb(250, 65, 65)" />
<circle cx="1128.52" cy="-43.2387" r="2" fill="rgb(250, 65, 65)" />
<circle cx="1119.13" cy="-43.1267" r="2" fill="rgb(250, 65, 65)" />
<circle cx="1111.26" cy="-50.6128" r="2" fill="rgb(250, 65, 65)" />
<circle cx="1104.21" cy="-59.5776" r="2" fill="rgb(250, 65, 65)" />
<circle cx="1097.91" cy="-69.089" r="2" fill="rgb(250, 65, 65)" />
<circle cx="1092.53" cy="-79.1416" r="2" fill="rgb(250, 65, 65)" />
<circle cx="1087.83" cy="-89.5392" r="2" fill="rgb(250, 65, 65)" />
<circle cx="1083.5" cy="-100.103" r="2" fill="rgb(250, 65, 65)" />
<circle cx="1079.91" cy="-110.92" r="2" fill="rgb(250, 65, 65)" />
<circle cx="1077.01" cy="-121.95" r="2" fill="rgb(250, 65, 65)" />
<circle cx="1074.94" cy="-133.173" r="2" fill="rgb(250, 65, 65)" />
<circle cx="1072.33" cy="-144.238" r="2" fill="rgb(250, 65, 65)" />
<circle cx="1069.84" cy="-155.365" r="2" fill="rgb(250, 65, 65)" />
<circle cx="1068.64" cy="-166.671" r="2" fill="rgb(250, 65, 65)" />
<circle cx="1069.35" cy="-177.857" r="2" fill="rgb(250, 65, 65)" />
<circle cx="1070.53" cy="-188.598" r="2" fill="rgb(250, 65, 65)" />
<circle cx="1071.03" cy="-198.72" r="2" fill="rgb(250, 65, 65)" />
<line x1="571.031" y1="-198.721" x2="562.552" y2="-195.561" stroke="rgb(120,120,120)" />
<line x1="562.552" y1="-195.561" x2="552.007" y2="-193.892" stroke="rgb(120,120,120)" />
<line x1="552.007" y1="-193.892" x2="541" y2="-193.838" stroke="rgb(120,120,120)" />
<line x1="541" y1="-193.838" x2="530.225" y2="-192.316" stroke="rgb(120,120,120)" />
<line x1="530.225" y1="-192.316" x2="520.112" y2="-188.663" stroke="rgb(120,120,120)" />
<line x1="520.112" y1="-188.663" x2="510.829" y2="-183.142" stroke="rgb(120,120,120)" />
<line x1="510.829" y1="-183.142" x2="502.375" y2="-176.364" stroke="rgb(120,120,120)" />
<line x1="502.375" y1="-176.364" x2="494.844" y2="-168.513" stroke="rgb(120,120,120)" />
<line x1="494.844" y1="-168.513" x2="488.189" y2="-159.847" stroke="rgb(120,120,120)" />
<line x1="488.189" y1="-159.847" x2="482.212" y2="-150.566" stroke="rgb(120,120,120)" />
<line x1="482.212" y1="-150.566" x2="475.364" y2="-141.891" stroke="rgb(120,120,120)" />
<line x1="475.364" y1="-141.891" x2="466.522" y2="-135.5" stroke="rgb(120,120,120)" />
<line x1="466.522" y1="-135.5" x2="457.392" y2="-129.24" stroke="rgb(120,120,120)" />
<line x1="457.392" y1="-129.24" x2="449.078" y2="-121.957" stroke="rgb(120,120,120)" />
<line x1="449.078" y1="-121.957" x2="442.14" y2="-113.396" stroke="rgb(120,120,120)" />
<line x1="442.14" y1="-113.396" x2="437.271" y2="-103.566" stroke="rgb(120,120,120)" />
<line x1="437.271" y1="-103.566" x2="434.577" y2="-92.9757" stroke="rgb(120,120,120)" />
<line x1="434.577" y1="-92.9757" x2="433.074" y2="-82.2016" stroke="rgb(120,120,120)" />
<line x1="433.074" y1="-82.2016" x2="430.718" y2="-71.7787" stroke="rgb(120,120,120)" />
<line x1="430.718" y1="-71.7787" x2="425.915" y2="-62.4968" stroke="rgb(120,120,120)" />
<line x1="425.915" y1="-62.4968" x2="422.289" y2="-53.1831" stroke="rgb(120,120,120)" />
<line x1="422.289" y1="-53.1831" x2="421.169" y2="-43.4663" stroke="rgb(120,120,120)" />
<circle cx="571.031" cy="-198.721" r="2" fill="rgb(100,100,100)" />
<circle cx="562.552" cy="-195.561" r="2" fill="rgb(100,100,100)" />
<circle cx="552.007" cy="-193.892" r="2" fill="rgb(100,100,100)" />
<circle cx="541" cy="-193.838" r="2" fill="rgb(100,100,100)" />
<circle cx="530.225" cy="-192.316" r="2" fill="rgb(100,100,100)" />
<circle cx="520.112" cy="-188.663" r="2" fill="rgb(100,100,100)" />
<circle cx="510.829" cy="-183.142" r="2" fill="rgb(100,100,100)" />
<circle cx="502.375" cy="-176.364" r="2" fill="rgb(100,100,100)" />
<circle cx="494.844" cy="-168.513" r="2" fill="rgb(100,100,100)" />
<circle cx="488.189" cy="-159.847" r="2" fill="rgb(100,100,100)" />
<circle cx="482.212" cy="-150.566" r="2" fill="rgb(100,100,100)" />
<circle cx="475.364" cy="-141.891" r="2" fill="rgb(100,100,100)" />
<circle cx="466.522" cy="-135.5" r="2" fill="rgb(100,100,100)" />
<circle cx="457.392" cy="-129.24" r="2" fill="rgb(100,100,100)" />
<circle cx="449.078" cy="-121.957" r="2" fill="rgb(100,100,100)" />
<circle cx="442.14" cy="-113.396" r="2" fill="rgb(100,100,100)" />
<circle cx="437.271" cy="-103.566" r="2" fill="rgb(100,100,100)" />
<circle cx="434.577" cy="-92.9757" r="2" fill="rgb(100,100,100)" />
<circle cx="433.074" cy="-82.2016" r="2" fill="rgb(100,100,100)" />
<circle cx="430.718" cy="-71.7787" r="2" fill="rgb(100,100,100)" />
<circle cx="425.915" cy="-62.4968" r="2" fill="rgb(100,100,100)" />
<circle cx="422.289" cy="-53.1831" r="2" fill="rgb(100,100,100)" />
<circle cx="421.169" cy="-43.4663" r="2" fill="rgb(100,100,100)" />
<line x1="1071.03" y1="-198.721" x2="1062.55" y2="-195.561" stroke="rgb(149, 202, 135)" />
<line x1="1062.55" y1="-195.561" x2="1052.01" y2="-193.892" stroke="rgb(149, 202, 135)" />
<line x1="1052.01" y1="-193.892" x2="1041" y2="-193.838" stroke="rgb(149, 202, 135)" />
<line x1="1041" y1="-193.838" x2="1030.22" y2="-192.316" stroke="rgb(149, 202, 135)" />
<line x1="1030.22" y1="-192.316" x2="1020.11" y2="-188.663" stroke="rgb(149, 202, 135)" />
<line x1="1020.11" y1="-188.663" x2="1010.83" y2="-183.142" stroke="rgb(149, 202, 135)" />
<line x1="1010.83" y1="-183.142" x2="1002.38" y2="-176.364" stroke="rgb(149, 202, 135)" />
<line x1="1002.38" y1="-176.364" x2="994.844" y2="-168.513" stroke="rgb(149, 202, 135)" />
<line x1="994.844" y1="-168.513" x2="988.189" y2="-159.847" stroke="rgb(149, 202, 135)" />
<line x1="988.189" y1="-159.847" x2="982.212" y2="-150.566" stroke="rgb(149, 202, 135)" />
<line x1="982.212" y1="-150.566" x2="975.364" y2="-141.891" stroke="rgb(149, 202, 135)" />
<line x1="975.364" y1="-141.891" x2="966.522" y2="-135.5" stroke="rgb(149, 202, 135)" />
<line x1="966.522" y1="-135.5" x2="957.392" y2="-129.24" stroke="rgb(149, 202, 135)" />
<line x1="957.392" y1="-129.24" x2="949.078" y2="-121.957" stroke="rgb(149, 202, 135)" />
<line x1="949.078" y1="-121.957" x2="942.14" y2="-113.396" stroke="rgb(149, 202, 135)" />
<line x1="942.14" y1="-113.396" x2="937.271" y2="-103.566" stroke="rgb(149, 202, 135)" />
<line x1="937.271" y1="-103.566" x2="934.577" y2="-92.9757" stroke="rgb(149, 202, 135)" />
<line x1="934.577" y1="-92.9757" x2="933.074" y2="-82.2016" stroke="rgb(149, 202, 135)" />
<line x1="933.074" y1="-82.2016" x2="930.718" y2="-71.7787" stroke="rgb(149, 202, 135)" />
<line x1="930.718" y1="-71.7787" x2="925.915" y2="-62.4968" stroke="rgb(149, 202, 135)" />
<line x1="925.915" y1="-62.4968" x2="922.289" y2="-53.1831" stroke="rgb(149, 202, 135)" />
<line x1="922.289" y1="-53.1831" x2="921.169" y2="-43.4663" stroke="rgb(149, 202, 135)" />
<circle cx="1071.03" cy="-198.721" r="2" fill="rgb(250, 65, 65)" />
<circle cx="1062.55" cy="-195.561" r="2" fill="rgb(250, 65, 65)" />
<circle cx="1052.01" cy="-193.892" r="2" fill="rgb(250, 65, 65)" />
<circle cx="1041" cy="-193.838" r="2" fill="rgb(250, 65, 65)" />
<circle cx="1030.22" cy="-192.316" r="2" fill="rgb(250, 65, 65)" />
<circle cx="1020.11" cy="-188.663" r="2" fill="rgb(250, 65, 65)" />
<circle cx="1010.83" cy="-183.142" r="2" fill="rgb(250, 65, 65)" />
<circle cx="1002.38" cy="-176.364" r="2" fill="rgb(250, 65, 65)" />
<circle cx="994.844" cy="-168.513" r="2" fill="rgb(250, 65, 65)" />
<circle cx="988.189" cy="-159.847" r="2" fill="rgb(250, 65, 65)" />
<circle cx="982.212" cy="-150.566" r="2" fill="rgb(250, 65, 65)" />
<circle cx="975.364" cy="-141.891" r="2" fill="rgb(250, 65, 65)" />
<circle cx="966.522" cy="-135.5" r="2" fill="rgb(250, 65, 65)" />
<circle cx="957.392" cy="-129.24" r="2" fill="rgb(250, 65, 65)" />
<circle cx="949.078" cy="-121.957" r="2" fill="rgb(250, 65, 65)" />
<circle cx="942.14" cy="-113.396" r="2" fill="rgb(250, 65, 65)" />
<circle cx="937.271" cy="-103.566" r="2" fill="rgb(250, 65, 65)" />
<circle cx="934.577" cy="-92.9757" r="2" fill="rgb(250, 65, 65)" />
<circle cx="933.074" cy="-82.2016" r="2" fill="rgb(250, 65, 65)" />
<circle cx="930.718" cy="-71.7787" r="2" fill="rgb(250, 65, 65)" />
<circle cx="925.915" cy="-62.4968" r="2" fill="rgb(250, 65, 65)" />
<circle cx="922.289" cy="-53.1831" r="2" fill="rgb(250, 65, 65)" />
<circle cx="921.169" cy="-43.4663" r="2" fill="rgb(250, 65, 65)" />
</svg>