<svg xmlns="http://www.w3.org/2000/svg" width="1000" height="1000">
<line x1="464.234" y1="-30.4944" x2="466.394" y2="-20.5522" stroke="rgb(120,120,120)" />
<line x1="466.394" y1="-20.5522" x2="469.93" y2="-10.8059" stroke="rgb(120,120,120)" />
<line x1="469.93" y1="-10.8059" x2="474.566" y2="-1.02918" stroke="rgb(120,120,120)" />
<line x1="474.566" y1="-1.02918" x2="479.891" y2="8.27162" stroke="rgb(120,120,120)" />
<line x1="479.891" y1="8.27162" x2="487.333" y2="16.6164" stroke="rgb(120,120,120)" />
<line x1="487.333" y1="16.6164" x2="494.433" y2="25.4096" stroke="rgb(120,120,120)" />
<line x1="494.433" y1="25.4096" x2="501.168" y2="34.5459" stroke="rgb(120,120,120)" />
<line x1="501.168" y1="34.5459" x2="507.645" y2="43.9079" stroke="rgb(120,120,120)" />
<line x1="507.645" y1="43.9079" x2="514.052" y2="53.3359" stroke="rgb(120,120,120)" />
<line x1="514.052" y1="53.3359" x2="519.887" y2="63.1246" stroke="rgb(120,120,120)" />
<line x1="519.887" y1="63.1246" x2="525.929" y2="72.3954" stroke="rgb(120,120,120)" />
<line x1="525.929" y1="72.3954" x2="534.719" y2="66.2821" stroke="rgb(120,120,120)" />
<line x1="534.719" y1="66.2821" x2="544.59" y2="60.7327" stroke="rgb(120,120,120)" />
<line x1="544.59" y1="60.7327" x2="555.882" y2="60.1634" stroke="rgb(120,120,120)" />
<line x1="555.882" y1="60.1634" x2="566.648" y2="63.557" stroke="rgb(120,120,120)" />
<line x1="566.648" y1="63.557" x2="575.869" y2="70.0813" stroke="rgb(120,120,120)" />
<line x1="575.869" y1="70.0813" x2="583.055" y2="78.6263" stroke="rgb(120,120,120)" />
<line x1="583.055" y1="78.6263" x2="589.166" y2="87.9214" stroke="rgb(120,120,120)" />
<line x1="589.166" y1="87.9214" x2="595.033" y2="97.1434" stroke="rgb(120,120,120)" />
<line x1="595.033" y1="97.1434" x2="601.877" y2="105.424" stroke="rgb(120,120,120)" />
<line x1="601.877" y1="105.424" x2="604.766" y2="115.103" stroke="rgb(120,120,120)" />
<circle cx="464.234" cy="-30.4944" r="2" fill="rgb(100,100,100)" />
<circle cx="466.394" cy="-20.5522" r="2" fill="rgb(100,100,100)" />
<circle cx="469.93" cy="-10.8059" r="2" fill="rgb(100,100,100)" />
<circle cx="474.566" cy="-1.02918" r="2" fill="rgb(100,100,100)" />
<circle cx="479.891" cy="8.27162" r="2" fill="rgb(100,100,100)" />
<circle cx="487.333" cy="16.6164" r="2" fill="rgb(100,100,100)" />
<circle cx="494.433" cy="25.4096" r="2" fill="rgb(100,100,100)" />
<circle cx="501.168" cy="34.5459" r="2" fill="rgb(100,100,100)" />
<circle cx="507.645" cy="43.9079" r="2" fill="rgb(100,100,100)" />
<circle cx="514.052" cy="53.3359" r="2" fill="rgb(100,100,100)" />
<circle cx="519.887" cy="63.1246" r="2" fill="rgb(100,100,100)" />
<circle cx="525.929" cy="72.3954" r="2" fill="rgb(100,100,100)" />
<circle cx="534.719" cy="66.2821" r="2" fill="rgb(100,100,100)" />
<circle cx="544.59" cy="60.7327" r="2" fill="rgb(100,100,100)" />
<circle cx="555.882" cy="60.1634" r="2" fill="rgb(100,100,100)" />
<circle cx="566.648" cy="63.557" r="2" fill="rgb(100,100,100)" />
<circle cx="575.869" cy="70.0813" r="2" fill="rgb(100,100,100)" />
<circle cx="583.055" cy="78.6263" r="2" fill="rgb(100,100,100)" />
<circle cx="589.166" cy="87.9214" r="2" fill="rgb(100,100,100)" />
<circle cx="595.033" cy="97.1434" r="2" fill="rgb(100,100,100)" />
<circle cx="601.877" cy="105.424" r="2" fill="rgb(100,100,100)" />
<circle cx="604.766" cy="115.103" r="2" fill="rgb(100,100,100)" />
<line x1="964.234" y1="-30.4944" x2="966.394" y2="-20.5522" stroke="rgb(149, 202, 135)" />
<line x1="966.394" y1="-20.5522" x2="969.93" y2="-10.8059" stroke="rgb(149, 202, 135)" />
<line x1="969.93" y1="-10.8059" x2="974.566" y2="-1.02918" stroke="rgb(149, 202, 135)" />
<line x1="974.566" y1="-1.02918" x2="979.891" y2="8.27162" stroke="rgb(149, 202, 135)" />
<line x1="979.891" y1="8.27162" x2="987.333" y2="16.6164" stroke="rgb(149, 202, 135)" />
<line x1="987.333" y1="16.6164" x2="994.433" y2="25.4096" stroke="rgb(149, 202, 135)" />
<line x1="994.433" y1="25.4096" x2="1001.25" y2="34.3751" stroke="rgb(149, 202, 135)" />
<line x1="1001.25" y1="34.3751" x2="1007.74" y2="43.6381" stroke="rgb(149, 202, 135)" />
<line x1="1007.74" y1="43.6381" x2="1014.1" y2="53.0489" stroke="rgb(149, 202, 135)" />
<line x1="1014.1" y1="53.0489" x2="1019.87" y2="62.8981" stroke="rgb(149, 202, 135)" />
<line x1="1019.87" y1="62.8981" x2="1025.86" y2="72.2939" stroke="rgb(149, 202, 135)" />
<line x1="1025.86" y1="72.2939" x2="1034.79" y2="66.3835" stroke="rgb(149, 202, 135)" />
<line x1="1034.79" y1="66.3835" x2="1044.61" y2="60.9591" stroke="rgb(149, 202, 135)" />
<line x1="1044.61" y1="60.9591" x2="1055.83" y2="60.4504" stroke="rgb(149, 202, 135)" />
<line x1="1055.83" y1="60.4504" x2="1066.56" y2="63.8268" stroke="rgb(149, 202, 135)" />
<line x1="1066.56" y1="63.8268" x2="1075.79" y2="70.2522" stroke="rgb(149, 202, 135)" />
<line x1="1075.79" y1="70.2522" x2="1083.06" y2="78.6263" stroke="rgb(149, 202, 135)" />
<line x1="1083.06" y1="78.6263" x2="1089.17" y2="87.9214" stroke="rgb(149, 202, 135)" />
<line x1="1089.17" y1="87.9214" x2="1095.03" y2="97.1434" stroke="rgb(149, 202, 135)" />
<line x1="1095.03" y1="97.1434" x2="1101.88" y2="105.424" stroke="rgb(149, 202, 135)" />
<line x1="1101.88" y1="105.424" x2="1104.77" y2="115.103" stroke="rgb(149, 202, 135)" />
<circle cx="964.234" cy="-30.4944" r="2" fill="rgb(250, 65, 65)" />
<circle cx="966.394" cy="-20.5522" r="2" fill="rgb(250, 65, 65)" />
<circle cx="969.93" cy="-10.8059" r="2" fill="rgb(250, 65, 65)" />
<circle cx="974.566" cy="-1.02918" r="2" fill="rgb(250, 65, 65)" />
<circle cx="979.891" cy="8.27162" r="2" fill="rgb(250, 65, 65)" />
<circle cx="987.333" cy="16.6164" r="2" fill="rgb(250, 65, 65)" />
<circle cx="994.433" cy="25.4096" r="2" fill="rgb(250, 65, 65)" />
<circle cx="1001.25" cy="34.3751" r="2" fill="rgb(250, 65, 65)" />
<circle cx="1007.74" cy="43.6381" r="2" fill="rgb(250, 65, 65)" />
<circle cx="1014.1" cy="53.0489" r="2" fill="rgb(250, 65, 65)" />
<circle cx="1019.87" cy="62.8981" r="2" fill="rgb(250, 65, 65)" />
<circle cx="1025.86" cy="72.2939" r="2" fill="rgb(250, 65, 65)" />
<circle cx="1034.79" cy="66.3835" r="2" fill="rgb(250, 65, 65)" />
<circle cx="1044.61" cy="60.9591" r="2" fill="rgb(250, 65, 65)" />
<circle cx="1055.83" cy="60.4504" r="2" fill="rgb(250, 65, 65)" />
<circle cx="1066.56" cy="63.8268" r="2" fill="rgb(250, 65, 65)" />
<circle cx="1075.79" cy="70.2522" r="2" fill="rgb(250, 65, 65)" />
<circle cx="1083.06" cy="78.6263" r="2" fill="rgb(250, 65, 65)" />
<circle cx="1089.17" cy="87.9214" r="2" fill="rgb(250, 65, 65)" />
<circle cx="1095.03" cy="97.1434" r="2" fill="rgb(250, 65, 65)" />
<circle cx="1101.88" cy="105.424" r="2" fill="rgb(250, 65, 65)" />
<circle cx="1104.77" cy="115.103" r="2" fill="rgb(250, 65, 65)" />
<line x1="604.766" y1="115.104" x2="607.682" y2="107.662" stroke="rgb(120,120,120)" />
<line x1="607.682" y1="107.662" x2="608.674" y2="98.3189" stroke="rgb(120,120,120)" />
<line x1="608.674" y1="98.3189" x2="608.639" y2="88.1183" stroke="rgb(120,120,120)" />
<line x1="608.639" y1="88.1183" x2="609.035" y2="77.83" stroke="rgb(120,120,120)" />
<line x1="609.035" y1="77.83" x2="609.731" y2="67.5216" stroke="rgb(120,120,120)" />
<line x1="609.731" y1="67.5216" x2="611.707" y2="57.4141" stroke="rgb(120,120,120)" />
<line x1="611.707" y1="57.4141" x2="613.319" y2="47.2078" stroke="rgb(120,120,120)" />
<line x1="613.319" y1="47.2078" x2="614.921" y2="36.9962" stroke="rgb(120,120,120)" />
<line x1="614.921" y1="36.9962" x2="617.614" y2="27.0126" stroke="rgb(120,120,120)" />
<line x1="617.614" y1="27.0126" x2="621.179" y2="17.3077" stroke="rgb(120,120,120)" />
<line x1="621.179" y1="17.3077" x2="625.731" y2="8.0302" stroke="rgb(120,120,120)" />
<line x1="625.731" y1="8.0302" x2="631.396" y2="-0.605706" stroke="rgb(120,120,120)" />
<line x1="631.396" y1="-0.605706" x2="638.285" y2="-8.30372" stroke="rgb(120,120,120)" />
<line x1="638.285" y1="-8.30372" x2="646.555" y2="-13.4921" stroke="rgb(120,120,120)" />
<line x1="646.555" y1="-13.4921" x2="655.903" y2="-15.3714" stroke="rgb(120,120,120)" />
<line x1="655.903" y1="-15.3714" x2="665.291" y2="-15.6262" stroke="rgb(120,120,120)" />
<line x1="665.291" y1="-15.6262" x2="673.958" y2="-10.2774" stroke="rgb(120,120,120)" />
<line x1="673.958" y1="-10.2774" x2="682.351" y2="-4.44709" stroke="rgb(120,120,120)" />
<line x1="682.351" y1="-4.44709" x2="690.688" y2="1.6142" stroke="rgb(120,120,120)" />
<line x1="690.688" y1="1.6142" x2="698.643" y2="8.1983" stroke="rgb(120,120,120)" />
<line x1="698.643" y1="8.1983" x2="705.669" y2="10.8284" stroke="rgb(120,120,120)" />
<line x1="705.669" y1="10.8284" x2="712.4" y2="2.99091" stroke="rgb(120,120,120)" />
<line x1="712.4" y1="2.99091" x2="719.128" y2="-4.81544" stroke="rgb(120,120,120)" />
<line x1="719.128" y1="-4.81544" x2="726.584" y2="-11.7822" stroke="rgb(120,120,120)" />
<line x1="726.584" y1="-11.7822" x2="734.699" y2="-17.4916" stroke="rgb(120,120,120)" />
<line x1="734.699" y1="-17.4916" x2="742.546" y2="-21.4506" stroke="rgb(120,120,120)" />
<line x1="742.546" y1="-21.4506" x2="750.364" y2="-25.429" stroke="rgb(120,120,120)" />
<circle cx="604.766" cy="115.104" r="2" fill="rgb(100,100,100)" />
<circle cx="607.682" cy="107.662" r="2" fill="rgb(100,100,100)" />
<circle cx="608.674" cy="98.3189" r="2" fill="rgb(100,100,100)" />
<circle cx="608.639" cy="88.1183" r="2" fill="rgb(100,100,100)" />
<circle cx="609.035" cy="77.83" r="2" fill="rgb(100,100,100)" />
<circle cx="609.731" cy="67.5216" r="2" fill="rgb(100,100,100)" />
<circle cx="611.707" cy="57.4141" r="2" fill="rgb(100,100,100)" />
<circle cx="613.319" cy="47.2078" r="2" fill="rgb(100,100,100)" />
<circle cx="614.921" cy="36.9962" r="2" fill="rgb(100,100,100)" />
<circle cx="617.614" cy="27.0126" r="2" fill="rgb(100,100,100)" />
<circle cx="621.179" cy="17.3077" r="2" fill="rgb(100,100,100)" />
<circle cx="625.731" cy="8.0302" r="2" fill="rgb(100,100,100)" />
<circle cx="631.396" cy="-0.605706" r="2" fill="rgb(100,100,100)" />
<circle cx="638.285" cy="-8.30372" r="2" fill="rgb(100,100,100)" />
<circle cx="646.555" cy="-13.4921" r="2" fill="rgb(100,100,100)" />
<circle cx="655.903" cy="-15.3714" r="2" fill="rgb(100,100,100)" />
<circle cx="665.291" cy="-15.6262" r="2" fill="rgb(100,100,100)" />
<circle cx="673.958" cy="-10.2774" r="2" fill="rgb(100,100,100)" />
<circle cx="682.351" cy="-4.44709" r="2" fill="rgb(100,100,100)" />
<circle cx="690.688" cy="1.6142" r="2" fill="rgb(100,100,100)" />
<circle cx="698.643" cy="8.1983" r="2" fill="rgb(100,100,100)" />
<circle cx="705.669" cy="10.8284" r="2" fill="rgb(100,100,100)" />
<circle cx="712.4" cy="2.99091" r="2" fill="rgb(100,100,100)" />
<circle cx="719.128" cy="-4.81544" r="2" fill="rgb(100,100,100)" />
<circle cx="726.584" cy="-11.7822" r="2" fill="rgb(100,100,100)" />
<circle cx="734.699" cy="-17.4916" r="2" fill="rgb(100,100,100)" />
<circle cx="742.546" cy="-21.4506" r="2" fill="rgb(100,100,100)" />
<circle cx="750.364" cy="-25.429" r="2" fill="rgb(100,100,100)" />
<line x1="1104.77" y1="115.104" x2="1107.68" y2="107.662" stroke="rgb(149, 202, 135)" />
<line x1="1107.68" y1="107.662" x2="1108.67" y2="98.3189" stroke="rgb(149, 202, 135)" />
<line x1="1108.67" y1="98.3189" x2="1108.64" y2="88.1183" stroke="rgb(149, 202, 135)" />
<line x1="1108.64" y1="88.1183" x2="1109.03" y2="77.83" stroke="rgb(149, 202, 135)" />
<line x1="1109.03" y1="77.83" x2="1109.73" y2="67.5216" stroke="rgb(149, 202, 135)" />
<line x1="1109.73" y1="67.5216" x2="1111.71" y2="57.4141" stroke="rgb(149, 202, 135)" />
<line x1="1111.71" y1="57.4141" x2="1113.32" y2="47.2078" stroke="rgb(149, 202, 135)" />
<line x1="1113.32" y1="47.2078" x2="1114.92" y2="36.9962" stroke="rgb(149, 202, 135)" />
<line x1="1114.92" y1="36.9962" x2="1117.61" y2="27.0126" stroke="rgb(149, 202, 135)" />
<line x1="1117.61" y1="27.0126" x2="1121.18" y2="17.3077" stroke="rgb(149, 202, 135)" />
<line x1="1121.18" y1="17.3077" x2="1125.73" y2="8.0302" stroke="rgb(149, 202, 135)" />
<line x1="1125.73" y1="8.0302" x2="1131.4" y2="-0.0905069" stroke="rgb(149, 202, 135)" />
<line x1="1131.4" y1="-0.0905069" x2="1138.11" y2="-7.14875" stroke="rgb(149, 202, 135)" />
<line x1="1138.11" y1="-7.14875" x2="1146.07" y2="-12.0014" stroke="rgb(149, 202, 135)" />
<line x1="1146.07" y1="-12.0014" x2="1155.22" y2="-13.8946" stroke="rgb(149, 202, 135)" />
<line x1="1155.22" y1="-13.8946" x2="1164.6" y2="-14.5227" stroke="rgb(149, 202, 135)" />
<line x1="1164.6" y1="-14.5227" x2="1173.83" y2="-10.0822" stroke="rgb(149, 202, 135)" />
<line x1="1173.83" y1="-10.0822" x2="1182.57" y2="-4.85566" stroke="rgb(149, 202, 135)" />
<line x1="1182.57" y1="-4.85566" x2="1191.2" y2="0.636737" stroke="rgb(149, 202, 135)" />
<line x1="1191.2" y1="0.636737" x2="1199.36" y2="6.74747" stroke="rgb(149, 202, 135)" />
<line x1="1199.36" y1="6.74747" x2="1206.21" y2="9.4245" stroke="rgb(149, 202, 135)" />
<line x1="1206.21" y1="9.4245" x2="1212.57" y2="1.95711" stroke="rgb(149, 202, 135)" />
<line x1="1212.57" y1="1.95711" x2="1219.14" y2="-5.30588" stroke="rgb(149, 202, 135)" />
<line x1="1219.14" y1="-5.30588" x2="1226.57" y2="-11.9536" stroke="rgb(149, 202, 135)" />
<line x1="1226.57" y1="-11.9536" x2="1234.7" y2="-17.4916" stroke="rgb(149, 202, 135)" />
<line x1="1234.7" y1="-17.4916" x2="1242.55" y2="-21.4506" stroke="rgb(149, 202, 135)" />
<line x1="1242.55" y1="-21.4506" x2="1250.36" y2="-25.429" stroke="rgb(149, 202, 135)" />
<circle cx="1104.77" cy="115.104" r="2" fill="rgb(250, 65, 65)" />
<circle cx="1107.68" cy="107.662" r="2" fill="rgb(250, 65, 65)" />
<circle cx="1108.67" cy="98.3189" r="2" fill="rgb(250, 65, 65)" />
<circle cx="1108.64" cy="88.1183" r="2" fill="rgb(250, 65, 65)" />
<circle cx="1109.03" cy="77.83" r="2" fill="rgb(250, 65, 65)" />
<circle cx="1109.73" cy="67.5216" r="2" fill="rgb(250, 65, 65)" />
<circle cx="1111.71" cy="57.4141" r="2" fill="rgb(250, 65, 65)" />
<circle cx="1113.32" cy="47.2078" r="2" fill="rgb(250, 65, 65)" />
<circle cx="1114.92" cy="36.9962" r="2" fill="rgb(250, 65, 65)" />
<circle cx="1117.61" cy="27.0126" r="2" fill="rgb(250, 65, 65)" />
<circle cx="1121.18" cy="17.3077" r="2" fill="rgb(250, 65, 65)" />
<circle cx="1125.73" cy="8.0302" r="2" fill="rgb(250, 65, 65)" />
<circle cx="1131.4" cy="-0.0905069" r="2" fill="rgb(250, 65, 65)" />
<circle cx="1138.11" cy="-7.14875" r="2" fill="rgb(250, 65, 65)" />
<circle cx="1146.07" cy="-12.0014" r="2" fill="rgb(250, 65, 65)" />
<circle cx="1155.22" cy="-13.8946" r="2" fill="rgb(250, 65, 65)" />
<circle cx="1164.6" cy="-14.5227" r="2" fill="rgb(250, 65, 65)" />
<circle cx="1173.83" cy="-10.0822" r="2" fill="rgb(250, 65, 65)" />
<circle cx="1182.57" cy="-4.85566" r="2" fill="rgb(250, 65, 65)" />
<circle cx="1191.2" cy="0.636737" r="2" fill="rgb(250, 65, 65)" />
<circle cx="1199.36" cy="6.74747" r="2" fill="rgb(250, 65, 65)" />
<circle cx="1206.21" cy="9.4245" r="2" fill="rgb(250, 65, 65)" />
<circle cx="1212.57" cy="1.95711" r="2" fill="rgb(250, 65, 65)" />
<circle cx="1219.14" cy="-5.30588" r="2" fill="rgb(250, 65, 65)" />
<circle cx="1226.57" cy="-11.9536" r="2" fill="rgb(250, 65, 65)" />
<circle cx="1234.7" cy="-17.4916" r="2" fill="rgb(250, 65, 65)" />
<circle cx="1242.55" cy="-21.4506" r="2" fill="rgb(250, 65, 65)" />
<circle cx="1250.36" cy="-25.429" r="2" fill="rgb(250, 65, 65)" />
<line x1="750.363" y1="-25.429" x2="742.329" y2="-30.9179" stroke="rgb(120,120,120)" />
<line x1="742.329" y1="-30.9179" x2="734.921" y2="-37.4469" stroke="rgb(120,120,120)" />
<line x1="734.921" y1="-37.4469" x2="729.298" y2="-46.0874" stroke="rgb(120,120,120)" />
<line x1="729.298" y1="-46.0874" x2="725.593" y2="-56.062" stroke="rgb(120,120,120)" />
<line x1="725.593" y1="-56.062" x2="722.967" y2="-66.5347" stroke="rgb(120,120,120)" />
<line x1="722.967" y1="-66.5347" x2="719.101" y2="-75.4029" stroke="rgb(120,120,120)" />
<line x1="719.101" y1="-75.4029" x2="714.882" y2="-76.2187" stroke="rgb(120,120,120)" />
<line x1="714.882" y1="-76.2187" x2="711.281" y2="-71.4253" stroke="rgb(120,120,120)" />
<line x1="711.281" y1="-71.4253" x2="708.415" y2="-61.1445" stroke="rgb(120,120,120)" />
<line x1="708.415" y1="-61.1445" x2="704.114" y2="-51.193" stroke="rgb(120,120,120)" />
<line x1="704.114" y1="-51.193" x2="699.517" y2="-41.3799" stroke="rgb(120,120,120)" />
<line x1="699.517" y1="-41.3799" x2="693.447" y2="-32.4185" stroke="rgb(120,120,120)" />
<line x1="693.447" y1="-32.4185" x2="685.118" y2="-27.7356" stroke="rgb(120,120,120)" />
<line x1="685.118" y1="-27.7356" x2="675.41" y2="-26.6651" stroke="rgb(120,120,120)" />
<line x1="675.41" y1="-26.6651" x2="665.946" y2="-26.4052" stroke="rgb(120,120,120)" />
<line x1="665.946" y1="-26.4052" x2="656.659" y2="-27.2917" stroke="rgb(120,120,120)" />
<line x1="656.659" y1="-27.2917" x2="648.143" y2="-31.9077" stroke="rgb(120,120,120)" />
<line x1="648.143" y1="-31.9077" x2="641.033" y2="-40.0761" stroke="rgb(120,120,120)" />
<line x1="641.033" y1="-40.0761" x2="634.783" y2="-48.9453" stroke="rgb(120,120,120)" />
<line x1="634.783" y1="-48.9453" x2="629.21" y2="-58.2599" stroke="rgb(120,120,120)" />
<line x1="629.21" y1="-58.2599" x2="624.573" y2="-68.0668" stroke="rgb(120,120,120)" />
<line x1="624.573" y1="-68.0668" x2="620.539" y2="-78.1455" stroke="rgb(120,120,120)" />
<line x1="620.539" y1="-78.1455" x2="616.986" y2="-88.3889" stroke="rgb(120,120,120)" />
<line x1="616.986" y1="-88.3889" x2="614.178" y2="-98.84" stroke="rgb(120,120,120)" />
<line x1="614.178" y1="-98.84" x2="611.951" y2="-109.46" stroke="rgb(120,120,120)" />
<line x1="611.951" y1="-109.46" x2="609.801" y2="-120.079" stroke="rgb(120,120,120)" />
<line x1="609.801" y1="-120.079" x2="607.976" y2="-130.706" stroke="rgb(120,120,120)" />
<line x1="607.976" y1="-130.706" x2="606.546" y2="-141.299" stroke="rgb(120,120,120)" />
<line x1="606.546" y1="-141.299" x2="607.575" y2="-151.79" stroke="rgb(120,120,120)" />
<line x1="607.575" y1="-151.79" x2="609.054" y2="-161.824" stroke="rgb(120,120,120)" />
<line x1="609.054" y1="-161.824" x2="609.831" y2="-171.026" stroke="rgb(120,120,120)" />
<circle cx="750.363" cy="-25.429" r="2" fill="rgb(100,100,100)" />
<circle cx="742.329" cy="-30.9179" r="2" fill="rgb(100,100,100)" />
<circle cx="734.921" cy="-37.4469" r="2" fill="rgb(100,100,100)" />
<circle cx="729.298" cy="-46.0874" r="2" fill="rgb(100,100,100)" />
<circle cx="725.593" cy="-56.062" r="2" fill="rgb(100,100,100)" />
<circle cx="722.967" cy="-66.5347" r="2" fill="rgb(100,100,100)" />
<circle cx="719.101" cy="-75.4029" r="2" fill="rgb(100,100,100)" />
<circle cx="714.882" cy="-76.2187" r="2" fill="rgb(100,100,100)" />
<circle cx="711.281" cy="-71.4253" r="2" fill="rgb(100,100,100)" />
<circle cx="708.415" cy="-61.1445" r="2" fill="rgb(100,100,100)" />
<circle cx="704.114" cy="-51.193" r="2" fill="rgb(100,100,100)" />
<circle cx="699.517" cy="-41.3799" r="2" fill="rgb(100,100,100)" />
<circle cx="693.447" cy="-32.4185" r="2" fill="rgb(100,100,100)" />
<circle cx="685.118" cy="-27.7356" r="2" fill="rgb(100,100,100)" />
<circle cx="675.41" cy="-26.6651" r="2" fill="rgb(100,100,100)" />
<circle cx="665.946" cy="-26.4052" r="2" fill="rgb(100,100,100)" />
<circle cx="656.659" cy="-27.2917" r="2" fill="rgb(100,100,100)" />
<circle cx="648.143" cy="-31.9077" r="2" fill="rgb(100,100,100)" />
<circle cx="641.033" cy="-40.0761" r="2" fill="rgb(100,100,100)" />
<circle cx="634.783" cy="-48.9453" r="2" fill="rgb(100,100,100)" />
<circle cx="629.21" cy="-58.2599" r="2" fill="rgb(100,100,100)" />
<circle cx="624.573" cy="-68.0668" r="2" fill="rgb(100,100,100)" />
<circle cx="620.539" cy="-78.1455" r="2" fill="rgb(100,100,100)" />
<circle cx="616.986" cy="-88.3889" r="2" fill="rgb(100,100,100)" />
<circle cx="614.178" cy="-98.84" r="2" fill="rgb(100,100,100)" />
<circle cx="611.951" cy="-109.46" r="2" fill="rgb(100,100,100)" />
<circle cx="609.801" cy="-120.079" r="2" fill="rgb(100,100,100)" />
<circle cx="607.976" cy="-130.706" r="2" fill="rgb(100,100,100)" />
<circle cx="606.546" cy="-141.299" r="2" fill="rgb(100,100,100)" />
<circle cx="607.575" cy="-151.79" r="2" fill="rgb(100,100,100)" />
<circle cx="609.054" cy="-161.824" r="2" fill="rgb(100,100,100)" />
<circle cx="609.831" cy="-171.026" r="2" fill="rgb(100,100,100)" />
<line x1="1250.36" y1="-25.429" x2="1242.33" y2="-30.9179" stroke="rgb(149, 202, 135)" />
<line x1="1242.33" y1="-30.9179" x2="1235.04" y2="-36.707" stroke="rgb(149, 202, 135)" />
<line x1="1235.04" y1="-36.707" x2="1230.06" y2="-43.5763" stroke="rgb(149, 202, 135)" />
<line x1="1230.06" y1="-43.5763" x2="1228.26" y2="-50.618" stroke="rgb(149, 202, 135)" />
<line x1="1228.26" y1="-50.618" x2="1228.24" y2="-59.2542" stroke="rgb(149, 202, 135)" />
<line x1="1228.24" y1="-59.2542" x2="1226.9" y2="-67.7068" stroke="rgb(149, 202, 135)" />
<line x1="1226.9" y1="-67.7068" x2="1221.39" y2="-70.9491" stroke="rgb(149, 202, 135)" />
<line x1="1221.39" y1="-70.9491" x2="1213.87" y2="-69.7413" stroke="rgb(149, 202, 135)" />
<line x1="1213.87" y1="-69.7413" x2="1206.71" y2="-62.3426" stroke="rgb(149, 202, 135)" />
<line x1="1206.71" y1="-62.3426" x2="1199.41" y2="-55.3099" stroke="rgb(149, 202, 135)" />
<line x1="1199.41" y1="-55.3099" x2="1192.87" y2="-47.8957" stroke="rgb(149, 202, 135)" />
<line x1="1192.87" y1="-47.8957" x2="1186.96" y2="-39.7351" stroke="rgb(149, 202, 135)" />
<line x1="1186.96" y1="-39.7351" x2="1181.15" y2="-33.7633" stroke="rgb(149, 202, 135)" />
<line x1="1181.15" y1="-33.7633" x2="1173.77" y2="-30.1284" stroke="rgb(149, 202, 135)" />
<line x1="1173.77" y1="-30.1284" x2="1165.46" y2="-27.9564" stroke="rgb(149, 202, 135)" />
<line x1="1165.46" y1="-27.9564" x2="1156.59" y2="-27.7273" stroke="rgb(149, 202, 135)" />
<line x1="1156.59" y1="-27.7273" x2="1148.14" y2="-31.9077" stroke="rgb(149, 202, 135)" />
<line x1="1148.14" y1="-31.9077" x2="1141.03" y2="-40.0761" stroke="rgb(149, 202, 135)" />
<line x1="1141.03" y1="-40.0761" x2="1134.78" y2="-48.9453" stroke="rgb(149, 202, 135)" />
<line x1="1134.78" y1="-48.9453" x2="1129.21" y2="-58.2599" stroke="rgb(149, 202, 135)" />
<line x1="1129.21" y1="-58.2599" x2="1124.57" y2="-68.0668" stroke="rgb(149, 202, 135)" />
<line x1="1124.57" y1="-68.0668" x2="1120.54" y2="-78.1455" stroke="rgb(149, 202, 135)" />
<line x1="1120.54" y1="-78.1455" x2="1116.99" y2="-88.3889" stroke="rgb(149, 202, 135)" />
<line x1="1116.99" y1="-88.3889" x2="1114.18" y2="-98.84" stroke="rgb(149, 202, 135)" />
<line x1="1114.18" y1="-98.84" x2="1111.95" y2="-109.46" stroke="rgb(149, 202, 135)" />
<line x1="1111.95" y1="-109.46" x2="1109.8" y2="-120.079" stroke="rgb(149, 202, 135)" />
<line x1="1109.8" y1="-120.079" x2="1107.98" y2="-130.706" stroke="rgb(149, 202, 135)" />
<line x1="1107.98" y1="-130.706" x2="1106.55" y2="-141.299" stroke="rgb(149, 202, 135)" />
<line x1="1106.55" y1="-141.299" x2="1107.57" y2="-151.79" stroke="rgb(149, 202, 135)" />
<line x1="1107.57" y1="-151.79" x2="1109.05" y2="-161.824" stroke="rgb(149, 202, 135)" />
<line x1="1109.05" y1="-161.824" x2="1109.83" y2="-171.026" stroke="rgb(149, 202, 135)" />
<circle cx="1250.36" cy="-25.429" r="2" fill="rgb(250, 65, 65)" />
<circle cx="1242.33" cy="-30.9179" r="2" fill="rgb(250, 65, 65)" />
<circle cx="1235.04" cy="-36.707" r="2" fill="rgb(250, 65, 65)" />
<circle cx="1230.06" cy="-43.5763" r="2" fill="rgb(250, 65, 65)" />
<circle cx="1228.26" cy="-50.618" r="2" fill="rgb(250, 65, 65)" />
<circle cx="1228.24" cy="-59.2542" r="2" fill="rgb(250, 65, 65)" />
<circle cx="1226.9" cy="-67.7068" r="2" fill="rgb(250, 65, 65)" />
<circle cx="1221.39" cy="-70.9491" r="2" fill="rgb(250, 65, 65)" />
<circle cx="1213.87" cy="-69.7413" r="2" fill="rgb(250, 65, 65)" />
<circle cx="1206.71" cy="-62.3426" r="2" fill="rgb(250, 65, 65)" />
<circle cx="1199.41" cy="-55.3099" r="2" fill="rgb(250, 65, 65)" />
<circle cx="1192.87" cy="-47.8957" r="2" fill="rgb(250, 65, 65)" />
<circle cx="1186.96" cy="-39.7351" r="2" fill="rgb(250, 65, 65)" />
<circle cx="1181.15" cy="-33.7633" r="2" fill="rgb(250, 65, 65)" />
<circle cx="1173.77" cy="-30.1284" r="2" fill="rgb(250, 65, 65)" />
<circle cx="1165.46" cy="-27.9564" r="2" fill="rgb(250, 65, 65)" />
<circle cx="1156.59" cy="-27.7273" r="2" fill="rgb(250, 65, 65)" />
<circle cx="1148.14" cy="-31.9077" r="2" fill="rgb(250, 65, 65)" />
<circle cx="1141.03" cy="-40.0761" r="2" fill="rgb(250, 65, 65)" />
<circle cx="1134.78" cy="-48.9453" r="2" fill="rgb(250, 65, 65)" />
<circle cx="1129.21" cy="-58.2599" r="2" fill="rgb(250, 65, 65)" />
<circle cx="1124.57" cy="-68.0668" r="2" fill="rgb(250, 65, 65)" />
<circle cx="1120.54" cy="-78.1455" r="2" fill="rgb(250, 65, 65)" />
<circle cx="1116.99" cy="-88.3889" r="2" fill="rgb(250, 65, 65)" />
<circle cx="1114.18" cy="-98.84" r="2" fill="rgb(250, 65, 65)" />
<circle cx="1111.95" cy="-109.46" r="2" fill="rgb(250, 65, 65)" />
<circle cx="1109.8" cy="-120.079" r="2" fill="rgb(250, 65, 65)" />
<circle cx="1107.98" cy="-130.706" r="2" fill="rgb(250, 65, 65)" />
<circle cx="1106.55" cy="-141.299" r="2" fill="rgb(250, 65, 65)" />
<circle cx="1107.57" cy="-151.79" r="2" fill="rgb(250, 65, 65)" />
<circle cx="1109.05" cy="-161.824" r="2" fill="rgb(250, 65, 65)" />
<circle cx="1109.83" cy="-171.026" r="2" fill="rgb(250, 65, 65)" />
<line x1="609.831" y1="-171.026" x2="600.721" y2="-168.907" stroke="rgb(120,120,120)" />
<line x1="600.721" y1="-168.907" x2="589.784" y2="-169.068" stroke="rgb(120,120,120)" />
<line x1="589.784" y1="-169.068" x2="578.935" y2="-169.857" stroke="rgb(120,120,120)" />
<line x1="578.935" y1="-169.857" x2="568.308" y2="-167.681" stroke="rgb(120,120,120)" />
<line x1="568.308" y1="-167.681" x2="558.351" y2="-163.591" stroke="rgb(120,120,120)" />
<line x1="558.351" y1="-163.591" x2="549.153" y2="-158.037" stroke="rgb(120,120,120)" />
<line x1="549.153" y1="-158.037" x2="540.927" y2="-151.07" stroke="rgb(120,120,120)" />
<line x1="540.927" y1="-151.07" x2="533.391" y2="-143.36" stroke="rgb(120,120,120)" />
<line x1="533.391" y1="-143.36" x2="526.725" y2="-134.75" stroke="rgb(120,120,120)" />
<line x1="526.725" y1="-134.75" x2="519.657" y2="-126.506" stroke="rgb(120,120,120)" />
<line x1="519.657" y1="-126.506" x2="511.343" y2="-119.668" stroke="rgb(120,120,120)" />
<line x1="511.343" y1="-119.668" x2="502.21" y2="-113.73" stroke="rgb(120,120,120)" />
<line x1="502.21" y1="-113.73" x2="493.299" y2="-107.36" stroke="rgb(120,120,120)" />
<line x1="493.299" y1="-107.36" x2="485.394" y2="-99.8127" stroke="rgb(120,120,120)" />
<line x1="485.394" y1="-99.8127" x2="479.272" y2="-90.8147" stroke="rgb(120,120,120)" />
<line x1="479.272" y1="-90.8147" x2="475.288" y2="-80.6807" stroke="rgb(120,120,120)" />
<line x1="475.288" y1="-80.6807" x2="473.283" y2="-70.0552" stroke="rgb(120,120,120)" />
<line x1="473.283" y1="-70.0552" x2="471.595" y2="-59.4896" stroke="rgb(120,120,120)" />
<line x1="471.595" y1="-59.4896" x2="468.058" y2="-49.6234" stroke="rgb(120,120,120)" />
<line x1="468.058" y1="-49.6234" x2="464.075" y2="-39.8883" stroke="rgb(120,120,120)" />
<line x1="464.075" y1="-39.8883" x2="464.234" y2="-30.4944" stroke="rgb(120,120,120)" />
<circle cx="609.831" cy="-171.026" r="2" fill="rgb(100,100,100)" />
<circle cx="600.721" cy="-168.907" r="2" fill="rgb(100,100,100)" />
<circle cx="589.784" cy="-169.068" r="2" fill="rgb(100,100,100)" />
<circle cx="578.935" cy="-169.857" r="2" fill="rgb(100,100,100)" />
<circle cx="568.308" cy="-167.681" r="2" fill="rgb(100,100,100)" />
<circle cx="558.351" cy="-163.591" r="2" fill="rgb(100,100,100)" />
<circle cx="549.153" cy="-158.037" r="2" fill="rgb(100,100,100)" />
<circle cx="540.927" cy="-151.07" r="2" fill="rgb(100,100,100)" />
<circle cx="533.391" cy="-143.36" r="2" fill="rgb(100,100,100)" />
<circle cx="526.725" cy="-134.75" r="2" fill="rgb(100,100,100)" />
<circle cx="519.657" cy="-126.506" r="2" fill="rgb(100,100,100)" />
<circle cx="511.343" cy="-119.668" r="2" fill="rgb(100,100,100)" />
<circle cx="502.21" cy="-113.73" r="2" fill="rgb(100,100,100)" />
<circle cx="493.299" cy="-107.36" r="2" fill="rgb(100,100,100)" />
<circle cx="485.394" cy="-99.8127" r="2" fill="rgb(100,100,100)" />
<circle cx="479.272" cy="-90.8147" r="2" fill="rgb(100,100,100)" />
<circle cx="475.288" cy="-80.6807" r="2" fill="rgb(100,100,100)" />
<circle cx="473.283" cy="-70.0552" r="2" fill="rgb(100,100,100)" />
<circle cx="471.595" cy="-59.4896" r="2" fill="rgb(100,100,100)" />
<circle cx="468.058" cy="-49.6234" r="2" fill="rgb(100,100,100)" />
<circle cx="464.075" cy="-39.8883" r="2" fill="rgb(100,100,100)" />
<circle cx="464.234" cy="-30.4944" r="2" fill="rgb(100,100,100)" />
<line x1="1109.83" y1="-171.026" x2="1100.72" y2="-168.907" stroke="rgb(149, 202, 135)" />
<line x1="1100.72" y1="-168.907" x2="1089.78" y2="-169.068" stroke="rgb(149, 202, 135)" />
<line x1="1089.78" y1="-169.068" x2="1078.94" y2="-169.857" stroke="rgb(149, 202, 135)" />
<line x1="1078.94" y1="-169.857" x2="1068.31" y2="-167.681" stroke="rgb(149, 202, 135)" />
<line x1="1068.31" y1="-167.681" x2="1058.35" y2="-163.591" stroke="rgb(149, 202, 135)" />
<line x1="1058.35" y1="-163.591" x2="1049.15" y2="-158.037" stroke="rgb(149, 202, 135)" />
<line x1="1049.15" y1="-158.037" x2="1040.93" y2="-151.07" stroke="rgb(149, 202, 135)" />
<line x1="1040.93" y1="-151.07" x2="1033.39" y2="-143.36" stroke="rgb(149, 202, 135)" />
<line x1="1033.39" y1="-143.36" x2="1026.73" y2="-134.75" stroke="rgb(149, 202, 135)" />
<line x1="1026.73" y1="-134.75" x2="1019.66" y2="-126.506" stroke="rgb(149, 202, 135)" />
<line x1="1019.66" y1="-126.506" x2="1011.34" y2="-119.668" stroke="rgb(149, 202, 135)" />
<line x1="1011.34" y1="-119.668" x2="1002.21" y2="-113.73" stroke="rgb(149, 202, 135)" />
<line x1="1002.21" y1="-113.73" x2="993.299" y2="-107.36" stroke="rgb(149, 202, 135)" />
<line x1="993.299" y1="-107.36" x2="985.394" y2="-99.8127" stroke="rgb(149, 202, 135)" />
<line x1="985.394" y1="-99.8127" x2="979.272" y2="-90.8147" stroke="rgb(149, 202, 135)" />
<line x1="979.272" y1="-90.8147" x2="975.288" y2="-80.6807" stroke="rgb(149, 202, 135)" />
<line x1="975.288" y1="-80.6807" x2="973.283" y2="-70.0552" stroke="rgb(149, 202, 135)" />
<line x1="973.283" y1="-70.0552" x2="971.595" y2="-59.4896" stroke="rgb(149, 202, 135)" />
<line x1="971.595" y1="-59.4896" x2="968.058" y2="-49.6234" stroke="rgb(149, 202, 135)" />
<line x1="968.058" y1="-49.6234" x2="964.075" y2="-39.8883" stroke="rgb(149, 202, 135)" />
<line x1="964.075" y1="-39.8883" x2="964.234" y2="-30.4944" stroke="rgb(149, 202, 135)" />
<circle cx="1109.83" cy="-171.026" r="2" fill="rgb(250, 65, 65)" />
<circle cx="1100.72" cy="-168.907" r="2" fill="rgb(250, 65, 65)" />
<circle cx="1089.78" cy="-169.068" r="2" fill="rgb(250, 65, 65)" />
<circle cx="1078.94" cy="-169.857" r="2" fill="rgb(250, 65, 65)" />
<circle cx="1068.31" cy="-167.681" r="2" fill="rgb(250, 65, 65)" />
<circle cx="1058.35" cy="-163.591" r="2" fill="rgb(250, 65, 65)" />
<circle cx="1049.15" cy="-158.037" r="2" fill="rgb(250, 65, 65)" />
<circle cx="1040.93" cy="-151.07" r="2" fill="rgb(250, 65, 65)" />
<circle cx="1033.39" cy="-143.36" r="2" fill="rgb(250, 65, 65)" />
<circle cx="1026.73" cy="-134.75" r="2" fill="rgb(250, 65, 65)" />
<circle cx="1019.66" cy="-126.506" r="2" fill="rgb(250, 65, 65)" />
<circle cx="1011.34" cy="-119.668" r="2" fill="rgb(250, 65, 65)" />
<circle cx="1002.21" cy="-113.73" r="2" fill="rgb(250, 65, 65)" />
<circle cx="993.299" cy="-107.36" r="2" fill="rgb(250, 65, 65)" />
<circle cx="985.394" cy="-99.8127" r="2" fill="rgb(250, 65, 65)" />
<circle cx="979.272" cy="-90.8147" r="2" fill="rgb(250, 65, 65)" />
<circle cx="975.288" cy="-80.6807" r="2" fill="rgb(250, 65, 65)" />
<circle cx="973.283" cy="-70.0552" r="2" fill="rgb(250, 65, 65)" />
<circle cx="971.595" cy="-59.4896" r="2" fill="rgb(250, 65, 65)" />
<circle cx="968.058" cy="-49.6234" r="2" fill="rgb(250, 65, 65)" />
<circle cx="964.075" cy="-39.8883" r="2" fill="rgb(250, 65, 65)" />
<circle cx="964.234" cy="-30.4944" r="2" fill="rgb(250, 65, 65)" />
</svg>