<svg xmlns="http://www.w3.org/2000/svg" width="1000" height="1000">
<polygon points="408.804,500.133 414.428,503.612 420.581,506.359 427.246,508.606 433.999,510.315 441.261,510.603 448.578,511.254 455.848,512.115 463.108,513.264 470.382,514.537 477.591,516.288 484.69,517.729 485.958,510.886 487.856,503.844 492.686,498.367 499.107,494.877 506.279,493.462 513.476,493.846 520.581,495.185 527.542,496.606 534.505,497.145 540.336,500.165 538.172,495.441 534.251,490.759 529.466,486.169 524.834,481.339 520.329,476.359 516.495,470.871 512.451,465.509 508.399,460.149 504.948,454.383 502.02,448.334 499.737,442.016 498.5,435.7 498.229,429.375 499.555,423.462 502.8,418.329 506.744,413.657 512.984,411.351 519.378,409.62 525.841,408.068 532.385,407.009 536.729,405.015 536.109,398.669 535.678,392.32 535.924,385.845 537.006,379.542 538.698,374.085 540.367,368.634 534.174,369.912 528.173,370.709 522.717,369.932 518.608,367.597 514.564,363.705 510.004,360.517 506.003,361.626 503.172,365.688 503.396,372.379 503.388,378.968 503.903,385.372 505.052,391.819 505.219,397.233 503.584,402.327 500.85,407.192 496.95,411.445 491.183,413.504 484.153,413.14 477.185,412.058 470.313,410.458 463.633,408.198 457.1,405.534 450.706,402.569 444.551,399.163 438.58,395.409 432.644,391.62 426.851,387.675 421.253,383.56 416.812,378.342 412.788,373.12 408.836,368.602 405.714,373.818 400.7,378.859 395.433,383.576 391.652,389.527 389.068,396.03 387.512,402.838 387.055,409.83 387.258,416.835 388.273,423.839 388.937,430.867 388.38,437.842 387.033,444.793 385.987,451.836 385.947,458.94 387.39,465.865 390.329,472.304 394.392,478.039 398.57,483.599 401.586,489.708 405.445,494.431 " stroke="black"  fill="rgb(199,144,172)" />
<polygon points="277.353,495.51 272.699,499.302 267.34,503.142 261.97,507.397 257.663,512.849 253.518,518.501 249.524,524.301 245.564,530.137 241.945,536.169 238.76,542.455 235.869,548.893 233.377,555.488 231.538,562.301 230.213,569.228 229.604,576.24 231.461,582.075 235.575,586.121 240.341,589.024 245.375,590.836 250.792,590.857 257.275,589.934 263.693,589.643 270.278,589.88 276.973,589.891 280.933,592.862 281.902,596.899 278.557,601.345 274.526,605.251 272.049,609.276 271.082,614.701 271.669,620.726 272.73,626.961 278.546,623.803 283.401,620.112 289.611,617.311 295.314,613.329 301.187,609.469 307.724,606.756 314.696,605.556 321.794,605.844 328.796,607.134 335.697,608.723 342.647,609.524 349.694,609.105 356.73,608.335 363.737,608.378 370.709,609.077 377.459,610.87 383.867,613.679 389.683,617.665 394.212,623.094 399.076,628.281 404.18,631.584 407.401,625.863 408.183,618.923 409.846,612.016 411.433,604.962 412.067,597.783 410.903,590.566 407.64,584.027 402.334,579.009 395.363,576.866 388.568,575.36 390.256,568.315 392.257,561.172 393.784,553.948 395.186,546.732 396.3,539.496 397.206,532.206 397.747,524.959 399.691,518.269 402.17,511.687 405.13,505.632 408.804,500.133 403.414,498.273 398.019,496.392 391.759,495.091 385.296,494.619 378.935,494.829 372.572,495.227 370.731,490.815 369.901,484.238 368.575,477.725 367.069,471.274 364.981,464.958 360.45,460.853 355.434,457.43 349.57,455.9 343.24,455.949 336.883,456.966 330.491,459.026 324.343,461.742 318.459,464.991 312.961,468.852 307.461,472.707 301.843,476.347 296.708,480.677 291.719,485.137 286.966,489.758 282.149,493.514 " stroke="black"  fill="rgb(202,225,195)" />
</svg>