<svg xmlns="http://www.w3.org/2000/svg" width="1000" height="1000">
<polygon points="408.83,500.139 414.454,503.619 420.607,506.366 427.272,508.613 434.025,510.323 441.287,510.611 448.604,511.262 455.875,512.123 463.134,513.272 470.409,514.546 477.617,516.297 483.602,517.314 485.984,510.894 487.882,503.852 492.712,498.375 499.133,494.885 506.305,493.47 513.502,493.854 520.608,495.193 527.569,496.614 534.531,497.153 540.362,500.173 538.198,495.449 534.278,490.767 529.492,486.177 524.86,481.346 520.355,476.367 516.521,470.879 512.477,465.517 508.425,460.157 504.974,454.39 502.046,448.341 499.763,442.024 498.525,435.707 498.255,429.382 499.581,423.469 502.826,418.336 506.77,413.664 513.01,411.358 519.404,409.627 525.866,408.075 532.41,407.016 536.755,405.022 536.135,398.677 535.704,392.327 535.95,385.852 537.032,379.549 538.724,374.093 540.393,368.642 534.199,369.919 528.199,370.716 522.743,369.939 518.634,367.604 514.59,363.712 510.03,360.524 506.029,361.633 503.689,365.84 502.855,372.514 503.414,378.975 503.929,385.379 505.077,391.826 505.245,397.24 503.61,402.334 500.875,407.199 496.975,411.452 491.209,413.511 484.179,413.147 477.21,412.065 470.339,410.465 463.659,408.205 457.126,405.541 450.732,402.576 444.577,399.17 438.606,395.416 432.67,391.627 426.877,387.682 421.278,383.568 416.838,378.349 412.814,373.127 408.862,368.609 405.739,373.825 400.726,378.867 395.458,383.583 391.678,389.534 389.094,396.036 387.538,402.845 387.081,409.837 387.283,416.842 388.299,423.847 388.962,430.874 388.406,437.849 387.058,444.8 386.013,451.843 385.973,458.947 387.415,465.872 390.355,472.311 394.418,478.046 398.596,483.606 401.612,489.715 404.366,495.973 " stroke="black"  fill="rgb(199,144,172)" />
<polygon points="277.379,495.516 272.726,499.307 267.367,503.147 261.997,507.403 257.689,512.854 253.545,518.506 249.55,524.306 245.59,530.142 241.972,536.175 238.787,542.46 235.895,548.898 233.403,555.494 231.565,562.306 230.24,569.233 229.631,576.245 231.488,582.081 235.602,586.126 240.368,589.03 245.402,590.841 250.819,590.862 257.302,589.939 263.72,589.648 270.196,589.315 276.837,590.383 280.96,592.867 281.929,596.904 278.584,601.35 274.553,605.256 272.076,609.281 271.109,614.707 271.696,620.731 272.757,626.966 277.078,622.651 283.428,620.117 289.638,617.316 295.34,613.334 301.214,609.475 307.751,606.762 314.722,605.561 321.821,605.849 328.823,607.139 335.723,608.729 342.674,609.529 349.72,609.111 356.756,608.34 363.763,608.383 370.736,609.083 377.486,610.876 383.894,613.685 389.71,617.671 394.239,623.1 399.103,628.287 404.207,631.589 407.428,625.868 408.21,618.929 409.872,612.022 411.459,604.968 412.094,597.789 410.93,590.571 407.666,584.032 402.361,579.015 395.389,576.871 389.056,574.267 390.282,568.321 392.284,561.178 393.811,553.953 395.212,546.737 396.326,539.502 397.232,532.211 397.773,524.964 399.718,518.274 402.196,511.692 405.156,505.638 408.83,500.139 403.44,498.28 398.046,496.398 391.785,495.097 385.322,494.625 378.961,494.835 372.598,495.233 370.757,490.821 369.927,484.244 368.601,477.732 367.095,471.281 365.007,464.965 360.476,460.86 355.46,457.437 349.597,455.906 343.266,455.955 336.91,456.972 330.517,459.033 324.369,461.748 318.485,464.997 312.987,468.858 307.487,472.713 301.869,476.353 296.735,480.682 291.746,485.142 286.992,489.764 282.176,493.519 " stroke="black"  fill="rgb(202,225,195)" />
</svg>