<svg xmlns="http://www.w3.org/2000/svg" width="1000" height="1000">
<polygon points="408.86,500.295 415.398,503.314 421.529,505.744 427.143,507.675 434.022,509.331 440.634,510.231 448.635,511.418 455.905,512.279 463.165,513.428 470.439,514.702 477.647,516.453 484.137,517.335 486.014,511.05 487.913,504.008 492.743,498.531 499.164,495.042 506.336,493.626 513.532,494.01 520.638,495.349 527.599,496.77 534.561,497.309 540.392,500.329 538.229,495.605 534.308,490.923 529.523,486.333 524.891,481.503 520.386,476.523 516.551,471.035 512.507,465.673 508.456,460.313 505.004,454.546 502.076,448.497 499.793,442.179 499.227,437.161 499.868,430.301 501.052,425.46 504.257,420.077 508.999,415.681 514.535,413.048 520.087,411.428 527.153,409.276 532.198,407.666 537.004,406.821 537.378,399.204 537.005,392.361 536.382,385.776 537.062,379.705 538.754,374.248 540.424,368.797 534.229,370.075 528.229,370.872 522.773,370.094 518.664,367.759 514.619,363.867 510.606,362.38 506.059,361.789 502.268,364.301 501.867,370.397 502.231,376.732 502.595,383.068 502.435,388.398 501.784,394.752 500.378,401.372 497.69,407.253 493.436,410.625 488.151,413.001 482.313,412.849 477.24,412.221 470.368,410.62 463.689,408.36 457.156,405.696 450.762,402.732 444.607,399.326 438.636,395.572 432.7,391.782 426.907,387.837 421.308,383.723 416.868,378.505 412.844,373.283 408.892,368.764 404.758,373.36 399.259,378.022 395.488,383.738 391.707,389.69 389.124,396.192 387.568,403 387.111,409.993 387.313,416.998 388.329,424.002 388.992,431.029 388.436,438.004 387.088,444.956 386.043,451.998 386.003,459.102 387.446,466.028 390.385,472.466 394.448,478.202 398.625,483.761 401.642,489.87 404.396,496.128 " stroke="black"  fill="rgb(199,144,172)" />
<polygon points="277.408,495.672 272.755,499.463 267.396,503.302 262.026,507.558 257.718,513.009 253.574,518.661 249.579,524.461 245.619,530.298 242.001,536.33 238.815,542.616 235.924,549.053 233.432,555.649 231.593,562.461 230.788,567.509 230.433,573.337 232.622,578.704 235.844,583.072 241.628,585.963 248.195,587.601 254.522,588.471 259.844,588.818 266.188,588.675 272.532,588.532 278.61,589.145 280.989,593.022 280.239,597.546 278.613,601.505 274.582,605.412 272.105,609.436 271.138,614.862 271.724,620.886 272.786,627.122 277.106,622.805 283.457,620.272 289.667,617.471 295.369,613.49 301.243,609.63 307.78,606.917 314.751,605.716 321.85,606.004 328.852,607.295 335.752,608.884 342.703,609.684 349.749,609.266 356.785,608.495 363.792,608.538 370.765,609.238 377.515,611.031 383.923,613.84 389.739,617.826 395.319,621.794 399.787,627.453 404.236,631.744 407.457,626.023 408.239,619.084 409.901,612.177 411.488,605.123 412.123,597.943 410.959,590.726 407.695,584.188 402.39,579.169 395.419,577.027 389.203,574.931 390.311,568.476 392.313,561.333 393.839,554.108 395.241,546.893 396.355,539.657 397.821,531.702 398.951,525.126 400.846,518.309 402.972,512.766 405.614,506.723 408.859,500.295 403.468,498.436 398.074,496.555 392.031,495.663 385.428,496.055 378.577,496.189 370.977,495.549 370.3,490.718 368.867,485.619 366.962,478.482 365.538,472.877 363.099,467.253 358.872,462.36 353.603,458.97 348.807,457.618 341.973,456.737 336.939,457.128 330.546,459.188 324.398,461.903 318.514,465.152 313.016,469.014 307.516,472.869 301.898,476.508 296.764,480.838 291.774,485.298 287.021,489.92 282.205,493.674 " stroke="black"  fill="rgb(202,225,195)" />
</svg>