<svg xmlns="http://www.w3.org/2000/svg" width="1000" height="1000">
<polygon points="406.644,500.714 413.004,503.327 419.487,505.758 426.211,507.915 433.058,510.088 440.261,510.945 447.732,511.772 455.206,513.002 462.639,514.465 470.025,516.21 477.363,518.154 484.615,520.376 489.299,518.491 490.563,511.052 493.561,504.371 499.382,499.69 506.457,497.331 513.875,497.164 521.176,498.255 528.358,499.799 535.594,500.816 542.716,501.219 548.825,503.699 545.448,498.293 540.744,492.811 535.375,487.479 530.142,481.978 525.355,476.145 520.973,469.999 516.398,463.942 512.064,457.713 508.362,451.094 505.412,444.105 503.701,437.11 502.943,429.951 503.836,423.06 507.381,417.224 512.368,412.665 519.512,410.111 526.733,408.083 534.041,406.311 540.917,405.127 541.071,398.647 540.264,391.443 540.314,384.142 541.255,376.857 542.569,370.189 543.9,363.527 537.008,364.494 530.453,365.174 524.668,364.563 520.272,362.303 516.004,358.33 511.027,354.506 505.311,352.575 503.211,360.122 503,367.185 503.156,373.95 503.444,380.557 504.266,387.281 504.905,393.344 502.915,398.629 500.375,403.867 496.188,408.307 489.135,408.605 481.757,407.858 474.467,406.506 467.336,404.485 460.352,401.988 453.46,399.24 446.778,396.037 440.315,392.409 434.133,388.309 427.779,384.536 421.453,380.674 415.624,376.131 410.713,370.75 406.227,365.346 401.718,360.542 399.367,365.933 395.386,371.617 390.441,376.788 386.288,382.514 383.43,388.892 381.819,395.725 381.171,402.738 381.442,409.805 382.489,416.829 384.13,423.814 385.094,430.933 384.09,437.953 382.894,445.049 382.545,452.225 383.416,459.334 385.814,466.049 389.549,472.091 393.908,477.659 397.718,483.467 399.889,489.903 402.606,495.804 " stroke="black"  fill="rgb(199,144,172)" />
<polygon points="266.384,500.747 261.426,505.084 255.868,509.379 250.319,514.1 245.575,519.767 241.495,525.954 237.502,532.172 233.19,538.208 229.338,544.54 225.904,551.105 222.917,557.898 220.178,564.79 217.909,571.847 216.304,579.086 215.3,586.433 215.351,593.492 219.643,597.832 224.789,600.553 230.001,602.727 236.082,602.299 242.832,601.713 249.445,601.656 256.21,601.736 263.262,602.193 270.73,604.556 268.602,610.201 264.607,615.041 260.487,619.168 258.074,623.482 257.262,629.242 257.713,635.817 258.439,642.738 263.487,638.874 269.48,636.364 275.988,634.419 281.926,630.814 287.642,626.652 293.81,623.13 300.605,620.968 307.74,620.347 314.9,620.945 321.949,622.388 328.93,623.636 336.078,622.921 343.116,621.526 350.173,620.724 357.244,620.7 364.231,621.593 371.004,623.441 377.278,626.52 382.855,630.871 387.85,635.993 393.392,640.169 398.698,642.708 401.39,636.688 402.041,629.584 403.31,622.388 405.103,615.263 406.449,608.005 406.541,600.586 404.43,593.432 399.955,587.452 393.382,584.222 385.992,582.699 384.272,577.952 386.746,570.782 388.945,563.516 390.947,556.196 392.668,548.819 394.158,541.392 395.245,533.954 396.353,526.786 398.764,520.02 401.155,513.374 403.81,506.98 406.643,500.715 400.03,499.154 393.413,497.606 386.165,496.412 378.87,496.107 371.642,496.663 365.171,496.282 364.229,489.369 362.713,482.004 360.938,474.716 358.635,467.488 354.252,462.344 348.543,458.598 341.688,457.465 334.508,457.973 327.457,459.438 320.369,462.143 313.624,465.611 307.248,469.726 301.035,474.087 294.74,478.251 288.743,482.831 283.064,487.87 277.547,493.049 271.903,497.559 " stroke="black"  fill="rgb(202,225,195)" />
</svg>