<svg xmlns="http://www.w3.org/2000/svg" width="1000" height="1000">
<polygon points="381.329,434.867 387.626,430.339 393.017,424.819 399.085,420.134 404.995,415.556 411.034,411.18 417.78,407.579 424.97,404.973 432.681,404.493 440.295,404.046 448.007,404.669 455.582,406.052 463.174,407.524 470.481,409.836 477.564,413 484.839,415.664 492.24,417.85 499.705,419.859 506.776,422.845 513.59,426.551 519.063,431.249 522.652,437.233 524.857,443.62 524.572,451.372 523.91,459.129 524.965,464.607 529.634,464.568 536.104,460.442 542.858,456.123 549.331,453.698 557.774,452.614 557.803,445.353 558.305,437.989 558.822,431.464 562.494,425.095 568.531,421.675 575.976,421.046 583.243,419.292 590.429,417.174 597.754,415.649 605.202,414.76 612.662,414.295 619.92,415.45 626.526,418.729 632.34,423.276 638.395,425.065 642.916,422.45 644.082,416.595 643.46,410.01 640.034,402.713 636.576,396.381 632.713,390.156 627.43,383.957 622.254,378.162 617.087,372.773 610.922,368.416 604.559,364.265 600.201,358.76 597.997,352.393 595.118,346.307 589.86,347.677 583.59,348.776 577.422,348.835 571.578,351.089 567.451,355.753 565.062,361.342 562.108,367.515 556.672,373.924 550.216,376.715 543.869,374.721 538.34,369.03 532.524,361.42 525.159,357.245 516.252,353.814 505.666,350.172 494.619,347.495 485.979,345.733 476.131,343.275 467.484,341.035 456.301,337.834 447.853,335.459 440.245,333.07 433.278,331.3 425.906,330.377 418.672,328.56 413.856,333.296 409.499,339.461 404.95,346.238 400.804,353.373 396.908,360.844 393.267,368.051 389.622,374.999 386.888,382.061 384.409,388.858 382.695,394.863 381.373,400.99 380.461,408.28 380.192,415.168 380.173,421.533 380.257,428.408 " stroke="black"  fill="rgb(199,144,172)" />
<polygon points="276.39,393.837 274.321,401.002 273.142,408.338 271.13,415.238 268.477,422.758 265.809,431.119 262.22,442.182 259.679,450.747 256.878,460.502 254.816,469.075 251.755,480.022 247.746,490.474 244.005,499.256 239.576,506.471 231.767,512.018 225.888,517.344 223.673,523.618 226.237,530.167 232.452,535.824 238.518,538.991 244.021,541.574 248.538,545.861 250.587,551.78 250.431,557.947 251.31,564.251 252.495,569.554 258.988,568.708 265.862,568.865 272.222,569.106 279.097,569.615 286.35,570.781 292.428,572.315 298.369,574.238 305.076,576.952 312.038,579.931 318.854,583.818 325.93,587.707 333.261,591.862 340.246,596.254 346.86,601.037 352.869,605.607 357.435,610.585 356.646,602.11 354.449,595.556 350.367,588.656 346.47,582.046 346.595,577.378 352.105,576.515 359.835,577.447 367.573,578.002 374.032,576.021 380.138,572.644 385.025,567.338 388.966,560.659 392.197,553.695 394.465,546.305 396.909,538.984 399.825,531.807 403.234,524.838 405.8,517.617 407.535,510.081 409.182,502.559 410.074,494.874 409.893,487.248 409.683,479.525 407.33,472.249 403.966,465.381 399.803,459.193 395.434,453.127 390.964,446.899 385.635,441.319 381.329,434.868 375.147,437.532 368.707,439.512 363.053,443.675 358.682,449.89 354.112,455.899 348.546,460.876 342.574,465.845 336.194,470.909 329.839,474.552 323.39,477.788 315.978,480.957 309.375,481.349 303.564,479.979 301.109,475.37 303.108,469.38 307.855,463.729 311.362,457.241 312.77,450.028 312.566,442.557 311.937,435.082 310.669,427.708 308.802,420.452 307.304,413.129 306.935,405.666 303.728,399.514 297.491,395.622 290.989,394.877 283.646,394.118 " stroke="black"  fill="rgb(202,225,195)" />
</svg>