<svg xmlns="http://www.w3.org/2000/svg" width="1000" height="1000">
<line x1="421.169" y1="-43.466" x2="428.9" y2="-35.7676" stroke="rgb(120,120,120)" />
<circle cx="421.169" cy="-43.466" r="2" fill="rgb(240, 176, 30)" />
<line x1="428.9" y1="-35.7676" x2="436.756" y2="-28.1985" stroke="rgb(120,120,120)" />
<line x1="436.756" y1="-28.1985" x2="444.732" y2="-20.7536" stroke="rgb(120,120,120)" />
<line x1="444.732" y1="-20.7536" x2="452.061" y2="-12.6741" stroke="rgb(120,120,120)" />
<line x1="452.061" y1="-12.6741" x2="460.786" y2="-6.12518" stroke="rgb(120,120,120)" />
<line x1="460.786" y1="-6.12518" x2="468.813" y2="1.23005" stroke="rgb(120,120,120)" />
<line x1="468.813" y1="1.23005" x2="475.882" y2="9.53903" stroke="rgb(120,120,120)" />
<line x1="475.882" y1="9.53903" x2="482.501" y2="18.2065" stroke="rgb(120,120,120)" />
<line x1="482.501" y1="18.2065" x2="488.296" y2="27.4367" stroke="rgb(120,120,120)" />
<line x1="488.296" y1="27.4367" x2="493.699" y2="36.9157" stroke="rgb(120,120,120)" />
<line x1="493.699" y1="36.9157" x2="498.288" y2="46.7956" stroke="rgb(120,120,120)" />
<line x1="498.288" y1="46.7956" x2="502.296" y2="56.9437" stroke="rgb(120,120,120)" />
<line x1="502.296" y1="56.9437" x2="512.231" y2="50.1849" stroke="rgb(120,120,120)" />
<line x1="512.231" y1="50.1849" x2="523.24" y2="45.393" stroke="rgb(120,120,120)" />
<line x1="523.24" y1="45.393" x2="535.104" y2="46.0312" stroke="rgb(120,120,120)" />
<line x1="535.104" y1="46.0312" x2="544.566" y2="50.6184" stroke="rgb(120,120,120)" />
<line x1="544.566" y1="50.6184" x2="551.894" y2="58.0752" stroke="rgb(120,120,120)" />
<line x1="551.894" y1="58.0752" x2="556.676" y2="67.4191" stroke="rgb(120,120,120)" />
<line x1="556.676" y1="67.4191" x2="560.293" y2="77.2863" stroke="rgb(120,120,120)" />
<line x1="560.293" y1="77.2863" x2="563.345" y2="87.3509" stroke="rgb(120,120,120)" />
<line x1="563.345" y1="87.3509" x2="567.358" y2="97.0336" stroke="rgb(120,120,120)" />
<line x1="567.358" y1="97.0336" x2="571.252" y2="106.788" stroke="rgb(120,120,120)" />
<line x1="571.252" y1="106.788" x2="569.818" y2="117.073" stroke="rgb(120,120,120)" />
<line x1="569.818" y1="117.073" x2="577.665" y2="109.21" stroke="rgb(120,120,120)" />
<circle cx="569.818" cy="117.073" r="2" fill="rgb(240, 176, 30)" />
<line x1="577.665" y1="109.21" x2="581.81" y2="99.6128" stroke="rgb(120,120,120)" />
<line x1="581.81" y1="99.6128" x2="582.868" y2="88.5543" stroke="rgb(120,120,120)" />
<line x1="582.868" y1="88.5543" x2="583.489" y2="77.4734" stroke="rgb(120,120,120)" />
<line x1="583.489" y1="77.4734" x2="583.952" y2="66.3783" stroke="rgb(120,120,120)" />
<line x1="583.952" y1="66.3783" x2="584.869" y2="55.3081" stroke="rgb(120,120,120)" />
<line x1="584.869" y1="55.3081" x2="586.207" y2="44.2833" stroke="rgb(120,120,120)" />
<line x1="586.207" y1="44.2833" x2="588.337" y2="33.3978" stroke="rgb(120,120,120)" />
<line x1="588.337" y1="33.3978" x2="591.534" y2="22.7694" stroke="rgb(120,120,120)" />
<line x1="591.534" y1="22.7694" x2="595.655" y2="12.467" stroke="rgb(120,120,120)" />
<line x1="595.655" y1="12.467" x2="600.901" y2="2.7055" stroke="rgb(120,120,120)" />
<line x1="600.901" y1="2.7055" x2="607.687" y2="-6.07062" stroke="rgb(120,120,120)" />
<line x1="607.687" y1="-6.07062" x2="615.773" y2="-13.6884" stroke="rgb(120,120,120)" />
<line x1="615.773" y1="-13.6884" x2="627.384" y2="-12.7019" stroke="rgb(120,120,120)" />
<line x1="627.384" y1="-12.7019" x2="638.105" y2="-8.3326" stroke="rgb(120,120,120)" />
<line x1="638.105" y1="-8.3326" x2="648.413" y2="-2.90968" stroke="rgb(120,120,120)" />
<line x1="648.413" y1="-2.90968" x2="658.946" y2="2.0473" stroke="rgb(120,120,120)" />
<line x1="658.946" y1="2.0473" x2="668.515" y2="8.38951" stroke="rgb(120,120,120)" />
<line x1="668.515" y1="8.38951" x2="677.017" y2="16.3581" stroke="rgb(120,120,120)" />
<line x1="677.017" y1="16.3581" x2="684.898" y2="7.87132" stroke="rgb(120,120,120)" />
<line x1="684.898" y1="7.87132" x2="691.923" y2="-1.32004" stroke="rgb(120,120,120)" />
<line x1="691.923" y1="-1.32004" x2="699.374" y2="-10.1553" stroke="rgb(120,120,120)" />
<line x1="699.374" y1="-10.1553" x2="707.225" y2="-18.6524" stroke="rgb(120,120,120)" />
<line x1="707.225" y1="-18.6524" x2="713.452" y2="-28.4168" stroke="rgb(120,120,120)" />
<line x1="713.452" y1="-28.4168" x2="719.68" y2="-38.1813" stroke="rgb(120,120,120)" />
<line x1="719.68" y1="-38.1813" x2="713.266" y2="-48.0129" stroke="rgb(120,120,120)" />
<circle cx="719.68" cy="-38.1813" r="2" fill="rgb(240, 176, 30)" />
<line x1="713.266" y1="-48.0129" x2="707.719" y2="-58.2807" stroke="rgb(120,120,120)" />
<line x1="707.719" y1="-58.2807" x2="703.749" y2="-69.3197" stroke="rgb(120,120,120)" />
<line x1="703.749" y1="-69.3197" x2="701.418" y2="-80.8248" stroke="rgb(120,120,120)" />
<line x1="701.418" y1="-80.8248" x2="699.043" y2="-92.3206" stroke="rgb(120,120,120)" />
<line x1="699.043" y1="-92.3206" x2="695.386" y2="-103.291" stroke="rgb(120,120,120)" />
<line x1="695.386" y1="-103.291" x2="688.963" y2="-113.117" stroke="rgb(120,120,120)" />
<line x1="688.963" y1="-113.117" x2="682.972" y2="-101.834" stroke="rgb(120,120,120)" />
<line x1="682.972" y1="-101.834" x2="678.405" y2="-89.8931" stroke="rgb(120,120,120)" />
<line x1="678.405" y1="-89.8931" x2="674.312" y2="-77.7794" stroke="rgb(120,120,120)" />
<line x1="674.312" y1="-77.7794" x2="667.115" y2="-68.7596" stroke="rgb(120,120,120)" />
<line x1="667.115" y1="-68.7596" x2="658.471" y2="-61.1221" stroke="rgb(120,120,120)" />
<line x1="658.471" y1="-61.1221" x2="647.961" y2="-56.3958" stroke="rgb(120,120,120)" />
<line x1="647.961" y1="-56.3958" x2="638.208" y2="-50.2304" stroke="rgb(120,120,120)" />
<line x1="638.208" y1="-50.2304" x2="627.456" y2="-46.044" stroke="rgb(120,120,120)" />
<line x1="627.456" y1="-46.044" x2="620.692" y2="-53.0972" stroke="rgb(120,120,120)" />
<line x1="620.692" y1="-53.0972" x2="614.546" y2="-60.6754" stroke="rgb(120,120,120)" />
<line x1="614.546" y1="-60.6754" x2="609.046" y2="-68.7345" stroke="rgb(120,120,120)" />
<line x1="609.046" y1="-68.7345" x2="604.228" y2="-77.2316" stroke="rgb(120,120,120)" />
<line x1="604.228" y1="-77.2316" x2="600.269" y2="-86.1661" stroke="rgb(120,120,120)" />
<line x1="600.269" y1="-86.1661" x2="596.549" y2="-95.2026" stroke="rgb(120,120,120)" />
<line x1="596.549" y1="-95.2026" x2="592.86" y2="-104.252" stroke="rgb(120,120,120)" />
<line x1="592.86" y1="-104.252" x2="589.394" y2="-113.38" stroke="rgb(120,120,120)" />
<line x1="589.394" y1="-113.38" x2="586.602" y2="-122.743" stroke="rgb(120,120,120)" />
<line x1="586.602" y1="-122.743" x2="584.628" y2="-132.314" stroke="rgb(120,120,120)" />
<line x1="584.628" y1="-132.314" x2="583.267" y2="-141.987" stroke="rgb(120,120,120)" />
<line x1="583.267" y1="-141.987" x2="580.988" y2="-151.442" stroke="rgb(120,120,120)" />
<line x1="580.988" y1="-151.442" x2="578.802" y2="-160.904" stroke="rgb(120,120,120)" />
<line x1="578.802" y1="-160.904" x2="577.916" y2="-170.636" stroke="rgb(120,120,120)" />
<line x1="577.916" y1="-170.636" x2="577.141" y2="-180.378" stroke="rgb(120,120,120)" />
<line x1="577.141" y1="-180.378" x2="574.973" y2="-189.778" stroke="rgb(120,120,120)" />
<line x1="574.973" y1="-189.778" x2="571.031" y2="-198.721" stroke="rgb(120,120,120)" />
<line x1="571.031" y1="-198.721" x2="564.419" y2="-189.383" stroke="rgb(120,120,120)" />
<circle cx="571.031" cy="-198.721" r="2" fill="rgb(240, 176, 30)" />
<line x1="564.419" y1="-189.383" x2="553.617" y2="-185.814" stroke="rgb(120,120,120)" />
<line x1="553.617" y1="-185.814" x2="541.832" y2="-185.797" stroke="rgb(120,120,120)" />
<line x1="541.832" y1="-185.797" x2="531.564" y2="-181.336" stroke="rgb(120,120,120)" />
<line x1="531.564" y1="-181.336" x2="522.824" y2="-174.243" stroke="rgb(120,120,120)" />
<line x1="522.824" y1="-174.243" x2="515.162" y2="-165.982" stroke="rgb(120,120,120)" />
<line x1="515.162" y1="-165.982" x2="508.669" y2="-156.777" stroke="rgb(120,120,120)" />
<line x1="508.669" y1="-156.777" x2="503.191" y2="-146.918" stroke="rgb(120,120,120)" />
<line x1="503.191" y1="-146.918" x2="497.917" y2="-136.948" stroke="rgb(120,120,120)" />
<line x1="497.917" y1="-136.948" x2="490.531" y2="-128.528" stroke="rgb(120,120,120)" />
<line x1="490.531" y1="-128.528" x2="480.824" y2="-123.528" stroke="rgb(120,120,120)" />
<line x1="480.824" y1="-123.528" x2="471.692" y2="-117.562" stroke="rgb(120,120,120)" />
<line x1="471.692" y1="-117.562" x2="463.461" y2="-110.401" stroke="rgb(120,120,120)" />
<line x1="463.461" y1="-110.401" x2="456.4" y2="-102.125" stroke="rgb(120,120,120)" />
<line x1="456.4" y1="-102.125" x2="451.211" y2="-92.5541" stroke="rgb(120,120,120)" />
<line x1="451.211" y1="-92.5541" x2="447.65" y2="-82.2649" stroke="rgb(120,120,120)" />
<line x1="447.65" y1="-82.2649" x2="444.249" y2="-71.927" stroke="rgb(120,120,120)" />
<line x1="444.249" y1="-71.927" x2="438.455" y2="-62.7872" stroke="rgb(120,120,120)" />
<line x1="438.455" y1="-62.7872" x2="429.773" y2="-56.3768" stroke="rgb(120,120,120)" />
<line x1="429.773" y1="-56.3768" x2="421.169" y2="-43.466" stroke="rgb(120,120,120)" />
<line x1="571.307" y1="111.789" x2="565.558" y2="120.768" stroke="rgb(120,120,120)" />
<circle cx="571.307" cy="111.789" r="2" fill="rgb(240, 176, 30)" />
<line x1="565.558" y1="120.768" x2="560.598" y2="130.159" stroke="rgb(120,120,120)" />
<line x1="560.598" y1="130.159" x2="557.102" y2="140.233" stroke="rgb(120,120,120)" />
<line x1="557.102" y1="140.233" x2="557.192" y2="152.641" stroke="rgb(120,120,120)" />
<line x1="557.192" y1="152.641" x2="559.273" y2="164.705" stroke="rgb(120,120,120)" />
<line x1="559.273" y1="164.705" x2="563.359" y2="176.421" stroke="rgb(120,120,120)" />
<line x1="563.359" y1="176.421" x2="565.383" y2="188.65" stroke="rgb(120,120,120)" />
<line x1="565.383" y1="188.65" x2="567.963" y2="200.768" stroke="rgb(120,120,120)" />
<line x1="567.963" y1="200.768" x2="571.224" y2="212.739" stroke="rgb(120,120,120)" />
<line x1="571.224" y1="212.739" x2="575.929" y2="224.221" stroke="rgb(120,120,120)" />
<line x1="575.929" y1="224.221" x2="581.343" y2="235.357" stroke="rgb(120,120,120)" />
<line x1="581.343" y1="235.357" x2="587.5" y2="246.13" stroke="rgb(120,120,120)" />
<line x1="587.5" y1="246.13" x2="594.623" y2="256.291" stroke="rgb(120,120,120)" />
<line x1="594.623" y1="256.291" x2="602.432" y2="265.907" stroke="rgb(120,120,120)" />
<line x1="602.432" y1="265.907" x2="611.238" y2="274.596" stroke="rgb(120,120,120)" />
<line x1="611.238" y1="274.596" x2="621.175" y2="281.967" stroke="rgb(120,120,120)" />
<line x1="621.175" y1="281.967" x2="632.164" y2="287.685" stroke="rgb(120,120,120)" />
<line x1="632.164" y1="287.685" x2="644" y2="291.41" stroke="rgb(120,120,120)" />
<line x1="644" y1="291.41" x2="651.433" y2="281.208" stroke="rgb(120,120,120)" />
<line x1="651.433" y1="281.208" x2="658.452" y2="270.73" stroke="rgb(120,120,120)" />
<line x1="658.452" y1="270.73" x2="664.672" y2="259.749" stroke="rgb(120,120,120)" />
<line x1="664.672" y1="259.749" x2="665.53" y2="247.96" stroke="rgb(120,120,120)" />
<line x1="665.53" y1="247.96" x2="667.4" y2="236.292" stroke="rgb(120,120,120)" />
<line x1="667.4" y1="236.292" x2="670.486" y2="224.916" stroke="rgb(120,120,120)" />
<line x1="670.486" y1="224.916" x2="675.016" y2="224.786" stroke="rgb(120,120,120)" />
<line x1="675.016" y1="224.786" x2="679.065" y2="235.859" stroke="rgb(120,120,120)" />
<line x1="679.065" y1="235.859" x2="682.619" y2="247.049" stroke="rgb(120,120,120)" />
<line x1="682.619" y1="247.049" x2="688.768" y2="257.112" stroke="rgb(120,120,120)" />
<line x1="688.768" y1="257.112" x2="697.763" y2="264.783" stroke="rgb(120,120,120)" />
<line x1="697.763" y1="264.783" x2="708.606" y2="269.026" stroke="rgb(120,120,120)" />
<line x1="708.606" y1="269.026" x2="719.957" y2="272.328" stroke="rgb(120,120,120)" />
<line x1="719.957" y1="272.328" x2="715.795" y2="262.938" stroke="rgb(120,120,120)" />
<circle cx="719.957" cy="272.328" r="2" fill="rgb(240, 176, 30)" />
<line x1="715.795" y1="262.938" x2="713.862" y2="253.054" stroke="rgb(120,120,120)" />
<line x1="713.862" y1="253.054" x2="716.866" y2="243.506" stroke="rgb(120,120,120)" />
<line x1="716.866" y1="243.506" x2="717.201" y2="231.782" stroke="rgb(120,120,120)" />
<line x1="717.201" y1="231.782" x2="716.101" y2="220.098" stroke="rgb(120,120,120)" />
<line x1="716.101" y1="220.098" x2="715.875" y2="208.445" stroke="rgb(120,120,120)" />
<line x1="715.875" y1="208.445" x2="718.384" y2="197.024" stroke="rgb(120,120,120)" />
<line x1="718.384" y1="197.024" x2="723.785" y2="186.684" stroke="rgb(120,120,120)" />
<line x1="723.785" y1="186.684" x2="731.509" y2="177.874" stroke="rgb(120,120,120)" />
<line x1="731.509" y1="177.874" x2="740.661" y2="170.524" stroke="rgb(120,120,120)" />
<line x1="740.661" y1="170.524" x2="750.287" y2="163.839" stroke="rgb(120,120,120)" />
<line x1="750.287" y1="163.839" x2="757.882" y2="154.932" stroke="rgb(120,120,120)" />
<line x1="757.882" y1="154.932" x2="764.271" y2="145.079" stroke="rgb(120,120,120)" />
<line x1="764.271" y1="145.079" x2="771.487" y2="135.841" stroke="rgb(120,120,120)" />
<line x1="771.487" y1="135.841" x2="780.346" y2="128.236" stroke="rgb(120,120,120)" />
<line x1="780.346" y1="128.236" x2="790.085" y2="121.671" stroke="rgb(120,120,120)" />
<line x1="790.085" y1="121.671" x2="800.677" y2="116.662" stroke="rgb(120,120,120)" />
<line x1="800.677" y1="116.662" x2="811.918" y2="113.287" stroke="rgb(120,120,120)" />
<line x1="811.918" y1="113.287" x2="823.599" y2="112.155" stroke="rgb(120,120,120)" />
<line x1="823.599" y1="112.155" x2="835.344" y2="112.134" stroke="rgb(120,120,120)" />
<line x1="835.344" y1="112.134" x2="847.063" y2="112.93" stroke="rgb(120,120,120)" />
<line x1="847.063" y1="112.93" x2="858.77" y2="113.855" stroke="rgb(120,120,120)" />
<line x1="858.77" y1="113.855" x2="869.818" y2="117.074" stroke="rgb(120,120,120)" />
<line x1="869.818" y1="117.074" x2="860.065" y2="109.84" stroke="rgb(120,120,120)" />
<circle cx="869.818" cy="117.074" r="2" fill="rgb(240, 176, 30)" />
<line x1="860.065" y1="109.84" x2="849.004" y2="104.127" stroke="rgb(120,120,120)" />
<line x1="849.004" y1="104.127" x2="839.091" y2="96.6185" stroke="rgb(120,120,120)" />
<line x1="839.091" y1="96.6185" x2="829.889" y2="88.234" stroke="rgb(120,120,120)" />
<line x1="829.889" y1="88.234" x2="820.399" y2="80.1801" stroke="rgb(120,120,120)" />
<line x1="820.399" y1="80.1801" x2="809.961" y2="73.4639" stroke="rgb(120,120,120)" />
<line x1="809.961" y1="73.4639" x2="798.137" y2="69.7628" stroke="rgb(120,120,120)" />
<line x1="798.137" y1="69.7628" x2="785.724" y2="69.9419" stroke="rgb(120,120,120)" />
<line x1="785.724" y1="69.9419" x2="775.39" y2="77.2098" stroke="rgb(120,120,120)" />
<line x1="775.39" y1="77.2098" x2="766.132" y2="85.8003" stroke="rgb(120,120,120)" />
<line x1="766.132" y1="85.8003" x2="759.098" y2="75.3493" stroke="rgb(120,120,120)" />
<line x1="759.098" y1="75.3493" x2="752.742" y2="64.4446" stroke="rgb(120,120,120)" />
<line x1="752.742" y1="64.4446" x2="746.14" y2="53.677" stroke="rgb(120,120,120)" />
<line x1="746.14" y1="53.677" x2="740.047" y2="42.6106" stroke="rgb(120,120,120)" />
<line x1="740.047" y1="42.6106" x2="733.802" y2="31.6285" stroke="rgb(120,120,120)" />
<line x1="733.802" y1="31.6285" x2="727.77" y2="20.5277" stroke="rgb(120,120,120)" />
<line x1="727.77" y1="20.5277" x2="721.758" y2="9.41575" stroke="rgb(120,120,120)" />
<line x1="721.758" y1="9.41575" x2="720.203" y2="-3.77143" stroke="rgb(120,120,120)" />
<line x1="720.203" y1="-3.77143" x2="719.246" y2="-16.9993" stroke="rgb(120,120,120)" />
<line x1="719.246" y1="-16.9993" x2="719.859" y2="-30.2522" stroke="rgb(120,120,120)" />
<line x1="719.859" y1="-30.2522" x2="721.169" y2="-43.466" stroke="rgb(120,120,120)" />
<line x1="721.169" y1="-43.466" x2="709.501" y2="-42.6018" stroke="rgb(120,120,120)" />
<circle cx="721.169" cy="-43.466" r="2" fill="rgb(240, 176, 30)" />
<line x1="709.501" y1="-42.6018" x2="697.833" y2="-41.7377" stroke="rgb(120,120,120)" />
<line x1="697.833" y1="-41.7377" x2="687.355" y2="-36.8163" stroke="rgb(120,120,120)" />
<line x1="687.355" y1="-36.8163" x2="678.307" y2="-29.665" stroke="rgb(120,120,120)" />
<line x1="678.307" y1="-29.665" x2="670.567" y2="-20.895" stroke="rgb(120,120,120)" />
<line x1="670.567" y1="-20.895" x2="663.203" y2="-11.8032" stroke="rgb(120,120,120)" />
<line x1="663.203" y1="-11.8032" x2="653.38" y2="-21.0703" stroke="rgb(120,120,120)" />
<line x1="653.38" y1="-21.0703" x2="642.388" y2="-29.0693" stroke="rgb(120,120,120)" />
<line x1="642.388" y1="-29.0693" x2="632.134" y2="-37.9784" stroke="rgb(120,120,120)" />
<line x1="632.134" y1="-37.9784" x2="621.426" y2="-46.3488" stroke="rgb(120,120,120)" />
<line x1="621.426" y1="-46.3488" x2="610.698" y2="-40.1404" stroke="rgb(120,120,120)" />
<line x1="610.698" y1="-40.1404" x2="601.007" y2="-32.4638" stroke="rgb(120,120,120)" />
<line x1="601.007" y1="-32.4638" x2="592.537" y2="-23.4933" stroke="rgb(120,120,120)" />
<line x1="592.537" y1="-23.4933" x2="585.502" y2="-13.3338" stroke="rgb(120,120,120)" />
<line x1="585.502" y1="-13.3338" x2="579.865" y2="-2.32085" stroke="rgb(120,120,120)" />
<line x1="579.865" y1="-2.32085" x2="575.452" y2="9.25428" stroke="rgb(120,120,120)" />
<line x1="575.452" y1="9.25428" x2="572.685" y2="21.3368" stroke="rgb(120,120,120)" />
<line x1="572.685" y1="21.3368" x2="570.893" y2="33.5912" stroke="rgb(120,120,120)" />
<line x1="570.893" y1="33.5912" x2="568.416" y2="45.664" stroke="rgb(120,120,120)" />
<line x1="568.416" y1="45.664" x2="564.186" y2="57.3151" stroke="rgb(120,120,120)" />
<line x1="564.186" y1="57.3151" x2="563.223" y2="68.4398" stroke="rgb(120,120,120)" />
<line x1="563.223" y1="68.4398" x2="563.218" y2="79.5788" stroke="rgb(120,120,120)" />
<line x1="563.218" y1="79.5788" x2="564.307" y2="90.6678" stroke="rgb(120,120,120)" />
<line x1="564.307" y1="90.6678" x2="567.142" y2="101.429" stroke="rgb(120,120,120)" />
<line x1="567.142" y1="101.429" x2="571.307" y2="111.789" stroke="rgb(120,120,120)" />
</svg>