<svg xmlns="http://www.w3.org/2000/svg" width="1000" height="1000">
<line x1="464.234" y1="-30.4944" x2="469.99" y2="-22.6722" stroke="rgb(120,120,120)" />
<circle cx="464.234" cy="-30.4944" r="2" fill="rgb(240, 176, 30)" />
<line x1="469.99" y1="-22.6722" x2="476.545" y2="-15.4763" stroke="rgb(120,120,120)" />
<line x1="476.545" y1="-15.4763" x2="483.283" y2="-8.45351" stroke="rgb(120,120,120)" />
<line x1="483.283" y1="-8.45351" x2="489.54" y2="-0.99729" stroke="rgb(120,120,120)" />
<line x1="489.54" y1="-0.99729" x2="498.147" y2="5.03929" stroke="rgb(120,120,120)" />
<line x1="498.147" y1="5.03929" x2="506.142" y2="11.8349" stroke="rgb(120,120,120)" />
<line x1="506.142" y1="11.8349" x2="513.29" y2="19.5438" stroke="rgb(120,120,120)" />
<line x1="513.29" y1="19.5438" x2="520.126" y2="27.5276" stroke="rgb(120,120,120)" />
<line x1="520.126" y1="27.5276" x2="526.233" y2="36.0684" stroke="rgb(120,120,120)" />
<line x1="526.233" y1="36.0684" x2="531.939" y2="44.8981" stroke="rgb(120,120,120)" />
<line x1="531.939" y1="44.8981" x2="536.997" y2="54.0955" stroke="rgb(120,120,120)" />
<line x1="536.997" y1="54.0955" x2="541.364" y2="63.6586" stroke="rgb(120,120,120)" />
<line x1="541.364" y1="63.6586" x2="551.04" y2="56.9887" stroke="rgb(120,120,120)" />
<line x1="551.04" y1="56.9887" x2="561.887" y2="52.4903" stroke="rgb(120,120,120)" />
<line x1="561.887" y1="52.4903" x2="573.526" y2="52.975" stroke="rgb(120,120,120)" />
<line x1="573.526" y1="52.975" x2="583.229" y2="57.6959" stroke="rgb(120,120,120)" />
<line x1="583.229" y1="57.6959" x2="590.868" y2="65.1534" stroke="rgb(120,120,120)" />
<line x1="590.868" y1="65.1534" x2="595.72" y2="74.7751" stroke="rgb(120,120,120)" />
<line x1="595.72" y1="74.7751" x2="599.519" y2="84.8834" stroke="rgb(120,120,120)" />
<line x1="599.519" y1="84.8834" x2="602.591" y2="95.2218" stroke="rgb(120,120,120)" />
<line x1="602.591" y1="95.2218" x2="606.672" y2="105.207" stroke="rgb(120,120,120)" />
<line x1="606.672" y1="105.207" x2="604.766" y2="115.104" stroke="rgb(120,120,120)" />
<line x1="604.766" y1="115.104" x2="613.025" y2="110.217" stroke="rgb(120,120,120)" />
<circle cx="604.766" cy="115.104" r="2" fill="rgb(240, 176, 30)" />
<line x1="613.025" y1="110.217" x2="617.667" y2="102.882" stroke="rgb(120,120,120)" />
<line x1="617.667" y1="102.882" x2="619.193" y2="93.408" stroke="rgb(120,120,120)" />
<line x1="619.193" y1="93.408" x2="620.538" y2="83.9152" stroke="rgb(120,120,120)" />
<line x1="620.538" y1="83.9152" x2="621.379" y2="74.3563" stroke="rgb(120,120,120)" />
<line x1="621.379" y1="74.3563" x2="622.36" y2="64.8102" stroke="rgb(120,120,120)" />
<line x1="622.36" y1="64.8102" x2="623.317" y2="55.2625" stroke="rgb(120,120,120)" />
<line x1="623.317" y1="55.2625" x2="624.683" y2="45.7639" stroke="rgb(120,120,120)" />
<line x1="624.683" y1="45.7639" x2="627.147" y2="36.4941" stroke="rgb(120,120,120)" />
<line x1="627.147" y1="36.4941" x2="630.343" y2="27.4538" stroke="rgb(120,120,120)" />
<line x1="630.343" y1="27.4538" x2="634.384" y2="18.7685" stroke="rgb(120,120,120)" />
<line x1="634.384" y1="18.7685" x2="639.491" y2="10.6871" stroke="rgb(120,120,120)" />
<line x1="639.491" y1="10.6871" x2="645.676" y2="3.38741" stroke="rgb(120,120,120)" />
<line x1="645.676" y1="3.38741" x2="652.827" y2="-3.01213" stroke="rgb(120,120,120)" />
<line x1="652.827" y1="-3.01213" x2="664.026" y2="-1.81333" stroke="rgb(120,120,120)" />
<line x1="664.026" y1="-1.81333" x2="674.44" y2="2.28789" stroke="rgb(120,120,120)" />
<line x1="674.44" y1="2.28789" x2="684.491" y2="7.36109" stroke="rgb(120,120,120)" />
<line x1="684.491" y1="7.36109" x2="694.598" y2="12.3244" stroke="rgb(120,120,120)" />
<line x1="694.598" y1="12.3244" x2="703.956" y2="18.3507" stroke="rgb(120,120,120)" />
<line x1="703.956" y1="18.3507" x2="712.234" y2="25.989" stroke="rgb(120,120,120)" />
<line x1="712.234" y1="25.989" x2="719.149" y2="17.8336" stroke="rgb(120,120,120)" />
<line x1="719.149" y1="17.8336" x2="725.361" y2="9.14507" stroke="rgb(120,120,120)" />
<line x1="725.361" y1="9.14507" x2="731.794" y2="0.62865" stroke="rgb(120,120,120)" />
<line x1="731.794" y1="0.62865" x2="738.812" y2="-7.43875" stroke="rgb(120,120,120)" />
<line x1="738.812" y1="-7.43875" x2="744.619" y2="-16.4104" stroke="rgb(120,120,120)" />
<line x1="744.619" y1="-16.4104" x2="750.363" y2="-25.429" stroke="rgb(120,120,120)" />
<line x1="750.363" y1="-25.429" x2="745.312" y2="-33.846" stroke="rgb(120,120,120)" />
<circle cx="750.363" cy="-25.429" r="2" fill="rgb(240, 176, 30)" />
<line x1="745.312" y1="-33.846" x2="740.896" y2="-42.5498" stroke="rgb(120,120,120)" />
<line x1="740.896" y1="-42.5498" x2="737.937" y2="-51.9095" stroke="rgb(120,120,120)" />
<line x1="737.937" y1="-51.9095" x2="736.16" y2="-61.5415" stroke="rgb(120,120,120)" />
<line x1="736.16" y1="-61.5415" x2="734.74" y2="-71.2547" stroke="rgb(120,120,120)" />
<line x1="734.74" y1="-71.2547" x2="733.404" y2="-80.9799" stroke="rgb(120,120,120)" />
<line x1="733.404" y1="-80.9799" x2="730.173" y2="-90.0551" stroke="rgb(120,120,120)" />
<line x1="730.173" y1="-90.0551" x2="725.26" y2="-98.5535" stroke="rgb(120,120,120)" />
<line x1="725.26" y1="-98.5535" x2="720.816" y2="-90.2733" stroke="rgb(120,120,120)" />
<line x1="720.816" y1="-90.2733" x2="717.07" y2="-81.6623" stroke="rgb(120,120,120)" />
<line x1="717.07" y1="-81.6623" x2="713.56" y2="-72.9453" stroke="rgb(120,120,120)" />
<line x1="713.56" y1="-72.9453" x2="710.132" y2="-64.1955" stroke="rgb(120,120,120)" />
<line x1="710.132" y1="-64.1955" x2="703.234" y2="-55.428" stroke="rgb(120,120,120)" />
<line x1="703.234" y1="-55.428" x2="694.845" y2="-48.0834" stroke="rgb(120,120,120)" />
<line x1="694.845" y1="-48.0834" x2="684.802" y2="-43.2555" stroke="rgb(120,120,120)" />
<line x1="684.802" y1="-43.2555" x2="675.25" y2="-37.4926" stroke="rgb(120,120,120)" />
<line x1="675.25" y1="-37.4926" x2="664.587" y2="-34.2264" stroke="rgb(120,120,120)" />
<line x1="664.587" y1="-34.2264" x2="656.923" y2="-41.3087" stroke="rgb(120,120,120)" />
<line x1="656.923" y1="-41.3087" x2="650.363" y2="-49.3976" stroke="rgb(120,120,120)" />
<line x1="650.363" y1="-49.3976" x2="644.692" y2="-58.1367" stroke="rgb(120,120,120)" />
<line x1="644.692" y1="-58.1367" x2="639.821" y2="-67.3517" stroke="rgb(120,120,120)" />
<line x1="639.821" y1="-67.3517" x2="635.582" y2="-76.8836" stroke="rgb(120,120,120)" />
<line x1="635.582" y1="-76.8836" x2="631.594" y2="-86.5261" stroke="rgb(120,120,120)" />
<line x1="631.594" y1="-86.5261" x2="627.74" y2="-96.214" stroke="rgb(120,120,120)" />
<line x1="627.74" y1="-96.214" x2="624.889" y2="-106.244" stroke="rgb(120,120,120)" />
<line x1="624.889" y1="-106.244" x2="623.025" y2="-116.508" stroke="rgb(120,120,120)" />
<line x1="623.025" y1="-116.508" x2="621.981" y2="-126.89" stroke="rgb(120,120,120)" />
<line x1="621.981" y1="-126.89" x2="617.853" y2="-137.643" stroke="rgb(120,120,120)" />
<line x1="617.853" y1="-137.643" x2="616.625" y2="-149.152" stroke="rgb(120,120,120)" />
<line x1="616.625" y1="-149.152" x2="614.729" y2="-160.572" stroke="rgb(120,120,120)" />
<line x1="614.729" y1="-160.572" x2="609.831" y2="-171.026" stroke="rgb(120,120,120)" />
<line x1="609.831" y1="-171.026" x2="603.001" y2="-164.147" stroke="rgb(120,120,120)" />
<circle cx="609.831" cy="-171.026" r="2" fill="rgb(240, 176, 30)" />
<line x1="603.001" y1="-164.147" x2="593.318" y2="-163.539" stroke="rgb(120,120,120)" />
<line x1="593.318" y1="-163.539" x2="583.38" y2="-165.346" stroke="rgb(120,120,120)" />
<line x1="583.38" y1="-165.346" x2="572.874" y2="-161.781" stroke="rgb(120,120,120)" />
<line x1="572.874" y1="-161.781" x2="563.536" y2="-155.715" stroke="rgb(120,120,120)" />
<line x1="563.536" y1="-155.715" x2="555.312" y2="-148.199" stroke="rgb(120,120,120)" />
<line x1="555.312" y1="-148.199" x2="548.312" y2="-139.545" stroke="rgb(120,120,120)" />
<line x1="548.312" y1="-139.545" x2="542.218" y2="-130.197" stroke="rgb(120,120,120)" />
<line x1="542.218" y1="-130.197" x2="536.329" y2="-120.718" stroke="rgb(120,120,120)" />
<line x1="536.329" y1="-120.718" x2="528.175" y2="-114.27" stroke="rgb(120,120,120)" />
<line x1="528.175" y1="-114.27" x2="518.705" y2="-109.847" stroke="rgb(120,120,120)" />
<line x1="518.705" y1="-109.847" x2="509.763" y2="-104.466" stroke="rgb(120,120,120)" />
<line x1="509.763" y1="-104.466" x2="501.652" y2="-97.8917" stroke="rgb(120,120,120)" />
<line x1="501.652" y1="-97.8917" x2="494.751" y2="-90.1011" stroke="rgb(120,120,120)" />
<line x1="494.751" y1="-90.1011" x2="489.593" y2="-81.0389" stroke="rgb(120,120,120)" />
<line x1="489.593" y1="-81.0389" x2="485.942" y2="-71.2804" stroke="rgb(120,120,120)" />
<line x1="485.942" y1="-71.2804" x2="483.059" y2="-61.2376" stroke="rgb(120,120,120)" />
<line x1="483.059" y1="-61.2376" x2="478.689" y2="-51.8131" stroke="rgb(120,120,120)" />
<line x1="478.689" y1="-51.8131" x2="471.542" y2="-44.383" stroke="rgb(120,120,120)" />
<line x1="471.542" y1="-44.383" x2="468.178" y2="-37.2902" stroke="rgb(120,120,120)" />
<line x1="468.178" y1="-37.2902" x2="464.234" y2="-30.4944" stroke="rgb(120,120,120)" />
<line x1="18.636" y1="110.038" x2="11.7797" y2="118.558" stroke="rgb(120,120,120)" />
<circle cx="18.636" cy="110.038" r="2" fill="rgb(240, 176, 30)" />
<line x1="11.7797" y1="118.558" x2="6.17444" y2="127.918" stroke="rgb(120,120,120)" />
<line x1="6.17444" y1="127.918" x2="2.0538" y2="138.065" stroke="rgb(120,120,120)" />
<line x1="2.0538" y1="138.065" x2="1.56451" y2="149.348" stroke="rgb(120,120,120)" />
<line x1="1.56451" y1="149.348" x2="2.48105" y2="160.463" stroke="rgb(120,120,120)" />
<line x1="2.48105" y1="160.463" x2="5.60297" y2="171.316" stroke="rgb(120,120,120)" />
<line x1="5.60297" y1="171.316" x2="7.62949" y2="182.405" stroke="rgb(120,120,120)" />
<line x1="7.62949" y1="182.405" x2="9.4953" y2="193.53" stroke="rgb(120,120,120)" />
<line x1="9.4953" y1="193.53" x2="12.3745" y2="204.45" stroke="rgb(120,120,120)" />
<line x1="12.3745" y1="204.45" x2="16.1329" y2="215.075" stroke="rgb(120,120,120)" />
<line x1="16.1329" y1="215.075" x2="20.4471" y2="225.511" stroke="rgb(120,120,120)" />
<line x1="20.4471" y1="225.511" x2="26.1957" y2="235.232" stroke="rgb(120,120,120)" />
<line x1="26.1957" y1="235.232" x2="32.3668" y2="244.673" stroke="rgb(120,120,120)" />
<line x1="32.3668" y1="244.673" x2="39.0792" y2="253.755" stroke="rgb(120,120,120)" />
<line x1="39.0792" y1="253.755" x2="46.8513" y2="261.943" stroke="rgb(120,120,120)" />
<line x1="46.8513" y1="261.943" x2="55.4812" y2="269.173" stroke="rgb(120,120,120)" />
<line x1="55.4812" y1="269.173" x2="64.9949" y2="275.167" stroke="rgb(120,120,120)" />
<line x1="64.9949" y1="275.167" x2="75.306" y2="279.688" stroke="rgb(120,120,120)" />
<line x1="75.306" y1="279.688" x2="86.249" y2="282.479" stroke="rgb(120,120,120)" />
<line x1="86.249" y1="282.479" x2="93.175" y2="271.932" stroke="rgb(120,120,120)" />
<line x1="93.175" y1="271.932" x2="99.4302" y2="260.979" stroke="rgb(120,120,120)" />
<line x1="99.4302" y1="260.979" x2="104.868" y2="249.596" stroke="rgb(120,120,120)" />
<line x1="104.868" y1="249.596" x2="105.659" y2="238.574" stroke="rgb(120,120,120)" />
<line x1="105.659" y1="238.574" x2="107.25" y2="227.645" stroke="rgb(120,120,120)" />
<line x1="107.25" y1="227.645" x2="110.105" y2="216.997" stroke="rgb(120,120,120)" />
<line x1="110.105" y1="216.997" x2="114.507" y2="215.837" stroke="rgb(120,120,120)" />
<line x1="114.507" y1="215.837" x2="118.768" y2="226.001" stroke="rgb(120,120,120)" />
<line x1="118.768" y1="226.001" x2="122.537" y2="236.304" stroke="rgb(120,120,120)" />
<line x1="122.537" y1="236.304" x2="128.75" y2="245.42" stroke="rgb(120,120,120)" />
<line x1="128.75" y1="245.42" x2="137.721" y2="251.873" stroke="rgb(120,120,120)" />
<line x1="137.721" y1="251.873" x2="148.181" y2="254.443" stroke="rgb(120,120,120)" />
<line x1="148.181" y1="254.443" x2="159.168" y2="255.635" stroke="rgb(120,120,120)" />
<line x1="159.168" y1="255.635" x2="152.17" y2="244.913" stroke="rgb(120,120,120)" />
<circle cx="159.168" cy="255.635" r="2" fill="rgb(240, 176, 30)" />
<line x1="152.17" y1="244.913" x2="154.947" y2="232.906" stroke="rgb(120,120,120)" />
<line x1="154.947" y1="232.906" x2="155.505" y2="219.043" stroke="rgb(120,120,120)" />
<line x1="155.505" y1="219.043" x2="154.078" y2="205.24" stroke="rgb(120,120,120)" />
<line x1="154.078" y1="205.24" x2="156.381" y2="193.215" stroke="rgb(120,120,120)" />
<line x1="156.381" y1="193.215" x2="161.745" y2="182.305" stroke="rgb(120,120,120)" />
<line x1="161.745" y1="182.305" x2="170.086" y2="173.374" stroke="rgb(120,120,120)" />
<line x1="170.086" y1="173.374" x2="179.92" y2="166.049" stroke="rgb(120,120,120)" />
<line x1="179.92" y1="166.049" x2="190.227" y2="159.396" stroke="rgb(120,120,120)" />
<line x1="190.227" y1="159.396" x2="198.54" y2="150.423" stroke="rgb(120,120,120)" />
<line x1="198.54" y1="150.423" x2="205.565" y2="140.355" stroke="rgb(120,120,120)" />
<line x1="205.565" y1="140.355" x2="213.554" y2="131.071" stroke="rgb(120,120,120)" />
<line x1="213.554" y1="131.071" x2="223.485" y2="123.956" stroke="rgb(120,120,120)" />
<line x1="223.485" y1="123.956" x2="233.952" y2="117.576" stroke="rgb(120,120,120)" />
<line x1="233.952" y1="117.576" x2="245.458" y2="113.335" stroke="rgb(120,120,120)" />
<line x1="245.458" y1="113.335" x2="257.447" y2="110.896" stroke="rgb(120,120,120)" />
<line x1="257.447" y1="110.896" x2="269.699" y2="110.207" stroke="rgb(120,120,120)" />
<line x1="269.699" y1="110.207" x2="281.961" y2="110.568" stroke="rgb(120,120,120)" />
<line x1="281.961" y1="110.568" x2="294.21" y2="111.399" stroke="rgb(120,120,120)" />
<line x1="294.21" y1="111.399" x2="304.766" y2="115.103" stroke="rgb(120,120,120)" />
<line x1="304.766" y1="115.103" x2="297.89" y2="107.587" stroke="rgb(120,120,120)" />
<circle cx="304.766" cy="115.103" r="2" fill="rgb(240, 176, 30)" />
<line x1="297.89" y1="107.587" x2="287.286" y2="101.874" stroke="rgb(120,120,120)" />
<line x1="287.286" y1="101.874" x2="277.988" y2="94.218" stroke="rgb(120,120,120)" />
<line x1="277.988" y1="94.218" x2="269.249" y2="85.9184" stroke="rgb(120,120,120)" />
<line x1="269.249" y1="85.9184" x2="259.945" y2="78.2665" stroke="rgb(120,120,120)" />
<line x1="259.945" y1="78.2665" x2="249.57" y2="72.202" stroke="rgb(120,120,120)" />
<line x1="249.57" y1="72.202" x2="237.968" y2="69.0918" stroke="rgb(120,120,120)" />
<line x1="237.968" y1="69.0918" x2="225.954" y2="69.7163" stroke="rgb(120,120,120)" />
<line x1="225.954" y1="69.7163" x2="216.223" y2="76.6452" stroke="rgb(120,120,120)" />
<line x1="216.223" y1="76.6452" x2="207.238" y2="84.5096" stroke="rgb(120,120,120)" />
<line x1="207.238" y1="84.5096" x2="199.922" y2="75.8809" stroke="rgb(120,120,120)" />
<line x1="199.922" y1="75.8809" x2="193.572" y2="65.7842" stroke="rgb(120,120,120)" />
<line x1="193.572" y1="65.7842" x2="186.725" y2="55.9993" stroke="rgb(120,120,120)" />
<line x1="186.725" y1="55.9993" x2="180.422" y2="45.8541" stroke="rgb(120,120,120)" />
<line x1="180.422" y1="45.8541" x2="174.336" y2="35.5759" stroke="rgb(120,120,120)" />
<line x1="174.336" y1="35.5759" x2="168.134" y2="25.3721" stroke="rgb(120,120,120)" />
<line x1="168.134" y1="25.3721" x2="162.215" y2="15.005" stroke="rgb(120,120,120)" />
<line x1="162.215" y1="15.005" x2="160.611" y2="3.533" stroke="rgb(120,120,120)" />
<line x1="160.611" y1="3.533" x2="159.495" y2="-7.96907" stroke="rgb(120,120,120)" />
<line x1="159.495" y1="-7.96907" x2="160.891" y2="-19.4032" stroke="rgb(120,120,120)" />
<line x1="160.891" y1="-19.4032" x2="164.234" y2="-30.4944" stroke="rgb(120,120,120)" />
<line x1="164.234" y1="-30.4944" x2="153.12" y2="-31.7856" stroke="rgb(120,120,120)" />
<circle cx="164.234" cy="-30.4944" r="2" fill="rgb(240, 176, 30)" />
<line x1="153.12" y1="-31.7856" x2="142.005" y2="-33.0769" stroke="rgb(120,120,120)" />
<line x1="142.005" y1="-33.0769" x2="131.514" y2="-29.4182" stroke="rgb(120,120,120)" />
<line x1="131.514" y1="-29.4182" x2="122.428" y2="-23.2707" stroke="rgb(120,120,120)" />
<line x1="122.428" y1="-23.2707" x2="114.461" y2="-15.4182" stroke="rgb(120,120,120)" />
<line x1="114.461" y1="-15.4182" x2="106.797" y2="-7.26575" stroke="rgb(120,120,120)" />
<line x1="106.797" y1="-7.26575" x2="99.6284" y2="-15.2402" stroke="rgb(120,120,120)" />
<line x1="99.6284" y1="-15.2402" x2="91.29" y2="-22.046" stroke="rgb(120,120,120)" />
<line x1="91.29" y1="-22.046" x2="83.1579" y2="-29.0847" stroke="rgb(120,120,120)" />
<line x1="83.1579" y1="-29.0847" x2="75.4561" y2="-36.596" stroke="rgb(120,120,120)" />
<line x1="75.4561" y1="-36.596" x2="67.137" y2="-43.4256" stroke="rgb(120,120,120)" />
<line x1="67.137" y1="-43.4256" x2="57.2424" y2="-38.3272" stroke="rgb(120,120,120)" />
<line x1="57.2424" y1="-38.3272" x2="48.1028" y2="-32.0474" stroke="rgb(120,120,120)" />
<line x1="48.1028" y1="-32.0474" x2="39.7946" y2="-24.7122" stroke="rgb(120,120,120)" />
<line x1="39.7946" y1="-24.7122" x2="32.6062" y2="-16.2202" stroke="rgb(120,120,120)" />
<line x1="32.6062" y1="-16.2202" x2="26.8399" y2="-6.69936" stroke="rgb(120,120,120)" />
<line x1="26.8399" y1="-6.69936" x2="22.1971" y2="3.39481" stroke="rgb(120,120,120)" />
<line x1="22.1971" y1="3.39481" x2="18.5862" y2="13.8894" stroke="rgb(120,120,120)" />
<line x1="18.5862" y1="13.8894" x2="15.9421" y2="24.6984" stroke="rgb(120,120,120)" />
<line x1="15.9421" y1="24.6984" x2="14.4812" y2="35.733" stroke="rgb(120,120,120)" />
<line x1="14.4812" y1="35.733" x2="12.1599" y2="46.5802" stroke="rgb(120,120,120)" />
<line x1="12.1599" y1="46.5802" x2="8.90018" y2="57.2231" stroke="rgb(120,120,120)" />
<line x1="8.90018" y1="57.2231" x2="8.64038" y2="68.0915" stroke="rgb(120,120,120)" />
<line x1="8.64038" y1="68.0915" x2="9.37299" y2="78.9063" stroke="rgb(120,120,120)" />
<line x1="9.37299" y1="78.9063" x2="11.3423" y2="89.5555" stroke="rgb(120,120,120)" />
<line x1="11.3423" y1="89.5555" x2="14.9283" y2="99.8183" stroke="rgb(120,120,120)" />
<line x1="14.9283" y1="99.8183" x2="18.636" y2="110.038" stroke="rgb(120,120,120)" />
</svg>