<svg xmlns="http://www.w3.org/2000/svg" width="1000" height="1000">
<line x1="353.466" y1="-18.729" x2="366.786" y2="-15.1523" stroke="rgb(120,120,120)" />
<circle cx="353.466" cy="-18.729" r="2" fill="rgb(240, 176, 30)" />
<line x1="366.786" y1="-15.1523" x2="380.069" y2="-16.7892" stroke="rgb(120,120,120)" />
<line x1="380.069" y1="-16.7892" x2="393.669" y2="-16.258" stroke="rgb(120,120,120)" />
<line x1="393.669" y1="-16.258" x2="406.441" y2="-18.9518" stroke="rgb(120,120,120)" />
<line x1="406.441" y1="-18.9518" x2="419.378" y2="-17.9764" stroke="rgb(120,120,120)" />
<line x1="419.378" y1="-17.9764" x2="431.912" y2="-14.2586" stroke="rgb(120,120,120)" />
<line x1="431.912" y1="-14.2586" x2="441.738" y2="-6.14191" stroke="rgb(120,120,120)" />
<line x1="441.738" y1="-6.14191" x2="451.52" y2="-0.80339" stroke="rgb(120,120,120)" />
<line x1="451.52" y1="-0.80339" x2="458.047" y2="8.31529" stroke="rgb(120,120,120)" />
<line x1="458.047" y1="8.31529" x2="463.725" y2="18.0665" stroke="rgb(120,120,120)" />
<line x1="463.725" y1="18.0665" x2="470.599" y2="26.9914" stroke="rgb(120,120,120)" />
<line x1="470.599" y1="26.9914" x2="477.97" y2="35.5395" stroke="rgb(120,120,120)" />
<line x1="477.97" y1="35.5395" x2="480.805" y2="47.6137" stroke="rgb(120,120,120)" />
<line x1="480.805" y1="47.6137" x2="484.756" y2="59.3579" stroke="rgb(120,120,120)" />
<line x1="484.756" y1="59.3579" x2="488.932" y2="71.0362" stroke="rgb(120,120,120)" />
<line x1="488.932" y1="71.0362" x2="493.675" y2="82.4768" stroke="rgb(120,120,120)" />
<line x1="493.675" y1="82.4768" x2="499.015" y2="93.6701" stroke="rgb(120,120,120)" />
<line x1="499.015" y1="93.6701" x2="504.102" y2="104.979" stroke="rgb(120,120,120)" />
<line x1="504.102" y1="104.979" x2="508.611" y2="116.533" stroke="rgb(120,120,120)" />
<line x1="508.611" y1="116.533" x2="509.629" y2="128.851" stroke="rgb(120,120,120)" />
<line x1="509.629" y1="128.851" x2="511.851" y2="141.04" stroke="rgb(120,120,120)" />
<line x1="511.851" y1="141.04" x2="502.788" y2="148.624" stroke="rgb(120,120,120)" />
<line x1="502.788" y1="148.624" x2="492.731" y2="154.827" stroke="rgb(120,120,120)" />
<line x1="492.731" y1="154.827" x2="482.988" y2="161.509" stroke="rgb(120,120,120)" />
<line x1="482.988" y1="161.509" x2="474.054" y2="169.244" stroke="rgb(120,120,120)" />
<line x1="474.054" y1="169.244" x2="483.248" y2="175.458" stroke="rgb(120,120,120)" />
<line x1="483.248" y1="175.458" x2="493.942" y2="178.44" stroke="rgb(120,120,120)" />
<line x1="493.942" y1="178.44" x2="503.516" y2="184.087" stroke="rgb(120,120,120)" />
<line x1="503.516" y1="184.087" x2="512.185" y2="191.067" stroke="rgb(120,120,120)" />
<line x1="512.185" y1="191.067" x2="522.392" y2="195.505" stroke="rgb(120,120,120)" />
<line x1="522.392" y1="195.505" x2="528.554" y2="188.272" stroke="rgb(120,120,120)" />
<circle cx="522.392" cy="195.505" r="2" fill="rgb(240, 176, 30)" />
<line x1="528.554" y1="188.272" x2="538.623" y2="188.409" stroke="rgb(120,120,120)" />
<line x1="538.623" y1="188.409" x2="544.703" y2="179.16" stroke="rgb(120,120,120)" />
<line x1="544.703" y1="179.16" x2="551.213" y2="170.252" stroke="rgb(120,120,120)" />
<line x1="551.213" y1="170.252" x2="561.188" y2="165.98" stroke="rgb(120,120,120)" />
<line x1="561.188" y1="165.98" x2="568.862" y2="173.956" stroke="rgb(120,120,120)" />
<line x1="568.862" y1="173.956" x2="578.423" y2="179.706" stroke="rgb(120,120,120)" />
<line x1="578.423" y1="179.706" x2="588.494" y2="184.508" stroke="rgb(120,120,120)" />
<line x1="588.494" y1="184.508" x2="598.308" y2="189.8" stroke="rgb(120,120,120)" />
<line x1="598.308" y1="189.8" x2="606.775" y2="197.065" stroke="rgb(120,120,120)" />
<line x1="606.775" y1="197.065" x2="615.319" y2="204.239" stroke="rgb(120,120,120)" />
<line x1="615.319" y1="204.239" x2="623.904" y2="211.365" stroke="rgb(120,120,120)" />
<line x1="623.904" y1="211.365" x2="630.12" y2="221.077" stroke="rgb(120,120,120)" />
<line x1="630.12" y1="221.077" x2="635.542" y2="231.24" stroke="rgb(120,120,120)" />
<line x1="635.542" y1="231.24" x2="641.195" y2="241.275" stroke="rgb(120,120,120)" />
<line x1="641.195" y1="241.275" x2="647.711" y2="250.751" stroke="rgb(120,120,120)" />
<line x1="647.711" y1="250.751" x2="655.392" y2="259.351" stroke="rgb(120,120,120)" />
<line x1="655.392" y1="259.351" x2="665.039" y2="252.514" stroke="rgb(120,120,120)" />
<line x1="665.039" y1="252.514" x2="669.072" y2="241.198" stroke="rgb(120,120,120)" />
<line x1="669.072" y1="241.198" x2="670.391" y2="229.232" stroke="rgb(120,120,120)" />
<line x1="670.391" y1="229.232" x2="670.198" y2="217.19" stroke="rgb(120,120,120)" />
<line x1="670.198" y1="217.19" x2="670.307" y2="205.147" stroke="rgb(120,120,120)" />
<line x1="670.307" y1="205.147" x2="668.804" y2="193.2" stroke="rgb(120,120,120)" />
<line x1="668.804" y1="193.2" x2="665.719" y2="181.564" stroke="rgb(120,120,120)" />
<line x1="665.719" y1="181.564" x2="661.845" y2="170.162" stroke="rgb(120,120,120)" />
<line x1="661.845" y1="170.162" x2="657.115" y2="159.089" stroke="rgb(120,120,120)" />
<line x1="657.115" y1="159.089" x2="654.725" y2="147.305" stroke="rgb(120,120,120)" />
<line x1="654.725" y1="147.305" x2="660.412" y2="136.694" stroke="rgb(120,120,120)" />
<line x1="660.412" y1="136.694" x2="669.354" y2="128.712" stroke="rgb(120,120,120)" />
<line x1="669.354" y1="128.712" x2="679.949" y2="123.221" stroke="rgb(120,120,120)" />
<line x1="679.949" y1="123.221" x2="671.717" y2="115.148" stroke="rgb(120,120,120)" />
<circle cx="679.949" cy="123.221" r="2" fill="rgb(240, 176, 30)" />
<line x1="671.717" y1="115.148" x2="662.136" y2="108.83" stroke="rgb(120,120,120)" />
<line x1="662.136" y1="108.83" x2="651.482" y2="104.917" stroke="rgb(120,120,120)" />
<line x1="651.482" y1="104.917" x2="639.985" y2="104.843" stroke="rgb(120,120,120)" />
<line x1="639.985" y1="104.843" x2="628.581" y2="103.826" stroke="rgb(120,120,120)" />
<line x1="628.581" y1="103.826" x2="617.257" y2="101.656" stroke="rgb(120,120,120)" />
<line x1="617.257" y1="101.656" x2="605.939" y2="99.4574" stroke="rgb(120,120,120)" />
<line x1="605.939" y1="99.4574" x2="600.284" y2="90.4291" stroke="rgb(120,120,120)" />
<line x1="600.284" y1="90.4291" x2="596.817" y2="80.4052" stroke="rgb(120,120,120)" />
<line x1="596.817" y1="80.4052" x2="595.132" y2="69.9148" stroke="rgb(120,120,120)" />
<line x1="595.132" y1="69.9148" x2="595.325" y2="59.2894" stroke="rgb(120,120,120)" />
<line x1="595.325" y1="59.2894" x2="591.138" y2="45.5507" stroke="rgb(120,120,120)" />
<line x1="591.138" y1="45.5507" x2="585.057" y2="32.4806" stroke="rgb(120,120,120)" />
<line x1="585.057" y1="32.4806" x2="578.618" y2="19.586" stroke="rgb(120,120,120)" />
<line x1="578.618" y1="19.586" x2="571.484" y2="7.05692" stroke="rgb(120,120,120)" />
<line x1="571.484" y1="7.05692" x2="563.916" y2="-5.21187" stroke="rgb(120,120,120)" />
<line x1="563.916" y1="-5.21187" x2="555.81" y2="-17.1341" stroke="rgb(120,120,120)" />
<line x1="555.81" y1="-17.1341" x2="547.841" y2="-29.1463" stroke="rgb(120,120,120)" />
<line x1="547.841" y1="-29.1463" x2="539.93" y2="-41.2004" stroke="rgb(120,120,120)" />
<line x1="539.93" y1="-41.2004" x2="533.117" y2="-53.8991" stroke="rgb(120,120,120)" />
<line x1="533.117" y1="-53.8991" x2="525.776" y2="-66.3086" stroke="rgb(120,120,120)" />
<line x1="525.776" y1="-66.3086" x2="518.057" y2="-78.4663" stroke="rgb(120,120,120)" />
<line x1="518.057" y1="-78.4663" x2="511.023" y2="-91.013" stroke="rgb(120,120,120)" />
<line x1="511.023" y1="-91.013" x2="499.821" y2="-94.8954" stroke="rgb(120,120,120)" />
<circle cx="511.023" cy="-91.013" r="2" fill="rgb(240, 176, 30)" />
<line x1="499.821" y1="-94.8954" x2="488.619" y2="-98.7779" stroke="rgb(120,120,120)" />
<line x1="488.619" y1="-98.7779" x2="476.925" y2="-99.7871" stroke="rgb(120,120,120)" />
<line x1="476.925" y1="-99.7871" x2="465.074" y2="-99.7915" stroke="rgb(120,120,120)" />
<line x1="465.074" y1="-99.7915" x2="453.329" y2="-98.1711" stroke="rgb(120,120,120)" />
<line x1="453.329" y1="-98.1711" x2="441.758" y2="-95.7838" stroke="rgb(120,120,120)" />
<line x1="441.758" y1="-95.7838" x2="430.455" y2="-92.2061" stroke="rgb(120,120,120)" />
<line x1="430.455" y1="-92.2061" x2="419.466" y2="-87.7993" stroke="rgb(120,120,120)" />
<line x1="419.466" y1="-87.7993" x2="408.63" y2="-82.9901" stroke="rgb(120,120,120)" />
<line x1="408.63" y1="-82.9901" x2="397.113" y2="-80.1787" stroke="rgb(120,120,120)" />
<line x1="397.113" y1="-80.1787" x2="385.793" y2="-76.7095" stroke="rgb(120,120,120)" />
<line x1="385.793" y1="-76.7095" x2="374.625" y2="-72.7315" stroke="rgb(120,120,120)" />
<line x1="374.625" y1="-72.7315" x2="367.281" y2="-63.308" stroke="rgb(120,120,120)" />
<line x1="367.281" y1="-63.308" x2="360.668" y2="-53.3587" stroke="rgb(120,120,120)" />
<line x1="360.668" y1="-53.3587" x2="356.409" y2="-42.3704" stroke="rgb(120,120,120)" />
<line x1="356.409" y1="-42.3704" x2="354.349" y2="-30.6437" stroke="rgb(120,120,120)" />
<line x1="354.349" y1="-30.6437" x2="353.466" y2="-18.729" stroke="rgb(120,120,120)" />
<line x1="-104.091" y1="53.555" x2="-100.351" y2="64.1762" stroke="rgb(120,120,120)" />
<circle cx="-104.091" cy="53.555" r="2" fill="rgb(240, 176, 30)" />
<line x1="-100.351" y1="64.1762" x2="-96.8123" y2="74.8387" stroke="rgb(120,120,120)" />
<line x1="-96.8123" y1="74.8387" x2="-91.3268" y2="84.6674" stroke="rgb(120,120,120)" />
<line x1="-91.3268" y1="84.6674" x2="-85.2366" y2="94.1375" stroke="rgb(120,120,120)" />
<line x1="-85.2366" y1="94.1375" x2="-79.5685" y2="103.865" stroke="rgb(120,120,120)" />
<line x1="-79.5685" y1="103.865" x2="-73.2552" y2="113.189" stroke="rgb(120,120,120)" />
<line x1="-73.2552" y1="113.189" x2="-67.9633" y2="123.13" stroke="rgb(120,120,120)" />
<line x1="-67.9633" y1="123.13" x2="-62.0796" y2="132.732" stroke="rgb(120,120,120)" />
<line x1="-62.0796" y1="132.732" x2="-55.9445" y2="142.176" stroke="rgb(120,120,120)" />
<line x1="-55.9445" y1="142.176" x2="-50.3345" y2="151.936" stroke="rgb(120,120,120)" />
<line x1="-50.3345" y1="151.936" x2="-45.4662" y2="162.085" stroke="rgb(120,120,120)" />
<line x1="-45.4662" y1="162.085" x2="-40.5111" y2="172.197" stroke="rgb(120,120,120)" />
<line x1="-40.5111" y1="172.197" x2="-35.8609" y2="182.452" stroke="rgb(120,120,120)" />
<line x1="-35.8609" y1="182.452" x2="-31.4452" y2="192.812" stroke="rgb(120,120,120)" />
<line x1="-31.4452" y1="192.812" x2="-30.674" y2="204.024" stroke="rgb(120,120,120)" />
<line x1="-30.674" y1="204.024" x2="-33.5398" y2="217.367" stroke="rgb(120,120,120)" />
<line x1="-33.5398" y1="217.367" x2="-33.7422" y2="231.075" stroke="rgb(120,120,120)" />
<line x1="-33.7422" y1="231.075" x2="-28.818" y2="243.734" stroke="rgb(120,120,120)" />
<line x1="-28.818" y1="243.734" x2="-17.8031" y2="247.305" stroke="rgb(120,120,120)" />
<line x1="-17.8031" y1="247.305" x2="-6.37253" y2="249.182" stroke="rgb(120,120,120)" />
<line x1="-6.37253" y1="249.182" x2="5.17795" y2="250.014" stroke="rgb(120,120,120)" />
<line x1="5.17795" y1="250.014" x2="16.6556" y2="248.773" stroke="rgb(120,120,120)" />
<line x1="16.6556" y1="248.773" x2="28.1593" y2="247.428" stroke="rgb(120,120,120)" />
<line x1="28.1593" y1="247.428" x2="39.7252" y2="247.072" stroke="rgb(120,120,120)" />
<line x1="39.7252" y1="247.072" x2="50.3303" y2="251.007" stroke="rgb(120,120,120)" />
<line x1="50.3303" y1="251.007" x2="59.4576" y2="257.529" stroke="rgb(120,120,120)" />
<line x1="59.4576" y1="257.529" x2="64.835" y2="267.789" stroke="rgb(120,120,120)" />
<line x1="64.835" y1="267.789" x2="72.9826" y2="259.044" stroke="rgb(120,120,120)" />
<circle cx="64.835" cy="267.789" r="2" fill="rgb(240, 176, 30)" />
<line x1="72.9826" y1="259.044" x2="79.9185" y2="249.664" stroke="rgb(120,120,120)" />
<line x1="79.9185" y1="249.664" x2="83.4231" y2="238.46" stroke="rgb(120,120,120)" />
<line x1="83.4231" y1="238.46" x2="91.1779" y2="229.365" stroke="rgb(120,120,120)" />
<line x1="91.1779" y1="229.365" x2="98.2341" y2="219.718" stroke="rgb(120,120,120)" />
<line x1="98.2341" y1="219.718" x2="110.261" y2="215.593" stroke="rgb(120,120,120)" />
<line x1="110.261" y1="215.593" x2="122.664" y2="212.938" stroke="rgb(120,120,120)" />
<line x1="122.664" y1="212.938" x2="135.238" y2="211.08" stroke="rgb(120,120,120)" />
<line x1="135.238" y1="211.08" x2="147.861" y2="209.549" stroke="rgb(120,120,120)" />
<line x1="147.861" y1="209.549" x2="160.491" y2="208.086" stroke="rgb(120,120,120)" />
<line x1="160.491" y1="208.086" x2="173.129" y2="206.693" stroke="rgb(120,120,120)" />
<line x1="173.129" y1="206.693" x2="185.763" y2="205.256" stroke="rgb(120,120,120)" />
<line x1="185.763" y1="205.256" x2="198.386" y2="203.731" stroke="rgb(120,120,120)" />
<line x1="198.386" y1="203.731" x2="210.448" y2="199.865" stroke="rgb(120,120,120)" />
<line x1="210.448" y1="199.865" x2="222.392" y2="195.505" stroke="rgb(120,120,120)" />
<line x1="222.392" y1="195.505" x2="210.609" y2="189.814" stroke="rgb(120,120,120)" />
<circle cx="222.392" cy="195.505" r="2" fill="rgb(240, 176, 30)" />
<line x1="210.609" y1="189.814" x2="198.556" y2="184.746" stroke="rgb(120,120,120)" />
<line x1="198.556" y1="184.746" x2="185.565" y2="183.167" stroke="rgb(120,120,120)" />
<line x1="185.565" y1="183.167" x2="172.535" y2="181.963" stroke="rgb(120,120,120)" />
<line x1="172.535" y1="181.963" x2="160.106" y2="177.945" stroke="rgb(120,120,120)" />
<line x1="160.106" y1="177.945" x2="169.64" y2="170.133" stroke="rgb(120,120,120)" />
<line x1="169.64" y1="170.133" x2="179.326" y2="162.513" stroke="rgb(120,120,120)" />
<line x1="179.326" y1="162.513" x2="189.05" y2="154.939" stroke="rgb(120,120,120)" />
<line x1="189.05" y1="154.939" x2="198.546" y2="147.125" stroke="rgb(120,120,120)" />
<line x1="198.546" y1="147.125" x2="206.069" y2="137.361" stroke="rgb(120,120,120)" />
<line x1="206.069" y1="137.361" x2="202.971" y2="125.584" stroke="rgb(120,120,120)" />
<line x1="202.971" y1="125.584" x2="201.643" y2="113.464" stroke="rgb(120,120,120)" />
<line x1="201.643" y1="113.464" x2="194.69" y2="103.491" stroke="rgb(120,120,120)" />
<line x1="194.69" y1="103.491" x2="187.141" y2="93.9202" stroke="rgb(120,120,120)" />
<line x1="187.141" y1="93.9202" x2="180.506" y2="83.7297" stroke="rgb(120,120,120)" />
<line x1="180.506" y1="83.7297" x2="175.191" y2="72.7894" stroke="rgb(120,120,120)" />
<line x1="175.191" y1="72.7894" x2="170.224" y2="61.6721" stroke="rgb(120,120,120)" />
<line x1="170.224" y1="61.6721" x2="164.6" y2="50.8593" stroke="rgb(120,120,120)" />
<line x1="164.6" y1="50.8593" x2="159.689" y2="39.6991" stroke="rgb(120,120,120)" />
<line x1="159.689" y1="39.6991" x2="151.226" y2="32.171" stroke="rgb(120,120,120)" />
<line x1="151.226" y1="32.171" x2="143.432" y2="24.0679" stroke="rgb(120,120,120)" />
<line x1="143.432" y1="24.0679" x2="136.842" y2="14.8627" stroke="rgb(120,120,120)" />
<line x1="136.842" y1="14.8627" x2="128.916" y2="6.8248" stroke="rgb(120,120,120)" />
<line x1="128.916" y1="6.8248" x2="118.262" y2="2.35477" stroke="rgb(120,120,120)" />
<line x1="118.262" y1="2.35477" x2="108.31" y2="-3.54767" stroke="rgb(120,120,120)" />
<line x1="108.31" y1="-3.54767" x2="97.8193" y2="-8.69988" stroke="rgb(120,120,120)" />
<line x1="97.8193" y1="-8.69988" x2="87.374" y2="-13.555" stroke="rgb(120,120,120)" />
<line x1="87.374" y1="-13.555" x2="76.3741" y2="-17.0906" stroke="rgb(120,120,120)" />
<line x1="76.3741" y1="-17.0906" x2="65.1303" y2="-17.7933" stroke="rgb(120,120,120)" />
<line x1="65.1303" y1="-17.7933" x2="53.466" y2="-18.729" stroke="rgb(120,120,120)" />
<line x1="53.466" y1="-18.729" x2="46.4916" y2="-8.24704" stroke="rgb(120,120,120)" />
<circle cx="53.466" cy="-18.729" r="2" fill="rgb(240, 176, 30)" />
<line x1="46.4916" y1="-8.24704" x2="39.8578" y2="2.45294" stroke="rgb(120,120,120)" />
<line x1="39.8578" y1="2.45294" x2="35.8243" y2="14.3713" stroke="rgb(120,120,120)" />
<line x1="35.8243" y1="14.3713" x2="37.1666" y2="26.998" stroke="rgb(120,120,120)" />
<line x1="37.1666" y1="26.998" x2="42.2484" y2="38.6988" stroke="rgb(120,120,120)" />
<line x1="42.2484" y1="38.6988" x2="46.8372" y2="50.5911" stroke="rgb(120,120,120)" />
<line x1="46.8372" y1="50.5911" x2="49.7881" y2="62.9949" stroke="rgb(120,120,120)" />
<line x1="49.7881" y1="62.9949" x2="51.1162" y2="75.6821" stroke="rgb(120,120,120)" />
<line x1="51.1162" y1="75.6821" x2="51.3671" y2="88.437" stroke="rgb(120,120,120)" />
<line x1="51.3671" y1="88.437" x2="51.1149" y2="101.192" stroke="rgb(120,120,120)" />
<line x1="51.1149" y1="101.192" x2="49.6232" y2="113.856" stroke="rgb(120,120,120)" />
<line x1="49.6232" y1="113.856" x2="45.1232" y2="125.75" stroke="rgb(120,120,120)" />
<line x1="45.1232" y1="125.75" x2="34.709" y2="132.725" stroke="rgb(120,120,120)" />
<line x1="34.709" y1="132.725" x2="26.722" y2="123.072" stroke="rgb(120,120,120)" />
<line x1="26.722" y1="123.072" x2="19.8998" y2="112.583" stroke="rgb(120,120,120)" />
<line x1="19.8998" y1="112.583" x2="14.3327" y2="101.387" stroke="rgb(120,120,120)" />
<line x1="14.3327" y1="101.387" x2="8.31186" y2="90.4453" stroke="rgb(120,120,120)" />
<line x1="8.31186" y1="90.4453" x2="0.756317" y2="80.5214" stroke="rgb(120,120,120)" />
<line x1="0.756317" y1="80.5214" x2="-8.6275" y2="72.2809" stroke="rgb(120,120,120)" />
<line x1="-8.6275" y1="72.2809" x2="-18.7265" y2="64.8663" stroke="rgb(120,120,120)" />
<line x1="-18.7265" y1="64.8663" x2="-29.0345" y2="57.7512" stroke="rgb(120,120,120)" />
<line x1="-29.0345" y1="57.7512" x2="-39.6709" y2="51.134" stroke="rgb(120,120,120)" />
<line x1="-39.6709" y1="51.134" x2="-49.1359" y2="42.9913" stroke="rgb(120,120,120)" />
<line x1="-49.1359" y1="42.9913" x2="-58.244" y2="34.3884" stroke="rgb(120,120,120)" />
<line x1="-58.244" y1="34.3884" x2="-71.0443" y2="39.3697" stroke="rgb(120,120,120)" />
<line x1="-71.0443" y1="39.3697" x2="-79.7443" y2="50.3937" stroke="rgb(120,120,120)" />
<line x1="-79.7443" y1="50.3937" x2="-92.3034" y2="51.2977" stroke="rgb(120,120,120)" />
<line x1="-92.3034" y1="51.2977" x2="-104.091" y2="53.555" stroke="rgb(120,120,120)" />
</svg>